; NON-PLATED HOLES START AT T1
; THROUGH (PLATED) HOLES START AT T100
M48
INCH
T1C0.086614
T100C0.038000
T101C0.039370
T102C0.015748
%
T1
X002022Y001924
X022022Y001924
X002022Y017924
T100
X009022Y011924
X007022Y011924
X021022Y017924
X010022Y013924
X008022Y011924
X021022Y015924
X010022Y011924
X019022Y003924
X015022Y016924
X019022Y016924
X017022Y016924
X013022Y016924
X018022Y003924
X014022Y001924
X010022Y014924
X015022Y001924
X017022Y001924
X009022Y009924
X007022Y009924
X020022Y003924
X016022Y001924
X008022Y009924
X021022Y003924
X021022Y016924
X010022Y009924
X015022Y017924
X019022Y017924
X017022Y017924
X013022Y017924
X006022Y013924
X005022Y013924
X015022Y015924
X019022Y015924
X017022Y015924
X013022Y015924
T101
X003022Y010924
X003022Y007924
X006022Y004924
X004022Y001924
X006022Y001924
X001022Y010924
X001022Y007924
X004022Y004924
T102
X012029Y008929
X007568Y013738
X010022Y006924
X012203Y005482
X007771Y007539
T00
M30
