G04 MADE WITH FRITZING*
G04 WWW.FRITZING.ORG*
G04 DOUBLE SIDED*
G04 HOLES PLATED*
G04 CONTOUR ON CENTER OF CONTOUR VECTOR*
%ASAXBY*%
%FSLAX23Y23*%
%MOIN*%
%OFA0B0*%
%SFA1.0B1.0*%
%ADD10C,0.075000*%
%ADD11C,0.070000*%
%ADD12C,0.078000*%
%ADD13C,0.039370*%
%ADD14C,0.024000*%
%LNCOPPER0*%
G90*
G70*
G54D10*
X506Y1247D03*
G54D11*
X120Y623D03*
X120Y523D03*
G54D12*
X720Y123D03*
X820Y123D03*
X320Y623D03*
X320Y523D03*
G54D13*
X820Y223D03*
X220Y223D03*
X420Y1223D03*
X820Y923D03*
X720Y723D03*
X320Y324D03*
G54D14*
X239Y223D02*
X801Y223D01*
D02*
X221Y523D02*
X320Y324D01*
D02*
X221Y724D02*
X221Y523D01*
D02*
X320Y324D02*
X306Y337D01*
D02*
X413Y1205D02*
X221Y724D01*
D02*
X728Y740D02*
X812Y906D01*
G36*
X40Y1299D02*
X40Y1277D01*
X128Y1277D01*
X128Y1275D01*
X136Y1275D01*
X136Y1273D01*
X142Y1273D01*
X142Y1271D01*
X146Y1271D01*
X146Y1269D01*
X148Y1269D01*
X148Y1267D01*
X152Y1267D01*
X152Y1265D01*
X154Y1265D01*
X154Y1263D01*
X156Y1263D01*
X156Y1261D01*
X158Y1261D01*
X158Y1259D01*
X160Y1259D01*
X160Y1257D01*
X162Y1257D01*
X162Y1255D01*
X164Y1255D01*
X164Y1253D01*
X428Y1253D01*
X428Y1251D01*
X432Y1251D01*
X432Y1249D01*
X436Y1249D01*
X436Y1247D01*
X440Y1247D01*
X440Y1245D01*
X442Y1245D01*
X442Y1241D01*
X444Y1241D01*
X444Y1239D01*
X446Y1239D01*
X446Y1235D01*
X448Y1235D01*
X448Y1229D01*
X450Y1229D01*
X450Y1217D01*
X448Y1217D01*
X448Y1211D01*
X446Y1211D01*
X446Y1207D01*
X444Y1207D01*
X444Y1205D01*
X442Y1205D01*
X442Y1203D01*
X440Y1203D01*
X440Y1201D01*
X438Y1201D01*
X438Y1199D01*
X434Y1199D01*
X434Y1197D01*
X432Y1197D01*
X432Y1195D01*
X422Y1195D01*
X422Y1193D01*
X1180Y1193D01*
X1180Y1299D01*
X40Y1299D01*
G37*
D02*
G36*
X40Y1277D02*
X40Y1171D01*
X106Y1171D01*
X106Y1173D01*
X100Y1173D01*
X100Y1175D01*
X96Y1175D01*
X96Y1177D01*
X92Y1177D01*
X92Y1179D01*
X90Y1179D01*
X90Y1181D01*
X86Y1181D01*
X86Y1183D01*
X84Y1183D01*
X84Y1185D01*
X82Y1185D01*
X82Y1187D01*
X80Y1187D01*
X80Y1189D01*
X78Y1189D01*
X78Y1193D01*
X76Y1193D01*
X76Y1195D01*
X74Y1195D01*
X74Y1199D01*
X72Y1199D01*
X72Y1203D01*
X70Y1203D01*
X70Y1209D01*
X68Y1209D01*
X68Y1219D01*
X66Y1219D01*
X66Y1229D01*
X68Y1229D01*
X68Y1239D01*
X70Y1239D01*
X70Y1243D01*
X72Y1243D01*
X72Y1247D01*
X74Y1247D01*
X74Y1251D01*
X76Y1251D01*
X76Y1255D01*
X78Y1255D01*
X78Y1257D01*
X80Y1257D01*
X80Y1259D01*
X82Y1259D01*
X82Y1261D01*
X84Y1261D01*
X84Y1263D01*
X86Y1263D01*
X86Y1265D01*
X88Y1265D01*
X88Y1267D01*
X92Y1267D01*
X92Y1269D01*
X94Y1269D01*
X94Y1271D01*
X98Y1271D01*
X98Y1273D01*
X104Y1273D01*
X104Y1275D01*
X112Y1275D01*
X112Y1277D01*
X40Y1277D01*
G37*
D02*
G36*
X164Y1253D02*
X164Y1251D01*
X166Y1251D01*
X166Y1247D01*
X168Y1247D01*
X168Y1243D01*
X170Y1243D01*
X170Y1239D01*
X172Y1239D01*
X172Y1229D01*
X174Y1229D01*
X174Y1219D01*
X172Y1219D01*
X172Y1209D01*
X170Y1209D01*
X170Y1203D01*
X168Y1203D01*
X168Y1199D01*
X166Y1199D01*
X166Y1195D01*
X164Y1195D01*
X164Y1193D01*
X418Y1193D01*
X418Y1195D01*
X408Y1195D01*
X408Y1197D01*
X406Y1197D01*
X406Y1199D01*
X402Y1199D01*
X402Y1201D01*
X400Y1201D01*
X400Y1203D01*
X398Y1203D01*
X398Y1205D01*
X396Y1205D01*
X396Y1207D01*
X394Y1207D01*
X394Y1211D01*
X392Y1211D01*
X392Y1217D01*
X390Y1217D01*
X390Y1229D01*
X392Y1229D01*
X392Y1235D01*
X394Y1235D01*
X394Y1239D01*
X396Y1239D01*
X396Y1241D01*
X398Y1241D01*
X398Y1245D01*
X400Y1245D01*
X400Y1247D01*
X404Y1247D01*
X404Y1249D01*
X408Y1249D01*
X408Y1251D01*
X412Y1251D01*
X412Y1253D01*
X164Y1253D01*
G37*
D02*
G36*
X162Y1193D02*
X162Y1191D01*
X1180Y1191D01*
X1180Y1193D01*
X162Y1193D01*
G37*
D02*
G36*
X162Y1193D02*
X162Y1191D01*
X1180Y1191D01*
X1180Y1193D01*
X162Y1193D01*
G37*
D02*
G36*
X162Y1191D02*
X162Y1189D01*
X160Y1189D01*
X160Y1187D01*
X158Y1187D01*
X158Y1185D01*
X156Y1185D01*
X156Y1183D01*
X154Y1183D01*
X154Y1181D01*
X150Y1181D01*
X150Y1179D01*
X148Y1179D01*
X148Y1177D01*
X144Y1177D01*
X144Y1175D01*
X140Y1175D01*
X140Y1173D01*
X134Y1173D01*
X134Y1171D01*
X1180Y1171D01*
X1180Y1191D01*
X162Y1191D01*
G37*
D02*
G36*
X40Y1171D02*
X40Y1169D01*
X1180Y1169D01*
X1180Y1171D01*
X40Y1171D01*
G37*
D02*
G36*
X40Y1171D02*
X40Y1169D01*
X1180Y1169D01*
X1180Y1171D01*
X40Y1171D01*
G37*
D02*
G36*
X40Y1169D02*
X40Y953D01*
X828Y953D01*
X828Y951D01*
X832Y951D01*
X832Y949D01*
X836Y949D01*
X836Y947D01*
X840Y947D01*
X840Y945D01*
X842Y945D01*
X842Y941D01*
X844Y941D01*
X844Y939D01*
X846Y939D01*
X846Y935D01*
X848Y935D01*
X848Y929D01*
X850Y929D01*
X850Y917D01*
X848Y917D01*
X848Y911D01*
X846Y911D01*
X846Y907D01*
X844Y907D01*
X844Y905D01*
X842Y905D01*
X842Y903D01*
X840Y903D01*
X840Y901D01*
X838Y901D01*
X838Y899D01*
X834Y899D01*
X834Y897D01*
X832Y897D01*
X832Y895D01*
X830Y895D01*
X830Y893D01*
X828Y893D01*
X828Y889D01*
X826Y889D01*
X826Y885D01*
X824Y885D01*
X824Y881D01*
X822Y881D01*
X822Y877D01*
X820Y877D01*
X820Y873D01*
X818Y873D01*
X818Y869D01*
X816Y869D01*
X816Y865D01*
X814Y865D01*
X814Y861D01*
X812Y861D01*
X812Y857D01*
X810Y857D01*
X810Y853D01*
X808Y853D01*
X808Y849D01*
X806Y849D01*
X806Y845D01*
X804Y845D01*
X804Y841D01*
X802Y841D01*
X802Y837D01*
X800Y837D01*
X800Y833D01*
X798Y833D01*
X798Y829D01*
X796Y829D01*
X796Y825D01*
X794Y825D01*
X794Y821D01*
X792Y821D01*
X792Y817D01*
X790Y817D01*
X790Y813D01*
X788Y813D01*
X788Y809D01*
X786Y809D01*
X786Y805D01*
X784Y805D01*
X784Y801D01*
X782Y801D01*
X782Y797D01*
X780Y797D01*
X780Y793D01*
X778Y793D01*
X778Y789D01*
X776Y789D01*
X776Y785D01*
X774Y785D01*
X774Y781D01*
X772Y781D01*
X772Y777D01*
X770Y777D01*
X770Y773D01*
X768Y773D01*
X768Y769D01*
X766Y769D01*
X766Y765D01*
X764Y765D01*
X764Y761D01*
X762Y761D01*
X762Y757D01*
X760Y757D01*
X760Y753D01*
X758Y753D01*
X758Y749D01*
X756Y749D01*
X756Y745D01*
X754Y745D01*
X754Y741D01*
X752Y741D01*
X752Y737D01*
X750Y737D01*
X750Y717D01*
X748Y717D01*
X748Y711D01*
X746Y711D01*
X746Y707D01*
X744Y707D01*
X744Y705D01*
X742Y705D01*
X742Y703D01*
X740Y703D01*
X740Y701D01*
X738Y701D01*
X738Y699D01*
X734Y699D01*
X734Y697D01*
X732Y697D01*
X732Y695D01*
X722Y695D01*
X722Y693D01*
X1180Y693D01*
X1180Y1169D01*
X40Y1169D01*
G37*
D02*
G36*
X40Y953D02*
X40Y693D01*
X718Y693D01*
X718Y695D01*
X708Y695D01*
X708Y697D01*
X706Y697D01*
X706Y699D01*
X702Y699D01*
X702Y701D01*
X700Y701D01*
X700Y703D01*
X698Y703D01*
X698Y705D01*
X696Y705D01*
X696Y707D01*
X694Y707D01*
X694Y711D01*
X692Y711D01*
X692Y717D01*
X690Y717D01*
X690Y729D01*
X692Y729D01*
X692Y735D01*
X694Y735D01*
X694Y739D01*
X696Y739D01*
X696Y741D01*
X698Y741D01*
X698Y745D01*
X700Y745D01*
X700Y747D01*
X704Y747D01*
X704Y749D01*
X708Y749D01*
X708Y751D01*
X710Y751D01*
X710Y755D01*
X712Y755D01*
X712Y759D01*
X714Y759D01*
X714Y763D01*
X716Y763D01*
X716Y767D01*
X718Y767D01*
X718Y771D01*
X720Y771D01*
X720Y775D01*
X722Y775D01*
X722Y779D01*
X724Y779D01*
X724Y783D01*
X726Y783D01*
X726Y787D01*
X728Y787D01*
X728Y791D01*
X730Y791D01*
X730Y795D01*
X732Y795D01*
X732Y799D01*
X734Y799D01*
X734Y803D01*
X736Y803D01*
X736Y807D01*
X738Y807D01*
X738Y811D01*
X740Y811D01*
X740Y815D01*
X742Y815D01*
X742Y819D01*
X744Y819D01*
X744Y823D01*
X746Y823D01*
X746Y827D01*
X748Y827D01*
X748Y831D01*
X750Y831D01*
X750Y835D01*
X752Y835D01*
X752Y839D01*
X754Y839D01*
X754Y843D01*
X756Y843D01*
X756Y847D01*
X758Y847D01*
X758Y851D01*
X760Y851D01*
X760Y855D01*
X762Y855D01*
X762Y859D01*
X764Y859D01*
X764Y863D01*
X766Y863D01*
X766Y867D01*
X768Y867D01*
X768Y871D01*
X770Y871D01*
X770Y875D01*
X772Y875D01*
X772Y879D01*
X774Y879D01*
X774Y883D01*
X776Y883D01*
X776Y887D01*
X778Y887D01*
X778Y891D01*
X780Y891D01*
X780Y895D01*
X782Y895D01*
X782Y899D01*
X784Y899D01*
X784Y903D01*
X786Y903D01*
X786Y907D01*
X788Y907D01*
X788Y911D01*
X790Y911D01*
X790Y929D01*
X792Y929D01*
X792Y935D01*
X794Y935D01*
X794Y939D01*
X796Y939D01*
X796Y941D01*
X798Y941D01*
X798Y945D01*
X800Y945D01*
X800Y947D01*
X804Y947D01*
X804Y949D01*
X808Y949D01*
X808Y951D01*
X812Y951D01*
X812Y953D01*
X40Y953D01*
G37*
D02*
G36*
X40Y693D02*
X40Y691D01*
X1180Y691D01*
X1180Y693D01*
X40Y693D01*
G37*
D02*
G36*
X40Y693D02*
X40Y691D01*
X1180Y691D01*
X1180Y693D01*
X40Y693D01*
G37*
D02*
G36*
X40Y691D02*
X40Y673D01*
X326Y673D01*
X326Y671D01*
X334Y671D01*
X334Y669D01*
X340Y669D01*
X340Y667D01*
X344Y667D01*
X344Y665D01*
X348Y665D01*
X348Y663D01*
X350Y663D01*
X350Y661D01*
X352Y661D01*
X352Y659D01*
X354Y659D01*
X354Y657D01*
X356Y657D01*
X356Y655D01*
X358Y655D01*
X358Y653D01*
X360Y653D01*
X360Y649D01*
X362Y649D01*
X362Y647D01*
X364Y647D01*
X364Y643D01*
X366Y643D01*
X366Y637D01*
X368Y637D01*
X368Y611D01*
X366Y611D01*
X366Y605D01*
X364Y605D01*
X364Y601D01*
X362Y601D01*
X362Y597D01*
X360Y597D01*
X360Y595D01*
X358Y595D01*
X358Y591D01*
X356Y591D01*
X356Y589D01*
X354Y589D01*
X354Y587D01*
X352Y587D01*
X352Y585D01*
X348Y585D01*
X348Y563D01*
X350Y563D01*
X350Y561D01*
X352Y561D01*
X352Y559D01*
X354Y559D01*
X354Y557D01*
X356Y557D01*
X356Y555D01*
X358Y555D01*
X358Y553D01*
X360Y553D01*
X360Y549D01*
X362Y549D01*
X362Y547D01*
X364Y547D01*
X364Y543D01*
X366Y543D01*
X366Y537D01*
X368Y537D01*
X368Y511D01*
X366Y511D01*
X366Y505D01*
X364Y505D01*
X364Y501D01*
X362Y501D01*
X362Y497D01*
X360Y497D01*
X360Y495D01*
X358Y495D01*
X358Y491D01*
X356Y491D01*
X356Y489D01*
X354Y489D01*
X354Y487D01*
X352Y487D01*
X352Y485D01*
X348Y485D01*
X348Y483D01*
X346Y483D01*
X346Y481D01*
X342Y481D01*
X342Y479D01*
X338Y479D01*
X338Y477D01*
X332Y477D01*
X332Y475D01*
X1180Y475D01*
X1180Y691D01*
X40Y691D01*
G37*
D02*
G36*
X40Y673D02*
X40Y669D01*
X126Y669D01*
X126Y667D01*
X134Y667D01*
X134Y665D01*
X140Y665D01*
X140Y663D01*
X142Y663D01*
X142Y661D01*
X146Y661D01*
X146Y659D01*
X148Y659D01*
X148Y657D01*
X150Y657D01*
X150Y655D01*
X152Y655D01*
X152Y653D01*
X154Y653D01*
X154Y651D01*
X156Y651D01*
X156Y649D01*
X158Y649D01*
X158Y645D01*
X160Y645D01*
X160Y641D01*
X162Y641D01*
X162Y635D01*
X164Y635D01*
X164Y611D01*
X162Y611D01*
X162Y605D01*
X160Y605D01*
X160Y601D01*
X158Y601D01*
X158Y599D01*
X156Y599D01*
X156Y595D01*
X154Y595D01*
X154Y593D01*
X152Y593D01*
X152Y591D01*
X150Y591D01*
X150Y589D01*
X148Y589D01*
X148Y587D01*
X144Y587D01*
X144Y585D01*
X142Y585D01*
X142Y583D01*
X138Y583D01*
X138Y563D01*
X142Y563D01*
X142Y561D01*
X146Y561D01*
X146Y559D01*
X148Y559D01*
X148Y557D01*
X150Y557D01*
X150Y555D01*
X152Y555D01*
X152Y553D01*
X154Y553D01*
X154Y551D01*
X156Y551D01*
X156Y549D01*
X158Y549D01*
X158Y545D01*
X160Y545D01*
X160Y541D01*
X162Y541D01*
X162Y535D01*
X164Y535D01*
X164Y511D01*
X162Y511D01*
X162Y505D01*
X160Y505D01*
X160Y501D01*
X158Y501D01*
X158Y497D01*
X156Y497D01*
X156Y495D01*
X154Y495D01*
X154Y493D01*
X152Y493D01*
X152Y491D01*
X150Y491D01*
X150Y489D01*
X148Y489D01*
X148Y487D01*
X144Y487D01*
X144Y485D01*
X142Y485D01*
X142Y483D01*
X138Y483D01*
X138Y481D01*
X132Y481D01*
X132Y479D01*
X298Y479D01*
X298Y481D01*
X294Y481D01*
X294Y483D01*
X292Y483D01*
X292Y485D01*
X288Y485D01*
X288Y487D01*
X286Y487D01*
X286Y489D01*
X284Y489D01*
X284Y491D01*
X282Y491D01*
X282Y495D01*
X280Y495D01*
X280Y497D01*
X278Y497D01*
X278Y501D01*
X276Y501D01*
X276Y505D01*
X274Y505D01*
X274Y511D01*
X272Y511D01*
X272Y537D01*
X274Y537D01*
X274Y543D01*
X276Y543D01*
X276Y547D01*
X278Y547D01*
X278Y549D01*
X280Y549D01*
X280Y553D01*
X282Y553D01*
X282Y555D01*
X284Y555D01*
X284Y557D01*
X286Y557D01*
X286Y559D01*
X288Y559D01*
X288Y561D01*
X290Y561D01*
X290Y563D01*
X292Y563D01*
X292Y585D01*
X288Y585D01*
X288Y587D01*
X286Y587D01*
X286Y589D01*
X284Y589D01*
X284Y591D01*
X282Y591D01*
X282Y595D01*
X280Y595D01*
X280Y597D01*
X278Y597D01*
X278Y601D01*
X276Y601D01*
X276Y605D01*
X274Y605D01*
X274Y611D01*
X272Y611D01*
X272Y637D01*
X274Y637D01*
X274Y643D01*
X276Y643D01*
X276Y647D01*
X278Y647D01*
X278Y649D01*
X280Y649D01*
X280Y653D01*
X282Y653D01*
X282Y655D01*
X284Y655D01*
X284Y657D01*
X286Y657D01*
X286Y659D01*
X288Y659D01*
X288Y661D01*
X290Y661D01*
X290Y663D01*
X292Y663D01*
X292Y665D01*
X296Y665D01*
X296Y667D01*
X300Y667D01*
X300Y669D01*
X306Y669D01*
X306Y671D01*
X314Y671D01*
X314Y673D01*
X40Y673D01*
G37*
D02*
G36*
X40Y669D02*
X40Y479D01*
X108Y479D01*
X108Y481D01*
X102Y481D01*
X102Y483D01*
X98Y483D01*
X98Y485D01*
X96Y485D01*
X96Y487D01*
X92Y487D01*
X92Y489D01*
X90Y489D01*
X90Y491D01*
X88Y491D01*
X88Y493D01*
X86Y493D01*
X86Y495D01*
X84Y495D01*
X84Y497D01*
X82Y497D01*
X82Y501D01*
X80Y501D01*
X80Y505D01*
X78Y505D01*
X78Y511D01*
X76Y511D01*
X76Y535D01*
X78Y535D01*
X78Y541D01*
X80Y541D01*
X80Y545D01*
X82Y545D01*
X82Y549D01*
X84Y549D01*
X84Y551D01*
X86Y551D01*
X86Y553D01*
X88Y553D01*
X88Y555D01*
X90Y555D01*
X90Y557D01*
X92Y557D01*
X92Y559D01*
X94Y559D01*
X94Y561D01*
X98Y561D01*
X98Y563D01*
X102Y563D01*
X102Y583D01*
X98Y583D01*
X98Y585D01*
X96Y585D01*
X96Y587D01*
X92Y587D01*
X92Y589D01*
X90Y589D01*
X90Y591D01*
X88Y591D01*
X88Y593D01*
X86Y593D01*
X86Y595D01*
X84Y595D01*
X84Y599D01*
X82Y599D01*
X82Y601D01*
X80Y601D01*
X80Y605D01*
X78Y605D01*
X78Y611D01*
X76Y611D01*
X76Y635D01*
X78Y635D01*
X78Y641D01*
X80Y641D01*
X80Y645D01*
X82Y645D01*
X82Y649D01*
X84Y649D01*
X84Y651D01*
X86Y651D01*
X86Y653D01*
X88Y653D01*
X88Y655D01*
X90Y655D01*
X90Y657D01*
X92Y657D01*
X92Y659D01*
X94Y659D01*
X94Y661D01*
X98Y661D01*
X98Y663D01*
X100Y663D01*
X100Y665D01*
X106Y665D01*
X106Y667D01*
X114Y667D01*
X114Y669D01*
X40Y669D01*
G37*
D02*
G36*
X40Y479D02*
X40Y477D01*
X302Y477D01*
X302Y479D01*
X40Y479D01*
G37*
D02*
G36*
X40Y479D02*
X40Y477D01*
X302Y477D01*
X302Y479D01*
X40Y479D01*
G37*
D02*
G36*
X40Y477D02*
X40Y475D01*
X308Y475D01*
X308Y477D01*
X40Y477D01*
G37*
D02*
G36*
X40Y475D02*
X40Y473D01*
X1180Y473D01*
X1180Y475D01*
X40Y475D01*
G37*
D02*
G36*
X40Y475D02*
X40Y473D01*
X1180Y473D01*
X1180Y475D01*
X40Y475D01*
G37*
D02*
G36*
X40Y473D02*
X40Y353D01*
X330Y353D01*
X330Y351D01*
X334Y351D01*
X334Y349D01*
X338Y349D01*
X338Y347D01*
X340Y347D01*
X340Y345D01*
X342Y345D01*
X342Y343D01*
X344Y343D01*
X344Y339D01*
X346Y339D01*
X346Y335D01*
X348Y335D01*
X348Y325D01*
X350Y325D01*
X350Y323D01*
X348Y323D01*
X348Y313D01*
X346Y313D01*
X346Y309D01*
X344Y309D01*
X344Y307D01*
X342Y307D01*
X342Y303D01*
X338Y303D01*
X338Y301D01*
X336Y301D01*
X336Y299D01*
X332Y299D01*
X332Y297D01*
X328Y297D01*
X328Y295D01*
X1180Y295D01*
X1180Y473D01*
X40Y473D01*
G37*
D02*
G36*
X40Y353D02*
X40Y295D01*
X312Y295D01*
X312Y297D01*
X306Y297D01*
X306Y299D01*
X302Y299D01*
X302Y301D01*
X300Y301D01*
X300Y303D01*
X298Y303D01*
X298Y305D01*
X296Y305D01*
X296Y307D01*
X294Y307D01*
X294Y311D01*
X292Y311D01*
X292Y317D01*
X290Y317D01*
X290Y331D01*
X292Y331D01*
X292Y337D01*
X294Y337D01*
X294Y341D01*
X296Y341D01*
X296Y343D01*
X298Y343D01*
X298Y345D01*
X300Y345D01*
X300Y347D01*
X302Y347D01*
X302Y349D01*
X304Y349D01*
X304Y351D01*
X310Y351D01*
X310Y353D01*
X40Y353D01*
G37*
D02*
G36*
X40Y295D02*
X40Y293D01*
X1180Y293D01*
X1180Y295D01*
X40Y295D01*
G37*
D02*
G36*
X40Y295D02*
X40Y293D01*
X1180Y293D01*
X1180Y295D01*
X40Y295D01*
G37*
D02*
G36*
X40Y293D02*
X40Y253D01*
X828Y253D01*
X828Y251D01*
X832Y251D01*
X832Y249D01*
X836Y249D01*
X836Y247D01*
X840Y247D01*
X840Y245D01*
X842Y245D01*
X842Y241D01*
X844Y241D01*
X844Y239D01*
X846Y239D01*
X846Y235D01*
X848Y235D01*
X848Y229D01*
X850Y229D01*
X850Y217D01*
X848Y217D01*
X848Y211D01*
X846Y211D01*
X846Y207D01*
X844Y207D01*
X844Y205D01*
X842Y205D01*
X842Y203D01*
X840Y203D01*
X840Y201D01*
X838Y201D01*
X838Y199D01*
X834Y199D01*
X834Y197D01*
X832Y197D01*
X832Y195D01*
X822Y195D01*
X822Y193D01*
X1180Y193D01*
X1180Y293D01*
X40Y293D01*
G37*
D02*
G36*
X40Y253D02*
X40Y193D01*
X218Y193D01*
X218Y195D01*
X208Y195D01*
X208Y197D01*
X206Y197D01*
X206Y199D01*
X202Y199D01*
X202Y201D01*
X200Y201D01*
X200Y203D01*
X198Y203D01*
X198Y205D01*
X196Y205D01*
X196Y207D01*
X194Y207D01*
X194Y211D01*
X192Y211D01*
X192Y217D01*
X190Y217D01*
X190Y229D01*
X192Y229D01*
X192Y235D01*
X194Y235D01*
X194Y239D01*
X196Y239D01*
X196Y241D01*
X198Y241D01*
X198Y245D01*
X200Y245D01*
X200Y247D01*
X204Y247D01*
X204Y249D01*
X208Y249D01*
X208Y251D01*
X212Y251D01*
X212Y253D01*
X40Y253D01*
G37*
D02*
G36*
X228Y253D02*
X228Y251D01*
X232Y251D01*
X232Y249D01*
X236Y249D01*
X236Y247D01*
X240Y247D01*
X240Y245D01*
X800Y245D01*
X800Y247D01*
X804Y247D01*
X804Y249D01*
X808Y249D01*
X808Y251D01*
X812Y251D01*
X812Y253D01*
X228Y253D01*
G37*
D02*
G36*
X238Y201D02*
X238Y199D01*
X234Y199D01*
X234Y197D01*
X232Y197D01*
X232Y195D01*
X222Y195D01*
X222Y193D01*
X818Y193D01*
X818Y195D01*
X808Y195D01*
X808Y197D01*
X806Y197D01*
X806Y199D01*
X802Y199D01*
X802Y201D01*
X238Y201D01*
G37*
D02*
G36*
X40Y193D02*
X40Y191D01*
X1180Y191D01*
X1180Y193D01*
X40Y193D01*
G37*
D02*
G36*
X40Y193D02*
X40Y191D01*
X1180Y191D01*
X1180Y193D01*
X40Y193D01*
G37*
D02*
G36*
X40Y193D02*
X40Y191D01*
X1180Y191D01*
X1180Y193D01*
X40Y193D01*
G37*
D02*
G36*
X40Y191D02*
X40Y177D01*
X128Y177D01*
X128Y175D01*
X136Y175D01*
X136Y173D01*
X826Y173D01*
X826Y171D01*
X834Y171D01*
X834Y169D01*
X840Y169D01*
X840Y167D01*
X844Y167D01*
X844Y165D01*
X848Y165D01*
X848Y163D01*
X850Y163D01*
X850Y161D01*
X852Y161D01*
X852Y159D01*
X854Y159D01*
X854Y157D01*
X856Y157D01*
X856Y155D01*
X858Y155D01*
X858Y153D01*
X860Y153D01*
X860Y149D01*
X862Y149D01*
X862Y147D01*
X864Y147D01*
X864Y143D01*
X866Y143D01*
X866Y137D01*
X868Y137D01*
X868Y111D01*
X866Y111D01*
X866Y105D01*
X864Y105D01*
X864Y101D01*
X862Y101D01*
X862Y97D01*
X860Y97D01*
X860Y95D01*
X858Y95D01*
X858Y91D01*
X856Y91D01*
X856Y89D01*
X854Y89D01*
X854Y87D01*
X852Y87D01*
X852Y85D01*
X848Y85D01*
X848Y83D01*
X846Y83D01*
X846Y81D01*
X842Y81D01*
X842Y79D01*
X838Y79D01*
X838Y77D01*
X832Y77D01*
X832Y75D01*
X1180Y75D01*
X1180Y191D01*
X40Y191D01*
G37*
D02*
G36*
X40Y177D02*
X40Y71D01*
X106Y71D01*
X106Y73D01*
X100Y73D01*
X100Y75D01*
X96Y75D01*
X96Y77D01*
X92Y77D01*
X92Y79D01*
X90Y79D01*
X90Y81D01*
X86Y81D01*
X86Y83D01*
X84Y83D01*
X84Y85D01*
X82Y85D01*
X82Y87D01*
X80Y87D01*
X80Y89D01*
X78Y89D01*
X78Y93D01*
X76Y93D01*
X76Y95D01*
X74Y95D01*
X74Y99D01*
X72Y99D01*
X72Y103D01*
X70Y103D01*
X70Y109D01*
X68Y109D01*
X68Y119D01*
X66Y119D01*
X66Y129D01*
X68Y129D01*
X68Y139D01*
X70Y139D01*
X70Y143D01*
X72Y143D01*
X72Y147D01*
X74Y147D01*
X74Y151D01*
X76Y151D01*
X76Y155D01*
X78Y155D01*
X78Y157D01*
X80Y157D01*
X80Y159D01*
X82Y159D01*
X82Y161D01*
X84Y161D01*
X84Y163D01*
X86Y163D01*
X86Y165D01*
X88Y165D01*
X88Y167D01*
X92Y167D01*
X92Y169D01*
X94Y169D01*
X94Y171D01*
X98Y171D01*
X98Y173D01*
X104Y173D01*
X104Y175D01*
X112Y175D01*
X112Y177D01*
X40Y177D01*
G37*
D02*
G36*
X142Y173D02*
X142Y171D01*
X146Y171D01*
X146Y169D01*
X148Y169D01*
X148Y167D01*
X152Y167D01*
X152Y165D01*
X154Y165D01*
X154Y163D01*
X156Y163D01*
X156Y161D01*
X158Y161D01*
X158Y159D01*
X160Y159D01*
X160Y157D01*
X162Y157D01*
X162Y155D01*
X164Y155D01*
X164Y151D01*
X166Y151D01*
X166Y147D01*
X168Y147D01*
X168Y143D01*
X170Y143D01*
X170Y139D01*
X172Y139D01*
X172Y129D01*
X174Y129D01*
X174Y119D01*
X172Y119D01*
X172Y109D01*
X170Y109D01*
X170Y103D01*
X168Y103D01*
X168Y99D01*
X166Y99D01*
X166Y95D01*
X164Y95D01*
X164Y93D01*
X162Y93D01*
X162Y89D01*
X160Y89D01*
X160Y87D01*
X158Y87D01*
X158Y85D01*
X156Y85D01*
X156Y83D01*
X154Y83D01*
X154Y81D01*
X150Y81D01*
X150Y79D01*
X148Y79D01*
X148Y77D01*
X144Y77D01*
X144Y75D01*
X708Y75D01*
X708Y77D01*
X702Y77D01*
X702Y79D01*
X698Y79D01*
X698Y81D01*
X694Y81D01*
X694Y83D01*
X692Y83D01*
X692Y85D01*
X688Y85D01*
X688Y87D01*
X686Y87D01*
X686Y89D01*
X684Y89D01*
X684Y91D01*
X682Y91D01*
X682Y95D01*
X680Y95D01*
X680Y97D01*
X678Y97D01*
X678Y101D01*
X676Y101D01*
X676Y105D01*
X674Y105D01*
X674Y111D01*
X672Y111D01*
X672Y137D01*
X674Y137D01*
X674Y143D01*
X676Y143D01*
X676Y147D01*
X678Y147D01*
X678Y149D01*
X680Y149D01*
X680Y153D01*
X682Y153D01*
X682Y155D01*
X684Y155D01*
X684Y157D01*
X686Y157D01*
X686Y159D01*
X688Y159D01*
X688Y161D01*
X690Y161D01*
X690Y163D01*
X692Y163D01*
X692Y165D01*
X696Y165D01*
X696Y167D01*
X700Y167D01*
X700Y169D01*
X706Y169D01*
X706Y171D01*
X714Y171D01*
X714Y173D01*
X142Y173D01*
G37*
D02*
G36*
X726Y173D02*
X726Y171D01*
X734Y171D01*
X734Y169D01*
X740Y169D01*
X740Y167D01*
X744Y167D01*
X744Y165D01*
X748Y165D01*
X748Y163D01*
X750Y163D01*
X750Y161D01*
X752Y161D01*
X752Y159D01*
X754Y159D01*
X754Y157D01*
X756Y157D01*
X756Y155D01*
X758Y155D01*
X758Y153D01*
X760Y153D01*
X760Y149D01*
X780Y149D01*
X780Y153D01*
X782Y153D01*
X782Y155D01*
X784Y155D01*
X784Y157D01*
X786Y157D01*
X786Y159D01*
X788Y159D01*
X788Y161D01*
X790Y161D01*
X790Y163D01*
X792Y163D01*
X792Y165D01*
X796Y165D01*
X796Y167D01*
X800Y167D01*
X800Y169D01*
X806Y169D01*
X806Y171D01*
X814Y171D01*
X814Y173D01*
X726Y173D01*
G37*
D02*
G36*
X760Y97D02*
X760Y95D01*
X758Y95D01*
X758Y91D01*
X756Y91D01*
X756Y89D01*
X754Y89D01*
X754Y87D01*
X752Y87D01*
X752Y85D01*
X748Y85D01*
X748Y83D01*
X746Y83D01*
X746Y81D01*
X742Y81D01*
X742Y79D01*
X738Y79D01*
X738Y77D01*
X732Y77D01*
X732Y75D01*
X808Y75D01*
X808Y77D01*
X802Y77D01*
X802Y79D01*
X798Y79D01*
X798Y81D01*
X794Y81D01*
X794Y83D01*
X792Y83D01*
X792Y85D01*
X788Y85D01*
X788Y87D01*
X786Y87D01*
X786Y89D01*
X784Y89D01*
X784Y91D01*
X782Y91D01*
X782Y95D01*
X780Y95D01*
X780Y97D01*
X760Y97D01*
G37*
D02*
G36*
X140Y75D02*
X140Y73D01*
X1180Y73D01*
X1180Y75D01*
X140Y75D01*
G37*
D02*
G36*
X140Y75D02*
X140Y73D01*
X1180Y73D01*
X1180Y75D01*
X140Y75D01*
G37*
D02*
G36*
X140Y75D02*
X140Y73D01*
X1180Y73D01*
X1180Y75D01*
X140Y75D01*
G37*
D02*
G36*
X134Y73D02*
X134Y71D01*
X1180Y71D01*
X1180Y73D01*
X134Y73D01*
G37*
D02*
G36*
X40Y71D02*
X40Y69D01*
X1180Y69D01*
X1180Y71D01*
X40Y71D01*
G37*
D02*
G36*
X40Y71D02*
X40Y69D01*
X1180Y69D01*
X1180Y71D01*
X40Y71D01*
G37*
D02*
G36*
X40Y69D02*
X40Y41D01*
X1180Y41D01*
X1180Y69D01*
X40Y69D01*
G37*
D02*
G36*
X97Y511D02*
X138Y511D01*
X138Y479D01*
X97Y479D01*
X97Y511D01*
G37*
D02*
G36*
X72Y546D02*
X102Y546D01*
X102Y505D01*
X72Y505D01*
X72Y546D01*
G37*
D02*
G36*
X695Y107D02*
X740Y107D01*
X740Y75D01*
X695Y75D01*
X695Y107D01*
G37*
D02*
G36*
X668Y148D02*
X698Y148D01*
X698Y103D01*
X668Y103D01*
X668Y148D01*
G37*
D02*
G36*
X336Y548D02*
X368Y548D01*
X368Y503D01*
X336Y503D01*
X336Y548D01*
G37*
D02*
G36*
X305Y319D02*
X330Y319D01*
X330Y295D01*
X305Y295D01*
X305Y319D01*
G37*
D02*
G36*
X324Y338D02*
X350Y338D01*
X350Y313D01*
X324Y313D01*
X324Y338D01*
G37*
D02*
G36*
X405Y1257D02*
X430Y1257D01*
X430Y1233D01*
X405Y1233D01*
X405Y1257D01*
G37*
D02*
G36*
X386Y1238D02*
X410Y1238D01*
X410Y1213D01*
X386Y1213D01*
X386Y1238D01*
G37*
D02*
G36*
X424Y1238D02*
X450Y1238D01*
X450Y1213D01*
X424Y1213D01*
X424Y1238D01*
G37*
D02*
G04 End of Copper0*
M02*