G04 MADE WITH FRITZING*
G04 WWW.FRITZING.ORG*
G04 DOUBLE SIDED*
G04 HOLES PLATED*
G04 CONTOUR ON CENTER OF CONTOUR VECTOR*
%ASAXBY*%
%FSLAX23Y23*%
%MOIN*%
%OFA0B0*%
%SFA1.0B1.0*%
%ADD10C,0.080000*%
%ADD11C,0.088000*%
%ADD12C,0.049370*%
%ADD13C,0.096614*%
%ADD14R,0.034000X0.097000*%
%ADD15R,0.191102X0.049370*%
%ADD16R,0.143858X0.072992*%
%ADD17R,0.053307X0.057244*%
%ADD18R,0.059208X0.088736*%
%ADD19R,0.059222X0.088736*%
%ADD20R,0.069055X0.065118*%
%ADD21C,0.010000*%
%LNMASK1*%
G90*
G70*
G54D10*
X120Y623D03*
X120Y523D03*
G54D11*
X720Y123D03*
X820Y123D03*
X320Y623D03*
X320Y523D03*
G54D12*
X820Y223D03*
X220Y223D03*
X420Y1223D03*
X820Y923D03*
X720Y723D03*
G54D13*
X120Y123D03*
X120Y1223D03*
G54D12*
X320Y324D03*
G54D14*
X620Y417D03*
X570Y623D03*
X670Y623D03*
X670Y417D03*
X620Y623D03*
X720Y417D03*
X720Y623D03*
X570Y417D03*
G54D15*
X920Y1123D03*
X920Y1044D03*
G54D16*
X1125Y1218D03*
X1125Y950D03*
G54D17*
X520Y1023D03*
X520Y1090D03*
G54D18*
X820Y423D03*
G54D19*
X948Y423D03*
G54D20*
X120Y323D03*
X120Y404D03*
X820Y623D03*
X820Y542D03*
G54D21*
G36*
X472Y353D02*
X430Y311D01*
X391Y350D01*
X433Y392D01*
X472Y353D01*
G37*
D02*
G36*
X529Y296D02*
X487Y254D01*
X449Y293D01*
X490Y335D01*
X529Y296D01*
G37*
D02*
G36*
X598Y1047D02*
X642Y1047D01*
X642Y999D01*
X598Y999D01*
X598Y1047D01*
G37*
D02*
G36*
X598Y1114D02*
X642Y1114D01*
X642Y1066D01*
X598Y1066D01*
X598Y1114D01*
G37*
D02*
G04 End of Mask1*
M02*