G04 MADE WITH FRITZING*
G04 WWW.FRITZING.ORG*
G04 DOUBLE SIDED*
G04 HOLES PLATED*
G04 CONTOUR ON CENTER OF CONTOUR VECTOR*
%ASAXBY*%
%FSLAX23Y23*%
%MOIN*%
%OFA0B0*%
%SFA1.0B1.0*%
%ADD10C,0.019307X0.00330708*%
%ADD11R,0.007611X0.078250*%
%ADD12R,0.007625X0.078250*%
%ADD13C,0.010000*%
%ADD14C,0.008000*%
%ADD15R,0.001000X0.001000*%
%LNSILK1*%
G90*
G70*
G54D10*
X574Y481D03*
G54D11*
X857Y423D03*
G54D12*
X880Y423D03*
G54D13*
X670Y73D02*
X870Y73D01*
D02*
X870Y73D02*
X870Y173D01*
D02*
X870Y173D02*
X670Y173D01*
D02*
X670Y173D02*
X670Y73D01*
D02*
X270Y673D02*
X270Y473D01*
D02*
X270Y473D02*
X370Y473D01*
D02*
X370Y473D02*
X370Y673D01*
D02*
X370Y673D02*
X270Y673D01*
G54D14*
D02*
X1026Y1241D02*
X889Y1241D01*
D02*
X889Y1241D02*
X889Y1210D01*
D02*
X889Y1210D02*
X987Y1210D01*
D02*
X987Y1210D02*
X987Y1162D01*
D02*
X987Y1005D02*
X987Y958D01*
D02*
X987Y958D02*
X889Y958D01*
D02*
X889Y958D02*
X889Y926D01*
D02*
X889Y926D02*
X1026Y926D01*
D02*
X1184Y1005D02*
X1184Y1162D01*
G54D15*
X0Y1339D02*
X1219Y1339D01*
X0Y1338D02*
X1219Y1338D01*
X0Y1337D02*
X1219Y1337D01*
X0Y1336D02*
X1219Y1336D01*
X0Y1335D02*
X1219Y1335D01*
X0Y1334D02*
X1219Y1334D01*
X0Y1333D02*
X1219Y1333D01*
X0Y1332D02*
X1219Y1332D01*
X0Y1331D02*
X7Y1331D01*
X1212Y1331D02*
X1219Y1331D01*
X0Y1330D02*
X7Y1330D01*
X1212Y1330D02*
X1219Y1330D01*
X0Y1329D02*
X7Y1329D01*
X1212Y1329D02*
X1219Y1329D01*
X0Y1328D02*
X7Y1328D01*
X1212Y1328D02*
X1219Y1328D01*
X0Y1327D02*
X7Y1327D01*
X1212Y1327D02*
X1219Y1327D01*
X0Y1326D02*
X7Y1326D01*
X1212Y1326D02*
X1219Y1326D01*
X0Y1325D02*
X7Y1325D01*
X1212Y1325D02*
X1219Y1325D01*
X0Y1324D02*
X7Y1324D01*
X1212Y1324D02*
X1219Y1324D01*
X0Y1323D02*
X7Y1323D01*
X1212Y1323D02*
X1219Y1323D01*
X0Y1322D02*
X7Y1322D01*
X1212Y1322D02*
X1219Y1322D01*
X0Y1321D02*
X7Y1321D01*
X1212Y1321D02*
X1219Y1321D01*
X0Y1320D02*
X7Y1320D01*
X1212Y1320D02*
X1219Y1320D01*
X0Y1319D02*
X7Y1319D01*
X1212Y1319D02*
X1219Y1319D01*
X0Y1318D02*
X7Y1318D01*
X1212Y1318D02*
X1219Y1318D01*
X0Y1317D02*
X7Y1317D01*
X1212Y1317D02*
X1219Y1317D01*
X0Y1316D02*
X7Y1316D01*
X1212Y1316D02*
X1219Y1316D01*
X0Y1315D02*
X7Y1315D01*
X1212Y1315D02*
X1219Y1315D01*
X0Y1314D02*
X7Y1314D01*
X1212Y1314D02*
X1219Y1314D01*
X0Y1313D02*
X7Y1313D01*
X1212Y1313D02*
X1219Y1313D01*
X0Y1312D02*
X7Y1312D01*
X1212Y1312D02*
X1219Y1312D01*
X0Y1311D02*
X7Y1311D01*
X1212Y1311D02*
X1219Y1311D01*
X0Y1310D02*
X7Y1310D01*
X1212Y1310D02*
X1219Y1310D01*
X0Y1309D02*
X7Y1309D01*
X1212Y1309D02*
X1219Y1309D01*
X0Y1308D02*
X7Y1308D01*
X1212Y1308D02*
X1219Y1308D01*
X0Y1307D02*
X7Y1307D01*
X1212Y1307D02*
X1219Y1307D01*
X0Y1306D02*
X7Y1306D01*
X1212Y1306D02*
X1219Y1306D01*
X0Y1305D02*
X7Y1305D01*
X1212Y1305D02*
X1219Y1305D01*
X0Y1304D02*
X7Y1304D01*
X1212Y1304D02*
X1219Y1304D01*
X0Y1303D02*
X7Y1303D01*
X1212Y1303D02*
X1219Y1303D01*
X0Y1302D02*
X7Y1302D01*
X1212Y1302D02*
X1219Y1302D01*
X0Y1301D02*
X7Y1301D01*
X1212Y1301D02*
X1219Y1301D01*
X0Y1300D02*
X7Y1300D01*
X1212Y1300D02*
X1219Y1300D01*
X0Y1299D02*
X7Y1299D01*
X1212Y1299D02*
X1219Y1299D01*
X0Y1298D02*
X7Y1298D01*
X1212Y1298D02*
X1219Y1298D01*
X0Y1297D02*
X7Y1297D01*
X1212Y1297D02*
X1219Y1297D01*
X0Y1296D02*
X7Y1296D01*
X1212Y1296D02*
X1219Y1296D01*
X0Y1295D02*
X7Y1295D01*
X1212Y1295D02*
X1219Y1295D01*
X0Y1294D02*
X7Y1294D01*
X1212Y1294D02*
X1219Y1294D01*
X0Y1293D02*
X7Y1293D01*
X1212Y1293D02*
X1219Y1293D01*
X0Y1292D02*
X7Y1292D01*
X1212Y1292D02*
X1219Y1292D01*
X0Y1291D02*
X7Y1291D01*
X1212Y1291D02*
X1219Y1291D01*
X0Y1290D02*
X7Y1290D01*
X1212Y1290D02*
X1219Y1290D01*
X0Y1289D02*
X7Y1289D01*
X1212Y1289D02*
X1219Y1289D01*
X0Y1288D02*
X7Y1288D01*
X1212Y1288D02*
X1219Y1288D01*
X0Y1287D02*
X7Y1287D01*
X1212Y1287D02*
X1219Y1287D01*
X0Y1286D02*
X7Y1286D01*
X1212Y1286D02*
X1219Y1286D01*
X0Y1285D02*
X7Y1285D01*
X1212Y1285D02*
X1219Y1285D01*
X0Y1284D02*
X7Y1284D01*
X1212Y1284D02*
X1219Y1284D01*
X0Y1283D02*
X7Y1283D01*
X1212Y1283D02*
X1219Y1283D01*
X0Y1282D02*
X7Y1282D01*
X1212Y1282D02*
X1219Y1282D01*
X0Y1281D02*
X7Y1281D01*
X1212Y1281D02*
X1219Y1281D01*
X0Y1280D02*
X7Y1280D01*
X1212Y1280D02*
X1219Y1280D01*
X0Y1279D02*
X7Y1279D01*
X1212Y1279D02*
X1219Y1279D01*
X0Y1278D02*
X7Y1278D01*
X1212Y1278D02*
X1219Y1278D01*
X0Y1277D02*
X7Y1277D01*
X1212Y1277D02*
X1219Y1277D01*
X0Y1276D02*
X7Y1276D01*
X1212Y1276D02*
X1219Y1276D01*
X0Y1275D02*
X7Y1275D01*
X1212Y1275D02*
X1219Y1275D01*
X0Y1274D02*
X7Y1274D01*
X1212Y1274D02*
X1219Y1274D01*
X0Y1273D02*
X7Y1273D01*
X1212Y1273D02*
X1219Y1273D01*
X0Y1272D02*
X7Y1272D01*
X1212Y1272D02*
X1219Y1272D01*
X0Y1271D02*
X7Y1271D01*
X1212Y1271D02*
X1219Y1271D01*
X0Y1270D02*
X7Y1270D01*
X1212Y1270D02*
X1219Y1270D01*
X0Y1269D02*
X7Y1269D01*
X1212Y1269D02*
X1219Y1269D01*
X0Y1268D02*
X7Y1268D01*
X1212Y1268D02*
X1219Y1268D01*
X0Y1267D02*
X7Y1267D01*
X1212Y1267D02*
X1219Y1267D01*
X0Y1266D02*
X7Y1266D01*
X1212Y1266D02*
X1219Y1266D01*
X0Y1265D02*
X7Y1265D01*
X1212Y1265D02*
X1219Y1265D01*
X0Y1264D02*
X7Y1264D01*
X1212Y1264D02*
X1219Y1264D01*
X0Y1263D02*
X7Y1263D01*
X1212Y1263D02*
X1219Y1263D01*
X0Y1262D02*
X7Y1262D01*
X1212Y1262D02*
X1219Y1262D01*
X0Y1261D02*
X7Y1261D01*
X1212Y1261D02*
X1219Y1261D01*
X0Y1260D02*
X7Y1260D01*
X1212Y1260D02*
X1219Y1260D01*
X0Y1259D02*
X7Y1259D01*
X1212Y1259D02*
X1219Y1259D01*
X0Y1258D02*
X7Y1258D01*
X1212Y1258D02*
X1219Y1258D01*
X0Y1257D02*
X7Y1257D01*
X1212Y1257D02*
X1219Y1257D01*
X0Y1256D02*
X7Y1256D01*
X1212Y1256D02*
X1219Y1256D01*
X0Y1255D02*
X7Y1255D01*
X1212Y1255D02*
X1219Y1255D01*
X0Y1254D02*
X7Y1254D01*
X1212Y1254D02*
X1219Y1254D01*
X0Y1253D02*
X7Y1253D01*
X1212Y1253D02*
X1219Y1253D01*
X0Y1252D02*
X7Y1252D01*
X1212Y1252D02*
X1219Y1252D01*
X0Y1251D02*
X7Y1251D01*
X1212Y1251D02*
X1219Y1251D01*
X0Y1250D02*
X7Y1250D01*
X1212Y1250D02*
X1219Y1250D01*
X0Y1249D02*
X7Y1249D01*
X1212Y1249D02*
X1219Y1249D01*
X0Y1248D02*
X7Y1248D01*
X1212Y1248D02*
X1219Y1248D01*
X0Y1247D02*
X7Y1247D01*
X1212Y1247D02*
X1219Y1247D01*
X0Y1246D02*
X7Y1246D01*
X1212Y1246D02*
X1219Y1246D01*
X0Y1245D02*
X7Y1245D01*
X1212Y1245D02*
X1219Y1245D01*
X0Y1244D02*
X7Y1244D01*
X1212Y1244D02*
X1219Y1244D01*
X0Y1243D02*
X7Y1243D01*
X1212Y1243D02*
X1219Y1243D01*
X0Y1242D02*
X7Y1242D01*
X1212Y1242D02*
X1219Y1242D01*
X0Y1241D02*
X7Y1241D01*
X1212Y1241D02*
X1219Y1241D01*
X0Y1240D02*
X7Y1240D01*
X1212Y1240D02*
X1219Y1240D01*
X0Y1239D02*
X7Y1239D01*
X1212Y1239D02*
X1219Y1239D01*
X0Y1238D02*
X7Y1238D01*
X1212Y1238D02*
X1219Y1238D01*
X0Y1237D02*
X7Y1237D01*
X1212Y1237D02*
X1219Y1237D01*
X0Y1236D02*
X7Y1236D01*
X1212Y1236D02*
X1219Y1236D01*
X0Y1235D02*
X7Y1235D01*
X1212Y1235D02*
X1219Y1235D01*
X0Y1234D02*
X7Y1234D01*
X1212Y1234D02*
X1219Y1234D01*
X0Y1233D02*
X7Y1233D01*
X1212Y1233D02*
X1219Y1233D01*
X0Y1232D02*
X7Y1232D01*
X1212Y1232D02*
X1219Y1232D01*
X0Y1231D02*
X7Y1231D01*
X1212Y1231D02*
X1219Y1231D01*
X0Y1230D02*
X7Y1230D01*
X1212Y1230D02*
X1219Y1230D01*
X0Y1229D02*
X7Y1229D01*
X1212Y1229D02*
X1219Y1229D01*
X0Y1228D02*
X7Y1228D01*
X1212Y1228D02*
X1219Y1228D01*
X0Y1227D02*
X7Y1227D01*
X1212Y1227D02*
X1219Y1227D01*
X0Y1226D02*
X7Y1226D01*
X1212Y1226D02*
X1219Y1226D01*
X0Y1225D02*
X7Y1225D01*
X1212Y1225D02*
X1219Y1225D01*
X0Y1224D02*
X7Y1224D01*
X1212Y1224D02*
X1219Y1224D01*
X0Y1223D02*
X7Y1223D01*
X1212Y1223D02*
X1219Y1223D01*
X0Y1222D02*
X7Y1222D01*
X1212Y1222D02*
X1219Y1222D01*
X0Y1221D02*
X7Y1221D01*
X1212Y1221D02*
X1219Y1221D01*
X0Y1220D02*
X7Y1220D01*
X1212Y1220D02*
X1219Y1220D01*
X0Y1219D02*
X7Y1219D01*
X1212Y1219D02*
X1219Y1219D01*
X0Y1218D02*
X7Y1218D01*
X1212Y1218D02*
X1219Y1218D01*
X0Y1217D02*
X7Y1217D01*
X1212Y1217D02*
X1219Y1217D01*
X0Y1216D02*
X7Y1216D01*
X1212Y1216D02*
X1219Y1216D01*
X0Y1215D02*
X7Y1215D01*
X1212Y1215D02*
X1219Y1215D01*
X0Y1214D02*
X7Y1214D01*
X1212Y1214D02*
X1219Y1214D01*
X0Y1213D02*
X7Y1213D01*
X1212Y1213D02*
X1219Y1213D01*
X0Y1212D02*
X7Y1212D01*
X1212Y1212D02*
X1219Y1212D01*
X0Y1211D02*
X7Y1211D01*
X1212Y1211D02*
X1219Y1211D01*
X0Y1210D02*
X7Y1210D01*
X1212Y1210D02*
X1219Y1210D01*
X0Y1209D02*
X7Y1209D01*
X1212Y1209D02*
X1219Y1209D01*
X0Y1208D02*
X7Y1208D01*
X1212Y1208D02*
X1219Y1208D01*
X0Y1207D02*
X7Y1207D01*
X1212Y1207D02*
X1219Y1207D01*
X0Y1206D02*
X7Y1206D01*
X1212Y1206D02*
X1219Y1206D01*
X0Y1205D02*
X7Y1205D01*
X1212Y1205D02*
X1219Y1205D01*
X0Y1204D02*
X7Y1204D01*
X1212Y1204D02*
X1219Y1204D01*
X0Y1203D02*
X7Y1203D01*
X1212Y1203D02*
X1219Y1203D01*
X0Y1202D02*
X7Y1202D01*
X1212Y1202D02*
X1219Y1202D01*
X0Y1201D02*
X7Y1201D01*
X1212Y1201D02*
X1219Y1201D01*
X0Y1200D02*
X7Y1200D01*
X1212Y1200D02*
X1219Y1200D01*
X0Y1199D02*
X7Y1199D01*
X1212Y1199D02*
X1219Y1199D01*
X0Y1198D02*
X7Y1198D01*
X1212Y1198D02*
X1219Y1198D01*
X0Y1197D02*
X7Y1197D01*
X1212Y1197D02*
X1219Y1197D01*
X0Y1196D02*
X7Y1196D01*
X1212Y1196D02*
X1219Y1196D01*
X0Y1195D02*
X7Y1195D01*
X1212Y1195D02*
X1219Y1195D01*
X0Y1194D02*
X7Y1194D01*
X1212Y1194D02*
X1219Y1194D01*
X0Y1193D02*
X7Y1193D01*
X1212Y1193D02*
X1219Y1193D01*
X0Y1192D02*
X7Y1192D01*
X1212Y1192D02*
X1219Y1192D01*
X0Y1191D02*
X7Y1191D01*
X1212Y1191D02*
X1219Y1191D01*
X0Y1190D02*
X7Y1190D01*
X1212Y1190D02*
X1219Y1190D01*
X0Y1189D02*
X7Y1189D01*
X1212Y1189D02*
X1219Y1189D01*
X0Y1188D02*
X7Y1188D01*
X1212Y1188D02*
X1219Y1188D01*
X0Y1187D02*
X7Y1187D01*
X1212Y1187D02*
X1219Y1187D01*
X0Y1186D02*
X7Y1186D01*
X1212Y1186D02*
X1219Y1186D01*
X0Y1185D02*
X7Y1185D01*
X1212Y1185D02*
X1219Y1185D01*
X0Y1184D02*
X7Y1184D01*
X1212Y1184D02*
X1219Y1184D01*
X0Y1183D02*
X7Y1183D01*
X1212Y1183D02*
X1219Y1183D01*
X0Y1182D02*
X7Y1182D01*
X1212Y1182D02*
X1219Y1182D01*
X0Y1181D02*
X7Y1181D01*
X1212Y1181D02*
X1219Y1181D01*
X0Y1180D02*
X7Y1180D01*
X1212Y1180D02*
X1219Y1180D01*
X0Y1179D02*
X7Y1179D01*
X1212Y1179D02*
X1219Y1179D01*
X0Y1178D02*
X7Y1178D01*
X1212Y1178D02*
X1219Y1178D01*
X0Y1177D02*
X7Y1177D01*
X1212Y1177D02*
X1219Y1177D01*
X0Y1176D02*
X7Y1176D01*
X1212Y1176D02*
X1219Y1176D01*
X0Y1175D02*
X7Y1175D01*
X1212Y1175D02*
X1219Y1175D01*
X0Y1174D02*
X7Y1174D01*
X1212Y1174D02*
X1219Y1174D01*
X0Y1173D02*
X7Y1173D01*
X1212Y1173D02*
X1219Y1173D01*
X0Y1172D02*
X7Y1172D01*
X1212Y1172D02*
X1219Y1172D01*
X0Y1171D02*
X7Y1171D01*
X1212Y1171D02*
X1219Y1171D01*
X0Y1170D02*
X7Y1170D01*
X1212Y1170D02*
X1219Y1170D01*
X0Y1169D02*
X7Y1169D01*
X1212Y1169D02*
X1219Y1169D01*
X0Y1168D02*
X7Y1168D01*
X1212Y1168D02*
X1219Y1168D01*
X0Y1167D02*
X7Y1167D01*
X1212Y1167D02*
X1219Y1167D01*
X0Y1166D02*
X7Y1166D01*
X341Y1166D02*
X360Y1166D01*
X1212Y1166D02*
X1219Y1166D01*
X0Y1165D02*
X7Y1165D01*
X339Y1165D02*
X361Y1165D01*
X1212Y1165D02*
X1219Y1165D01*
X0Y1164D02*
X7Y1164D01*
X339Y1164D02*
X362Y1164D01*
X1212Y1164D02*
X1219Y1164D01*
X0Y1163D02*
X7Y1163D01*
X339Y1163D02*
X362Y1163D01*
X1212Y1163D02*
X1219Y1163D01*
X0Y1162D02*
X7Y1162D01*
X339Y1162D02*
X362Y1162D01*
X1212Y1162D02*
X1219Y1162D01*
X0Y1161D02*
X7Y1161D01*
X339Y1161D02*
X362Y1161D01*
X1212Y1161D02*
X1219Y1161D01*
X0Y1160D02*
X7Y1160D01*
X340Y1160D02*
X362Y1160D01*
X1212Y1160D02*
X1219Y1160D01*
X0Y1159D02*
X7Y1159D01*
X356Y1159D02*
X362Y1159D01*
X1212Y1159D02*
X1219Y1159D01*
X0Y1158D02*
X7Y1158D01*
X356Y1158D02*
X362Y1158D01*
X1212Y1158D02*
X1219Y1158D01*
X0Y1157D02*
X7Y1157D01*
X356Y1157D02*
X362Y1157D01*
X1212Y1157D02*
X1219Y1157D01*
X0Y1156D02*
X7Y1156D01*
X356Y1156D02*
X362Y1156D01*
X1212Y1156D02*
X1219Y1156D01*
X0Y1155D02*
X7Y1155D01*
X356Y1155D02*
X362Y1155D01*
X1212Y1155D02*
X1219Y1155D01*
X0Y1154D02*
X7Y1154D01*
X356Y1154D02*
X362Y1154D01*
X1212Y1154D02*
X1219Y1154D01*
X0Y1153D02*
X7Y1153D01*
X356Y1153D02*
X362Y1153D01*
X1212Y1153D02*
X1219Y1153D01*
X0Y1152D02*
X7Y1152D01*
X309Y1152D02*
X362Y1152D01*
X1212Y1152D02*
X1219Y1152D01*
X0Y1151D02*
X7Y1151D01*
X309Y1151D02*
X362Y1151D01*
X1212Y1151D02*
X1219Y1151D01*
X0Y1150D02*
X7Y1150D01*
X309Y1150D02*
X362Y1150D01*
X1212Y1150D02*
X1219Y1150D01*
X0Y1149D02*
X7Y1149D01*
X309Y1149D02*
X362Y1149D01*
X1212Y1149D02*
X1219Y1149D01*
X0Y1148D02*
X7Y1148D01*
X309Y1148D02*
X362Y1148D01*
X1212Y1148D02*
X1219Y1148D01*
X0Y1147D02*
X7Y1147D01*
X309Y1147D02*
X362Y1147D01*
X1212Y1147D02*
X1219Y1147D01*
X0Y1146D02*
X7Y1146D01*
X309Y1146D02*
X362Y1146D01*
X1212Y1146D02*
X1219Y1146D01*
X0Y1145D02*
X7Y1145D01*
X309Y1145D02*
X315Y1145D01*
X356Y1145D02*
X362Y1145D01*
X1212Y1145D02*
X1219Y1145D01*
X0Y1144D02*
X7Y1144D01*
X309Y1144D02*
X315Y1144D01*
X356Y1144D02*
X362Y1144D01*
X1212Y1144D02*
X1219Y1144D01*
X0Y1143D02*
X7Y1143D01*
X309Y1143D02*
X315Y1143D01*
X356Y1143D02*
X362Y1143D01*
X1212Y1143D02*
X1219Y1143D01*
X0Y1142D02*
X7Y1142D01*
X309Y1142D02*
X315Y1142D01*
X356Y1142D02*
X362Y1142D01*
X1212Y1142D02*
X1219Y1142D01*
X0Y1141D02*
X7Y1141D01*
X309Y1141D02*
X315Y1141D01*
X356Y1141D02*
X362Y1141D01*
X1212Y1141D02*
X1219Y1141D01*
X0Y1140D02*
X7Y1140D01*
X309Y1140D02*
X315Y1140D01*
X356Y1140D02*
X362Y1140D01*
X1212Y1140D02*
X1219Y1140D01*
X0Y1139D02*
X7Y1139D01*
X309Y1139D02*
X315Y1139D01*
X356Y1139D02*
X362Y1139D01*
X1212Y1139D02*
X1219Y1139D01*
X0Y1138D02*
X7Y1138D01*
X309Y1138D02*
X315Y1138D01*
X356Y1138D02*
X362Y1138D01*
X1212Y1138D02*
X1219Y1138D01*
X0Y1137D02*
X7Y1137D01*
X309Y1137D02*
X315Y1137D01*
X356Y1137D02*
X362Y1137D01*
X1212Y1137D02*
X1219Y1137D01*
X0Y1136D02*
X7Y1136D01*
X309Y1136D02*
X315Y1136D01*
X356Y1136D02*
X362Y1136D01*
X1026Y1136D02*
X1049Y1136D01*
X1212Y1136D02*
X1219Y1136D01*
X0Y1135D02*
X7Y1135D01*
X309Y1135D02*
X315Y1135D01*
X356Y1135D02*
X362Y1135D01*
X1026Y1135D02*
X1052Y1135D01*
X1212Y1135D02*
X1219Y1135D01*
X0Y1134D02*
X7Y1134D01*
X309Y1134D02*
X315Y1134D01*
X356Y1134D02*
X362Y1134D01*
X1026Y1134D02*
X1053Y1134D01*
X1212Y1134D02*
X1219Y1134D01*
X0Y1133D02*
X7Y1133D01*
X310Y1133D02*
X314Y1133D01*
X357Y1133D02*
X361Y1133D01*
X1026Y1133D02*
X1054Y1133D01*
X1134Y1133D02*
X1137Y1133D01*
X1212Y1133D02*
X1219Y1133D01*
X0Y1132D02*
X7Y1132D01*
X311Y1132D02*
X313Y1132D01*
X358Y1132D02*
X360Y1132D01*
X1026Y1132D02*
X1055Y1132D01*
X1133Y1132D02*
X1138Y1132D01*
X1212Y1132D02*
X1219Y1132D01*
X0Y1131D02*
X7Y1131D01*
X665Y1131D02*
X687Y1131D01*
X710Y1131D02*
X713Y1131D01*
X1026Y1131D02*
X1056Y1131D01*
X1133Y1131D02*
X1139Y1131D01*
X1212Y1131D02*
X1219Y1131D01*
X0Y1130D02*
X7Y1130D01*
X664Y1130D02*
X688Y1130D01*
X709Y1130D02*
X714Y1130D01*
X1026Y1130D02*
X1057Y1130D01*
X1133Y1130D02*
X1139Y1130D01*
X1212Y1130D02*
X1219Y1130D01*
X0Y1129D02*
X7Y1129D01*
X663Y1129D02*
X689Y1129D01*
X709Y1129D02*
X714Y1129D01*
X1026Y1129D02*
X1032Y1129D01*
X1049Y1129D02*
X1058Y1129D01*
X1133Y1129D02*
X1139Y1129D01*
X1212Y1129D02*
X1219Y1129D01*
X0Y1128D02*
X7Y1128D01*
X662Y1128D02*
X690Y1128D01*
X708Y1128D02*
X714Y1128D01*
X1026Y1128D02*
X1032Y1128D01*
X1051Y1128D02*
X1058Y1128D01*
X1133Y1128D02*
X1139Y1128D01*
X1212Y1128D02*
X1219Y1128D01*
X0Y1127D02*
X7Y1127D01*
X662Y1127D02*
X690Y1127D01*
X708Y1127D02*
X714Y1127D01*
X1026Y1127D02*
X1032Y1127D01*
X1052Y1127D02*
X1058Y1127D01*
X1133Y1127D02*
X1139Y1127D01*
X1212Y1127D02*
X1219Y1127D01*
X0Y1126D02*
X7Y1126D01*
X661Y1126D02*
X691Y1126D01*
X708Y1126D02*
X714Y1126D01*
X1026Y1126D02*
X1032Y1126D01*
X1052Y1126D02*
X1059Y1126D01*
X1133Y1126D02*
X1139Y1126D01*
X1212Y1126D02*
X1219Y1126D01*
X0Y1125D02*
X7Y1125D01*
X661Y1125D02*
X691Y1125D01*
X708Y1125D02*
X714Y1125D01*
X1026Y1125D02*
X1032Y1125D01*
X1053Y1125D02*
X1059Y1125D01*
X1133Y1125D02*
X1139Y1125D01*
X1212Y1125D02*
X1219Y1125D01*
X0Y1124D02*
X7Y1124D01*
X661Y1124D02*
X667Y1124D01*
X685Y1124D02*
X691Y1124D01*
X708Y1124D02*
X714Y1124D01*
X1026Y1124D02*
X1032Y1124D01*
X1053Y1124D02*
X1059Y1124D01*
X1133Y1124D02*
X1139Y1124D01*
X1212Y1124D02*
X1219Y1124D01*
X0Y1123D02*
X7Y1123D01*
X661Y1123D02*
X667Y1123D01*
X685Y1123D02*
X691Y1123D01*
X708Y1123D02*
X714Y1123D01*
X1026Y1123D02*
X1032Y1123D01*
X1053Y1123D02*
X1059Y1123D01*
X1133Y1123D02*
X1139Y1123D01*
X1212Y1123D02*
X1219Y1123D01*
X0Y1122D02*
X7Y1122D01*
X490Y1122D02*
X548Y1122D01*
X590Y1122D02*
X648Y1122D01*
X661Y1122D02*
X667Y1122D01*
X685Y1122D02*
X691Y1122D01*
X708Y1122D02*
X714Y1122D01*
X1026Y1122D02*
X1032Y1122D01*
X1053Y1122D02*
X1059Y1122D01*
X1086Y1122D02*
X1098Y1122D01*
X1129Y1122D02*
X1152Y1122D01*
X1212Y1122D02*
X1219Y1122D01*
X0Y1121D02*
X7Y1121D01*
X490Y1121D02*
X548Y1121D01*
X590Y1121D02*
X648Y1121D01*
X661Y1121D02*
X667Y1121D01*
X685Y1121D02*
X691Y1121D01*
X708Y1121D02*
X714Y1121D01*
X1026Y1121D02*
X1032Y1121D01*
X1053Y1121D02*
X1059Y1121D01*
X1084Y1121D02*
X1102Y1121D01*
X1127Y1121D02*
X1155Y1121D01*
X1212Y1121D02*
X1219Y1121D01*
X0Y1120D02*
X7Y1120D01*
X490Y1120D02*
X548Y1120D01*
X590Y1120D02*
X648Y1120D01*
X661Y1120D02*
X667Y1120D01*
X685Y1120D02*
X691Y1120D01*
X708Y1120D02*
X714Y1120D01*
X1026Y1120D02*
X1032Y1120D01*
X1053Y1120D02*
X1059Y1120D01*
X1083Y1120D02*
X1104Y1120D01*
X1126Y1120D02*
X1156Y1120D01*
X1212Y1120D02*
X1219Y1120D01*
X0Y1119D02*
X7Y1119D01*
X490Y1119D02*
X492Y1119D01*
X546Y1119D02*
X548Y1119D01*
X590Y1119D02*
X592Y1119D01*
X646Y1119D02*
X648Y1119D01*
X661Y1119D02*
X667Y1119D01*
X685Y1119D02*
X691Y1119D01*
X708Y1119D02*
X714Y1119D01*
X1026Y1119D02*
X1032Y1119D01*
X1053Y1119D02*
X1059Y1119D01*
X1083Y1119D02*
X1105Y1119D01*
X1126Y1119D02*
X1156Y1119D01*
X1212Y1119D02*
X1219Y1119D01*
X0Y1118D02*
X7Y1118D01*
X490Y1118D02*
X492Y1118D01*
X546Y1118D02*
X548Y1118D01*
X590Y1118D02*
X592Y1118D01*
X646Y1118D02*
X648Y1118D01*
X661Y1118D02*
X667Y1118D01*
X685Y1118D02*
X691Y1118D01*
X708Y1118D02*
X714Y1118D01*
X1026Y1118D02*
X1032Y1118D01*
X1053Y1118D02*
X1059Y1118D01*
X1083Y1118D02*
X1106Y1118D01*
X1126Y1118D02*
X1156Y1118D01*
X1212Y1118D02*
X1219Y1118D01*
X0Y1117D02*
X7Y1117D01*
X490Y1117D02*
X492Y1117D01*
X546Y1117D02*
X548Y1117D01*
X590Y1117D02*
X592Y1117D01*
X646Y1117D02*
X648Y1117D01*
X661Y1117D02*
X667Y1117D01*
X685Y1117D02*
X691Y1117D01*
X708Y1117D02*
X714Y1117D01*
X1026Y1117D02*
X1032Y1117D01*
X1052Y1117D02*
X1059Y1117D01*
X1083Y1117D02*
X1107Y1117D01*
X1126Y1117D02*
X1156Y1117D01*
X1212Y1117D02*
X1219Y1117D01*
X0Y1116D02*
X7Y1116D01*
X336Y1116D02*
X336Y1116D01*
X490Y1116D02*
X492Y1116D01*
X546Y1116D02*
X548Y1116D01*
X590Y1116D02*
X592Y1116D01*
X646Y1116D02*
X648Y1116D01*
X661Y1116D02*
X667Y1116D01*
X685Y1116D02*
X691Y1116D01*
X708Y1116D02*
X714Y1116D01*
X1026Y1116D02*
X1032Y1116D01*
X1052Y1116D02*
X1058Y1116D01*
X1084Y1116D02*
X1107Y1116D01*
X1127Y1116D02*
X1155Y1116D01*
X1212Y1116D02*
X1219Y1116D01*
X0Y1115D02*
X7Y1115D01*
X331Y1115D02*
X340Y1115D01*
X490Y1115D02*
X492Y1115D01*
X546Y1115D02*
X548Y1115D01*
X590Y1115D02*
X592Y1115D01*
X646Y1115D02*
X648Y1115D01*
X661Y1115D02*
X667Y1115D01*
X685Y1115D02*
X691Y1115D01*
X708Y1115D02*
X714Y1115D01*
X1026Y1115D02*
X1032Y1115D01*
X1051Y1115D02*
X1058Y1115D01*
X1099Y1115D02*
X1108Y1115D01*
X1132Y1115D02*
X1139Y1115D01*
X1212Y1115D02*
X1219Y1115D01*
X0Y1114D02*
X7Y1114D01*
X328Y1114D02*
X343Y1114D01*
X490Y1114D02*
X492Y1114D01*
X546Y1114D02*
X548Y1114D01*
X590Y1114D02*
X592Y1114D01*
X646Y1114D02*
X648Y1114D01*
X661Y1114D02*
X667Y1114D01*
X685Y1114D02*
X691Y1114D01*
X708Y1114D02*
X714Y1114D01*
X1026Y1114D02*
X1032Y1114D01*
X1049Y1114D02*
X1058Y1114D01*
X1101Y1114D02*
X1108Y1114D01*
X1133Y1114D02*
X1139Y1114D01*
X1212Y1114D02*
X1219Y1114D01*
X0Y1113D02*
X7Y1113D01*
X326Y1113D02*
X345Y1113D01*
X490Y1113D02*
X492Y1113D01*
X546Y1113D02*
X548Y1113D01*
X590Y1113D02*
X592Y1113D01*
X646Y1113D02*
X648Y1113D01*
X661Y1113D02*
X667Y1113D01*
X685Y1113D02*
X691Y1113D01*
X708Y1113D02*
X714Y1113D01*
X1026Y1113D02*
X1057Y1113D01*
X1102Y1113D02*
X1108Y1113D01*
X1133Y1113D02*
X1139Y1113D01*
X1212Y1113D02*
X1219Y1113D01*
X0Y1112D02*
X7Y1112D01*
X324Y1112D02*
X347Y1112D01*
X490Y1112D02*
X492Y1112D01*
X546Y1112D02*
X548Y1112D01*
X590Y1112D02*
X592Y1112D01*
X646Y1112D02*
X648Y1112D01*
X661Y1112D02*
X667Y1112D01*
X685Y1112D02*
X691Y1112D01*
X708Y1112D02*
X714Y1112D01*
X1026Y1112D02*
X1056Y1112D01*
X1102Y1112D02*
X1108Y1112D01*
X1133Y1112D02*
X1139Y1112D01*
X1212Y1112D02*
X1219Y1112D01*
X0Y1111D02*
X7Y1111D01*
X322Y1111D02*
X349Y1111D01*
X490Y1111D02*
X492Y1111D01*
X546Y1111D02*
X548Y1111D01*
X590Y1111D02*
X592Y1111D01*
X646Y1111D02*
X648Y1111D01*
X661Y1111D02*
X667Y1111D01*
X685Y1111D02*
X691Y1111D01*
X708Y1111D02*
X714Y1111D01*
X1026Y1111D02*
X1056Y1111D01*
X1102Y1111D02*
X1108Y1111D01*
X1133Y1111D02*
X1139Y1111D01*
X1212Y1111D02*
X1219Y1111D01*
X0Y1110D02*
X7Y1110D01*
X320Y1110D02*
X351Y1110D01*
X490Y1110D02*
X492Y1110D01*
X546Y1110D02*
X548Y1110D01*
X590Y1110D02*
X592Y1110D01*
X646Y1110D02*
X648Y1110D01*
X661Y1110D02*
X667Y1110D01*
X685Y1110D02*
X691Y1110D01*
X708Y1110D02*
X714Y1110D01*
X1026Y1110D02*
X1055Y1110D01*
X1102Y1110D02*
X1109Y1110D01*
X1133Y1110D02*
X1139Y1110D01*
X1212Y1110D02*
X1219Y1110D01*
X0Y1109D02*
X7Y1109D01*
X318Y1109D02*
X353Y1109D01*
X490Y1109D02*
X492Y1109D01*
X546Y1109D02*
X548Y1109D01*
X590Y1109D02*
X592Y1109D01*
X646Y1109D02*
X648Y1109D01*
X661Y1109D02*
X667Y1109D01*
X685Y1109D02*
X691Y1109D01*
X708Y1109D02*
X714Y1109D01*
X1026Y1109D02*
X1055Y1109D01*
X1103Y1109D02*
X1109Y1109D01*
X1133Y1109D02*
X1139Y1109D01*
X1212Y1109D02*
X1219Y1109D01*
X0Y1108D02*
X7Y1108D01*
X316Y1108D02*
X331Y1108D01*
X340Y1108D02*
X355Y1108D01*
X490Y1108D02*
X492Y1108D01*
X546Y1108D02*
X548Y1108D01*
X590Y1108D02*
X592Y1108D01*
X646Y1108D02*
X648Y1108D01*
X661Y1108D02*
X667Y1108D01*
X685Y1108D02*
X691Y1108D01*
X708Y1108D02*
X714Y1108D01*
X1026Y1108D02*
X1056Y1108D01*
X1103Y1108D02*
X1109Y1108D01*
X1133Y1108D02*
X1139Y1108D01*
X1212Y1108D02*
X1219Y1108D01*
X0Y1107D02*
X7Y1107D01*
X315Y1107D02*
X329Y1107D01*
X342Y1107D02*
X357Y1107D01*
X490Y1107D02*
X492Y1107D01*
X546Y1107D02*
X548Y1107D01*
X590Y1107D02*
X592Y1107D01*
X646Y1107D02*
X648Y1107D01*
X661Y1107D02*
X667Y1107D01*
X685Y1107D02*
X691Y1107D01*
X708Y1107D02*
X714Y1107D01*
X1026Y1107D02*
X1057Y1107D01*
X1084Y1107D02*
X1109Y1107D01*
X1133Y1107D02*
X1139Y1107D01*
X1212Y1107D02*
X1219Y1107D01*
X0Y1106D02*
X7Y1106D01*
X313Y1106D02*
X327Y1106D01*
X344Y1106D02*
X358Y1106D01*
X490Y1106D02*
X492Y1106D01*
X546Y1106D02*
X548Y1106D01*
X590Y1106D02*
X592Y1106D01*
X646Y1106D02*
X648Y1106D01*
X661Y1106D02*
X667Y1106D01*
X685Y1106D02*
X691Y1106D01*
X708Y1106D02*
X714Y1106D01*
X1026Y1106D02*
X1032Y1106D01*
X1048Y1106D02*
X1057Y1106D01*
X1081Y1106D02*
X1109Y1106D01*
X1133Y1106D02*
X1139Y1106D01*
X1212Y1106D02*
X1219Y1106D01*
X0Y1105D02*
X7Y1105D01*
X312Y1105D02*
X325Y1105D01*
X346Y1105D02*
X359Y1105D01*
X490Y1105D02*
X492Y1105D01*
X546Y1105D02*
X548Y1105D01*
X590Y1105D02*
X592Y1105D01*
X646Y1105D02*
X648Y1105D01*
X661Y1105D02*
X667Y1105D01*
X685Y1105D02*
X691Y1105D01*
X708Y1105D02*
X714Y1105D01*
X1026Y1105D02*
X1032Y1105D01*
X1050Y1105D02*
X1058Y1105D01*
X1080Y1105D02*
X1109Y1105D01*
X1133Y1105D02*
X1139Y1105D01*
X1212Y1105D02*
X1219Y1105D01*
X0Y1104D02*
X7Y1104D01*
X311Y1104D02*
X323Y1104D01*
X348Y1104D02*
X360Y1104D01*
X490Y1104D02*
X492Y1104D01*
X546Y1104D02*
X548Y1104D01*
X590Y1104D02*
X592Y1104D01*
X646Y1104D02*
X648Y1104D01*
X661Y1104D02*
X667Y1104D01*
X685Y1104D02*
X714Y1104D01*
X1026Y1104D02*
X1032Y1104D01*
X1051Y1104D02*
X1058Y1104D01*
X1079Y1104D02*
X1109Y1104D01*
X1133Y1104D02*
X1139Y1104D01*
X1212Y1104D02*
X1219Y1104D01*
X0Y1103D02*
X7Y1103D01*
X311Y1103D02*
X321Y1103D01*
X350Y1103D02*
X361Y1103D01*
X490Y1103D02*
X492Y1103D01*
X546Y1103D02*
X548Y1103D01*
X590Y1103D02*
X592Y1103D01*
X646Y1103D02*
X648Y1103D01*
X661Y1103D02*
X667Y1103D01*
X685Y1103D02*
X714Y1103D01*
X1026Y1103D02*
X1032Y1103D01*
X1052Y1103D02*
X1059Y1103D01*
X1078Y1103D02*
X1109Y1103D01*
X1133Y1103D02*
X1139Y1103D01*
X1212Y1103D02*
X1219Y1103D01*
X0Y1102D02*
X7Y1102D01*
X310Y1102D02*
X319Y1102D01*
X352Y1102D02*
X361Y1102D01*
X490Y1102D02*
X492Y1102D01*
X546Y1102D02*
X548Y1102D01*
X590Y1102D02*
X592Y1102D01*
X646Y1102D02*
X648Y1102D01*
X661Y1102D02*
X667Y1102D01*
X685Y1102D02*
X714Y1102D01*
X1026Y1102D02*
X1032Y1102D01*
X1053Y1102D02*
X1059Y1102D01*
X1077Y1102D02*
X1109Y1102D01*
X1133Y1102D02*
X1139Y1102D01*
X1212Y1102D02*
X1219Y1102D01*
X0Y1101D02*
X7Y1101D01*
X310Y1101D02*
X317Y1101D01*
X354Y1101D02*
X362Y1101D01*
X490Y1101D02*
X492Y1101D01*
X546Y1101D02*
X548Y1101D01*
X590Y1101D02*
X592Y1101D01*
X646Y1101D02*
X648Y1101D01*
X661Y1101D02*
X667Y1101D01*
X686Y1101D02*
X714Y1101D01*
X1026Y1101D02*
X1032Y1101D01*
X1053Y1101D02*
X1059Y1101D01*
X1077Y1101D02*
X1109Y1101D01*
X1133Y1101D02*
X1139Y1101D01*
X1212Y1101D02*
X1219Y1101D01*
X0Y1100D02*
X7Y1100D01*
X309Y1100D02*
X316Y1100D01*
X355Y1100D02*
X362Y1100D01*
X490Y1100D02*
X492Y1100D01*
X546Y1100D02*
X548Y1100D01*
X590Y1100D02*
X592Y1100D01*
X646Y1100D02*
X648Y1100D01*
X661Y1100D02*
X667Y1100D01*
X686Y1100D02*
X714Y1100D01*
X1026Y1100D02*
X1032Y1100D01*
X1053Y1100D02*
X1059Y1100D01*
X1076Y1100D02*
X1084Y1100D01*
X1101Y1100D02*
X1109Y1100D01*
X1133Y1100D02*
X1139Y1100D01*
X1212Y1100D02*
X1219Y1100D01*
X0Y1099D02*
X7Y1099D01*
X309Y1099D02*
X315Y1099D01*
X356Y1099D02*
X362Y1099D01*
X490Y1099D02*
X492Y1099D01*
X546Y1099D02*
X548Y1099D01*
X590Y1099D02*
X592Y1099D01*
X646Y1099D02*
X648Y1099D01*
X662Y1099D02*
X667Y1099D01*
X687Y1099D02*
X714Y1099D01*
X1026Y1099D02*
X1032Y1099D01*
X1053Y1099D02*
X1059Y1099D01*
X1076Y1099D02*
X1083Y1099D01*
X1102Y1099D02*
X1109Y1099D01*
X1133Y1099D02*
X1139Y1099D01*
X1212Y1099D02*
X1219Y1099D01*
X0Y1098D02*
X7Y1098D01*
X309Y1098D02*
X315Y1098D01*
X356Y1098D02*
X362Y1098D01*
X490Y1098D02*
X492Y1098D01*
X546Y1098D02*
X548Y1098D01*
X590Y1098D02*
X592Y1098D01*
X646Y1098D02*
X648Y1098D01*
X663Y1098D02*
X666Y1098D01*
X689Y1098D02*
X714Y1098D01*
X1026Y1098D02*
X1032Y1098D01*
X1053Y1098D02*
X1059Y1098D01*
X1076Y1098D02*
X1082Y1098D01*
X1103Y1098D02*
X1109Y1098D01*
X1133Y1098D02*
X1139Y1098D01*
X1212Y1098D02*
X1219Y1098D01*
X0Y1097D02*
X7Y1097D01*
X309Y1097D02*
X315Y1097D01*
X356Y1097D02*
X362Y1097D01*
X490Y1097D02*
X492Y1097D01*
X546Y1097D02*
X548Y1097D01*
X590Y1097D02*
X592Y1097D01*
X646Y1097D02*
X648Y1097D01*
X1026Y1097D02*
X1032Y1097D01*
X1053Y1097D02*
X1059Y1097D01*
X1076Y1097D02*
X1082Y1097D01*
X1103Y1097D02*
X1109Y1097D01*
X1133Y1097D02*
X1139Y1097D01*
X1212Y1097D02*
X1219Y1097D01*
X0Y1096D02*
X7Y1096D01*
X309Y1096D02*
X315Y1096D01*
X356Y1096D02*
X362Y1096D01*
X490Y1096D02*
X492Y1096D01*
X546Y1096D02*
X548Y1096D01*
X590Y1096D02*
X592Y1096D01*
X646Y1096D02*
X648Y1096D01*
X1026Y1096D02*
X1032Y1096D01*
X1053Y1096D02*
X1059Y1096D01*
X1076Y1096D02*
X1082Y1096D01*
X1103Y1096D02*
X1109Y1096D01*
X1133Y1096D02*
X1139Y1096D01*
X1212Y1096D02*
X1219Y1096D01*
X0Y1095D02*
X7Y1095D01*
X309Y1095D02*
X362Y1095D01*
X490Y1095D02*
X492Y1095D01*
X546Y1095D02*
X548Y1095D01*
X590Y1095D02*
X592Y1095D01*
X646Y1095D02*
X648Y1095D01*
X1026Y1095D02*
X1032Y1095D01*
X1053Y1095D02*
X1059Y1095D01*
X1076Y1095D02*
X1082Y1095D01*
X1103Y1095D02*
X1109Y1095D01*
X1133Y1095D02*
X1139Y1095D01*
X1155Y1095D02*
X1158Y1095D01*
X1212Y1095D02*
X1219Y1095D01*
X0Y1094D02*
X7Y1094D01*
X309Y1094D02*
X362Y1094D01*
X490Y1094D02*
X492Y1094D01*
X546Y1094D02*
X548Y1094D01*
X590Y1094D02*
X592Y1094D01*
X646Y1094D02*
X648Y1094D01*
X1026Y1094D02*
X1032Y1094D01*
X1053Y1094D02*
X1059Y1094D01*
X1076Y1094D02*
X1082Y1094D01*
X1103Y1094D02*
X1109Y1094D01*
X1133Y1094D02*
X1139Y1094D01*
X1154Y1094D02*
X1159Y1094D01*
X1212Y1094D02*
X1219Y1094D01*
X0Y1093D02*
X7Y1093D01*
X309Y1093D02*
X362Y1093D01*
X490Y1093D02*
X492Y1093D01*
X546Y1093D02*
X548Y1093D01*
X590Y1093D02*
X592Y1093D01*
X646Y1093D02*
X648Y1093D01*
X1026Y1093D02*
X1032Y1093D01*
X1052Y1093D02*
X1059Y1093D01*
X1076Y1093D02*
X1082Y1093D01*
X1101Y1093D02*
X1109Y1093D01*
X1133Y1093D02*
X1139Y1093D01*
X1154Y1093D02*
X1159Y1093D01*
X1212Y1093D02*
X1219Y1093D01*
X0Y1092D02*
X7Y1092D01*
X309Y1092D02*
X362Y1092D01*
X490Y1092D02*
X492Y1092D01*
X546Y1092D02*
X548Y1092D01*
X590Y1092D02*
X592Y1092D01*
X646Y1092D02*
X648Y1092D01*
X1026Y1092D02*
X1032Y1092D01*
X1051Y1092D02*
X1058Y1092D01*
X1076Y1092D02*
X1082Y1092D01*
X1100Y1092D02*
X1109Y1092D01*
X1133Y1092D02*
X1139Y1092D01*
X1153Y1092D02*
X1160Y1092D01*
X1212Y1092D02*
X1219Y1092D01*
X0Y1091D02*
X7Y1091D01*
X309Y1091D02*
X362Y1091D01*
X490Y1091D02*
X492Y1091D01*
X546Y1091D02*
X548Y1091D01*
X590Y1091D02*
X592Y1091D01*
X646Y1091D02*
X648Y1091D01*
X1026Y1091D02*
X1032Y1091D01*
X1050Y1091D02*
X1058Y1091D01*
X1076Y1091D02*
X1082Y1091D01*
X1098Y1091D02*
X1109Y1091D01*
X1133Y1091D02*
X1140Y1091D01*
X1153Y1091D02*
X1159Y1091D01*
X1212Y1091D02*
X1219Y1091D01*
X0Y1090D02*
X7Y1090D01*
X309Y1090D02*
X362Y1090D01*
X490Y1090D02*
X492Y1090D01*
X546Y1090D02*
X548Y1090D01*
X590Y1090D02*
X592Y1090D01*
X646Y1090D02*
X648Y1090D01*
X1026Y1090D02*
X1032Y1090D01*
X1048Y1090D02*
X1057Y1090D01*
X1076Y1090D02*
X1084Y1090D01*
X1096Y1090D02*
X1109Y1090D01*
X1133Y1090D02*
X1141Y1090D01*
X1152Y1090D02*
X1159Y1090D01*
X1212Y1090D02*
X1219Y1090D01*
X0Y1089D02*
X7Y1089D01*
X309Y1089D02*
X362Y1089D01*
X490Y1089D02*
X492Y1089D01*
X546Y1089D02*
X548Y1089D01*
X590Y1089D02*
X592Y1089D01*
X646Y1089D02*
X648Y1089D01*
X1026Y1089D02*
X1057Y1089D01*
X1077Y1089D02*
X1109Y1089D01*
X1134Y1089D02*
X1159Y1089D01*
X1212Y1089D02*
X1219Y1089D01*
X0Y1088D02*
X7Y1088D01*
X309Y1088D02*
X315Y1088D01*
X356Y1088D02*
X362Y1088D01*
X490Y1088D02*
X492Y1088D01*
X546Y1088D02*
X548Y1088D01*
X590Y1088D02*
X592Y1088D01*
X646Y1088D02*
X648Y1088D01*
X1026Y1088D02*
X1056Y1088D01*
X1077Y1088D02*
X1109Y1088D01*
X1134Y1088D02*
X1158Y1088D01*
X1212Y1088D02*
X1219Y1088D01*
X0Y1087D02*
X7Y1087D01*
X309Y1087D02*
X315Y1087D01*
X356Y1087D02*
X362Y1087D01*
X490Y1087D02*
X492Y1087D01*
X546Y1087D02*
X548Y1087D01*
X590Y1087D02*
X592Y1087D01*
X646Y1087D02*
X648Y1087D01*
X1026Y1087D02*
X1055Y1087D01*
X1078Y1087D02*
X1109Y1087D01*
X1135Y1087D02*
X1158Y1087D01*
X1212Y1087D02*
X1219Y1087D01*
X0Y1086D02*
X7Y1086D01*
X309Y1086D02*
X315Y1086D01*
X356Y1086D02*
X362Y1086D01*
X490Y1086D02*
X492Y1086D01*
X546Y1086D02*
X548Y1086D01*
X590Y1086D02*
X592Y1086D01*
X646Y1086D02*
X648Y1086D01*
X1026Y1086D02*
X1054Y1086D01*
X1079Y1086D02*
X1109Y1086D01*
X1136Y1086D02*
X1157Y1086D01*
X1212Y1086D02*
X1219Y1086D01*
X0Y1085D02*
X7Y1085D01*
X309Y1085D02*
X315Y1085D01*
X356Y1085D02*
X362Y1085D01*
X490Y1085D02*
X492Y1085D01*
X546Y1085D02*
X548Y1085D01*
X590Y1085D02*
X592Y1085D01*
X646Y1085D02*
X648Y1085D01*
X1026Y1085D02*
X1053Y1085D01*
X1080Y1085D02*
X1100Y1085D01*
X1104Y1085D02*
X1109Y1085D01*
X1137Y1085D02*
X1156Y1085D01*
X1212Y1085D02*
X1219Y1085D01*
X0Y1084D02*
X7Y1084D01*
X309Y1084D02*
X315Y1084D01*
X356Y1084D02*
X362Y1084D01*
X490Y1084D02*
X492Y1084D01*
X546Y1084D02*
X548Y1084D01*
X590Y1084D02*
X592Y1084D01*
X646Y1084D02*
X648Y1084D01*
X1026Y1084D02*
X1051Y1084D01*
X1081Y1084D02*
X1099Y1084D01*
X1104Y1084D02*
X1109Y1084D01*
X1138Y1084D02*
X1154Y1084D01*
X1212Y1084D02*
X1219Y1084D01*
X0Y1083D02*
X7Y1083D01*
X310Y1083D02*
X314Y1083D01*
X357Y1083D02*
X362Y1083D01*
X490Y1083D02*
X492Y1083D01*
X546Y1083D02*
X548Y1083D01*
X590Y1083D02*
X592Y1083D01*
X646Y1083D02*
X648Y1083D01*
X1026Y1083D02*
X1048Y1083D01*
X1083Y1083D02*
X1097Y1083D01*
X1105Y1083D02*
X1107Y1083D01*
X1140Y1083D02*
X1152Y1083D01*
X1212Y1083D02*
X1219Y1083D01*
X0Y1082D02*
X7Y1082D01*
X311Y1082D02*
X313Y1082D01*
X358Y1082D02*
X360Y1082D01*
X490Y1082D02*
X492Y1082D01*
X546Y1082D02*
X548Y1082D01*
X590Y1082D02*
X592Y1082D01*
X646Y1082D02*
X648Y1082D01*
X1212Y1082D02*
X1219Y1082D01*
X0Y1081D02*
X7Y1081D01*
X490Y1081D02*
X492Y1081D01*
X546Y1081D02*
X548Y1081D01*
X590Y1081D02*
X592Y1081D01*
X646Y1081D02*
X648Y1081D01*
X684Y1081D02*
X691Y1081D01*
X1212Y1081D02*
X1219Y1081D01*
X0Y1080D02*
X7Y1080D01*
X490Y1080D02*
X492Y1080D01*
X546Y1080D02*
X548Y1080D01*
X590Y1080D02*
X592Y1080D01*
X646Y1080D02*
X648Y1080D01*
X682Y1080D02*
X694Y1080D01*
X1212Y1080D02*
X1219Y1080D01*
X0Y1079D02*
X7Y1079D01*
X490Y1079D02*
X492Y1079D01*
X546Y1079D02*
X548Y1079D01*
X590Y1079D02*
X592Y1079D01*
X646Y1079D02*
X648Y1079D01*
X680Y1079D02*
X696Y1079D01*
X1212Y1079D02*
X1219Y1079D01*
X0Y1078D02*
X7Y1078D01*
X490Y1078D02*
X492Y1078D01*
X546Y1078D02*
X548Y1078D01*
X590Y1078D02*
X592Y1078D01*
X646Y1078D02*
X648Y1078D01*
X678Y1078D02*
X698Y1078D01*
X1212Y1078D02*
X1219Y1078D01*
X0Y1077D02*
X7Y1077D01*
X490Y1077D02*
X492Y1077D01*
X546Y1077D02*
X548Y1077D01*
X590Y1077D02*
X592Y1077D01*
X646Y1077D02*
X648Y1077D01*
X676Y1077D02*
X700Y1077D01*
X1212Y1077D02*
X1219Y1077D01*
X0Y1076D02*
X7Y1076D01*
X490Y1076D02*
X492Y1076D01*
X546Y1076D02*
X548Y1076D01*
X590Y1076D02*
X592Y1076D01*
X646Y1076D02*
X648Y1076D01*
X674Y1076D02*
X702Y1076D01*
X1212Y1076D02*
X1219Y1076D01*
X0Y1075D02*
X7Y1075D01*
X490Y1075D02*
X492Y1075D01*
X546Y1075D02*
X548Y1075D01*
X590Y1075D02*
X592Y1075D01*
X646Y1075D02*
X648Y1075D01*
X672Y1075D02*
X704Y1075D01*
X1212Y1075D02*
X1219Y1075D01*
X0Y1074D02*
X7Y1074D01*
X490Y1074D02*
X492Y1074D01*
X546Y1074D02*
X548Y1074D01*
X590Y1074D02*
X592Y1074D01*
X646Y1074D02*
X648Y1074D01*
X670Y1074D02*
X685Y1074D01*
X691Y1074D02*
X706Y1074D01*
X1212Y1074D02*
X1219Y1074D01*
X0Y1073D02*
X7Y1073D01*
X490Y1073D02*
X492Y1073D01*
X546Y1073D02*
X548Y1073D01*
X590Y1073D02*
X592Y1073D01*
X646Y1073D02*
X648Y1073D01*
X668Y1073D02*
X682Y1073D01*
X693Y1073D02*
X708Y1073D01*
X1212Y1073D02*
X1219Y1073D01*
X0Y1072D02*
X7Y1072D01*
X490Y1072D02*
X492Y1072D01*
X546Y1072D02*
X548Y1072D01*
X590Y1072D02*
X592Y1072D01*
X646Y1072D02*
X648Y1072D01*
X666Y1072D02*
X680Y1072D01*
X695Y1072D02*
X710Y1072D01*
X1212Y1072D02*
X1219Y1072D01*
X0Y1071D02*
X7Y1071D01*
X490Y1071D02*
X492Y1071D01*
X546Y1071D02*
X548Y1071D01*
X590Y1071D02*
X592Y1071D01*
X646Y1071D02*
X648Y1071D01*
X665Y1071D02*
X678Y1071D01*
X697Y1071D02*
X711Y1071D01*
X1212Y1071D02*
X1219Y1071D01*
X0Y1070D02*
X7Y1070D01*
X490Y1070D02*
X492Y1070D01*
X546Y1070D02*
X548Y1070D01*
X590Y1070D02*
X592Y1070D01*
X646Y1070D02*
X648Y1070D01*
X664Y1070D02*
X676Y1070D01*
X699Y1070D02*
X712Y1070D01*
X1212Y1070D02*
X1219Y1070D01*
X0Y1069D02*
X7Y1069D01*
X490Y1069D02*
X492Y1069D01*
X546Y1069D02*
X548Y1069D01*
X590Y1069D02*
X592Y1069D01*
X646Y1069D02*
X648Y1069D01*
X663Y1069D02*
X674Y1069D01*
X701Y1069D02*
X713Y1069D01*
X1212Y1069D02*
X1219Y1069D01*
X0Y1068D02*
X7Y1068D01*
X490Y1068D02*
X492Y1068D01*
X546Y1068D02*
X548Y1068D01*
X590Y1068D02*
X592Y1068D01*
X646Y1068D02*
X648Y1068D01*
X662Y1068D02*
X672Y1068D01*
X703Y1068D02*
X713Y1068D01*
X1212Y1068D02*
X1219Y1068D01*
X0Y1067D02*
X7Y1067D01*
X490Y1067D02*
X492Y1067D01*
X546Y1067D02*
X548Y1067D01*
X590Y1067D02*
X592Y1067D01*
X646Y1067D02*
X648Y1067D01*
X662Y1067D02*
X670Y1067D01*
X705Y1067D02*
X714Y1067D01*
X1212Y1067D02*
X1219Y1067D01*
X0Y1066D02*
X7Y1066D01*
X490Y1066D02*
X492Y1066D01*
X546Y1066D02*
X548Y1066D01*
X590Y1066D02*
X592Y1066D01*
X646Y1066D02*
X648Y1066D01*
X662Y1066D02*
X669Y1066D01*
X707Y1066D02*
X714Y1066D01*
X1212Y1066D02*
X1219Y1066D01*
X0Y1065D02*
X7Y1065D01*
X310Y1065D02*
X314Y1065D01*
X358Y1065D02*
X361Y1065D01*
X490Y1065D02*
X492Y1065D01*
X546Y1065D02*
X548Y1065D01*
X590Y1065D02*
X592Y1065D01*
X646Y1065D02*
X648Y1065D01*
X661Y1065D02*
X668Y1065D01*
X708Y1065D02*
X714Y1065D01*
X1212Y1065D02*
X1219Y1065D01*
X0Y1064D02*
X7Y1064D01*
X310Y1064D02*
X315Y1064D01*
X357Y1064D02*
X362Y1064D01*
X490Y1064D02*
X492Y1064D01*
X546Y1064D02*
X548Y1064D01*
X590Y1064D02*
X592Y1064D01*
X646Y1064D02*
X648Y1064D01*
X661Y1064D02*
X667Y1064D01*
X708Y1064D02*
X714Y1064D01*
X1212Y1064D02*
X1219Y1064D01*
X0Y1063D02*
X7Y1063D01*
X309Y1063D02*
X315Y1063D01*
X356Y1063D02*
X362Y1063D01*
X490Y1063D02*
X492Y1063D01*
X546Y1063D02*
X548Y1063D01*
X590Y1063D02*
X592Y1063D01*
X646Y1063D02*
X648Y1063D01*
X661Y1063D02*
X667Y1063D01*
X708Y1063D02*
X714Y1063D01*
X1212Y1063D02*
X1219Y1063D01*
X0Y1062D02*
X7Y1062D01*
X309Y1062D02*
X315Y1062D01*
X356Y1062D02*
X362Y1062D01*
X490Y1062D02*
X493Y1062D01*
X545Y1062D02*
X548Y1062D01*
X590Y1062D02*
X593Y1062D01*
X645Y1062D02*
X648Y1062D01*
X661Y1062D02*
X667Y1062D01*
X708Y1062D02*
X714Y1062D01*
X1212Y1062D02*
X1219Y1062D01*
X0Y1061D02*
X7Y1061D01*
X309Y1061D02*
X315Y1061D01*
X356Y1061D02*
X362Y1061D01*
X490Y1061D02*
X493Y1061D01*
X545Y1061D02*
X548Y1061D01*
X590Y1061D02*
X593Y1061D01*
X645Y1061D02*
X648Y1061D01*
X661Y1061D02*
X668Y1061D01*
X708Y1061D02*
X714Y1061D01*
X1212Y1061D02*
X1219Y1061D01*
X0Y1060D02*
X7Y1060D01*
X309Y1060D02*
X315Y1060D01*
X356Y1060D02*
X362Y1060D01*
X490Y1060D02*
X493Y1060D01*
X545Y1060D02*
X548Y1060D01*
X590Y1060D02*
X593Y1060D01*
X645Y1060D02*
X648Y1060D01*
X661Y1060D02*
X714Y1060D01*
X1212Y1060D02*
X1219Y1060D01*
X0Y1059D02*
X7Y1059D01*
X309Y1059D02*
X315Y1059D01*
X356Y1059D02*
X362Y1059D01*
X490Y1059D02*
X493Y1059D01*
X545Y1059D02*
X548Y1059D01*
X590Y1059D02*
X593Y1059D01*
X645Y1059D02*
X648Y1059D01*
X661Y1059D02*
X714Y1059D01*
X1212Y1059D02*
X1219Y1059D01*
X0Y1058D02*
X7Y1058D01*
X309Y1058D02*
X315Y1058D01*
X356Y1058D02*
X362Y1058D01*
X490Y1058D02*
X493Y1058D01*
X545Y1058D02*
X548Y1058D01*
X590Y1058D02*
X593Y1058D01*
X645Y1058D02*
X648Y1058D01*
X661Y1058D02*
X714Y1058D01*
X1212Y1058D02*
X1219Y1058D01*
X0Y1057D02*
X7Y1057D01*
X309Y1057D02*
X315Y1057D01*
X356Y1057D02*
X362Y1057D01*
X490Y1057D02*
X493Y1057D01*
X545Y1057D02*
X548Y1057D01*
X590Y1057D02*
X593Y1057D01*
X645Y1057D02*
X648Y1057D01*
X661Y1057D02*
X714Y1057D01*
X1212Y1057D02*
X1219Y1057D01*
X0Y1056D02*
X7Y1056D01*
X309Y1056D02*
X315Y1056D01*
X356Y1056D02*
X362Y1056D01*
X490Y1056D02*
X493Y1056D01*
X545Y1056D02*
X548Y1056D01*
X590Y1056D02*
X593Y1056D01*
X645Y1056D02*
X648Y1056D01*
X661Y1056D02*
X714Y1056D01*
X1212Y1056D02*
X1219Y1056D01*
X0Y1055D02*
X7Y1055D01*
X309Y1055D02*
X315Y1055D01*
X356Y1055D02*
X362Y1055D01*
X490Y1055D02*
X493Y1055D01*
X498Y1055D02*
X540Y1055D01*
X545Y1055D02*
X548Y1055D01*
X590Y1055D02*
X593Y1055D01*
X598Y1055D02*
X640Y1055D01*
X645Y1055D02*
X648Y1055D01*
X661Y1055D02*
X714Y1055D01*
X1212Y1055D02*
X1219Y1055D01*
X0Y1054D02*
X7Y1054D01*
X309Y1054D02*
X315Y1054D01*
X356Y1054D02*
X362Y1054D01*
X490Y1054D02*
X493Y1054D01*
X498Y1054D02*
X540Y1054D01*
X545Y1054D02*
X548Y1054D01*
X590Y1054D02*
X593Y1054D01*
X598Y1054D02*
X640Y1054D01*
X645Y1054D02*
X648Y1054D01*
X661Y1054D02*
X714Y1054D01*
X1212Y1054D02*
X1219Y1054D01*
X0Y1053D02*
X7Y1053D01*
X309Y1053D02*
X315Y1053D01*
X356Y1053D02*
X362Y1053D01*
X490Y1053D02*
X493Y1053D01*
X498Y1053D02*
X540Y1053D01*
X545Y1053D02*
X548Y1053D01*
X590Y1053D02*
X593Y1053D01*
X598Y1053D02*
X640Y1053D01*
X645Y1053D02*
X648Y1053D01*
X661Y1053D02*
X667Y1053D01*
X708Y1053D02*
X714Y1053D01*
X1212Y1053D02*
X1219Y1053D01*
X0Y1052D02*
X7Y1052D01*
X309Y1052D02*
X315Y1052D01*
X356Y1052D02*
X362Y1052D01*
X490Y1052D02*
X492Y1052D01*
X546Y1052D02*
X548Y1052D01*
X590Y1052D02*
X592Y1052D01*
X646Y1052D02*
X648Y1052D01*
X661Y1052D02*
X667Y1052D01*
X708Y1052D02*
X714Y1052D01*
X1212Y1052D02*
X1219Y1052D01*
X0Y1051D02*
X7Y1051D01*
X309Y1051D02*
X315Y1051D01*
X334Y1051D02*
X337Y1051D01*
X356Y1051D02*
X362Y1051D01*
X490Y1051D02*
X492Y1051D01*
X546Y1051D02*
X548Y1051D01*
X590Y1051D02*
X592Y1051D01*
X646Y1051D02*
X648Y1051D01*
X661Y1051D02*
X667Y1051D01*
X708Y1051D02*
X714Y1051D01*
X1212Y1051D02*
X1219Y1051D01*
X0Y1050D02*
X7Y1050D01*
X309Y1050D02*
X315Y1050D01*
X333Y1050D02*
X338Y1050D01*
X356Y1050D02*
X362Y1050D01*
X490Y1050D02*
X492Y1050D01*
X546Y1050D02*
X548Y1050D01*
X590Y1050D02*
X592Y1050D01*
X646Y1050D02*
X648Y1050D01*
X661Y1050D02*
X667Y1050D01*
X708Y1050D02*
X714Y1050D01*
X1212Y1050D02*
X1219Y1050D01*
X0Y1049D02*
X7Y1049D01*
X309Y1049D02*
X315Y1049D01*
X333Y1049D02*
X338Y1049D01*
X356Y1049D02*
X362Y1049D01*
X490Y1049D02*
X492Y1049D01*
X546Y1049D02*
X548Y1049D01*
X590Y1049D02*
X592Y1049D01*
X646Y1049D02*
X648Y1049D01*
X662Y1049D02*
X667Y1049D01*
X709Y1049D02*
X714Y1049D01*
X1212Y1049D02*
X1219Y1049D01*
X0Y1048D02*
X7Y1048D01*
X309Y1048D02*
X315Y1048D01*
X333Y1048D02*
X339Y1048D01*
X356Y1048D02*
X362Y1048D01*
X490Y1048D02*
X492Y1048D01*
X546Y1048D02*
X548Y1048D01*
X590Y1048D02*
X592Y1048D01*
X646Y1048D02*
X648Y1048D01*
X662Y1048D02*
X666Y1048D01*
X709Y1048D02*
X713Y1048D01*
X1212Y1048D02*
X1219Y1048D01*
X0Y1047D02*
X7Y1047D01*
X309Y1047D02*
X315Y1047D01*
X333Y1047D02*
X339Y1047D01*
X356Y1047D02*
X362Y1047D01*
X490Y1047D02*
X492Y1047D01*
X546Y1047D02*
X548Y1047D01*
X590Y1047D02*
X592Y1047D01*
X646Y1047D02*
X648Y1047D01*
X1212Y1047D02*
X1219Y1047D01*
X0Y1046D02*
X7Y1046D01*
X309Y1046D02*
X315Y1046D01*
X333Y1046D02*
X339Y1046D01*
X356Y1046D02*
X362Y1046D01*
X490Y1046D02*
X492Y1046D01*
X546Y1046D02*
X548Y1046D01*
X590Y1046D02*
X592Y1046D01*
X646Y1046D02*
X648Y1046D01*
X1212Y1046D02*
X1219Y1046D01*
X0Y1045D02*
X7Y1045D01*
X309Y1045D02*
X315Y1045D01*
X333Y1045D02*
X339Y1045D01*
X356Y1045D02*
X362Y1045D01*
X490Y1045D02*
X492Y1045D01*
X546Y1045D02*
X548Y1045D01*
X590Y1045D02*
X592Y1045D01*
X646Y1045D02*
X648Y1045D01*
X1212Y1045D02*
X1219Y1045D01*
X0Y1044D02*
X7Y1044D01*
X309Y1044D02*
X315Y1044D01*
X333Y1044D02*
X339Y1044D01*
X356Y1044D02*
X362Y1044D01*
X490Y1044D02*
X492Y1044D01*
X546Y1044D02*
X548Y1044D01*
X590Y1044D02*
X592Y1044D01*
X646Y1044D02*
X648Y1044D01*
X1212Y1044D02*
X1219Y1044D01*
X0Y1043D02*
X7Y1043D01*
X309Y1043D02*
X315Y1043D01*
X333Y1043D02*
X339Y1043D01*
X356Y1043D02*
X362Y1043D01*
X490Y1043D02*
X492Y1043D01*
X546Y1043D02*
X548Y1043D01*
X590Y1043D02*
X592Y1043D01*
X646Y1043D02*
X648Y1043D01*
X1212Y1043D02*
X1219Y1043D01*
X0Y1042D02*
X7Y1042D01*
X309Y1042D02*
X315Y1042D01*
X333Y1042D02*
X339Y1042D01*
X356Y1042D02*
X362Y1042D01*
X490Y1042D02*
X492Y1042D01*
X546Y1042D02*
X548Y1042D01*
X590Y1042D02*
X592Y1042D01*
X646Y1042D02*
X648Y1042D01*
X1212Y1042D02*
X1219Y1042D01*
X0Y1041D02*
X7Y1041D01*
X309Y1041D02*
X315Y1041D01*
X333Y1041D02*
X339Y1041D01*
X356Y1041D02*
X362Y1041D01*
X490Y1041D02*
X492Y1041D01*
X546Y1041D02*
X548Y1041D01*
X590Y1041D02*
X592Y1041D01*
X646Y1041D02*
X648Y1041D01*
X1212Y1041D02*
X1219Y1041D01*
X0Y1040D02*
X7Y1040D01*
X309Y1040D02*
X315Y1040D01*
X333Y1040D02*
X339Y1040D01*
X356Y1040D02*
X362Y1040D01*
X490Y1040D02*
X492Y1040D01*
X546Y1040D02*
X548Y1040D01*
X590Y1040D02*
X592Y1040D01*
X646Y1040D02*
X648Y1040D01*
X1212Y1040D02*
X1219Y1040D01*
X0Y1039D02*
X7Y1039D01*
X309Y1039D02*
X315Y1039D01*
X333Y1039D02*
X339Y1039D01*
X356Y1039D02*
X362Y1039D01*
X490Y1039D02*
X492Y1039D01*
X546Y1039D02*
X548Y1039D01*
X590Y1039D02*
X592Y1039D01*
X646Y1039D02*
X648Y1039D01*
X1212Y1039D02*
X1219Y1039D01*
X0Y1038D02*
X7Y1038D01*
X309Y1038D02*
X362Y1038D01*
X490Y1038D02*
X492Y1038D01*
X546Y1038D02*
X548Y1038D01*
X590Y1038D02*
X592Y1038D01*
X646Y1038D02*
X648Y1038D01*
X1212Y1038D02*
X1219Y1038D01*
X0Y1037D02*
X7Y1037D01*
X309Y1037D02*
X362Y1037D01*
X490Y1037D02*
X492Y1037D01*
X546Y1037D02*
X548Y1037D01*
X590Y1037D02*
X592Y1037D01*
X646Y1037D02*
X648Y1037D01*
X1212Y1037D02*
X1219Y1037D01*
X0Y1036D02*
X7Y1036D01*
X309Y1036D02*
X362Y1036D01*
X490Y1036D02*
X492Y1036D01*
X546Y1036D02*
X548Y1036D01*
X590Y1036D02*
X592Y1036D01*
X646Y1036D02*
X648Y1036D01*
X1212Y1036D02*
X1219Y1036D01*
X0Y1035D02*
X7Y1035D01*
X309Y1035D02*
X362Y1035D01*
X490Y1035D02*
X492Y1035D01*
X546Y1035D02*
X548Y1035D01*
X590Y1035D02*
X592Y1035D01*
X646Y1035D02*
X648Y1035D01*
X1212Y1035D02*
X1219Y1035D01*
X0Y1034D02*
X7Y1034D01*
X309Y1034D02*
X362Y1034D01*
X490Y1034D02*
X492Y1034D01*
X546Y1034D02*
X548Y1034D01*
X590Y1034D02*
X592Y1034D01*
X646Y1034D02*
X648Y1034D01*
X1212Y1034D02*
X1219Y1034D01*
X0Y1033D02*
X7Y1033D01*
X309Y1033D02*
X362Y1033D01*
X490Y1033D02*
X492Y1033D01*
X546Y1033D02*
X548Y1033D01*
X590Y1033D02*
X592Y1033D01*
X646Y1033D02*
X648Y1033D01*
X1212Y1033D02*
X1219Y1033D01*
X0Y1032D02*
X7Y1032D01*
X309Y1032D02*
X362Y1032D01*
X490Y1032D02*
X492Y1032D01*
X546Y1032D02*
X548Y1032D01*
X590Y1032D02*
X592Y1032D01*
X646Y1032D02*
X648Y1032D01*
X1212Y1032D02*
X1219Y1032D01*
X0Y1031D02*
X7Y1031D01*
X490Y1031D02*
X492Y1031D01*
X546Y1031D02*
X548Y1031D01*
X590Y1031D02*
X592Y1031D01*
X646Y1031D02*
X648Y1031D01*
X663Y1031D02*
X665Y1031D01*
X710Y1031D02*
X712Y1031D01*
X1212Y1031D02*
X1219Y1031D01*
X0Y1030D02*
X7Y1030D01*
X490Y1030D02*
X492Y1030D01*
X546Y1030D02*
X548Y1030D01*
X590Y1030D02*
X592Y1030D01*
X646Y1030D02*
X648Y1030D01*
X662Y1030D02*
X666Y1030D01*
X709Y1030D02*
X714Y1030D01*
X1212Y1030D02*
X1219Y1030D01*
X0Y1029D02*
X7Y1029D01*
X490Y1029D02*
X492Y1029D01*
X546Y1029D02*
X548Y1029D01*
X590Y1029D02*
X592Y1029D01*
X646Y1029D02*
X648Y1029D01*
X662Y1029D02*
X667Y1029D01*
X709Y1029D02*
X714Y1029D01*
X1212Y1029D02*
X1219Y1029D01*
X0Y1028D02*
X7Y1028D01*
X490Y1028D02*
X492Y1028D01*
X546Y1028D02*
X548Y1028D01*
X590Y1028D02*
X592Y1028D01*
X646Y1028D02*
X648Y1028D01*
X661Y1028D02*
X667Y1028D01*
X708Y1028D02*
X714Y1028D01*
X1212Y1028D02*
X1219Y1028D01*
X0Y1027D02*
X7Y1027D01*
X490Y1027D02*
X492Y1027D01*
X546Y1027D02*
X548Y1027D01*
X590Y1027D02*
X592Y1027D01*
X646Y1027D02*
X648Y1027D01*
X661Y1027D02*
X667Y1027D01*
X708Y1027D02*
X714Y1027D01*
X1212Y1027D02*
X1219Y1027D01*
X0Y1026D02*
X7Y1026D01*
X490Y1026D02*
X492Y1026D01*
X546Y1026D02*
X548Y1026D01*
X590Y1026D02*
X592Y1026D01*
X646Y1026D02*
X648Y1026D01*
X661Y1026D02*
X667Y1026D01*
X708Y1026D02*
X714Y1026D01*
X1212Y1026D02*
X1219Y1026D01*
X0Y1025D02*
X7Y1025D01*
X490Y1025D02*
X492Y1025D01*
X546Y1025D02*
X548Y1025D01*
X590Y1025D02*
X592Y1025D01*
X646Y1025D02*
X648Y1025D01*
X661Y1025D02*
X667Y1025D01*
X708Y1025D02*
X714Y1025D01*
X1212Y1025D02*
X1219Y1025D01*
X0Y1024D02*
X7Y1024D01*
X490Y1024D02*
X492Y1024D01*
X546Y1024D02*
X548Y1024D01*
X590Y1024D02*
X592Y1024D01*
X646Y1024D02*
X648Y1024D01*
X661Y1024D02*
X667Y1024D01*
X708Y1024D02*
X714Y1024D01*
X1212Y1024D02*
X1219Y1024D01*
X0Y1023D02*
X7Y1023D01*
X490Y1023D02*
X492Y1023D01*
X546Y1023D02*
X548Y1023D01*
X590Y1023D02*
X592Y1023D01*
X646Y1023D02*
X648Y1023D01*
X661Y1023D02*
X667Y1023D01*
X708Y1023D02*
X714Y1023D01*
X1212Y1023D02*
X1219Y1023D01*
X0Y1022D02*
X7Y1022D01*
X490Y1022D02*
X492Y1022D01*
X546Y1022D02*
X548Y1022D01*
X590Y1022D02*
X592Y1022D01*
X646Y1022D02*
X648Y1022D01*
X661Y1022D02*
X667Y1022D01*
X708Y1022D02*
X714Y1022D01*
X1212Y1022D02*
X1219Y1022D01*
X0Y1021D02*
X7Y1021D01*
X490Y1021D02*
X492Y1021D01*
X546Y1021D02*
X548Y1021D01*
X590Y1021D02*
X592Y1021D01*
X646Y1021D02*
X648Y1021D01*
X661Y1021D02*
X667Y1021D01*
X708Y1021D02*
X714Y1021D01*
X1212Y1021D02*
X1219Y1021D01*
X0Y1020D02*
X7Y1020D01*
X490Y1020D02*
X492Y1020D01*
X546Y1020D02*
X548Y1020D01*
X590Y1020D02*
X592Y1020D01*
X646Y1020D02*
X648Y1020D01*
X661Y1020D02*
X667Y1020D01*
X708Y1020D02*
X714Y1020D01*
X1212Y1020D02*
X1219Y1020D01*
X0Y1019D02*
X7Y1019D01*
X490Y1019D02*
X492Y1019D01*
X546Y1019D02*
X548Y1019D01*
X590Y1019D02*
X592Y1019D01*
X646Y1019D02*
X648Y1019D01*
X661Y1019D02*
X667Y1019D01*
X708Y1019D02*
X714Y1019D01*
X1212Y1019D02*
X1219Y1019D01*
X0Y1018D02*
X7Y1018D01*
X490Y1018D02*
X492Y1018D01*
X546Y1018D02*
X548Y1018D01*
X590Y1018D02*
X592Y1018D01*
X646Y1018D02*
X648Y1018D01*
X661Y1018D02*
X667Y1018D01*
X708Y1018D02*
X714Y1018D01*
X1212Y1018D02*
X1219Y1018D01*
X0Y1017D02*
X7Y1017D01*
X490Y1017D02*
X492Y1017D01*
X546Y1017D02*
X548Y1017D01*
X590Y1017D02*
X592Y1017D01*
X646Y1017D02*
X648Y1017D01*
X661Y1017D02*
X667Y1017D01*
X687Y1017D02*
X689Y1017D01*
X708Y1017D02*
X714Y1017D01*
X1212Y1017D02*
X1219Y1017D01*
X0Y1016D02*
X7Y1016D01*
X490Y1016D02*
X492Y1016D01*
X546Y1016D02*
X548Y1016D01*
X590Y1016D02*
X592Y1016D01*
X646Y1016D02*
X648Y1016D01*
X661Y1016D02*
X667Y1016D01*
X685Y1016D02*
X690Y1016D01*
X708Y1016D02*
X714Y1016D01*
X1212Y1016D02*
X1219Y1016D01*
X0Y1015D02*
X7Y1015D01*
X358Y1015D02*
X361Y1015D01*
X490Y1015D02*
X492Y1015D01*
X546Y1015D02*
X548Y1015D01*
X590Y1015D02*
X592Y1015D01*
X646Y1015D02*
X648Y1015D01*
X661Y1015D02*
X667Y1015D01*
X685Y1015D02*
X691Y1015D01*
X708Y1015D02*
X714Y1015D01*
X1212Y1015D02*
X1219Y1015D01*
X0Y1014D02*
X7Y1014D01*
X357Y1014D02*
X362Y1014D01*
X490Y1014D02*
X492Y1014D01*
X546Y1014D02*
X548Y1014D01*
X590Y1014D02*
X592Y1014D01*
X646Y1014D02*
X648Y1014D01*
X661Y1014D02*
X667Y1014D01*
X685Y1014D02*
X691Y1014D01*
X708Y1014D02*
X714Y1014D01*
X1212Y1014D02*
X1219Y1014D01*
X0Y1013D02*
X7Y1013D01*
X356Y1013D02*
X362Y1013D01*
X490Y1013D02*
X492Y1013D01*
X546Y1013D02*
X548Y1013D01*
X590Y1013D02*
X592Y1013D01*
X646Y1013D02*
X648Y1013D01*
X661Y1013D02*
X667Y1013D01*
X685Y1013D02*
X691Y1013D01*
X708Y1013D02*
X714Y1013D01*
X1212Y1013D02*
X1219Y1013D01*
X0Y1012D02*
X7Y1012D01*
X356Y1012D02*
X362Y1012D01*
X490Y1012D02*
X492Y1012D01*
X546Y1012D02*
X548Y1012D01*
X590Y1012D02*
X592Y1012D01*
X646Y1012D02*
X648Y1012D01*
X661Y1012D02*
X667Y1012D01*
X685Y1012D02*
X691Y1012D01*
X708Y1012D02*
X714Y1012D01*
X1212Y1012D02*
X1219Y1012D01*
X0Y1011D02*
X7Y1011D01*
X356Y1011D02*
X362Y1011D01*
X490Y1011D02*
X492Y1011D01*
X546Y1011D02*
X548Y1011D01*
X590Y1011D02*
X592Y1011D01*
X646Y1011D02*
X648Y1011D01*
X661Y1011D02*
X667Y1011D01*
X685Y1011D02*
X691Y1011D01*
X708Y1011D02*
X714Y1011D01*
X1212Y1011D02*
X1219Y1011D01*
X0Y1010D02*
X7Y1010D01*
X356Y1010D02*
X362Y1010D01*
X490Y1010D02*
X492Y1010D01*
X546Y1010D02*
X548Y1010D01*
X590Y1010D02*
X592Y1010D01*
X646Y1010D02*
X648Y1010D01*
X661Y1010D02*
X667Y1010D01*
X685Y1010D02*
X691Y1010D01*
X708Y1010D02*
X714Y1010D01*
X1212Y1010D02*
X1219Y1010D01*
X0Y1009D02*
X7Y1009D01*
X356Y1009D02*
X362Y1009D01*
X490Y1009D02*
X492Y1009D01*
X546Y1009D02*
X548Y1009D01*
X590Y1009D02*
X592Y1009D01*
X646Y1009D02*
X648Y1009D01*
X661Y1009D02*
X667Y1009D01*
X685Y1009D02*
X691Y1009D01*
X708Y1009D02*
X714Y1009D01*
X1212Y1009D02*
X1219Y1009D01*
X0Y1008D02*
X7Y1008D01*
X356Y1008D02*
X362Y1008D01*
X490Y1008D02*
X492Y1008D01*
X546Y1008D02*
X548Y1008D01*
X590Y1008D02*
X592Y1008D01*
X646Y1008D02*
X648Y1008D01*
X661Y1008D02*
X667Y1008D01*
X685Y1008D02*
X691Y1008D01*
X708Y1008D02*
X714Y1008D01*
X1212Y1008D02*
X1219Y1008D01*
X0Y1007D02*
X7Y1007D01*
X356Y1007D02*
X362Y1007D01*
X490Y1007D02*
X492Y1007D01*
X546Y1007D02*
X548Y1007D01*
X590Y1007D02*
X592Y1007D01*
X646Y1007D02*
X648Y1007D01*
X661Y1007D02*
X667Y1007D01*
X685Y1007D02*
X691Y1007D01*
X708Y1007D02*
X714Y1007D01*
X1212Y1007D02*
X1219Y1007D01*
X0Y1006D02*
X7Y1006D01*
X356Y1006D02*
X362Y1006D01*
X490Y1006D02*
X492Y1006D01*
X546Y1006D02*
X548Y1006D01*
X590Y1006D02*
X592Y1006D01*
X646Y1006D02*
X648Y1006D01*
X661Y1006D02*
X667Y1006D01*
X685Y1006D02*
X691Y1006D01*
X708Y1006D02*
X714Y1006D01*
X1212Y1006D02*
X1219Y1006D01*
X0Y1005D02*
X7Y1005D01*
X356Y1005D02*
X362Y1005D01*
X490Y1005D02*
X492Y1005D01*
X546Y1005D02*
X548Y1005D01*
X590Y1005D02*
X592Y1005D01*
X646Y1005D02*
X648Y1005D01*
X661Y1005D02*
X667Y1005D01*
X685Y1005D02*
X691Y1005D01*
X708Y1005D02*
X714Y1005D01*
X1212Y1005D02*
X1219Y1005D01*
X0Y1004D02*
X7Y1004D01*
X356Y1004D02*
X362Y1004D01*
X490Y1004D02*
X492Y1004D01*
X546Y1004D02*
X548Y1004D01*
X590Y1004D02*
X592Y1004D01*
X646Y1004D02*
X648Y1004D01*
X661Y1004D02*
X667Y1004D01*
X685Y1004D02*
X691Y1004D01*
X708Y1004D02*
X714Y1004D01*
X1212Y1004D02*
X1219Y1004D01*
X0Y1003D02*
X7Y1003D01*
X356Y1003D02*
X362Y1003D01*
X490Y1003D02*
X492Y1003D01*
X546Y1003D02*
X548Y1003D01*
X590Y1003D02*
X592Y1003D01*
X646Y1003D02*
X648Y1003D01*
X661Y1003D02*
X714Y1003D01*
X1212Y1003D02*
X1219Y1003D01*
X0Y1002D02*
X7Y1002D01*
X356Y1002D02*
X362Y1002D01*
X490Y1002D02*
X492Y1002D01*
X546Y1002D02*
X548Y1002D01*
X590Y1002D02*
X592Y1002D01*
X646Y1002D02*
X648Y1002D01*
X661Y1002D02*
X714Y1002D01*
X1212Y1002D02*
X1219Y1002D01*
X0Y1001D02*
X7Y1001D01*
X356Y1001D02*
X362Y1001D01*
X490Y1001D02*
X492Y1001D01*
X546Y1001D02*
X548Y1001D01*
X590Y1001D02*
X592Y1001D01*
X646Y1001D02*
X648Y1001D01*
X661Y1001D02*
X714Y1001D01*
X1212Y1001D02*
X1219Y1001D01*
X0Y1000D02*
X7Y1000D01*
X356Y1000D02*
X362Y1000D01*
X490Y1000D02*
X492Y1000D01*
X546Y1000D02*
X548Y1000D01*
X590Y1000D02*
X592Y1000D01*
X646Y1000D02*
X648Y1000D01*
X661Y1000D02*
X714Y1000D01*
X1212Y1000D02*
X1219Y1000D01*
X0Y999D02*
X7Y999D01*
X356Y999D02*
X362Y999D01*
X490Y999D02*
X492Y999D01*
X546Y999D02*
X548Y999D01*
X590Y999D02*
X592Y999D01*
X646Y999D02*
X648Y999D01*
X661Y999D02*
X714Y999D01*
X1212Y999D02*
X1219Y999D01*
X0Y998D02*
X7Y998D01*
X356Y998D02*
X362Y998D01*
X490Y998D02*
X492Y998D01*
X546Y998D02*
X548Y998D01*
X590Y998D02*
X592Y998D01*
X646Y998D02*
X648Y998D01*
X661Y998D02*
X714Y998D01*
X1212Y998D02*
X1219Y998D01*
X0Y997D02*
X7Y997D01*
X356Y997D02*
X362Y997D01*
X490Y997D02*
X492Y997D01*
X546Y997D02*
X548Y997D01*
X590Y997D02*
X592Y997D01*
X646Y997D02*
X648Y997D01*
X661Y997D02*
X714Y997D01*
X1212Y997D02*
X1219Y997D01*
X0Y996D02*
X7Y996D01*
X356Y996D02*
X362Y996D01*
X490Y996D02*
X492Y996D01*
X546Y996D02*
X548Y996D01*
X590Y996D02*
X592Y996D01*
X646Y996D02*
X648Y996D01*
X1212Y996D02*
X1219Y996D01*
X0Y995D02*
X7Y995D01*
X356Y995D02*
X362Y995D01*
X490Y995D02*
X548Y995D01*
X590Y995D02*
X648Y995D01*
X1212Y995D02*
X1219Y995D01*
X0Y994D02*
X7Y994D01*
X356Y994D02*
X362Y994D01*
X490Y994D02*
X548Y994D01*
X590Y994D02*
X648Y994D01*
X1212Y994D02*
X1219Y994D01*
X0Y993D02*
X7Y993D01*
X356Y993D02*
X362Y993D01*
X490Y993D02*
X548Y993D01*
X590Y993D02*
X648Y993D01*
X1212Y993D02*
X1219Y993D01*
X0Y992D02*
X7Y992D01*
X356Y992D02*
X362Y992D01*
X1212Y992D02*
X1219Y992D01*
X0Y991D02*
X7Y991D01*
X356Y991D02*
X362Y991D01*
X1212Y991D02*
X1219Y991D01*
X0Y990D02*
X7Y990D01*
X356Y990D02*
X362Y990D01*
X1212Y990D02*
X1219Y990D01*
X0Y989D02*
X7Y989D01*
X356Y989D02*
X362Y989D01*
X1212Y989D02*
X1219Y989D01*
X0Y988D02*
X7Y988D01*
X312Y988D02*
X362Y988D01*
X1212Y988D02*
X1219Y988D01*
X0Y987D02*
X7Y987D01*
X310Y987D02*
X362Y987D01*
X1212Y987D02*
X1219Y987D01*
X0Y986D02*
X7Y986D01*
X309Y986D02*
X362Y986D01*
X1212Y986D02*
X1219Y986D01*
X0Y985D02*
X7Y985D01*
X309Y985D02*
X362Y985D01*
X1212Y985D02*
X1219Y985D01*
X0Y984D02*
X7Y984D01*
X309Y984D02*
X362Y984D01*
X1212Y984D02*
X1219Y984D01*
X0Y983D02*
X7Y983D01*
X309Y983D02*
X362Y983D01*
X1212Y983D02*
X1219Y983D01*
X0Y982D02*
X7Y982D01*
X310Y982D02*
X362Y982D01*
X1212Y982D02*
X1219Y982D01*
X0Y981D02*
X7Y981D01*
X711Y981D02*
X712Y981D01*
X1212Y981D02*
X1219Y981D01*
X0Y980D02*
X7Y980D01*
X709Y980D02*
X713Y980D01*
X1212Y980D02*
X1219Y980D01*
X0Y979D02*
X7Y979D01*
X709Y979D02*
X714Y979D01*
X1212Y979D02*
X1219Y979D01*
X0Y978D02*
X7Y978D01*
X708Y978D02*
X714Y978D01*
X1212Y978D02*
X1219Y978D01*
X0Y977D02*
X7Y977D01*
X708Y977D02*
X714Y977D01*
X1212Y977D02*
X1219Y977D01*
X0Y976D02*
X7Y976D01*
X708Y976D02*
X714Y976D01*
X1212Y976D02*
X1219Y976D01*
X0Y975D02*
X7Y975D01*
X708Y975D02*
X714Y975D01*
X1212Y975D02*
X1219Y975D01*
X0Y974D02*
X7Y974D01*
X708Y974D02*
X714Y974D01*
X1212Y974D02*
X1219Y974D01*
X0Y973D02*
X7Y973D01*
X708Y973D02*
X714Y973D01*
X1212Y973D02*
X1219Y973D01*
X0Y972D02*
X7Y972D01*
X708Y972D02*
X714Y972D01*
X1212Y972D02*
X1219Y972D01*
X0Y971D02*
X7Y971D01*
X708Y971D02*
X714Y971D01*
X1212Y971D02*
X1219Y971D01*
X0Y970D02*
X7Y970D01*
X708Y970D02*
X714Y970D01*
X1212Y970D02*
X1219Y970D01*
X0Y969D02*
X7Y969D01*
X708Y969D02*
X714Y969D01*
X1212Y969D02*
X1219Y969D01*
X0Y968D02*
X7Y968D01*
X708Y968D02*
X714Y968D01*
X1212Y968D02*
X1219Y968D01*
X0Y967D02*
X7Y967D01*
X708Y967D02*
X714Y967D01*
X1212Y967D02*
X1219Y967D01*
X0Y966D02*
X7Y966D01*
X708Y966D02*
X714Y966D01*
X1212Y966D02*
X1219Y966D01*
X0Y965D02*
X7Y965D01*
X708Y965D02*
X714Y965D01*
X1212Y965D02*
X1219Y965D01*
X0Y964D02*
X7Y964D01*
X708Y964D02*
X714Y964D01*
X1212Y964D02*
X1219Y964D01*
X0Y963D02*
X7Y963D01*
X708Y963D02*
X714Y963D01*
X1212Y963D02*
X1219Y963D01*
X0Y962D02*
X7Y962D01*
X708Y962D02*
X714Y962D01*
X1212Y962D02*
X1219Y962D01*
X0Y961D02*
X7Y961D01*
X708Y961D02*
X714Y961D01*
X1212Y961D02*
X1219Y961D01*
X0Y960D02*
X7Y960D01*
X708Y960D02*
X714Y960D01*
X1212Y960D02*
X1219Y960D01*
X0Y959D02*
X7Y959D01*
X708Y959D02*
X714Y959D01*
X1212Y959D02*
X1219Y959D01*
X0Y958D02*
X7Y958D01*
X708Y958D02*
X714Y958D01*
X1212Y958D02*
X1219Y958D01*
X0Y957D02*
X7Y957D01*
X708Y957D02*
X714Y957D01*
X1212Y957D02*
X1219Y957D01*
X0Y956D02*
X7Y956D01*
X708Y956D02*
X714Y956D01*
X1212Y956D02*
X1219Y956D01*
X0Y955D02*
X7Y955D01*
X708Y955D02*
X714Y955D01*
X1212Y955D02*
X1219Y955D01*
X0Y954D02*
X7Y954D01*
X708Y954D02*
X714Y954D01*
X1212Y954D02*
X1219Y954D01*
X0Y953D02*
X7Y953D01*
X663Y953D02*
X714Y953D01*
X1212Y953D02*
X1219Y953D01*
X0Y952D02*
X7Y952D01*
X662Y952D02*
X714Y952D01*
X1212Y952D02*
X1219Y952D01*
X0Y951D02*
X7Y951D01*
X661Y951D02*
X714Y951D01*
X1212Y951D02*
X1219Y951D01*
X0Y950D02*
X7Y950D01*
X661Y950D02*
X714Y950D01*
X1212Y950D02*
X1219Y950D01*
X0Y949D02*
X7Y949D01*
X661Y949D02*
X714Y949D01*
X1212Y949D02*
X1219Y949D01*
X0Y948D02*
X7Y948D01*
X662Y948D02*
X714Y948D01*
X1212Y948D02*
X1219Y948D01*
X0Y947D02*
X7Y947D01*
X663Y947D02*
X714Y947D01*
X1212Y947D02*
X1219Y947D01*
X0Y946D02*
X7Y946D01*
X1212Y946D02*
X1219Y946D01*
X0Y945D02*
X7Y945D01*
X1212Y945D02*
X1219Y945D01*
X0Y944D02*
X7Y944D01*
X1212Y944D02*
X1219Y944D01*
X0Y943D02*
X7Y943D01*
X1212Y943D02*
X1219Y943D01*
X0Y942D02*
X7Y942D01*
X1212Y942D02*
X1219Y942D01*
X0Y941D02*
X7Y941D01*
X1212Y941D02*
X1219Y941D01*
X0Y940D02*
X7Y940D01*
X1212Y940D02*
X1219Y940D01*
X0Y939D02*
X7Y939D01*
X1212Y939D02*
X1219Y939D01*
X0Y938D02*
X7Y938D01*
X1212Y938D02*
X1219Y938D01*
X0Y937D02*
X7Y937D01*
X1212Y937D02*
X1219Y937D01*
X0Y936D02*
X7Y936D01*
X1212Y936D02*
X1219Y936D01*
X0Y935D02*
X7Y935D01*
X1212Y935D02*
X1219Y935D01*
X0Y934D02*
X7Y934D01*
X1212Y934D02*
X1219Y934D01*
X0Y933D02*
X7Y933D01*
X1212Y933D02*
X1219Y933D01*
X0Y932D02*
X7Y932D01*
X1212Y932D02*
X1219Y932D01*
X0Y931D02*
X7Y931D01*
X1212Y931D02*
X1219Y931D01*
X0Y930D02*
X7Y930D01*
X1212Y930D02*
X1219Y930D01*
X0Y929D02*
X7Y929D01*
X1212Y929D02*
X1219Y929D01*
X0Y928D02*
X7Y928D01*
X1212Y928D02*
X1219Y928D01*
X0Y927D02*
X7Y927D01*
X1212Y927D02*
X1219Y927D01*
X0Y926D02*
X7Y926D01*
X1212Y926D02*
X1219Y926D01*
X0Y925D02*
X7Y925D01*
X1212Y925D02*
X1219Y925D01*
X0Y924D02*
X7Y924D01*
X1212Y924D02*
X1219Y924D01*
X0Y923D02*
X7Y923D01*
X1212Y923D02*
X1219Y923D01*
X0Y922D02*
X7Y922D01*
X1212Y922D02*
X1219Y922D01*
X0Y921D02*
X7Y921D01*
X1212Y921D02*
X1219Y921D01*
X0Y920D02*
X7Y920D01*
X1212Y920D02*
X1219Y920D01*
X0Y919D02*
X7Y919D01*
X1212Y919D02*
X1219Y919D01*
X0Y918D02*
X7Y918D01*
X1212Y918D02*
X1219Y918D01*
X0Y917D02*
X7Y917D01*
X1212Y917D02*
X1219Y917D01*
X0Y916D02*
X7Y916D01*
X1212Y916D02*
X1219Y916D01*
X0Y915D02*
X7Y915D01*
X1212Y915D02*
X1219Y915D01*
X0Y914D02*
X7Y914D01*
X1212Y914D02*
X1219Y914D01*
X0Y913D02*
X7Y913D01*
X1212Y913D02*
X1219Y913D01*
X0Y912D02*
X7Y912D01*
X1212Y912D02*
X1219Y912D01*
X0Y911D02*
X7Y911D01*
X1212Y911D02*
X1219Y911D01*
X0Y910D02*
X7Y910D01*
X1212Y910D02*
X1219Y910D01*
X0Y909D02*
X7Y909D01*
X1212Y909D02*
X1219Y909D01*
X0Y908D02*
X7Y908D01*
X1212Y908D02*
X1219Y908D01*
X0Y907D02*
X7Y907D01*
X1212Y907D02*
X1219Y907D01*
X0Y906D02*
X7Y906D01*
X1212Y906D02*
X1219Y906D01*
X0Y905D02*
X7Y905D01*
X1212Y905D02*
X1219Y905D01*
X0Y904D02*
X7Y904D01*
X1212Y904D02*
X1219Y904D01*
X0Y903D02*
X7Y903D01*
X1212Y903D02*
X1219Y903D01*
X0Y902D02*
X7Y902D01*
X1212Y902D02*
X1219Y902D01*
X0Y901D02*
X7Y901D01*
X1212Y901D02*
X1219Y901D01*
X0Y900D02*
X7Y900D01*
X1212Y900D02*
X1219Y900D01*
X0Y899D02*
X7Y899D01*
X1212Y899D02*
X1219Y899D01*
X0Y898D02*
X7Y898D01*
X1212Y898D02*
X1219Y898D01*
X0Y897D02*
X7Y897D01*
X1212Y897D02*
X1219Y897D01*
X0Y896D02*
X7Y896D01*
X1212Y896D02*
X1219Y896D01*
X0Y895D02*
X7Y895D01*
X1212Y895D02*
X1219Y895D01*
X0Y894D02*
X7Y894D01*
X1212Y894D02*
X1219Y894D01*
X0Y893D02*
X7Y893D01*
X1212Y893D02*
X1219Y893D01*
X0Y892D02*
X7Y892D01*
X1212Y892D02*
X1219Y892D01*
X0Y891D02*
X7Y891D01*
X1212Y891D02*
X1219Y891D01*
X0Y890D02*
X7Y890D01*
X1212Y890D02*
X1219Y890D01*
X0Y889D02*
X7Y889D01*
X1212Y889D02*
X1219Y889D01*
X0Y888D02*
X7Y888D01*
X1212Y888D02*
X1219Y888D01*
X0Y887D02*
X7Y887D01*
X1212Y887D02*
X1219Y887D01*
X0Y886D02*
X7Y886D01*
X1212Y886D02*
X1219Y886D01*
X0Y885D02*
X7Y885D01*
X1212Y885D02*
X1219Y885D01*
X0Y884D02*
X7Y884D01*
X1212Y884D02*
X1219Y884D01*
X0Y883D02*
X7Y883D01*
X1212Y883D02*
X1219Y883D01*
X0Y882D02*
X7Y882D01*
X1212Y882D02*
X1219Y882D01*
X0Y881D02*
X7Y881D01*
X1212Y881D02*
X1219Y881D01*
X0Y880D02*
X7Y880D01*
X1212Y880D02*
X1219Y880D01*
X0Y879D02*
X7Y879D01*
X1212Y879D02*
X1219Y879D01*
X0Y878D02*
X7Y878D01*
X1212Y878D02*
X1219Y878D01*
X0Y877D02*
X7Y877D01*
X1212Y877D02*
X1219Y877D01*
X0Y876D02*
X7Y876D01*
X1212Y876D02*
X1219Y876D01*
X0Y875D02*
X7Y875D01*
X1212Y875D02*
X1219Y875D01*
X0Y874D02*
X7Y874D01*
X1212Y874D02*
X1219Y874D01*
X0Y873D02*
X7Y873D01*
X1212Y873D02*
X1219Y873D01*
X0Y872D02*
X7Y872D01*
X1212Y872D02*
X1219Y872D01*
X0Y871D02*
X7Y871D01*
X1212Y871D02*
X1219Y871D01*
X0Y870D02*
X7Y870D01*
X1212Y870D02*
X1219Y870D01*
X0Y869D02*
X7Y869D01*
X1212Y869D02*
X1219Y869D01*
X0Y868D02*
X7Y868D01*
X1212Y868D02*
X1219Y868D01*
X0Y867D02*
X7Y867D01*
X1212Y867D02*
X1219Y867D01*
X0Y866D02*
X7Y866D01*
X1212Y866D02*
X1219Y866D01*
X0Y865D02*
X7Y865D01*
X1212Y865D02*
X1219Y865D01*
X0Y864D02*
X7Y864D01*
X1212Y864D02*
X1219Y864D01*
X0Y863D02*
X7Y863D01*
X1212Y863D02*
X1219Y863D01*
X0Y862D02*
X7Y862D01*
X1212Y862D02*
X1219Y862D01*
X0Y861D02*
X7Y861D01*
X1212Y861D02*
X1219Y861D01*
X0Y860D02*
X7Y860D01*
X1212Y860D02*
X1219Y860D01*
X0Y859D02*
X7Y859D01*
X1212Y859D02*
X1219Y859D01*
X0Y858D02*
X7Y858D01*
X1212Y858D02*
X1219Y858D01*
X0Y857D02*
X7Y857D01*
X1212Y857D02*
X1219Y857D01*
X0Y856D02*
X7Y856D01*
X1212Y856D02*
X1219Y856D01*
X0Y855D02*
X7Y855D01*
X1212Y855D02*
X1219Y855D01*
X0Y854D02*
X7Y854D01*
X1212Y854D02*
X1219Y854D01*
X0Y853D02*
X7Y853D01*
X1212Y853D02*
X1219Y853D01*
X0Y852D02*
X7Y852D01*
X1212Y852D02*
X1219Y852D01*
X0Y851D02*
X7Y851D01*
X1212Y851D02*
X1219Y851D01*
X0Y850D02*
X7Y850D01*
X1212Y850D02*
X1219Y850D01*
X0Y849D02*
X7Y849D01*
X1212Y849D02*
X1219Y849D01*
X0Y848D02*
X7Y848D01*
X1212Y848D02*
X1219Y848D01*
X0Y847D02*
X7Y847D01*
X1212Y847D02*
X1219Y847D01*
X0Y846D02*
X7Y846D01*
X1212Y846D02*
X1219Y846D01*
X0Y845D02*
X7Y845D01*
X1212Y845D02*
X1219Y845D01*
X0Y844D02*
X7Y844D01*
X1212Y844D02*
X1219Y844D01*
X0Y843D02*
X7Y843D01*
X1212Y843D02*
X1219Y843D01*
X0Y842D02*
X7Y842D01*
X1212Y842D02*
X1219Y842D01*
X0Y841D02*
X7Y841D01*
X1212Y841D02*
X1219Y841D01*
X0Y840D02*
X7Y840D01*
X1212Y840D02*
X1219Y840D01*
X0Y839D02*
X7Y839D01*
X1212Y839D02*
X1219Y839D01*
X0Y838D02*
X7Y838D01*
X1212Y838D02*
X1219Y838D01*
X0Y837D02*
X7Y837D01*
X1212Y837D02*
X1219Y837D01*
X0Y836D02*
X7Y836D01*
X1212Y836D02*
X1219Y836D01*
X0Y835D02*
X7Y835D01*
X1212Y835D02*
X1219Y835D01*
X0Y834D02*
X7Y834D01*
X1212Y834D02*
X1219Y834D01*
X0Y833D02*
X7Y833D01*
X1212Y833D02*
X1219Y833D01*
X0Y832D02*
X7Y832D01*
X1212Y832D02*
X1219Y832D01*
X0Y831D02*
X7Y831D01*
X1212Y831D02*
X1219Y831D01*
X0Y830D02*
X7Y830D01*
X1212Y830D02*
X1219Y830D01*
X0Y829D02*
X7Y829D01*
X1212Y829D02*
X1219Y829D01*
X0Y828D02*
X7Y828D01*
X1212Y828D02*
X1219Y828D01*
X0Y827D02*
X7Y827D01*
X1212Y827D02*
X1219Y827D01*
X0Y826D02*
X7Y826D01*
X1212Y826D02*
X1219Y826D01*
X0Y825D02*
X7Y825D01*
X1212Y825D02*
X1219Y825D01*
X0Y824D02*
X7Y824D01*
X1212Y824D02*
X1219Y824D01*
X0Y823D02*
X7Y823D01*
X1212Y823D02*
X1219Y823D01*
X0Y822D02*
X7Y822D01*
X1212Y822D02*
X1219Y822D01*
X0Y821D02*
X7Y821D01*
X1212Y821D02*
X1219Y821D01*
X0Y820D02*
X7Y820D01*
X1212Y820D02*
X1219Y820D01*
X0Y819D02*
X7Y819D01*
X1212Y819D02*
X1219Y819D01*
X0Y818D02*
X7Y818D01*
X1212Y818D02*
X1219Y818D01*
X0Y817D02*
X7Y817D01*
X1212Y817D02*
X1219Y817D01*
X0Y816D02*
X7Y816D01*
X1212Y816D02*
X1219Y816D01*
X0Y815D02*
X7Y815D01*
X1212Y815D02*
X1219Y815D01*
X0Y814D02*
X7Y814D01*
X1212Y814D02*
X1219Y814D01*
X0Y813D02*
X7Y813D01*
X1212Y813D02*
X1219Y813D01*
X0Y812D02*
X7Y812D01*
X1212Y812D02*
X1219Y812D01*
X0Y811D02*
X7Y811D01*
X1212Y811D02*
X1219Y811D01*
X0Y810D02*
X7Y810D01*
X1212Y810D02*
X1219Y810D01*
X0Y809D02*
X7Y809D01*
X1212Y809D02*
X1219Y809D01*
X0Y808D02*
X7Y808D01*
X1212Y808D02*
X1219Y808D01*
X0Y807D02*
X7Y807D01*
X1212Y807D02*
X1219Y807D01*
X0Y806D02*
X7Y806D01*
X1212Y806D02*
X1219Y806D01*
X0Y805D02*
X7Y805D01*
X1212Y805D02*
X1219Y805D01*
X0Y804D02*
X7Y804D01*
X1212Y804D02*
X1219Y804D01*
X0Y803D02*
X7Y803D01*
X1212Y803D02*
X1219Y803D01*
X0Y802D02*
X7Y802D01*
X1212Y802D02*
X1219Y802D01*
X0Y801D02*
X7Y801D01*
X1212Y801D02*
X1219Y801D01*
X0Y800D02*
X7Y800D01*
X1212Y800D02*
X1219Y800D01*
X0Y799D02*
X7Y799D01*
X1212Y799D02*
X1219Y799D01*
X0Y798D02*
X7Y798D01*
X1212Y798D02*
X1219Y798D01*
X0Y797D02*
X7Y797D01*
X1212Y797D02*
X1219Y797D01*
X0Y796D02*
X7Y796D01*
X1212Y796D02*
X1219Y796D01*
X0Y795D02*
X7Y795D01*
X1212Y795D02*
X1219Y795D01*
X0Y794D02*
X7Y794D01*
X1212Y794D02*
X1219Y794D01*
X0Y793D02*
X7Y793D01*
X1212Y793D02*
X1219Y793D01*
X0Y792D02*
X7Y792D01*
X1212Y792D02*
X1219Y792D01*
X0Y791D02*
X7Y791D01*
X1212Y791D02*
X1219Y791D01*
X0Y790D02*
X7Y790D01*
X1212Y790D02*
X1219Y790D01*
X0Y789D02*
X7Y789D01*
X1212Y789D02*
X1219Y789D01*
X0Y788D02*
X7Y788D01*
X1212Y788D02*
X1219Y788D01*
X0Y787D02*
X7Y787D01*
X1212Y787D02*
X1219Y787D01*
X0Y786D02*
X7Y786D01*
X1212Y786D02*
X1219Y786D01*
X0Y785D02*
X7Y785D01*
X1212Y785D02*
X1219Y785D01*
X0Y784D02*
X7Y784D01*
X1212Y784D02*
X1219Y784D01*
X0Y783D02*
X7Y783D01*
X1212Y783D02*
X1219Y783D01*
X0Y782D02*
X7Y782D01*
X1212Y782D02*
X1219Y782D01*
X0Y781D02*
X7Y781D01*
X1212Y781D02*
X1219Y781D01*
X0Y780D02*
X7Y780D01*
X1212Y780D02*
X1219Y780D01*
X0Y779D02*
X7Y779D01*
X1212Y779D02*
X1219Y779D01*
X0Y778D02*
X7Y778D01*
X1212Y778D02*
X1219Y778D01*
X0Y777D02*
X7Y777D01*
X1212Y777D02*
X1219Y777D01*
X0Y776D02*
X7Y776D01*
X1212Y776D02*
X1219Y776D01*
X0Y775D02*
X7Y775D01*
X1212Y775D02*
X1219Y775D01*
X0Y774D02*
X7Y774D01*
X1212Y774D02*
X1219Y774D01*
X0Y773D02*
X7Y773D01*
X1212Y773D02*
X1219Y773D01*
X0Y772D02*
X7Y772D01*
X1212Y772D02*
X1219Y772D01*
X0Y771D02*
X7Y771D01*
X1212Y771D02*
X1219Y771D01*
X0Y770D02*
X7Y770D01*
X1212Y770D02*
X1219Y770D01*
X0Y769D02*
X7Y769D01*
X1212Y769D02*
X1219Y769D01*
X0Y768D02*
X7Y768D01*
X1212Y768D02*
X1219Y768D01*
X0Y767D02*
X7Y767D01*
X1212Y767D02*
X1219Y767D01*
X0Y766D02*
X7Y766D01*
X1212Y766D02*
X1219Y766D01*
X0Y765D02*
X7Y765D01*
X234Y765D02*
X234Y765D01*
X261Y765D02*
X262Y765D01*
X1212Y765D02*
X1219Y765D01*
X0Y764D02*
X7Y764D01*
X232Y764D02*
X236Y764D01*
X260Y764D02*
X264Y764D01*
X1212Y764D02*
X1219Y764D01*
X0Y763D02*
X7Y763D01*
X231Y763D02*
X237Y763D01*
X259Y763D02*
X264Y763D01*
X1212Y763D02*
X1219Y763D01*
X0Y762D02*
X7Y762D01*
X231Y762D02*
X237Y762D01*
X259Y762D02*
X265Y762D01*
X391Y762D02*
X392Y762D01*
X1212Y762D02*
X1219Y762D01*
X0Y761D02*
X7Y761D01*
X231Y761D02*
X237Y761D01*
X259Y761D02*
X265Y761D01*
X389Y761D02*
X394Y761D01*
X1212Y761D02*
X1219Y761D01*
X0Y760D02*
X7Y760D01*
X231Y760D02*
X237Y760D01*
X259Y760D02*
X265Y760D01*
X389Y760D02*
X394Y760D01*
X1212Y760D02*
X1219Y760D01*
X0Y759D02*
X7Y759D01*
X231Y759D02*
X237Y759D01*
X259Y759D02*
X265Y759D01*
X389Y759D02*
X394Y759D01*
X1212Y759D02*
X1219Y759D01*
X0Y758D02*
X7Y758D01*
X231Y758D02*
X237Y758D01*
X259Y758D02*
X265Y758D01*
X389Y758D02*
X395Y758D01*
X1212Y758D02*
X1219Y758D01*
X0Y757D02*
X7Y757D01*
X231Y757D02*
X237Y757D01*
X259Y757D02*
X265Y757D01*
X389Y757D02*
X395Y757D01*
X1212Y757D02*
X1219Y757D01*
X0Y756D02*
X7Y756D01*
X231Y756D02*
X237Y756D01*
X259Y756D02*
X265Y756D01*
X389Y756D02*
X395Y756D01*
X1212Y756D02*
X1219Y756D01*
X0Y755D02*
X7Y755D01*
X231Y755D02*
X237Y755D01*
X259Y755D02*
X265Y755D01*
X389Y755D02*
X395Y755D01*
X1212Y755D02*
X1219Y755D01*
X0Y754D02*
X7Y754D01*
X231Y754D02*
X237Y754D01*
X259Y754D02*
X265Y754D01*
X389Y754D02*
X395Y754D01*
X1212Y754D02*
X1219Y754D01*
X0Y753D02*
X7Y753D01*
X231Y753D02*
X237Y753D01*
X259Y753D02*
X265Y753D01*
X389Y753D02*
X395Y753D01*
X1212Y753D02*
X1219Y753D01*
X0Y752D02*
X7Y752D01*
X231Y752D02*
X237Y752D01*
X259Y752D02*
X265Y752D01*
X389Y752D02*
X395Y752D01*
X1212Y752D02*
X1219Y752D01*
X0Y751D02*
X7Y751D01*
X231Y751D02*
X237Y751D01*
X259Y751D02*
X265Y751D01*
X389Y751D02*
X395Y751D01*
X1212Y751D02*
X1219Y751D01*
X0Y750D02*
X7Y750D01*
X231Y750D02*
X237Y750D01*
X258Y750D02*
X265Y750D01*
X291Y750D02*
X305Y750D01*
X333Y750D02*
X336Y750D01*
X361Y750D02*
X363Y750D01*
X384Y750D02*
X410Y750D01*
X1212Y750D02*
X1219Y750D01*
X0Y749D02*
X7Y749D01*
X231Y749D02*
X238Y749D01*
X258Y749D02*
X265Y749D01*
X289Y749D02*
X307Y749D01*
X332Y749D02*
X337Y749D01*
X360Y749D02*
X364Y749D01*
X382Y749D02*
X411Y749D01*
X1212Y749D02*
X1219Y749D01*
X0Y748D02*
X7Y748D01*
X232Y748D02*
X238Y748D01*
X258Y748D02*
X264Y748D01*
X288Y748D02*
X309Y748D01*
X332Y748D02*
X337Y748D01*
X359Y748D02*
X365Y748D01*
X382Y748D02*
X411Y748D01*
X1212Y748D02*
X1219Y748D01*
X0Y747D02*
X7Y747D01*
X232Y747D02*
X238Y747D01*
X257Y747D02*
X264Y747D01*
X286Y747D02*
X310Y747D01*
X331Y747D02*
X337Y747D01*
X359Y747D02*
X365Y747D01*
X382Y747D02*
X412Y747D01*
X1212Y747D02*
X1219Y747D01*
X0Y746D02*
X7Y746D01*
X232Y746D02*
X239Y746D01*
X257Y746D02*
X263Y746D01*
X285Y746D02*
X311Y746D01*
X331Y746D02*
X337Y746D01*
X359Y746D02*
X365Y746D01*
X382Y746D02*
X412Y746D01*
X1212Y746D02*
X1219Y746D01*
X0Y745D02*
X7Y745D01*
X233Y745D02*
X239Y745D01*
X256Y745D02*
X263Y745D01*
X284Y745D02*
X312Y745D01*
X332Y745D02*
X337Y745D01*
X359Y745D02*
X365Y745D01*
X382Y745D02*
X411Y745D01*
X1212Y745D02*
X1219Y745D01*
X0Y744D02*
X7Y744D01*
X233Y744D02*
X240Y744D01*
X256Y744D02*
X263Y744D01*
X283Y744D02*
X313Y744D01*
X332Y744D02*
X338Y744D01*
X359Y744D02*
X365Y744D01*
X383Y744D02*
X410Y744D01*
X1212Y744D02*
X1219Y744D01*
X0Y743D02*
X7Y743D01*
X233Y743D02*
X240Y743D01*
X256Y743D02*
X262Y743D01*
X283Y743D02*
X292Y743D01*
X305Y743D02*
X313Y743D01*
X332Y743D02*
X338Y743D01*
X359Y743D02*
X365Y743D01*
X388Y743D02*
X395Y743D01*
X1212Y743D02*
X1219Y743D01*
X0Y742D02*
X7Y742D01*
X234Y742D02*
X240Y742D01*
X255Y742D02*
X262Y742D01*
X282Y742D02*
X290Y742D01*
X306Y742D02*
X314Y742D01*
X332Y742D02*
X338Y742D01*
X359Y742D02*
X365Y742D01*
X389Y742D02*
X395Y742D01*
X1212Y742D02*
X1219Y742D01*
X0Y741D02*
X7Y741D01*
X234Y741D02*
X241Y741D01*
X255Y741D02*
X261Y741D01*
X282Y741D02*
X289Y741D01*
X307Y741D02*
X314Y741D01*
X332Y741D02*
X338Y741D01*
X359Y741D02*
X365Y741D01*
X389Y741D02*
X395Y741D01*
X1212Y741D02*
X1219Y741D01*
X0Y740D02*
X7Y740D01*
X235Y740D02*
X241Y740D01*
X255Y740D02*
X261Y740D01*
X282Y740D02*
X288Y740D01*
X308Y740D02*
X315Y740D01*
X332Y740D02*
X338Y740D01*
X359Y740D02*
X365Y740D01*
X389Y740D02*
X395Y740D01*
X1212Y740D02*
X1219Y740D01*
X0Y739D02*
X7Y739D01*
X235Y739D02*
X242Y739D01*
X254Y739D02*
X261Y739D01*
X281Y739D02*
X288Y739D01*
X309Y739D02*
X315Y739D01*
X332Y739D02*
X338Y739D01*
X359Y739D02*
X365Y739D01*
X389Y739D02*
X395Y739D01*
X1212Y739D02*
X1219Y739D01*
X0Y738D02*
X7Y738D01*
X235Y738D02*
X242Y738D01*
X254Y738D02*
X260Y738D01*
X281Y738D02*
X287Y738D01*
X309Y738D02*
X315Y738D01*
X332Y738D02*
X338Y738D01*
X359Y738D02*
X365Y738D01*
X389Y738D02*
X395Y738D01*
X1212Y738D02*
X1219Y738D01*
X0Y737D02*
X7Y737D01*
X236Y737D02*
X242Y737D01*
X253Y737D02*
X260Y737D01*
X281Y737D02*
X287Y737D01*
X309Y737D02*
X315Y737D01*
X332Y737D02*
X338Y737D01*
X359Y737D02*
X365Y737D01*
X389Y737D02*
X395Y737D01*
X865Y737D02*
X868Y737D01*
X912Y737D02*
X915Y737D01*
X1212Y737D02*
X1219Y737D01*
X0Y736D02*
X7Y736D01*
X236Y736D02*
X243Y736D01*
X253Y736D02*
X260Y736D01*
X281Y736D02*
X287Y736D01*
X309Y736D02*
X315Y736D01*
X332Y736D02*
X338Y736D01*
X359Y736D02*
X365Y736D01*
X389Y736D02*
X395Y736D01*
X864Y736D02*
X869Y736D01*
X911Y736D02*
X916Y736D01*
X1212Y736D02*
X1219Y736D01*
X0Y735D02*
X7Y735D01*
X237Y735D02*
X243Y735D01*
X253Y735D02*
X259Y735D01*
X281Y735D02*
X287Y735D01*
X309Y735D02*
X315Y735D01*
X332Y735D02*
X338Y735D01*
X359Y735D02*
X365Y735D01*
X389Y735D02*
X395Y735D01*
X864Y735D02*
X869Y735D01*
X911Y735D02*
X917Y735D01*
X1212Y735D02*
X1219Y735D01*
X0Y734D02*
X7Y734D01*
X237Y734D02*
X244Y734D01*
X252Y734D02*
X259Y734D01*
X281Y734D02*
X287Y734D01*
X309Y734D02*
X315Y734D01*
X332Y734D02*
X338Y734D01*
X359Y734D02*
X365Y734D01*
X389Y734D02*
X395Y734D01*
X864Y734D02*
X870Y734D01*
X911Y734D02*
X917Y734D01*
X1212Y734D02*
X1219Y734D01*
X0Y733D02*
X7Y733D01*
X237Y733D02*
X244Y733D01*
X252Y733D02*
X258Y733D01*
X281Y733D02*
X287Y733D01*
X309Y733D02*
X315Y733D01*
X332Y733D02*
X338Y733D01*
X359Y733D02*
X365Y733D01*
X389Y733D02*
X395Y733D01*
X864Y733D02*
X870Y733D01*
X911Y733D02*
X917Y733D01*
X1212Y733D02*
X1219Y733D01*
X0Y732D02*
X7Y732D01*
X238Y732D02*
X244Y732D01*
X251Y732D02*
X258Y732D01*
X281Y732D02*
X287Y732D01*
X309Y732D02*
X315Y732D01*
X332Y732D02*
X338Y732D01*
X359Y732D02*
X365Y732D01*
X389Y732D02*
X395Y732D01*
X864Y732D02*
X870Y732D01*
X911Y732D02*
X917Y732D01*
X1212Y732D02*
X1219Y732D01*
X0Y731D02*
X7Y731D01*
X238Y731D02*
X245Y731D01*
X251Y731D02*
X258Y731D01*
X281Y731D02*
X287Y731D01*
X309Y731D02*
X315Y731D01*
X332Y731D02*
X338Y731D01*
X359Y731D02*
X365Y731D01*
X389Y731D02*
X395Y731D01*
X864Y731D02*
X870Y731D01*
X911Y731D02*
X917Y731D01*
X1212Y731D02*
X1219Y731D01*
X0Y730D02*
X7Y730D01*
X239Y730D02*
X245Y730D01*
X251Y730D02*
X257Y730D01*
X281Y730D02*
X287Y730D01*
X309Y730D02*
X315Y730D01*
X332Y730D02*
X338Y730D01*
X359Y730D02*
X365Y730D01*
X389Y730D02*
X395Y730D01*
X864Y730D02*
X870Y730D01*
X888Y730D02*
X892Y730D01*
X911Y730D02*
X917Y730D01*
X1212Y730D02*
X1219Y730D01*
X0Y729D02*
X7Y729D01*
X239Y729D02*
X246Y729D01*
X250Y729D02*
X257Y729D01*
X281Y729D02*
X287Y729D01*
X309Y729D02*
X315Y729D01*
X332Y729D02*
X338Y729D01*
X359Y729D02*
X365Y729D01*
X389Y729D02*
X395Y729D01*
X864Y729D02*
X870Y729D01*
X888Y729D02*
X893Y729D01*
X911Y729D02*
X917Y729D01*
X1212Y729D02*
X1219Y729D01*
X0Y728D02*
X7Y728D01*
X239Y728D02*
X246Y728D01*
X250Y728D02*
X256Y728D01*
X281Y728D02*
X287Y728D01*
X309Y728D02*
X315Y728D01*
X332Y728D02*
X338Y728D01*
X359Y728D02*
X365Y728D01*
X389Y728D02*
X395Y728D01*
X864Y728D02*
X870Y728D01*
X887Y728D02*
X893Y728D01*
X911Y728D02*
X917Y728D01*
X1212Y728D02*
X1219Y728D01*
X0Y727D02*
X7Y727D01*
X240Y727D02*
X246Y727D01*
X249Y727D02*
X256Y727D01*
X281Y727D02*
X287Y727D01*
X309Y727D02*
X315Y727D01*
X332Y727D02*
X338Y727D01*
X359Y727D02*
X365Y727D01*
X389Y727D02*
X395Y727D01*
X864Y727D02*
X870Y727D01*
X887Y727D02*
X893Y727D01*
X911Y727D02*
X917Y727D01*
X1212Y727D02*
X1219Y727D01*
X0Y726D02*
X7Y726D01*
X240Y726D02*
X247Y726D01*
X249Y726D02*
X256Y726D01*
X281Y726D02*
X287Y726D01*
X309Y726D02*
X315Y726D01*
X332Y726D02*
X338Y726D01*
X359Y726D02*
X365Y726D01*
X389Y726D02*
X395Y726D01*
X864Y726D02*
X870Y726D01*
X887Y726D02*
X893Y726D01*
X911Y726D02*
X917Y726D01*
X1212Y726D02*
X1219Y726D01*
X0Y725D02*
X7Y725D01*
X240Y725D02*
X247Y725D01*
X249Y725D02*
X255Y725D01*
X281Y725D02*
X287Y725D01*
X309Y725D02*
X315Y725D01*
X332Y725D02*
X338Y725D01*
X359Y725D02*
X365Y725D01*
X389Y725D02*
X395Y725D01*
X864Y725D02*
X870Y725D01*
X887Y725D02*
X893Y725D01*
X911Y725D02*
X917Y725D01*
X1212Y725D02*
X1219Y725D01*
X0Y724D02*
X7Y724D01*
X241Y724D02*
X255Y724D01*
X281Y724D02*
X287Y724D01*
X309Y724D02*
X315Y724D01*
X332Y724D02*
X338Y724D01*
X357Y724D02*
X365Y724D01*
X389Y724D02*
X395Y724D01*
X864Y724D02*
X870Y724D01*
X887Y724D02*
X893Y724D01*
X911Y724D02*
X917Y724D01*
X1212Y724D02*
X1219Y724D01*
X0Y723D02*
X7Y723D01*
X241Y723D02*
X254Y723D01*
X281Y723D02*
X287Y723D01*
X309Y723D02*
X315Y723D01*
X332Y723D02*
X338Y723D01*
X355Y723D02*
X365Y723D01*
X389Y723D02*
X395Y723D01*
X410Y723D02*
X414Y723D01*
X864Y723D02*
X870Y723D01*
X887Y723D02*
X893Y723D01*
X911Y723D02*
X917Y723D01*
X1212Y723D02*
X1219Y723D01*
X0Y722D02*
X7Y722D01*
X242Y722D02*
X254Y722D01*
X281Y722D02*
X288Y722D01*
X308Y722D02*
X315Y722D01*
X332Y722D02*
X338Y722D01*
X354Y722D02*
X365Y722D01*
X389Y722D02*
X395Y722D01*
X410Y722D02*
X415Y722D01*
X864Y722D02*
X870Y722D01*
X887Y722D02*
X893Y722D01*
X911Y722D02*
X917Y722D01*
X1212Y722D02*
X1219Y722D01*
X0Y721D02*
X7Y721D01*
X242Y721D02*
X254Y721D01*
X282Y721D02*
X288Y721D01*
X308Y721D02*
X315Y721D01*
X332Y721D02*
X338Y721D01*
X352Y721D02*
X365Y721D01*
X389Y721D02*
X395Y721D01*
X409Y721D02*
X415Y721D01*
X864Y721D02*
X870Y721D01*
X887Y721D02*
X893Y721D01*
X911Y721D02*
X917Y721D01*
X1212Y721D02*
X1219Y721D01*
X0Y720D02*
X7Y720D01*
X242Y720D02*
X253Y720D01*
X282Y720D02*
X290Y720D01*
X306Y720D02*
X314Y720D01*
X332Y720D02*
X339Y720D01*
X351Y720D02*
X365Y720D01*
X389Y720D02*
X395Y720D01*
X409Y720D02*
X415Y720D01*
X864Y720D02*
X870Y720D01*
X887Y720D02*
X893Y720D01*
X911Y720D02*
X917Y720D01*
X1212Y720D02*
X1219Y720D01*
X0Y719D02*
X7Y719D01*
X243Y719D02*
X253Y719D01*
X282Y719D02*
X291Y719D01*
X305Y719D02*
X314Y719D01*
X333Y719D02*
X339Y719D01*
X349Y719D02*
X365Y719D01*
X389Y719D02*
X396Y719D01*
X408Y719D02*
X415Y719D01*
X864Y719D02*
X870Y719D01*
X887Y719D02*
X893Y719D01*
X911Y719D02*
X917Y719D01*
X1212Y719D02*
X1219Y719D01*
X0Y718D02*
X7Y718D01*
X243Y718D02*
X252Y718D01*
X283Y718D02*
X313Y718D01*
X333Y718D02*
X365Y718D01*
X389Y718D02*
X415Y718D01*
X864Y718D02*
X870Y718D01*
X887Y718D02*
X893Y718D01*
X911Y718D02*
X917Y718D01*
X1212Y718D02*
X1219Y718D01*
X0Y717D02*
X7Y717D01*
X244Y717D02*
X252Y717D01*
X284Y717D02*
X312Y717D01*
X333Y717D02*
X365Y717D01*
X390Y717D02*
X414Y717D01*
X864Y717D02*
X870Y717D01*
X887Y717D02*
X893Y717D01*
X911Y717D02*
X917Y717D01*
X1212Y717D02*
X1219Y717D01*
X0Y716D02*
X7Y716D01*
X244Y716D02*
X252Y716D01*
X285Y716D02*
X311Y716D01*
X334Y716D02*
X356Y716D01*
X359Y716D02*
X365Y716D01*
X390Y716D02*
X414Y716D01*
X864Y716D02*
X870Y716D01*
X887Y716D02*
X893Y716D01*
X911Y716D02*
X917Y716D01*
X1212Y716D02*
X1219Y716D01*
X0Y715D02*
X7Y715D01*
X244Y715D02*
X251Y715D01*
X286Y715D02*
X310Y715D01*
X335Y715D02*
X355Y715D01*
X359Y715D02*
X365Y715D01*
X391Y715D02*
X413Y715D01*
X864Y715D02*
X870Y715D01*
X887Y715D02*
X893Y715D01*
X911Y715D02*
X917Y715D01*
X1212Y715D02*
X1219Y715D01*
X0Y714D02*
X7Y714D01*
X245Y714D02*
X251Y714D01*
X287Y714D02*
X309Y714D01*
X335Y714D02*
X353Y714D01*
X359Y714D02*
X365Y714D01*
X392Y714D02*
X412Y714D01*
X864Y714D02*
X870Y714D01*
X887Y714D02*
X893Y714D01*
X911Y714D02*
X917Y714D01*
X1212Y714D02*
X1219Y714D01*
X0Y713D02*
X7Y713D01*
X245Y713D02*
X250Y713D01*
X288Y713D02*
X308Y713D01*
X337Y713D02*
X352Y713D01*
X359Y713D02*
X365Y713D01*
X393Y713D02*
X411Y713D01*
X864Y713D02*
X870Y713D01*
X887Y713D02*
X893Y713D01*
X911Y713D02*
X917Y713D01*
X1212Y713D02*
X1219Y713D01*
X0Y712D02*
X7Y712D01*
X246Y712D02*
X250Y712D01*
X290Y712D02*
X306Y712D01*
X338Y712D02*
X350Y712D01*
X360Y712D02*
X364Y712D01*
X395Y712D02*
X409Y712D01*
X864Y712D02*
X870Y712D01*
X887Y712D02*
X894Y712D01*
X911Y712D02*
X917Y712D01*
X1212Y712D02*
X1219Y712D01*
X0Y711D02*
X7Y711D01*
X864Y711D02*
X870Y711D01*
X886Y711D02*
X895Y711D01*
X911Y711D02*
X917Y711D01*
X1212Y711D02*
X1219Y711D01*
X0Y710D02*
X7Y710D01*
X864Y710D02*
X917Y710D01*
X1212Y710D02*
X1219Y710D01*
X0Y709D02*
X7Y709D01*
X864Y709D02*
X917Y709D01*
X1212Y709D02*
X1219Y709D01*
X0Y708D02*
X7Y708D01*
X864Y708D02*
X916Y708D01*
X1212Y708D02*
X1219Y708D01*
X0Y707D02*
X7Y707D01*
X864Y707D02*
X916Y707D01*
X1212Y707D02*
X1219Y707D01*
X0Y706D02*
X7Y706D01*
X865Y706D02*
X915Y706D01*
X1212Y706D02*
X1219Y706D01*
X0Y705D02*
X7Y705D01*
X866Y705D02*
X888Y705D01*
X892Y705D02*
X914Y705D01*
X1212Y705D02*
X1219Y705D01*
X0Y704D02*
X7Y704D01*
X867Y704D02*
X887Y704D01*
X894Y704D02*
X913Y704D01*
X1212Y704D02*
X1219Y704D01*
X0Y703D02*
X7Y703D01*
X1212Y703D02*
X1219Y703D01*
X0Y702D02*
X7Y702D01*
X1212Y702D02*
X1219Y702D01*
X0Y701D02*
X7Y701D01*
X1212Y701D02*
X1219Y701D01*
X0Y700D02*
X7Y700D01*
X1212Y700D02*
X1219Y700D01*
X0Y699D02*
X7Y699D01*
X1212Y699D02*
X1219Y699D01*
X0Y698D02*
X7Y698D01*
X1212Y698D02*
X1219Y698D01*
X0Y697D02*
X7Y697D01*
X1212Y697D02*
X1219Y697D01*
X0Y696D02*
X7Y696D01*
X1212Y696D02*
X1219Y696D01*
X0Y695D02*
X7Y695D01*
X1212Y695D02*
X1219Y695D01*
X0Y694D02*
X7Y694D01*
X1212Y694D02*
X1219Y694D01*
X0Y693D02*
X7Y693D01*
X1212Y693D02*
X1219Y693D01*
X0Y692D02*
X7Y692D01*
X1212Y692D02*
X1219Y692D01*
X0Y691D02*
X7Y691D01*
X1212Y691D02*
X1219Y691D01*
X0Y690D02*
X7Y690D01*
X1212Y690D02*
X1219Y690D01*
X0Y689D02*
X7Y689D01*
X1212Y689D02*
X1219Y689D01*
X0Y688D02*
X7Y688D01*
X1212Y688D02*
X1219Y688D01*
X0Y687D02*
X7Y687D01*
X865Y687D02*
X868Y687D01*
X912Y687D02*
X915Y687D01*
X1212Y687D02*
X1219Y687D01*
X0Y686D02*
X7Y686D01*
X864Y686D02*
X869Y686D01*
X911Y686D02*
X916Y686D01*
X1212Y686D02*
X1219Y686D01*
X0Y685D02*
X7Y685D01*
X864Y685D02*
X869Y685D01*
X911Y685D02*
X917Y685D01*
X1212Y685D02*
X1219Y685D01*
X0Y684D02*
X7Y684D01*
X864Y684D02*
X870Y684D01*
X911Y684D02*
X917Y684D01*
X1212Y684D02*
X1219Y684D01*
X0Y683D02*
X7Y683D01*
X864Y683D02*
X870Y683D01*
X911Y683D02*
X917Y683D01*
X1212Y683D02*
X1219Y683D01*
X0Y682D02*
X7Y682D01*
X864Y682D02*
X870Y682D01*
X911Y682D02*
X917Y682D01*
X1212Y682D02*
X1219Y682D01*
X0Y681D02*
X7Y681D01*
X864Y681D02*
X870Y681D01*
X911Y681D02*
X917Y681D01*
X1212Y681D02*
X1219Y681D01*
X0Y680D02*
X7Y680D01*
X864Y680D02*
X870Y680D01*
X889Y680D02*
X892Y680D01*
X911Y680D02*
X917Y680D01*
X1212Y680D02*
X1219Y680D01*
X0Y679D02*
X7Y679D01*
X864Y679D02*
X870Y679D01*
X888Y679D02*
X893Y679D01*
X911Y679D02*
X917Y679D01*
X1212Y679D02*
X1219Y679D01*
X0Y678D02*
X7Y678D01*
X864Y678D02*
X870Y678D01*
X887Y678D02*
X893Y678D01*
X911Y678D02*
X917Y678D01*
X1212Y678D02*
X1219Y678D01*
X0Y677D02*
X7Y677D01*
X864Y677D02*
X870Y677D01*
X887Y677D02*
X893Y677D01*
X911Y677D02*
X917Y677D01*
X1212Y677D02*
X1219Y677D01*
X0Y676D02*
X7Y676D01*
X864Y676D02*
X870Y676D01*
X887Y676D02*
X893Y676D01*
X911Y676D02*
X917Y676D01*
X1212Y676D02*
X1219Y676D01*
X0Y675D02*
X7Y675D01*
X302Y675D02*
X303Y675D01*
X864Y675D02*
X870Y675D01*
X887Y675D02*
X893Y675D01*
X911Y675D02*
X917Y675D01*
X1212Y675D02*
X1219Y675D01*
X0Y674D02*
X7Y674D01*
X301Y674D02*
X304Y674D01*
X864Y674D02*
X870Y674D01*
X887Y674D02*
X893Y674D01*
X911Y674D02*
X917Y674D01*
X1212Y674D02*
X1219Y674D01*
X0Y673D02*
X7Y673D01*
X300Y673D02*
X305Y673D01*
X864Y673D02*
X870Y673D01*
X887Y673D02*
X893Y673D01*
X911Y673D02*
X917Y673D01*
X1212Y673D02*
X1219Y673D01*
X0Y672D02*
X7Y672D01*
X299Y672D02*
X305Y672D01*
X864Y672D02*
X870Y672D01*
X887Y672D02*
X893Y672D01*
X911Y672D02*
X917Y672D01*
X1212Y672D02*
X1219Y672D01*
X0Y671D02*
X7Y671D01*
X298Y671D02*
X304Y671D01*
X864Y671D02*
X870Y671D01*
X887Y671D02*
X893Y671D01*
X911Y671D02*
X917Y671D01*
X1212Y671D02*
X1219Y671D01*
X0Y670D02*
X7Y670D01*
X179Y670D02*
X212Y670D01*
X297Y670D02*
X303Y670D01*
X864Y670D02*
X870Y670D01*
X887Y670D02*
X893Y670D01*
X911Y670D02*
X917Y670D01*
X1212Y670D02*
X1219Y670D01*
X0Y669D02*
X7Y669D01*
X179Y669D02*
X213Y669D01*
X296Y669D02*
X302Y669D01*
X864Y669D02*
X870Y669D01*
X887Y669D02*
X893Y669D01*
X911Y669D02*
X917Y669D01*
X1212Y669D02*
X1219Y669D01*
X0Y668D02*
X7Y668D01*
X179Y668D02*
X214Y668D01*
X295Y668D02*
X301Y668D01*
X864Y668D02*
X870Y668D01*
X887Y668D02*
X893Y668D01*
X911Y668D02*
X917Y668D01*
X1212Y668D02*
X1219Y668D01*
X0Y667D02*
X7Y667D01*
X179Y667D02*
X214Y667D01*
X294Y667D02*
X300Y667D01*
X864Y667D02*
X870Y667D01*
X887Y667D02*
X893Y667D01*
X911Y667D02*
X917Y667D01*
X1212Y667D02*
X1219Y667D01*
X0Y666D02*
X7Y666D01*
X179Y666D02*
X214Y666D01*
X293Y666D02*
X299Y666D01*
X864Y666D02*
X870Y666D01*
X887Y666D02*
X893Y666D01*
X911Y666D02*
X917Y666D01*
X1212Y666D02*
X1219Y666D01*
X0Y665D02*
X7Y665D01*
X179Y665D02*
X214Y665D01*
X292Y665D02*
X298Y665D01*
X864Y665D02*
X870Y665D01*
X887Y665D02*
X893Y665D01*
X911Y665D02*
X917Y665D01*
X1212Y665D02*
X1219Y665D01*
X0Y664D02*
X7Y664D01*
X179Y664D02*
X213Y664D01*
X291Y664D02*
X297Y664D01*
X864Y664D02*
X870Y664D01*
X887Y664D02*
X893Y664D01*
X911Y664D02*
X917Y664D01*
X1212Y664D02*
X1219Y664D01*
X0Y663D02*
X7Y663D01*
X179Y663D02*
X185Y663D01*
X290Y663D02*
X296Y663D01*
X864Y663D02*
X870Y663D01*
X887Y663D02*
X893Y663D01*
X911Y663D02*
X917Y663D01*
X1212Y663D02*
X1219Y663D01*
X0Y662D02*
X7Y662D01*
X179Y662D02*
X185Y662D01*
X289Y662D02*
X295Y662D01*
X864Y662D02*
X870Y662D01*
X887Y662D02*
X894Y662D01*
X911Y662D02*
X917Y662D01*
X1212Y662D02*
X1219Y662D01*
X0Y661D02*
X7Y661D01*
X179Y661D02*
X185Y661D01*
X288Y661D02*
X294Y661D01*
X864Y661D02*
X870Y661D01*
X886Y661D02*
X894Y661D01*
X911Y661D02*
X917Y661D01*
X1212Y661D02*
X1219Y661D01*
X0Y660D02*
X7Y660D01*
X179Y660D02*
X185Y660D01*
X287Y660D02*
X293Y660D01*
X864Y660D02*
X917Y660D01*
X1212Y660D02*
X1219Y660D01*
X0Y659D02*
X7Y659D01*
X179Y659D02*
X185Y659D01*
X286Y659D02*
X292Y659D01*
X782Y659D02*
X856Y659D01*
X864Y659D02*
X917Y659D01*
X1212Y659D02*
X1219Y659D01*
X0Y658D02*
X7Y658D01*
X179Y658D02*
X185Y658D01*
X285Y658D02*
X291Y658D01*
X782Y658D02*
X856Y658D01*
X864Y658D02*
X916Y658D01*
X1212Y658D02*
X1219Y658D01*
X0Y657D02*
X7Y657D01*
X179Y657D02*
X185Y657D01*
X284Y657D02*
X290Y657D01*
X782Y657D02*
X856Y657D01*
X864Y657D02*
X916Y657D01*
X1212Y657D02*
X1219Y657D01*
X0Y656D02*
X7Y656D01*
X179Y656D02*
X185Y656D01*
X283Y656D02*
X288Y656D01*
X782Y656D02*
X784Y656D01*
X854Y656D02*
X856Y656D01*
X865Y656D02*
X915Y656D01*
X1212Y656D02*
X1219Y656D01*
X0Y655D02*
X7Y655D01*
X179Y655D02*
X185Y655D01*
X282Y655D02*
X287Y655D01*
X782Y655D02*
X784Y655D01*
X854Y655D02*
X856Y655D01*
X866Y655D02*
X889Y655D01*
X892Y655D02*
X914Y655D01*
X1212Y655D02*
X1219Y655D01*
X0Y654D02*
X7Y654D01*
X179Y654D02*
X185Y654D01*
X281Y654D02*
X287Y654D01*
X782Y654D02*
X784Y654D01*
X854Y654D02*
X856Y654D01*
X867Y654D02*
X887Y654D01*
X893Y654D02*
X913Y654D01*
X1212Y654D02*
X1219Y654D01*
X0Y653D02*
X7Y653D01*
X179Y653D02*
X185Y653D01*
X280Y653D02*
X286Y653D01*
X782Y653D02*
X784Y653D01*
X854Y653D02*
X856Y653D01*
X1212Y653D02*
X1219Y653D01*
X0Y652D02*
X7Y652D01*
X179Y652D02*
X185Y652D01*
X279Y652D02*
X285Y652D01*
X782Y652D02*
X784Y652D01*
X854Y652D02*
X856Y652D01*
X1212Y652D02*
X1219Y652D01*
X0Y651D02*
X7Y651D01*
X179Y651D02*
X185Y651D01*
X278Y651D02*
X284Y651D01*
X782Y651D02*
X784Y651D01*
X854Y651D02*
X856Y651D01*
X1212Y651D02*
X1219Y651D01*
X0Y650D02*
X7Y650D01*
X179Y650D02*
X185Y650D01*
X277Y650D02*
X283Y650D01*
X782Y650D02*
X784Y650D01*
X854Y650D02*
X856Y650D01*
X1212Y650D02*
X1219Y650D01*
X0Y649D02*
X7Y649D01*
X163Y649D02*
X207Y649D01*
X276Y649D02*
X282Y649D01*
X782Y649D02*
X784Y649D01*
X854Y649D02*
X856Y649D01*
X1212Y649D02*
X1219Y649D01*
X0Y648D02*
X7Y648D01*
X162Y648D02*
X208Y648D01*
X275Y648D02*
X281Y648D01*
X782Y648D02*
X784Y648D01*
X854Y648D02*
X856Y648D01*
X1212Y648D02*
X1219Y648D01*
X0Y647D02*
X7Y647D01*
X161Y647D02*
X208Y647D01*
X274Y647D02*
X280Y647D01*
X782Y647D02*
X784Y647D01*
X854Y647D02*
X856Y647D01*
X1212Y647D02*
X1219Y647D01*
X0Y646D02*
X7Y646D01*
X161Y646D02*
X208Y646D01*
X273Y646D02*
X279Y646D01*
X782Y646D02*
X784Y646D01*
X854Y646D02*
X856Y646D01*
X1212Y646D02*
X1219Y646D01*
X0Y645D02*
X7Y645D01*
X161Y645D02*
X208Y645D01*
X272Y645D02*
X278Y645D01*
X782Y645D02*
X784Y645D01*
X854Y645D02*
X856Y645D01*
X1212Y645D02*
X1219Y645D01*
X0Y644D02*
X7Y644D01*
X162Y644D02*
X208Y644D01*
X271Y644D02*
X277Y644D01*
X782Y644D02*
X784Y644D01*
X854Y644D02*
X856Y644D01*
X1212Y644D02*
X1219Y644D01*
X0Y643D02*
X7Y643D01*
X163Y643D02*
X207Y643D01*
X270Y643D02*
X276Y643D01*
X782Y643D02*
X784Y643D01*
X854Y643D02*
X856Y643D01*
X1212Y643D02*
X1219Y643D01*
X0Y642D02*
X7Y642D01*
X179Y642D02*
X185Y642D01*
X269Y642D02*
X275Y642D01*
X782Y642D02*
X784Y642D01*
X854Y642D02*
X856Y642D01*
X1212Y642D02*
X1219Y642D01*
X0Y641D02*
X7Y641D01*
X179Y641D02*
X184Y641D01*
X268Y641D02*
X274Y641D01*
X782Y641D02*
X784Y641D01*
X854Y641D02*
X856Y641D01*
X1212Y641D02*
X1219Y641D01*
X0Y640D02*
X7Y640D01*
X180Y640D02*
X184Y640D01*
X269Y640D02*
X273Y640D01*
X782Y640D02*
X784Y640D01*
X854Y640D02*
X856Y640D01*
X1212Y640D02*
X1219Y640D01*
X0Y639D02*
X7Y639D01*
X270Y639D02*
X272Y639D01*
X782Y639D02*
X784Y639D01*
X854Y639D02*
X856Y639D01*
X1212Y639D02*
X1219Y639D01*
X0Y638D02*
X7Y638D01*
X271Y638D02*
X271Y638D01*
X782Y638D02*
X784Y638D01*
X854Y638D02*
X856Y638D01*
X1212Y638D02*
X1219Y638D01*
X0Y637D02*
X7Y637D01*
X782Y637D02*
X784Y637D01*
X854Y637D02*
X856Y637D01*
X868Y637D02*
X912Y637D01*
X1212Y637D02*
X1219Y637D01*
X0Y636D02*
X7Y636D01*
X782Y636D02*
X784Y636D01*
X854Y636D02*
X856Y636D01*
X866Y636D02*
X914Y636D01*
X1212Y636D02*
X1219Y636D01*
X0Y635D02*
X7Y635D01*
X782Y635D02*
X784Y635D01*
X854Y635D02*
X856Y635D01*
X865Y635D02*
X915Y635D01*
X1212Y635D02*
X1219Y635D01*
X0Y634D02*
X7Y634D01*
X782Y634D02*
X784Y634D01*
X854Y634D02*
X856Y634D01*
X865Y634D02*
X916Y634D01*
X1212Y634D02*
X1219Y634D01*
X0Y633D02*
X7Y633D01*
X782Y633D02*
X784Y633D01*
X854Y633D02*
X856Y633D01*
X864Y633D02*
X916Y633D01*
X1212Y633D02*
X1219Y633D01*
X0Y632D02*
X7Y632D01*
X782Y632D02*
X784Y632D01*
X854Y632D02*
X856Y632D01*
X864Y632D02*
X917Y632D01*
X1212Y632D02*
X1219Y632D01*
X0Y631D02*
X7Y631D01*
X782Y631D02*
X784Y631D01*
X854Y631D02*
X856Y631D01*
X864Y631D02*
X917Y631D01*
X1212Y631D02*
X1219Y631D01*
X0Y630D02*
X7Y630D01*
X782Y630D02*
X784Y630D01*
X854Y630D02*
X856Y630D01*
X864Y630D02*
X870Y630D01*
X911Y630D02*
X917Y630D01*
X1212Y630D02*
X1219Y630D01*
X0Y629D02*
X7Y629D01*
X782Y629D02*
X784Y629D01*
X854Y629D02*
X856Y629D01*
X864Y629D02*
X870Y629D01*
X911Y629D02*
X917Y629D01*
X1212Y629D02*
X1219Y629D01*
X0Y628D02*
X7Y628D01*
X782Y628D02*
X784Y628D01*
X854Y628D02*
X856Y628D01*
X864Y628D02*
X870Y628D01*
X911Y628D02*
X917Y628D01*
X1212Y628D02*
X1219Y628D01*
X0Y627D02*
X7Y627D01*
X782Y627D02*
X784Y627D01*
X854Y627D02*
X856Y627D01*
X864Y627D02*
X870Y627D01*
X911Y627D02*
X917Y627D01*
X1212Y627D02*
X1219Y627D01*
X0Y626D02*
X7Y626D01*
X782Y626D02*
X784Y626D01*
X854Y626D02*
X856Y626D01*
X864Y626D02*
X870Y626D01*
X911Y626D02*
X917Y626D01*
X1212Y626D02*
X1219Y626D01*
X0Y625D02*
X7Y625D01*
X782Y625D02*
X784Y625D01*
X854Y625D02*
X856Y625D01*
X864Y625D02*
X870Y625D01*
X911Y625D02*
X917Y625D01*
X1212Y625D02*
X1219Y625D01*
X0Y624D02*
X7Y624D01*
X782Y624D02*
X784Y624D01*
X854Y624D02*
X856Y624D01*
X864Y624D02*
X870Y624D01*
X911Y624D02*
X917Y624D01*
X1212Y624D02*
X1219Y624D01*
X0Y623D02*
X7Y623D01*
X782Y623D02*
X784Y623D01*
X854Y623D02*
X856Y623D01*
X864Y623D02*
X870Y623D01*
X911Y623D02*
X917Y623D01*
X1212Y623D02*
X1219Y623D01*
X0Y622D02*
X7Y622D01*
X782Y622D02*
X784Y622D01*
X854Y622D02*
X856Y622D01*
X864Y622D02*
X870Y622D01*
X911Y622D02*
X917Y622D01*
X1212Y622D02*
X1219Y622D01*
X0Y621D02*
X7Y621D01*
X782Y621D02*
X784Y621D01*
X854Y621D02*
X856Y621D01*
X864Y621D02*
X870Y621D01*
X911Y621D02*
X917Y621D01*
X1212Y621D02*
X1219Y621D01*
X0Y620D02*
X7Y620D01*
X782Y620D02*
X784Y620D01*
X854Y620D02*
X856Y620D01*
X864Y620D02*
X870Y620D01*
X911Y620D02*
X917Y620D01*
X1212Y620D02*
X1219Y620D01*
X0Y619D02*
X7Y619D01*
X782Y619D02*
X784Y619D01*
X854Y619D02*
X856Y619D01*
X864Y619D02*
X870Y619D01*
X911Y619D02*
X917Y619D01*
X1212Y619D02*
X1219Y619D01*
X0Y618D02*
X7Y618D01*
X782Y618D02*
X784Y618D01*
X854Y618D02*
X856Y618D01*
X864Y618D02*
X870Y618D01*
X911Y618D02*
X917Y618D01*
X1212Y618D02*
X1219Y618D01*
X0Y617D02*
X7Y617D01*
X782Y617D02*
X784Y617D01*
X854Y617D02*
X856Y617D01*
X864Y617D02*
X870Y617D01*
X911Y617D02*
X917Y617D01*
X1212Y617D02*
X1219Y617D01*
X0Y616D02*
X7Y616D01*
X782Y616D02*
X784Y616D01*
X854Y616D02*
X856Y616D01*
X864Y616D02*
X870Y616D01*
X911Y616D02*
X917Y616D01*
X1212Y616D02*
X1219Y616D01*
X0Y615D02*
X7Y615D01*
X782Y615D02*
X784Y615D01*
X854Y615D02*
X856Y615D01*
X864Y615D02*
X870Y615D01*
X911Y615D02*
X917Y615D01*
X1212Y615D02*
X1219Y615D01*
X0Y614D02*
X7Y614D01*
X782Y614D02*
X784Y614D01*
X854Y614D02*
X856Y614D01*
X864Y614D02*
X870Y614D01*
X911Y614D02*
X917Y614D01*
X1212Y614D02*
X1219Y614D01*
X0Y613D02*
X7Y613D01*
X782Y613D02*
X784Y613D01*
X854Y613D02*
X856Y613D01*
X864Y613D02*
X870Y613D01*
X911Y613D02*
X917Y613D01*
X1212Y613D02*
X1219Y613D01*
X0Y612D02*
X7Y612D01*
X782Y612D02*
X784Y612D01*
X854Y612D02*
X856Y612D01*
X864Y612D02*
X870Y612D01*
X911Y612D02*
X917Y612D01*
X1212Y612D02*
X1219Y612D01*
X0Y611D02*
X7Y611D01*
X172Y611D02*
X180Y611D01*
X782Y611D02*
X784Y611D01*
X854Y611D02*
X856Y611D01*
X864Y611D02*
X870Y611D01*
X911Y611D02*
X917Y611D01*
X1212Y611D02*
X1219Y611D01*
X0Y610D02*
X7Y610D01*
X171Y610D02*
X181Y610D01*
X782Y610D02*
X784Y610D01*
X854Y610D02*
X856Y610D01*
X864Y610D02*
X870Y610D01*
X910Y610D02*
X917Y610D01*
X1212Y610D02*
X1219Y610D01*
X0Y609D02*
X7Y609D01*
X170Y609D02*
X182Y609D01*
X782Y609D02*
X784Y609D01*
X854Y609D02*
X856Y609D01*
X864Y609D02*
X917Y609D01*
X1212Y609D02*
X1219Y609D01*
X0Y608D02*
X7Y608D01*
X170Y608D02*
X182Y608D01*
X782Y608D02*
X784Y608D01*
X854Y608D02*
X856Y608D01*
X864Y608D02*
X916Y608D01*
X1212Y608D02*
X1219Y608D01*
X0Y607D02*
X7Y607D01*
X170Y607D02*
X182Y607D01*
X782Y607D02*
X784Y607D01*
X854Y607D02*
X856Y607D01*
X864Y607D02*
X916Y607D01*
X1212Y607D02*
X1219Y607D01*
X0Y606D02*
X7Y606D01*
X170Y606D02*
X182Y606D01*
X782Y606D02*
X784Y606D01*
X854Y606D02*
X856Y606D01*
X865Y606D02*
X915Y606D01*
X1212Y606D02*
X1219Y606D01*
X0Y605D02*
X7Y605D01*
X170Y605D02*
X182Y605D01*
X782Y605D02*
X784Y605D01*
X854Y605D02*
X856Y605D01*
X866Y605D02*
X915Y605D01*
X1212Y605D02*
X1219Y605D01*
X0Y604D02*
X7Y604D01*
X170Y604D02*
X182Y604D01*
X782Y604D02*
X784Y604D01*
X854Y604D02*
X856Y604D01*
X867Y604D02*
X913Y604D01*
X1212Y604D02*
X1219Y604D01*
X0Y603D02*
X7Y603D01*
X170Y603D02*
X182Y603D01*
X782Y603D02*
X784Y603D01*
X854Y603D02*
X856Y603D01*
X869Y603D02*
X911Y603D01*
X1212Y603D02*
X1219Y603D01*
X0Y602D02*
X7Y602D01*
X170Y602D02*
X182Y602D01*
X782Y602D02*
X784Y602D01*
X854Y602D02*
X856Y602D01*
X1212Y602D02*
X1219Y602D01*
X0Y601D02*
X7Y601D01*
X170Y601D02*
X182Y601D01*
X782Y601D02*
X784Y601D01*
X854Y601D02*
X856Y601D01*
X1212Y601D02*
X1219Y601D01*
X0Y600D02*
X7Y600D01*
X170Y600D02*
X182Y600D01*
X782Y600D02*
X784Y600D01*
X854Y600D02*
X856Y600D01*
X1212Y600D02*
X1219Y600D01*
X0Y599D02*
X7Y599D01*
X171Y599D02*
X181Y599D01*
X782Y599D02*
X784Y599D01*
X854Y599D02*
X856Y599D01*
X1212Y599D02*
X1219Y599D01*
X0Y598D02*
X7Y598D01*
X172Y598D02*
X180Y598D01*
X782Y598D02*
X784Y598D01*
X854Y598D02*
X856Y598D01*
X1212Y598D02*
X1219Y598D01*
X0Y597D02*
X7Y597D01*
X782Y597D02*
X784Y597D01*
X854Y597D02*
X856Y597D01*
X1212Y597D02*
X1219Y597D01*
X0Y596D02*
X7Y596D01*
X782Y596D02*
X784Y596D01*
X854Y596D02*
X856Y596D01*
X1212Y596D02*
X1219Y596D01*
X0Y595D02*
X7Y595D01*
X551Y595D02*
X552Y595D01*
X737Y595D02*
X738Y595D01*
X782Y595D02*
X784Y595D01*
X854Y595D02*
X856Y595D01*
X1212Y595D02*
X1219Y595D01*
X0Y594D02*
X7Y594D01*
X93Y594D02*
X93Y594D01*
X146Y594D02*
X146Y594D01*
X549Y594D02*
X552Y594D01*
X737Y594D02*
X739Y594D01*
X782Y594D02*
X784Y594D01*
X854Y594D02*
X856Y594D01*
X1212Y594D02*
X1219Y594D01*
X0Y593D02*
X7Y593D01*
X92Y593D02*
X94Y593D01*
X145Y593D02*
X147Y593D01*
X549Y593D02*
X552Y593D01*
X737Y593D02*
X740Y593D01*
X782Y593D02*
X784Y593D01*
X854Y593D02*
X856Y593D01*
X1212Y593D02*
X1219Y593D01*
X0Y592D02*
X7Y592D01*
X91Y592D02*
X96Y592D01*
X143Y592D02*
X148Y592D01*
X549Y592D02*
X552Y592D01*
X737Y592D02*
X740Y592D01*
X782Y592D02*
X784Y592D01*
X854Y592D02*
X856Y592D01*
X1212Y592D02*
X1219Y592D01*
X0Y591D02*
X7Y591D01*
X91Y591D02*
X97Y591D01*
X142Y591D02*
X148Y591D01*
X549Y591D02*
X552Y591D01*
X737Y591D02*
X740Y591D01*
X782Y591D02*
X785Y591D01*
X853Y591D02*
X856Y591D01*
X1212Y591D02*
X1219Y591D01*
X0Y590D02*
X7Y590D01*
X90Y590D02*
X98Y590D01*
X141Y590D02*
X149Y590D01*
X549Y590D02*
X552Y590D01*
X737Y590D02*
X740Y590D01*
X782Y590D02*
X785Y590D01*
X853Y590D02*
X856Y590D01*
X1212Y590D02*
X1219Y590D01*
X0Y589D02*
X7Y589D01*
X90Y589D02*
X98Y589D01*
X141Y589D02*
X149Y589D01*
X549Y589D02*
X552Y589D01*
X737Y589D02*
X740Y589D01*
X782Y589D02*
X785Y589D01*
X853Y589D02*
X856Y589D01*
X1212Y589D02*
X1219Y589D01*
X0Y588D02*
X7Y588D01*
X89Y588D02*
X97Y588D01*
X142Y588D02*
X150Y588D01*
X549Y588D02*
X552Y588D01*
X737Y588D02*
X740Y588D01*
X782Y588D02*
X785Y588D01*
X853Y588D02*
X856Y588D01*
X1212Y588D02*
X1219Y588D01*
X0Y587D02*
X7Y587D01*
X89Y587D02*
X96Y587D01*
X142Y587D02*
X150Y587D01*
X549Y587D02*
X552Y587D01*
X737Y587D02*
X740Y587D01*
X782Y587D02*
X785Y587D01*
X853Y587D02*
X856Y587D01*
X1212Y587D02*
X1219Y587D01*
X0Y586D02*
X7Y586D01*
X88Y586D02*
X96Y586D01*
X143Y586D02*
X151Y586D01*
X549Y586D02*
X552Y586D01*
X737Y586D02*
X740Y586D01*
X782Y586D02*
X785Y586D01*
X853Y586D02*
X856Y586D01*
X1212Y586D02*
X1219Y586D01*
X0Y585D02*
X7Y585D01*
X88Y585D02*
X95Y585D01*
X144Y585D02*
X151Y585D01*
X549Y585D02*
X552Y585D01*
X737Y585D02*
X740Y585D01*
X782Y585D02*
X785Y585D01*
X853Y585D02*
X856Y585D01*
X1212Y585D02*
X1219Y585D01*
X0Y584D02*
X7Y584D01*
X88Y584D02*
X95Y584D01*
X144Y584D02*
X151Y584D01*
X549Y584D02*
X552Y584D01*
X737Y584D02*
X740Y584D01*
X782Y584D02*
X785Y584D01*
X853Y584D02*
X856Y584D01*
X1212Y584D02*
X1219Y584D01*
X0Y583D02*
X7Y583D01*
X87Y583D02*
X94Y583D01*
X144Y583D02*
X152Y583D01*
X549Y583D02*
X552Y583D01*
X737Y583D02*
X740Y583D01*
X782Y583D02*
X785Y583D01*
X853Y583D02*
X856Y583D01*
X1212Y583D02*
X1219Y583D01*
X0Y582D02*
X7Y582D01*
X87Y582D02*
X94Y582D01*
X145Y582D02*
X152Y582D01*
X549Y582D02*
X552Y582D01*
X737Y582D02*
X740Y582D01*
X782Y582D02*
X785Y582D01*
X853Y582D02*
X856Y582D01*
X1212Y582D02*
X1219Y582D01*
X0Y581D02*
X7Y581D01*
X87Y581D02*
X94Y581D01*
X145Y581D02*
X152Y581D01*
X549Y581D02*
X552Y581D01*
X737Y581D02*
X740Y581D01*
X782Y581D02*
X785Y581D01*
X853Y581D02*
X856Y581D01*
X1212Y581D02*
X1219Y581D01*
X0Y580D02*
X7Y580D01*
X87Y580D02*
X94Y580D01*
X145Y580D02*
X152Y580D01*
X549Y580D02*
X552Y580D01*
X737Y580D02*
X740Y580D01*
X782Y580D02*
X785Y580D01*
X853Y580D02*
X856Y580D01*
X1212Y580D02*
X1219Y580D01*
X0Y579D02*
X7Y579D01*
X87Y579D02*
X93Y579D01*
X146Y579D02*
X152Y579D01*
X549Y579D02*
X552Y579D01*
X737Y579D02*
X740Y579D01*
X782Y579D02*
X785Y579D01*
X853Y579D02*
X856Y579D01*
X1212Y579D02*
X1219Y579D01*
X0Y578D02*
X7Y578D01*
X86Y578D02*
X93Y578D01*
X146Y578D02*
X153Y578D01*
X549Y578D02*
X552Y578D01*
X737Y578D02*
X740Y578D01*
X782Y578D02*
X785Y578D01*
X853Y578D02*
X856Y578D01*
X1212Y578D02*
X1219Y578D01*
X0Y577D02*
X7Y577D01*
X86Y577D02*
X93Y577D01*
X146Y577D02*
X153Y577D01*
X549Y577D02*
X552Y577D01*
X737Y577D02*
X740Y577D01*
X782Y577D02*
X785Y577D01*
X853Y577D02*
X856Y577D01*
X1212Y577D02*
X1219Y577D01*
X0Y576D02*
X7Y576D01*
X86Y576D02*
X93Y576D01*
X146Y576D02*
X153Y576D01*
X549Y576D02*
X552Y576D01*
X737Y576D02*
X740Y576D01*
X782Y576D02*
X784Y576D01*
X854Y576D02*
X856Y576D01*
X1212Y576D02*
X1219Y576D01*
X0Y575D02*
X7Y575D01*
X86Y575D02*
X93Y575D01*
X146Y575D02*
X153Y575D01*
X549Y575D02*
X554Y575D01*
X735Y575D02*
X740Y575D01*
X782Y575D02*
X784Y575D01*
X854Y575D02*
X856Y575D01*
X1212Y575D02*
X1219Y575D01*
X0Y574D02*
X7Y574D01*
X86Y574D02*
X93Y574D01*
X146Y574D02*
X153Y574D01*
X549Y574D02*
X554Y574D01*
X735Y574D02*
X740Y574D01*
X782Y574D02*
X784Y574D01*
X854Y574D02*
X856Y574D01*
X1212Y574D02*
X1219Y574D01*
X0Y573D02*
X7Y573D01*
X86Y573D02*
X93Y573D01*
X146Y573D02*
X153Y573D01*
X549Y573D02*
X554Y573D01*
X735Y573D02*
X740Y573D01*
X782Y573D02*
X784Y573D01*
X854Y573D02*
X856Y573D01*
X1212Y573D02*
X1219Y573D01*
X0Y572D02*
X7Y572D01*
X86Y572D02*
X93Y572D01*
X146Y572D02*
X153Y572D01*
X549Y572D02*
X554Y572D01*
X735Y572D02*
X740Y572D01*
X782Y572D02*
X784Y572D01*
X854Y572D02*
X856Y572D01*
X1212Y572D02*
X1219Y572D01*
X0Y571D02*
X7Y571D01*
X86Y571D02*
X93Y571D01*
X146Y571D02*
X153Y571D01*
X207Y571D02*
X213Y571D01*
X549Y571D02*
X554Y571D01*
X735Y571D02*
X740Y571D01*
X782Y571D02*
X784Y571D01*
X854Y571D02*
X856Y571D01*
X1212Y571D02*
X1219Y571D01*
X0Y570D02*
X7Y570D01*
X86Y570D02*
X93Y570D01*
X146Y570D02*
X152Y570D01*
X206Y570D02*
X214Y570D01*
X549Y570D02*
X554Y570D01*
X735Y570D02*
X740Y570D01*
X782Y570D02*
X784Y570D01*
X854Y570D02*
X856Y570D01*
X1212Y570D02*
X1219Y570D01*
X0Y569D02*
X7Y569D01*
X87Y569D02*
X93Y569D01*
X145Y569D02*
X152Y569D01*
X206Y569D02*
X214Y569D01*
X549Y569D02*
X554Y569D01*
X735Y569D02*
X740Y569D01*
X782Y569D02*
X784Y569D01*
X854Y569D02*
X856Y569D01*
X1212Y569D02*
X1219Y569D01*
X0Y568D02*
X7Y568D01*
X87Y568D02*
X94Y568D01*
X145Y568D02*
X152Y568D01*
X205Y568D02*
X214Y568D01*
X549Y568D02*
X554Y568D01*
X735Y568D02*
X740Y568D01*
X782Y568D02*
X784Y568D01*
X854Y568D02*
X856Y568D01*
X1212Y568D02*
X1219Y568D01*
X0Y567D02*
X7Y567D01*
X87Y567D02*
X94Y567D01*
X145Y567D02*
X152Y567D01*
X206Y567D02*
X214Y567D01*
X549Y567D02*
X554Y567D01*
X735Y567D02*
X740Y567D01*
X782Y567D02*
X784Y567D01*
X854Y567D02*
X856Y567D01*
X1212Y567D02*
X1219Y567D01*
X0Y566D02*
X7Y566D01*
X87Y566D02*
X94Y566D01*
X145Y566D02*
X152Y566D01*
X206Y566D02*
X214Y566D01*
X549Y566D02*
X554Y566D01*
X735Y566D02*
X740Y566D01*
X782Y566D02*
X784Y566D01*
X854Y566D02*
X856Y566D01*
X1212Y566D02*
X1219Y566D01*
X0Y565D02*
X7Y565D01*
X87Y565D02*
X95Y565D01*
X144Y565D02*
X151Y565D01*
X207Y565D02*
X214Y565D01*
X549Y565D02*
X554Y565D01*
X735Y565D02*
X740Y565D01*
X782Y565D02*
X784Y565D01*
X854Y565D02*
X856Y565D01*
X1212Y565D02*
X1219Y565D01*
X0Y564D02*
X7Y564D01*
X88Y564D02*
X95Y564D01*
X144Y564D02*
X151Y564D01*
X208Y564D02*
X214Y564D01*
X549Y564D02*
X554Y564D01*
X735Y564D02*
X740Y564D01*
X782Y564D02*
X784Y564D01*
X854Y564D02*
X856Y564D01*
X1212Y564D02*
X1219Y564D01*
X0Y563D02*
X7Y563D01*
X88Y563D02*
X96Y563D01*
X143Y563D02*
X151Y563D01*
X208Y563D02*
X214Y563D01*
X549Y563D02*
X554Y563D01*
X735Y563D02*
X740Y563D01*
X782Y563D02*
X784Y563D01*
X854Y563D02*
X856Y563D01*
X1212Y563D02*
X1219Y563D01*
X0Y562D02*
X7Y562D01*
X88Y562D02*
X96Y562D01*
X143Y562D02*
X150Y562D01*
X208Y562D02*
X214Y562D01*
X549Y562D02*
X554Y562D01*
X735Y562D02*
X740Y562D01*
X782Y562D02*
X784Y562D01*
X854Y562D02*
X856Y562D01*
X1212Y562D02*
X1219Y562D01*
X0Y561D02*
X7Y561D01*
X89Y561D02*
X97Y561D01*
X142Y561D02*
X150Y561D01*
X208Y561D02*
X214Y561D01*
X549Y561D02*
X554Y561D01*
X735Y561D02*
X740Y561D01*
X782Y561D02*
X784Y561D01*
X854Y561D02*
X856Y561D01*
X1212Y561D02*
X1219Y561D01*
X0Y560D02*
X7Y560D01*
X89Y560D02*
X97Y560D01*
X141Y560D02*
X150Y560D01*
X208Y560D02*
X214Y560D01*
X549Y560D02*
X554Y560D01*
X735Y560D02*
X740Y560D01*
X782Y560D02*
X784Y560D01*
X854Y560D02*
X856Y560D01*
X1212Y560D02*
X1219Y560D01*
X0Y559D02*
X7Y559D01*
X90Y559D02*
X98Y559D01*
X141Y559D02*
X149Y559D01*
X208Y559D02*
X214Y559D01*
X549Y559D02*
X554Y559D01*
X735Y559D02*
X740Y559D01*
X782Y559D02*
X784Y559D01*
X854Y559D02*
X856Y559D01*
X1212Y559D02*
X1219Y559D01*
X0Y558D02*
X7Y558D01*
X90Y558D02*
X98Y558D01*
X141Y558D02*
X149Y558D01*
X208Y558D02*
X214Y558D01*
X549Y558D02*
X554Y558D01*
X735Y558D02*
X740Y558D01*
X782Y558D02*
X784Y558D01*
X854Y558D02*
X856Y558D01*
X1212Y558D02*
X1219Y558D01*
X0Y557D02*
X7Y557D01*
X91Y557D02*
X96Y557D01*
X143Y557D02*
X148Y557D01*
X163Y557D02*
X184Y557D01*
X208Y557D02*
X214Y557D01*
X549Y557D02*
X554Y557D01*
X735Y557D02*
X740Y557D01*
X782Y557D02*
X784Y557D01*
X854Y557D02*
X856Y557D01*
X1212Y557D02*
X1219Y557D01*
X0Y556D02*
X7Y556D01*
X92Y556D02*
X95Y556D01*
X144Y556D02*
X147Y556D01*
X162Y556D02*
X185Y556D01*
X208Y556D02*
X214Y556D01*
X549Y556D02*
X554Y556D01*
X735Y556D02*
X740Y556D01*
X782Y556D02*
X784Y556D01*
X854Y556D02*
X856Y556D01*
X1212Y556D02*
X1219Y556D01*
X0Y555D02*
X7Y555D01*
X92Y555D02*
X94Y555D01*
X145Y555D02*
X147Y555D01*
X161Y555D02*
X185Y555D01*
X208Y555D02*
X214Y555D01*
X549Y555D02*
X554Y555D01*
X735Y555D02*
X740Y555D01*
X782Y555D02*
X784Y555D01*
X854Y555D02*
X856Y555D01*
X1212Y555D02*
X1219Y555D01*
X0Y554D02*
X7Y554D01*
X146Y554D02*
X146Y554D01*
X161Y554D02*
X186Y554D01*
X208Y554D02*
X214Y554D01*
X549Y554D02*
X554Y554D01*
X599Y554D02*
X611Y554D01*
X735Y554D02*
X740Y554D01*
X782Y554D02*
X784Y554D01*
X854Y554D02*
X856Y554D01*
X1212Y554D02*
X1219Y554D01*
X0Y553D02*
X7Y553D01*
X162Y553D02*
X187Y553D01*
X208Y553D02*
X214Y553D01*
X549Y553D02*
X554Y553D01*
X598Y553D02*
X612Y553D01*
X735Y553D02*
X740Y553D01*
X782Y553D02*
X784Y553D01*
X854Y553D02*
X856Y553D01*
X1212Y553D02*
X1219Y553D01*
X0Y552D02*
X7Y552D01*
X162Y552D02*
X188Y552D01*
X208Y552D02*
X214Y552D01*
X549Y552D02*
X554Y552D01*
X597Y552D02*
X613Y552D01*
X735Y552D02*
X740Y552D01*
X782Y552D02*
X784Y552D01*
X854Y552D02*
X856Y552D01*
X1212Y552D02*
X1219Y552D01*
X0Y551D02*
X7Y551D01*
X164Y551D02*
X189Y551D01*
X208Y551D02*
X214Y551D01*
X549Y551D02*
X554Y551D01*
X597Y551D02*
X613Y551D01*
X735Y551D02*
X740Y551D01*
X782Y551D02*
X784Y551D01*
X854Y551D02*
X856Y551D01*
X1212Y551D02*
X1219Y551D01*
X0Y550D02*
X7Y550D01*
X181Y550D02*
X190Y550D01*
X208Y550D02*
X214Y550D01*
X549Y550D02*
X554Y550D01*
X597Y550D02*
X613Y550D01*
X735Y550D02*
X740Y550D01*
X782Y550D02*
X784Y550D01*
X854Y550D02*
X856Y550D01*
X1212Y550D02*
X1219Y550D01*
X0Y549D02*
X7Y549D01*
X182Y549D02*
X191Y549D01*
X208Y549D02*
X214Y549D01*
X549Y549D02*
X554Y549D01*
X597Y549D02*
X613Y549D01*
X735Y549D02*
X740Y549D01*
X782Y549D02*
X784Y549D01*
X854Y549D02*
X856Y549D01*
X1212Y549D02*
X1219Y549D01*
X0Y548D02*
X7Y548D01*
X183Y548D02*
X191Y548D01*
X208Y548D02*
X214Y548D01*
X549Y548D02*
X554Y548D01*
X598Y548D02*
X613Y548D01*
X735Y548D02*
X740Y548D01*
X782Y548D02*
X784Y548D01*
X854Y548D02*
X856Y548D01*
X1212Y548D02*
X1219Y548D01*
X0Y547D02*
X7Y547D01*
X184Y547D02*
X192Y547D01*
X208Y547D02*
X214Y547D01*
X549Y547D02*
X554Y547D01*
X607Y547D02*
X613Y547D01*
X735Y547D02*
X740Y547D01*
X782Y547D02*
X784Y547D01*
X854Y547D02*
X856Y547D01*
X1212Y547D02*
X1219Y547D01*
X0Y546D02*
X7Y546D01*
X185Y546D02*
X193Y546D01*
X208Y546D02*
X214Y546D01*
X549Y546D02*
X554Y546D01*
X607Y546D02*
X613Y546D01*
X735Y546D02*
X740Y546D01*
X782Y546D02*
X784Y546D01*
X854Y546D02*
X856Y546D01*
X1212Y546D02*
X1219Y546D01*
X0Y545D02*
X7Y545D01*
X186Y545D02*
X194Y545D01*
X208Y545D02*
X214Y545D01*
X549Y545D02*
X554Y545D01*
X607Y545D02*
X613Y545D01*
X735Y545D02*
X740Y545D01*
X782Y545D02*
X784Y545D01*
X854Y545D02*
X856Y545D01*
X1212Y545D02*
X1219Y545D01*
X0Y544D02*
X7Y544D01*
X187Y544D02*
X214Y544D01*
X549Y544D02*
X554Y544D01*
X607Y544D02*
X613Y544D01*
X735Y544D02*
X740Y544D01*
X782Y544D02*
X784Y544D01*
X854Y544D02*
X856Y544D01*
X1212Y544D02*
X1219Y544D01*
X0Y543D02*
X7Y543D01*
X187Y543D02*
X214Y543D01*
X549Y543D02*
X554Y543D01*
X607Y543D02*
X613Y543D01*
X735Y543D02*
X740Y543D01*
X782Y543D02*
X784Y543D01*
X854Y543D02*
X856Y543D01*
X1212Y543D02*
X1219Y543D01*
X0Y542D02*
X7Y542D01*
X188Y542D02*
X214Y542D01*
X549Y542D02*
X554Y542D01*
X607Y542D02*
X613Y542D01*
X735Y542D02*
X740Y542D01*
X782Y542D02*
X784Y542D01*
X854Y542D02*
X856Y542D01*
X1212Y542D02*
X1219Y542D01*
X0Y541D02*
X7Y541D01*
X189Y541D02*
X214Y541D01*
X549Y541D02*
X554Y541D01*
X607Y541D02*
X613Y541D01*
X735Y541D02*
X740Y541D01*
X782Y541D02*
X784Y541D01*
X854Y541D02*
X856Y541D01*
X1212Y541D02*
X1219Y541D01*
X0Y540D02*
X7Y540D01*
X190Y540D02*
X214Y540D01*
X549Y540D02*
X554Y540D01*
X607Y540D02*
X613Y540D01*
X735Y540D02*
X740Y540D01*
X782Y540D02*
X784Y540D01*
X854Y540D02*
X856Y540D01*
X1212Y540D02*
X1219Y540D01*
X0Y539D02*
X7Y539D01*
X191Y539D02*
X214Y539D01*
X500Y539D02*
X520Y539D01*
X549Y539D02*
X567Y539D01*
X607Y539D02*
X613Y539D01*
X652Y539D02*
X669Y539D01*
X695Y539D02*
X698Y539D01*
X709Y539D02*
X720Y539D01*
X735Y539D02*
X740Y539D01*
X782Y539D02*
X784Y539D01*
X854Y539D02*
X856Y539D01*
X1212Y539D02*
X1219Y539D01*
X0Y538D02*
X7Y538D01*
X192Y538D02*
X214Y538D01*
X498Y538D02*
X522Y538D01*
X549Y538D02*
X569Y538D01*
X607Y538D02*
X613Y538D01*
X651Y538D02*
X671Y538D01*
X694Y538D02*
X699Y538D01*
X708Y538D02*
X722Y538D01*
X735Y538D02*
X740Y538D01*
X782Y538D02*
X784Y538D01*
X854Y538D02*
X856Y538D01*
X1212Y538D02*
X1219Y538D01*
X0Y537D02*
X7Y537D01*
X194Y537D02*
X214Y537D01*
X497Y537D02*
X524Y537D01*
X549Y537D02*
X571Y537D01*
X607Y537D02*
X613Y537D01*
X651Y537D02*
X673Y537D01*
X694Y537D02*
X700Y537D01*
X707Y537D02*
X724Y537D01*
X735Y537D02*
X740Y537D01*
X782Y537D02*
X784Y537D01*
X854Y537D02*
X856Y537D01*
X1212Y537D02*
X1219Y537D01*
X0Y536D02*
X7Y536D01*
X496Y536D02*
X524Y536D01*
X548Y536D02*
X572Y536D01*
X607Y536D02*
X613Y536D01*
X651Y536D02*
X674Y536D01*
X694Y536D02*
X700Y536D01*
X706Y536D02*
X725Y536D01*
X735Y536D02*
X740Y536D01*
X782Y536D02*
X784Y536D01*
X854Y536D02*
X856Y536D01*
X1212Y536D02*
X1219Y536D01*
X0Y535D02*
X7Y535D01*
X495Y535D02*
X525Y535D01*
X547Y535D02*
X573Y535D01*
X607Y535D02*
X613Y535D01*
X651Y535D02*
X675Y535D01*
X694Y535D02*
X700Y535D01*
X704Y535D02*
X726Y535D01*
X735Y535D02*
X740Y535D01*
X782Y535D02*
X784Y535D01*
X854Y535D02*
X856Y535D01*
X1212Y535D02*
X1219Y535D01*
X0Y534D02*
X7Y534D01*
X495Y534D02*
X526Y534D01*
X546Y534D02*
X574Y534D01*
X607Y534D02*
X613Y534D01*
X651Y534D02*
X675Y534D01*
X694Y534D02*
X700Y534D01*
X703Y534D02*
X726Y534D01*
X735Y534D02*
X740Y534D01*
X782Y534D02*
X784Y534D01*
X854Y534D02*
X856Y534D01*
X1212Y534D02*
X1219Y534D01*
X0Y533D02*
X7Y533D01*
X494Y533D02*
X526Y533D01*
X545Y533D02*
X575Y533D01*
X607Y533D02*
X613Y533D01*
X652Y533D02*
X676Y533D01*
X694Y533D02*
X700Y533D01*
X702Y533D02*
X727Y533D01*
X735Y533D02*
X740Y533D01*
X782Y533D02*
X784Y533D01*
X854Y533D02*
X856Y533D01*
X1212Y533D02*
X1219Y533D01*
X0Y532D02*
X7Y532D01*
X494Y532D02*
X501Y532D01*
X519Y532D02*
X526Y532D01*
X545Y532D02*
X554Y532D01*
X567Y532D02*
X576Y532D01*
X607Y532D02*
X613Y532D01*
X669Y532D02*
X676Y532D01*
X694Y532D02*
X711Y532D01*
X720Y532D02*
X727Y532D01*
X735Y532D02*
X740Y532D01*
X782Y532D02*
X784Y532D01*
X854Y532D02*
X856Y532D01*
X1212Y532D02*
X1219Y532D01*
X0Y531D02*
X7Y531D01*
X494Y531D02*
X500Y531D01*
X521Y531D02*
X525Y531D01*
X544Y531D02*
X554Y531D01*
X568Y531D02*
X576Y531D01*
X607Y531D02*
X613Y531D01*
X670Y531D02*
X676Y531D01*
X694Y531D02*
X710Y531D01*
X721Y531D02*
X727Y531D01*
X735Y531D02*
X740Y531D01*
X782Y531D02*
X784Y531D01*
X854Y531D02*
X856Y531D01*
X1212Y531D02*
X1219Y531D01*
X0Y530D02*
X7Y530D01*
X494Y530D02*
X500Y530D01*
X522Y530D02*
X524Y530D01*
X544Y530D02*
X554Y530D01*
X569Y530D02*
X576Y530D01*
X607Y530D02*
X613Y530D01*
X670Y530D02*
X676Y530D01*
X694Y530D02*
X708Y530D01*
X721Y530D02*
X727Y530D01*
X735Y530D02*
X740Y530D01*
X782Y530D02*
X784Y530D01*
X854Y530D02*
X856Y530D01*
X1212Y530D02*
X1219Y530D01*
X0Y529D02*
X7Y529D01*
X494Y529D02*
X501Y529D01*
X544Y529D02*
X554Y529D01*
X570Y529D02*
X577Y529D01*
X607Y529D02*
X613Y529D01*
X670Y529D02*
X676Y529D01*
X694Y529D02*
X707Y529D01*
X721Y529D02*
X727Y529D01*
X735Y529D02*
X740Y529D01*
X782Y529D02*
X784Y529D01*
X854Y529D02*
X856Y529D01*
X1212Y529D02*
X1219Y529D01*
X0Y528D02*
X7Y528D01*
X494Y528D02*
X503Y528D01*
X543Y528D02*
X554Y528D01*
X571Y528D02*
X577Y528D01*
X607Y528D02*
X613Y528D01*
X670Y528D02*
X676Y528D01*
X694Y528D02*
X706Y528D01*
X721Y528D02*
X727Y528D01*
X735Y528D02*
X740Y528D01*
X782Y528D02*
X784Y528D01*
X854Y528D02*
X856Y528D01*
X1212Y528D02*
X1219Y528D01*
X0Y527D02*
X7Y527D01*
X495Y527D02*
X505Y527D01*
X543Y527D02*
X554Y527D01*
X571Y527D02*
X577Y527D01*
X607Y527D02*
X613Y527D01*
X670Y527D02*
X676Y527D01*
X694Y527D02*
X705Y527D01*
X721Y527D02*
X727Y527D01*
X735Y527D02*
X740Y527D01*
X782Y527D02*
X784Y527D01*
X854Y527D02*
X856Y527D01*
X1212Y527D02*
X1219Y527D01*
X0Y526D02*
X7Y526D01*
X495Y526D02*
X508Y526D01*
X543Y526D02*
X554Y526D01*
X571Y526D02*
X577Y526D01*
X607Y526D02*
X613Y526D01*
X670Y526D02*
X676Y526D01*
X694Y526D02*
X704Y526D01*
X722Y526D02*
X727Y526D01*
X735Y526D02*
X740Y526D01*
X782Y526D02*
X784Y526D01*
X854Y526D02*
X856Y526D01*
X1212Y526D02*
X1219Y526D01*
X0Y525D02*
X7Y525D01*
X496Y525D02*
X510Y525D01*
X543Y525D02*
X554Y525D01*
X571Y525D02*
X577Y525D01*
X607Y525D02*
X613Y525D01*
X670Y525D02*
X676Y525D01*
X694Y525D02*
X703Y525D01*
X722Y525D02*
X727Y525D01*
X735Y525D02*
X740Y525D01*
X782Y525D02*
X784Y525D01*
X854Y525D02*
X856Y525D01*
X1212Y525D02*
X1219Y525D01*
X0Y524D02*
X7Y524D01*
X497Y524D02*
X512Y524D01*
X543Y524D02*
X554Y524D01*
X571Y524D02*
X577Y524D01*
X607Y524D02*
X613Y524D01*
X650Y524D02*
X677Y524D01*
X694Y524D02*
X701Y524D01*
X724Y524D02*
X725Y524D01*
X735Y524D02*
X740Y524D01*
X782Y524D02*
X784Y524D01*
X854Y524D02*
X856Y524D01*
X1212Y524D02*
X1219Y524D01*
X0Y523D02*
X7Y523D01*
X498Y523D02*
X515Y523D01*
X543Y523D02*
X554Y523D01*
X571Y523D02*
X577Y523D01*
X607Y523D02*
X613Y523D01*
X648Y523D02*
X677Y523D01*
X694Y523D02*
X700Y523D01*
X735Y523D02*
X740Y523D01*
X782Y523D02*
X784Y523D01*
X854Y523D02*
X856Y523D01*
X1212Y523D02*
X1219Y523D01*
X0Y522D02*
X7Y522D01*
X500Y522D02*
X517Y522D01*
X543Y522D02*
X554Y522D01*
X571Y522D02*
X577Y522D01*
X607Y522D02*
X613Y522D01*
X647Y522D02*
X677Y522D01*
X694Y522D02*
X700Y522D01*
X735Y522D02*
X740Y522D01*
X782Y522D02*
X784Y522D01*
X854Y522D02*
X856Y522D01*
X1212Y522D02*
X1219Y522D01*
X0Y521D02*
X7Y521D01*
X185Y521D02*
X198Y521D01*
X503Y521D02*
X519Y521D01*
X543Y521D02*
X554Y521D01*
X571Y521D02*
X577Y521D01*
X607Y521D02*
X613Y521D01*
X646Y521D02*
X677Y521D01*
X694Y521D02*
X700Y521D01*
X735Y521D02*
X740Y521D01*
X782Y521D02*
X784Y521D01*
X854Y521D02*
X856Y521D01*
X1212Y521D02*
X1219Y521D01*
X0Y520D02*
X7Y520D01*
X168Y520D02*
X199Y520D01*
X505Y520D02*
X521Y520D01*
X543Y520D02*
X554Y520D01*
X571Y520D02*
X577Y520D01*
X607Y520D02*
X613Y520D01*
X645Y520D02*
X677Y520D01*
X694Y520D02*
X700Y520D01*
X735Y520D02*
X740Y520D01*
X782Y520D02*
X784Y520D01*
X854Y520D02*
X856Y520D01*
X1212Y520D02*
X1219Y520D01*
X0Y519D02*
X7Y519D01*
X166Y519D02*
X199Y519D01*
X507Y519D02*
X523Y519D01*
X543Y519D02*
X554Y519D01*
X571Y519D02*
X577Y519D01*
X607Y519D02*
X613Y519D01*
X645Y519D02*
X677Y519D01*
X694Y519D02*
X700Y519D01*
X735Y519D02*
X740Y519D01*
X782Y519D02*
X784Y519D01*
X854Y519D02*
X856Y519D01*
X1212Y519D02*
X1219Y519D01*
X0Y518D02*
X7Y518D01*
X165Y518D02*
X200Y518D01*
X510Y518D02*
X524Y518D01*
X543Y518D02*
X554Y518D01*
X571Y518D02*
X577Y518D01*
X607Y518D02*
X613Y518D01*
X644Y518D02*
X677Y518D01*
X694Y518D02*
X700Y518D01*
X735Y518D02*
X740Y518D01*
X782Y518D02*
X784Y518D01*
X854Y518D02*
X856Y518D01*
X1212Y518D02*
X1219Y518D01*
X0Y517D02*
X7Y517D01*
X164Y517D02*
X199Y517D01*
X512Y517D02*
X525Y517D01*
X543Y517D02*
X554Y517D01*
X571Y517D02*
X577Y517D01*
X607Y517D02*
X613Y517D01*
X644Y517D02*
X651Y517D01*
X669Y517D02*
X677Y517D01*
X694Y517D02*
X700Y517D01*
X735Y517D02*
X740Y517D01*
X782Y517D02*
X784Y517D01*
X854Y517D02*
X856Y517D01*
X1212Y517D02*
X1219Y517D01*
X0Y516D02*
X7Y516D01*
X163Y516D02*
X199Y516D01*
X514Y516D02*
X525Y516D01*
X543Y516D02*
X554Y516D01*
X571Y516D02*
X577Y516D01*
X607Y516D02*
X613Y516D01*
X644Y516D02*
X650Y516D01*
X670Y516D02*
X677Y516D01*
X694Y516D02*
X700Y516D01*
X735Y516D02*
X740Y516D01*
X782Y516D02*
X784Y516D01*
X854Y516D02*
X856Y516D01*
X1212Y516D02*
X1219Y516D01*
X0Y515D02*
X7Y515D01*
X162Y515D02*
X198Y515D01*
X517Y515D02*
X526Y515D01*
X543Y515D02*
X554Y515D01*
X571Y515D02*
X577Y515D01*
X607Y515D02*
X613Y515D01*
X644Y515D02*
X650Y515D01*
X671Y515D02*
X677Y515D01*
X694Y515D02*
X700Y515D01*
X735Y515D02*
X740Y515D01*
X782Y515D02*
X784Y515D01*
X854Y515D02*
X856Y515D01*
X1212Y515D02*
X1219Y515D01*
X0Y514D02*
X7Y514D01*
X162Y514D02*
X183Y514D01*
X519Y514D02*
X526Y514D01*
X543Y514D02*
X554Y514D01*
X571Y514D02*
X577Y514D01*
X607Y514D02*
X613Y514D01*
X644Y514D02*
X650Y514D01*
X671Y514D02*
X677Y514D01*
X694Y514D02*
X700Y514D01*
X735Y514D02*
X740Y514D01*
X782Y514D02*
X784Y514D01*
X854Y514D02*
X856Y514D01*
X1212Y514D02*
X1219Y514D01*
X0Y513D02*
X7Y513D01*
X162Y513D02*
X169Y513D01*
X520Y513D02*
X526Y513D01*
X543Y513D02*
X554Y513D01*
X571Y513D02*
X577Y513D01*
X607Y513D02*
X613Y513D01*
X644Y513D02*
X650Y513D01*
X671Y513D02*
X677Y513D01*
X694Y513D02*
X700Y513D01*
X735Y513D02*
X740Y513D01*
X782Y513D02*
X784Y513D01*
X854Y513D02*
X856Y513D01*
X1212Y513D02*
X1219Y513D01*
X0Y512D02*
X7Y512D01*
X161Y512D02*
X168Y512D01*
X520Y512D02*
X527Y512D01*
X543Y512D02*
X554Y512D01*
X571Y512D02*
X577Y512D01*
X607Y512D02*
X613Y512D01*
X644Y512D02*
X650Y512D01*
X671Y512D02*
X677Y512D01*
X694Y512D02*
X700Y512D01*
X735Y512D02*
X740Y512D01*
X782Y512D02*
X784Y512D01*
X854Y512D02*
X856Y512D01*
X1212Y512D02*
X1219Y512D01*
X0Y511D02*
X7Y511D01*
X161Y511D02*
X167Y511D01*
X520Y511D02*
X527Y511D01*
X543Y511D02*
X554Y511D01*
X570Y511D02*
X577Y511D01*
X607Y511D02*
X613Y511D01*
X644Y511D02*
X650Y511D01*
X670Y511D02*
X677Y511D01*
X694Y511D02*
X700Y511D01*
X735Y511D02*
X740Y511D01*
X782Y511D02*
X856Y511D01*
X1212Y511D02*
X1219Y511D01*
X0Y510D02*
X7Y510D01*
X161Y510D02*
X167Y510D01*
X496Y510D02*
X496Y510D01*
X520Y510D02*
X527Y510D01*
X544Y510D02*
X554Y510D01*
X569Y510D02*
X576Y510D01*
X607Y510D02*
X613Y510D01*
X644Y510D02*
X650Y510D01*
X668Y510D02*
X677Y510D01*
X694Y510D02*
X700Y510D01*
X735Y510D02*
X740Y510D01*
X782Y510D02*
X856Y510D01*
X1212Y510D02*
X1219Y510D01*
X0Y509D02*
X7Y509D01*
X161Y509D02*
X167Y509D01*
X494Y509D02*
X498Y509D01*
X520Y509D02*
X526Y509D01*
X544Y509D02*
X554Y509D01*
X568Y509D02*
X576Y509D01*
X607Y509D02*
X613Y509D01*
X644Y509D02*
X650Y509D01*
X666Y509D02*
X677Y509D01*
X694Y509D02*
X700Y509D01*
X735Y509D02*
X740Y509D01*
X782Y509D02*
X856Y509D01*
X1212Y509D02*
X1219Y509D01*
X0Y508D02*
X7Y508D01*
X161Y508D02*
X167Y508D01*
X493Y508D02*
X500Y508D01*
X519Y508D02*
X526Y508D01*
X544Y508D02*
X554Y508D01*
X567Y508D02*
X576Y508D01*
X607Y508D02*
X613Y508D01*
X644Y508D02*
X651Y508D01*
X665Y508D02*
X677Y508D01*
X694Y508D02*
X700Y508D01*
X735Y508D02*
X740Y508D01*
X1212Y508D02*
X1219Y508D01*
X0Y507D02*
X7Y507D01*
X161Y507D02*
X167Y507D01*
X493Y507D02*
X526Y507D01*
X545Y507D02*
X575Y507D01*
X599Y507D02*
X621Y507D01*
X644Y507D02*
X677Y507D01*
X694Y507D02*
X700Y507D01*
X735Y507D02*
X740Y507D01*
X1212Y507D02*
X1219Y507D01*
X0Y506D02*
X7Y506D01*
X161Y506D02*
X167Y506D01*
X493Y506D02*
X525Y506D01*
X546Y506D02*
X574Y506D01*
X598Y506D02*
X623Y506D01*
X645Y506D02*
X677Y506D01*
X694Y506D02*
X700Y506D01*
X735Y506D02*
X740Y506D01*
X1212Y506D02*
X1219Y506D01*
X0Y505D02*
X7Y505D01*
X161Y505D02*
X167Y505D01*
X494Y505D02*
X525Y505D01*
X547Y505D02*
X573Y505D01*
X597Y505D02*
X623Y505D01*
X645Y505D02*
X677Y505D01*
X694Y505D02*
X700Y505D01*
X735Y505D02*
X740Y505D01*
X1212Y505D02*
X1219Y505D01*
X0Y504D02*
X7Y504D01*
X161Y504D02*
X168Y504D01*
X494Y504D02*
X524Y504D01*
X548Y504D02*
X572Y504D01*
X597Y504D02*
X624Y504D01*
X646Y504D02*
X677Y504D01*
X694Y504D02*
X700Y504D01*
X735Y504D02*
X740Y504D01*
X1212Y504D02*
X1219Y504D01*
X0Y503D02*
X7Y503D01*
X162Y503D02*
X169Y503D01*
X496Y503D02*
X523Y503D01*
X549Y503D02*
X571Y503D01*
X597Y503D02*
X623Y503D01*
X647Y503D02*
X669Y503D01*
X671Y503D02*
X677Y503D01*
X694Y503D02*
X700Y503D01*
X735Y503D02*
X740Y503D01*
X1212Y503D02*
X1219Y503D01*
X0Y502D02*
X7Y502D01*
X162Y502D02*
X169Y502D01*
X497Y502D02*
X522Y502D01*
X549Y502D02*
X570Y502D01*
X597Y502D02*
X623Y502D01*
X648Y502D02*
X667Y502D01*
X672Y502D02*
X677Y502D01*
X694Y502D02*
X699Y502D01*
X735Y502D02*
X740Y502D01*
X1212Y502D02*
X1219Y502D01*
X0Y501D02*
X7Y501D01*
X163Y501D02*
X170Y501D01*
X499Y501D02*
X520Y501D01*
X549Y501D02*
X568Y501D01*
X598Y501D02*
X622Y501D01*
X650Y501D02*
X666Y501D01*
X673Y501D02*
X676Y501D01*
X695Y501D02*
X698Y501D01*
X735Y501D02*
X740Y501D01*
X1212Y501D02*
X1219Y501D01*
X0Y500D02*
X7Y500D01*
X163Y500D02*
X171Y500D01*
X549Y500D02*
X554Y500D01*
X735Y500D02*
X740Y500D01*
X1212Y500D02*
X1219Y500D01*
X0Y499D02*
X7Y499D01*
X164Y499D02*
X171Y499D01*
X549Y499D02*
X554Y499D01*
X735Y499D02*
X740Y499D01*
X1212Y499D02*
X1219Y499D01*
X0Y498D02*
X7Y498D01*
X164Y498D02*
X172Y498D01*
X549Y498D02*
X554Y498D01*
X735Y498D02*
X740Y498D01*
X1212Y498D02*
X1219Y498D01*
X0Y497D02*
X7Y497D01*
X165Y497D02*
X172Y497D01*
X549Y497D02*
X554Y497D01*
X735Y497D02*
X740Y497D01*
X1212Y497D02*
X1219Y497D01*
X0Y496D02*
X7Y496D01*
X166Y496D02*
X173Y496D01*
X549Y496D02*
X554Y496D01*
X735Y496D02*
X740Y496D01*
X1212Y496D02*
X1219Y496D01*
X0Y495D02*
X7Y495D01*
X166Y495D02*
X174Y495D01*
X549Y495D02*
X554Y495D01*
X735Y495D02*
X740Y495D01*
X1212Y495D02*
X1219Y495D01*
X0Y494D02*
X7Y494D01*
X167Y494D02*
X174Y494D01*
X549Y494D02*
X554Y494D01*
X735Y494D02*
X740Y494D01*
X1212Y494D02*
X1219Y494D01*
X0Y493D02*
X7Y493D01*
X163Y493D02*
X198Y493D01*
X549Y493D02*
X554Y493D01*
X735Y493D02*
X740Y493D01*
X1212Y493D02*
X1219Y493D01*
X0Y492D02*
X7Y492D01*
X162Y492D02*
X199Y492D01*
X549Y492D02*
X554Y492D01*
X735Y492D02*
X740Y492D01*
X1212Y492D02*
X1219Y492D01*
X0Y491D02*
X7Y491D01*
X161Y491D02*
X199Y491D01*
X549Y491D02*
X554Y491D01*
X735Y491D02*
X740Y491D01*
X1212Y491D02*
X1219Y491D01*
X0Y490D02*
X7Y490D01*
X161Y490D02*
X200Y490D01*
X549Y490D02*
X554Y490D01*
X735Y490D02*
X740Y490D01*
X1212Y490D02*
X1219Y490D01*
X0Y489D02*
X7Y489D01*
X162Y489D02*
X199Y489D01*
X549Y489D02*
X554Y489D01*
X735Y489D02*
X740Y489D01*
X1212Y489D02*
X1219Y489D01*
X0Y488D02*
X7Y488D01*
X162Y488D02*
X199Y488D01*
X549Y488D02*
X554Y488D01*
X735Y488D02*
X740Y488D01*
X1212Y488D02*
X1219Y488D01*
X0Y487D02*
X7Y487D01*
X164Y487D02*
X197Y487D01*
X549Y487D02*
X554Y487D01*
X735Y487D02*
X740Y487D01*
X1212Y487D02*
X1219Y487D01*
X0Y486D02*
X7Y486D01*
X549Y486D02*
X554Y486D01*
X735Y486D02*
X740Y486D01*
X1212Y486D02*
X1219Y486D01*
X0Y485D02*
X7Y485D01*
X549Y485D02*
X554Y485D01*
X735Y485D02*
X740Y485D01*
X1212Y485D02*
X1219Y485D01*
X0Y484D02*
X7Y484D01*
X549Y484D02*
X554Y484D01*
X735Y484D02*
X740Y484D01*
X1212Y484D02*
X1219Y484D01*
X0Y483D02*
X7Y483D01*
X549Y483D02*
X554Y483D01*
X735Y483D02*
X740Y483D01*
X1212Y483D02*
X1219Y483D01*
X0Y482D02*
X7Y482D01*
X549Y482D02*
X554Y482D01*
X735Y482D02*
X740Y482D01*
X1212Y482D02*
X1219Y482D01*
X0Y481D02*
X7Y481D01*
X549Y481D02*
X554Y481D01*
X735Y481D02*
X740Y481D01*
X1212Y481D02*
X1219Y481D01*
X0Y480D02*
X7Y480D01*
X549Y480D02*
X554Y480D01*
X735Y480D02*
X740Y480D01*
X1212Y480D02*
X1219Y480D01*
X0Y479D02*
X7Y479D01*
X549Y479D02*
X554Y479D01*
X735Y479D02*
X740Y479D01*
X1212Y479D02*
X1219Y479D01*
X0Y478D02*
X7Y478D01*
X549Y478D02*
X554Y478D01*
X735Y478D02*
X740Y478D01*
X1212Y478D02*
X1219Y478D01*
X0Y477D02*
X7Y477D01*
X549Y477D02*
X554Y477D01*
X735Y477D02*
X740Y477D01*
X1212Y477D02*
X1219Y477D01*
X0Y476D02*
X7Y476D01*
X549Y476D02*
X554Y476D01*
X735Y476D02*
X740Y476D01*
X1212Y476D02*
X1219Y476D01*
X0Y475D02*
X7Y475D01*
X549Y475D02*
X554Y475D01*
X735Y475D02*
X740Y475D01*
X1212Y475D02*
X1219Y475D01*
X0Y474D02*
X7Y474D01*
X549Y474D02*
X554Y474D01*
X735Y474D02*
X740Y474D01*
X1212Y474D02*
X1219Y474D01*
X0Y473D02*
X7Y473D01*
X549Y473D02*
X554Y473D01*
X735Y473D02*
X740Y473D01*
X1212Y473D02*
X1219Y473D01*
X0Y472D02*
X7Y472D01*
X549Y472D02*
X554Y472D01*
X735Y472D02*
X740Y472D01*
X1212Y472D02*
X1219Y472D01*
X0Y471D02*
X7Y471D01*
X549Y471D02*
X554Y471D01*
X735Y471D02*
X740Y471D01*
X788Y471D02*
X979Y471D01*
X1212Y471D02*
X1219Y471D01*
X0Y470D02*
X7Y470D01*
X549Y470D02*
X554Y470D01*
X735Y470D02*
X740Y470D01*
X787Y470D02*
X979Y470D01*
X1212Y470D02*
X1219Y470D01*
X0Y469D02*
X7Y469D01*
X549Y469D02*
X554Y469D01*
X735Y469D02*
X740Y469D01*
X787Y469D02*
X979Y469D01*
X1212Y469D02*
X1219Y469D01*
X0Y468D02*
X7Y468D01*
X549Y468D02*
X554Y468D01*
X735Y468D02*
X740Y468D01*
X787Y468D02*
X789Y468D01*
X849Y468D02*
X917Y468D01*
X977Y468D02*
X979Y468D01*
X1212Y468D02*
X1219Y468D01*
X0Y467D02*
X7Y467D01*
X549Y467D02*
X554Y467D01*
X735Y467D02*
X740Y467D01*
X787Y467D02*
X789Y467D01*
X977Y467D02*
X979Y467D01*
X1212Y467D02*
X1219Y467D01*
X0Y466D02*
X7Y466D01*
X549Y466D02*
X552Y466D01*
X737Y466D02*
X740Y466D01*
X787Y466D02*
X789Y466D01*
X977Y466D02*
X979Y466D01*
X1212Y466D02*
X1219Y466D01*
X0Y465D02*
X7Y465D01*
X549Y465D02*
X552Y465D01*
X737Y465D02*
X740Y465D01*
X787Y465D02*
X789Y465D01*
X977Y465D02*
X979Y465D01*
X1212Y465D02*
X1219Y465D01*
X0Y464D02*
X7Y464D01*
X549Y464D02*
X552Y464D01*
X737Y464D02*
X740Y464D01*
X787Y464D02*
X789Y464D01*
X977Y464D02*
X979Y464D01*
X1212Y464D02*
X1219Y464D01*
X0Y463D02*
X7Y463D01*
X549Y463D02*
X552Y463D01*
X737Y463D02*
X740Y463D01*
X787Y463D02*
X789Y463D01*
X977Y463D02*
X979Y463D01*
X1212Y463D02*
X1219Y463D01*
X0Y462D02*
X7Y462D01*
X549Y462D02*
X552Y462D01*
X737Y462D02*
X740Y462D01*
X787Y462D02*
X789Y462D01*
X977Y462D02*
X979Y462D01*
X1212Y462D02*
X1219Y462D01*
X0Y461D02*
X7Y461D01*
X549Y461D02*
X552Y461D01*
X737Y461D02*
X740Y461D01*
X787Y461D02*
X789Y461D01*
X977Y461D02*
X979Y461D01*
X1212Y461D02*
X1219Y461D01*
X0Y460D02*
X7Y460D01*
X549Y460D02*
X552Y460D01*
X737Y460D02*
X740Y460D01*
X787Y460D02*
X789Y460D01*
X977Y460D02*
X979Y460D01*
X1212Y460D02*
X1219Y460D01*
X0Y459D02*
X7Y459D01*
X549Y459D02*
X552Y459D01*
X737Y459D02*
X740Y459D01*
X787Y459D02*
X789Y459D01*
X977Y459D02*
X979Y459D01*
X1212Y459D02*
X1219Y459D01*
X0Y458D02*
X7Y458D01*
X549Y458D02*
X552Y458D01*
X737Y458D02*
X740Y458D01*
X787Y458D02*
X789Y458D01*
X977Y458D02*
X979Y458D01*
X1212Y458D02*
X1219Y458D01*
X0Y457D02*
X7Y457D01*
X549Y457D02*
X552Y457D01*
X737Y457D02*
X740Y457D01*
X787Y457D02*
X789Y457D01*
X977Y457D02*
X979Y457D01*
X1212Y457D02*
X1219Y457D01*
X0Y456D02*
X7Y456D01*
X549Y456D02*
X552Y456D01*
X737Y456D02*
X740Y456D01*
X787Y456D02*
X789Y456D01*
X977Y456D02*
X979Y456D01*
X1212Y456D02*
X1219Y456D01*
X0Y455D02*
X7Y455D01*
X549Y455D02*
X552Y455D01*
X737Y455D02*
X740Y455D01*
X787Y455D02*
X789Y455D01*
X977Y455D02*
X979Y455D01*
X1212Y455D02*
X1219Y455D01*
X0Y454D02*
X7Y454D01*
X549Y454D02*
X552Y454D01*
X737Y454D02*
X740Y454D01*
X787Y454D02*
X789Y454D01*
X977Y454D02*
X979Y454D01*
X1212Y454D02*
X1219Y454D01*
X0Y453D02*
X7Y453D01*
X549Y453D02*
X552Y453D01*
X737Y453D02*
X740Y453D01*
X787Y453D02*
X789Y453D01*
X977Y453D02*
X979Y453D01*
X1212Y453D02*
X1219Y453D01*
X0Y452D02*
X7Y452D01*
X549Y452D02*
X552Y452D01*
X737Y452D02*
X740Y452D01*
X787Y452D02*
X789Y452D01*
X977Y452D02*
X979Y452D01*
X1212Y452D02*
X1219Y452D01*
X0Y451D02*
X7Y451D01*
X549Y451D02*
X552Y451D01*
X737Y451D02*
X740Y451D01*
X787Y451D02*
X789Y451D01*
X977Y451D02*
X979Y451D01*
X1212Y451D02*
X1219Y451D01*
X0Y450D02*
X7Y450D01*
X549Y450D02*
X552Y450D01*
X737Y450D02*
X740Y450D01*
X787Y450D02*
X789Y450D01*
X977Y450D02*
X979Y450D01*
X1212Y450D02*
X1219Y450D01*
X0Y449D02*
X7Y449D01*
X549Y449D02*
X552Y449D01*
X737Y449D02*
X739Y449D01*
X787Y449D02*
X789Y449D01*
X977Y449D02*
X979Y449D01*
X1212Y449D02*
X1219Y449D01*
X0Y448D02*
X7Y448D01*
X550Y448D02*
X552Y448D01*
X737Y448D02*
X738Y448D01*
X787Y448D02*
X789Y448D01*
X977Y448D02*
X979Y448D01*
X1212Y448D02*
X1219Y448D01*
X0Y447D02*
X7Y447D01*
X787Y447D02*
X789Y447D01*
X977Y447D02*
X979Y447D01*
X1212Y447D02*
X1219Y447D01*
X0Y446D02*
X7Y446D01*
X787Y446D02*
X789Y446D01*
X977Y446D02*
X979Y446D01*
X1212Y446D02*
X1219Y446D01*
X0Y445D02*
X7Y445D01*
X787Y445D02*
X789Y445D01*
X977Y445D02*
X979Y445D01*
X1212Y445D02*
X1219Y445D01*
X0Y444D02*
X7Y444D01*
X787Y444D02*
X789Y444D01*
X977Y444D02*
X979Y444D01*
X1212Y444D02*
X1219Y444D01*
X0Y443D02*
X7Y443D01*
X787Y443D02*
X789Y443D01*
X977Y443D02*
X979Y443D01*
X1212Y443D02*
X1219Y443D01*
X0Y442D02*
X7Y442D01*
X787Y442D02*
X789Y442D01*
X977Y442D02*
X979Y442D01*
X1212Y442D02*
X1219Y442D01*
X0Y441D02*
X7Y441D01*
X787Y441D02*
X789Y441D01*
X977Y441D02*
X979Y441D01*
X1212Y441D02*
X1219Y441D01*
X0Y440D02*
X7Y440D01*
X83Y440D02*
X156Y440D01*
X787Y440D02*
X789Y440D01*
X977Y440D02*
X979Y440D01*
X1212Y440D02*
X1219Y440D01*
X0Y439D02*
X7Y439D01*
X83Y439D02*
X156Y439D01*
X787Y439D02*
X789Y439D01*
X977Y439D02*
X979Y439D01*
X1212Y439D02*
X1219Y439D01*
X0Y438D02*
X7Y438D01*
X83Y438D02*
X156Y438D01*
X787Y438D02*
X789Y438D01*
X977Y438D02*
X979Y438D01*
X1212Y438D02*
X1219Y438D01*
X0Y437D02*
X7Y437D01*
X83Y437D02*
X84Y437D01*
X154Y437D02*
X156Y437D01*
X787Y437D02*
X789Y437D01*
X977Y437D02*
X979Y437D01*
X1212Y437D02*
X1219Y437D01*
X0Y436D02*
X7Y436D01*
X83Y436D02*
X84Y436D01*
X154Y436D02*
X156Y436D01*
X787Y436D02*
X789Y436D01*
X977Y436D02*
X979Y436D01*
X1212Y436D02*
X1219Y436D01*
X0Y435D02*
X7Y435D01*
X83Y435D02*
X84Y435D01*
X154Y435D02*
X156Y435D01*
X787Y435D02*
X789Y435D01*
X977Y435D02*
X979Y435D01*
X1212Y435D02*
X1219Y435D01*
X0Y434D02*
X7Y434D01*
X83Y434D02*
X84Y434D01*
X154Y434D02*
X156Y434D01*
X787Y434D02*
X789Y434D01*
X977Y434D02*
X979Y434D01*
X1212Y434D02*
X1219Y434D01*
X0Y433D02*
X7Y433D01*
X83Y433D02*
X84Y433D01*
X154Y433D02*
X156Y433D01*
X787Y433D02*
X789Y433D01*
X977Y433D02*
X979Y433D01*
X1212Y433D02*
X1219Y433D01*
X0Y432D02*
X7Y432D01*
X83Y432D02*
X84Y432D01*
X154Y432D02*
X156Y432D01*
X787Y432D02*
X789Y432D01*
X977Y432D02*
X979Y432D01*
X1212Y432D02*
X1219Y432D01*
X0Y431D02*
X7Y431D01*
X83Y431D02*
X84Y431D01*
X154Y431D02*
X156Y431D01*
X787Y431D02*
X789Y431D01*
X977Y431D02*
X979Y431D01*
X1212Y431D02*
X1219Y431D01*
X0Y430D02*
X7Y430D01*
X83Y430D02*
X84Y430D01*
X154Y430D02*
X156Y430D01*
X787Y430D02*
X789Y430D01*
X977Y430D02*
X979Y430D01*
X1212Y430D02*
X1219Y430D01*
X0Y429D02*
X7Y429D01*
X83Y429D02*
X84Y429D01*
X154Y429D02*
X156Y429D01*
X787Y429D02*
X789Y429D01*
X977Y429D02*
X979Y429D01*
X1212Y429D02*
X1219Y429D01*
X0Y428D02*
X7Y428D01*
X83Y428D02*
X84Y428D01*
X154Y428D02*
X156Y428D01*
X787Y428D02*
X789Y428D01*
X977Y428D02*
X979Y428D01*
X1212Y428D02*
X1219Y428D01*
X0Y427D02*
X7Y427D01*
X83Y427D02*
X84Y427D01*
X154Y427D02*
X156Y427D01*
X787Y427D02*
X789Y427D01*
X977Y427D02*
X979Y427D01*
X1212Y427D02*
X1219Y427D01*
X0Y426D02*
X7Y426D01*
X83Y426D02*
X84Y426D01*
X154Y426D02*
X156Y426D01*
X787Y426D02*
X789Y426D01*
X977Y426D02*
X979Y426D01*
X1212Y426D02*
X1219Y426D01*
X0Y425D02*
X7Y425D01*
X83Y425D02*
X84Y425D01*
X154Y425D02*
X156Y425D01*
X787Y425D02*
X789Y425D01*
X977Y425D02*
X979Y425D01*
X1212Y425D02*
X1219Y425D01*
X0Y424D02*
X7Y424D01*
X83Y424D02*
X84Y424D01*
X154Y424D02*
X156Y424D01*
X787Y424D02*
X789Y424D01*
X977Y424D02*
X979Y424D01*
X1212Y424D02*
X1219Y424D01*
X0Y423D02*
X7Y423D01*
X83Y423D02*
X84Y423D01*
X154Y423D02*
X156Y423D01*
X787Y423D02*
X789Y423D01*
X977Y423D02*
X979Y423D01*
X1212Y423D02*
X1219Y423D01*
X0Y422D02*
X7Y422D01*
X83Y422D02*
X84Y422D01*
X154Y422D02*
X156Y422D01*
X787Y422D02*
X789Y422D01*
X977Y422D02*
X979Y422D01*
X1212Y422D02*
X1219Y422D01*
X0Y421D02*
X7Y421D01*
X83Y421D02*
X84Y421D01*
X154Y421D02*
X156Y421D01*
X787Y421D02*
X789Y421D01*
X977Y421D02*
X979Y421D01*
X1212Y421D02*
X1219Y421D01*
X0Y420D02*
X7Y420D01*
X83Y420D02*
X84Y420D01*
X154Y420D02*
X156Y420D01*
X787Y420D02*
X789Y420D01*
X977Y420D02*
X979Y420D01*
X1212Y420D02*
X1219Y420D01*
X0Y419D02*
X7Y419D01*
X83Y419D02*
X84Y419D01*
X154Y419D02*
X156Y419D01*
X787Y419D02*
X789Y419D01*
X977Y419D02*
X979Y419D01*
X1212Y419D02*
X1219Y419D01*
X0Y418D02*
X7Y418D01*
X83Y418D02*
X84Y418D01*
X154Y418D02*
X156Y418D01*
X787Y418D02*
X789Y418D01*
X977Y418D02*
X979Y418D01*
X1212Y418D02*
X1219Y418D01*
X0Y417D02*
X7Y417D01*
X83Y417D02*
X84Y417D01*
X154Y417D02*
X156Y417D01*
X787Y417D02*
X789Y417D01*
X977Y417D02*
X979Y417D01*
X1212Y417D02*
X1219Y417D01*
X0Y416D02*
X7Y416D01*
X83Y416D02*
X84Y416D01*
X154Y416D02*
X156Y416D01*
X787Y416D02*
X789Y416D01*
X977Y416D02*
X979Y416D01*
X1212Y416D02*
X1219Y416D01*
X0Y415D02*
X7Y415D01*
X83Y415D02*
X84Y415D01*
X154Y415D02*
X156Y415D01*
X787Y415D02*
X789Y415D01*
X977Y415D02*
X979Y415D01*
X1212Y415D02*
X1219Y415D01*
X0Y414D02*
X7Y414D01*
X83Y414D02*
X84Y414D01*
X154Y414D02*
X156Y414D01*
X787Y414D02*
X789Y414D01*
X977Y414D02*
X979Y414D01*
X1212Y414D02*
X1219Y414D01*
X0Y413D02*
X7Y413D01*
X83Y413D02*
X84Y413D01*
X154Y413D02*
X156Y413D01*
X787Y413D02*
X789Y413D01*
X977Y413D02*
X979Y413D01*
X1212Y413D02*
X1219Y413D01*
X0Y412D02*
X7Y412D01*
X83Y412D02*
X84Y412D01*
X154Y412D02*
X156Y412D01*
X787Y412D02*
X789Y412D01*
X977Y412D02*
X979Y412D01*
X1212Y412D02*
X1219Y412D01*
X0Y411D02*
X7Y411D01*
X83Y411D02*
X84Y411D01*
X154Y411D02*
X156Y411D01*
X787Y411D02*
X789Y411D01*
X977Y411D02*
X979Y411D01*
X1212Y411D02*
X1219Y411D01*
X0Y410D02*
X7Y410D01*
X83Y410D02*
X84Y410D01*
X154Y410D02*
X156Y410D01*
X787Y410D02*
X789Y410D01*
X977Y410D02*
X979Y410D01*
X1212Y410D02*
X1219Y410D01*
X0Y409D02*
X7Y409D01*
X83Y409D02*
X84Y409D01*
X154Y409D02*
X156Y409D01*
X787Y409D02*
X789Y409D01*
X977Y409D02*
X979Y409D01*
X1212Y409D02*
X1219Y409D01*
X0Y408D02*
X7Y408D01*
X83Y408D02*
X84Y408D01*
X154Y408D02*
X156Y408D01*
X787Y408D02*
X789Y408D01*
X977Y408D02*
X979Y408D01*
X1212Y408D02*
X1219Y408D01*
X0Y407D02*
X7Y407D01*
X83Y407D02*
X84Y407D01*
X154Y407D02*
X156Y407D01*
X787Y407D02*
X789Y407D01*
X977Y407D02*
X979Y407D01*
X1212Y407D02*
X1219Y407D01*
X0Y406D02*
X7Y406D01*
X83Y406D02*
X84Y406D01*
X154Y406D02*
X156Y406D01*
X787Y406D02*
X789Y406D01*
X977Y406D02*
X979Y406D01*
X1212Y406D02*
X1219Y406D01*
X0Y405D02*
X7Y405D01*
X83Y405D02*
X84Y405D01*
X154Y405D02*
X156Y405D01*
X787Y405D02*
X789Y405D01*
X977Y405D02*
X979Y405D01*
X1212Y405D02*
X1219Y405D01*
X0Y404D02*
X7Y404D01*
X83Y404D02*
X84Y404D01*
X154Y404D02*
X156Y404D01*
X787Y404D02*
X789Y404D01*
X977Y404D02*
X979Y404D01*
X1212Y404D02*
X1219Y404D01*
X0Y403D02*
X7Y403D01*
X83Y403D02*
X84Y403D01*
X154Y403D02*
X156Y403D01*
X432Y403D02*
X433Y403D01*
X787Y403D02*
X789Y403D01*
X977Y403D02*
X979Y403D01*
X1212Y403D02*
X1219Y403D01*
X0Y402D02*
X7Y402D01*
X83Y402D02*
X84Y402D01*
X154Y402D02*
X156Y402D01*
X431Y402D02*
X434Y402D01*
X787Y402D02*
X789Y402D01*
X977Y402D02*
X979Y402D01*
X1212Y402D02*
X1219Y402D01*
X0Y401D02*
X7Y401D01*
X83Y401D02*
X84Y401D01*
X154Y401D02*
X156Y401D01*
X430Y401D02*
X435Y401D01*
X787Y401D02*
X789Y401D01*
X977Y401D02*
X979Y401D01*
X1212Y401D02*
X1219Y401D01*
X0Y400D02*
X7Y400D01*
X83Y400D02*
X84Y400D01*
X154Y400D02*
X156Y400D01*
X429Y400D02*
X436Y400D01*
X787Y400D02*
X789Y400D01*
X977Y400D02*
X979Y400D01*
X1212Y400D02*
X1219Y400D01*
X0Y399D02*
X7Y399D01*
X83Y399D02*
X84Y399D01*
X154Y399D02*
X156Y399D01*
X428Y399D02*
X431Y399D01*
X434Y399D02*
X437Y399D01*
X787Y399D02*
X789Y399D01*
X977Y399D02*
X979Y399D01*
X1212Y399D02*
X1219Y399D01*
X0Y398D02*
X7Y398D01*
X83Y398D02*
X84Y398D01*
X154Y398D02*
X156Y398D01*
X427Y398D02*
X430Y398D01*
X435Y398D02*
X438Y398D01*
X787Y398D02*
X789Y398D01*
X977Y398D02*
X979Y398D01*
X1212Y398D02*
X1219Y398D01*
X0Y397D02*
X7Y397D01*
X83Y397D02*
X84Y397D01*
X154Y397D02*
X156Y397D01*
X426Y397D02*
X429Y397D01*
X436Y397D02*
X439Y397D01*
X787Y397D02*
X789Y397D01*
X977Y397D02*
X979Y397D01*
X1212Y397D02*
X1219Y397D01*
X0Y396D02*
X7Y396D01*
X83Y396D02*
X84Y396D01*
X154Y396D02*
X156Y396D01*
X425Y396D02*
X428Y396D01*
X437Y396D02*
X440Y396D01*
X787Y396D02*
X789Y396D01*
X977Y396D02*
X979Y396D01*
X1212Y396D02*
X1219Y396D01*
X0Y395D02*
X7Y395D01*
X83Y395D02*
X84Y395D01*
X154Y395D02*
X156Y395D01*
X424Y395D02*
X427Y395D01*
X438Y395D02*
X441Y395D01*
X787Y395D02*
X789Y395D01*
X977Y395D02*
X979Y395D01*
X1212Y395D02*
X1219Y395D01*
X0Y394D02*
X7Y394D01*
X83Y394D02*
X84Y394D01*
X154Y394D02*
X156Y394D01*
X423Y394D02*
X426Y394D01*
X439Y394D02*
X442Y394D01*
X787Y394D02*
X789Y394D01*
X977Y394D02*
X979Y394D01*
X1212Y394D02*
X1219Y394D01*
X0Y393D02*
X7Y393D01*
X83Y393D02*
X84Y393D01*
X154Y393D02*
X156Y393D01*
X173Y393D02*
X176Y393D01*
X422Y393D02*
X425Y393D01*
X440Y393D02*
X443Y393D01*
X787Y393D02*
X789Y393D01*
X977Y393D02*
X979Y393D01*
X1212Y393D02*
X1219Y393D01*
X0Y392D02*
X7Y392D01*
X83Y392D02*
X84Y392D01*
X154Y392D02*
X156Y392D01*
X172Y392D02*
X177Y392D01*
X421Y392D02*
X424Y392D01*
X441Y392D02*
X444Y392D01*
X787Y392D02*
X789Y392D01*
X977Y392D02*
X979Y392D01*
X1212Y392D02*
X1219Y392D01*
X0Y391D02*
X7Y391D01*
X83Y391D02*
X84Y391D01*
X154Y391D02*
X156Y391D01*
X172Y391D02*
X177Y391D01*
X420Y391D02*
X423Y391D01*
X442Y391D02*
X445Y391D01*
X787Y391D02*
X789Y391D01*
X977Y391D02*
X979Y391D01*
X1212Y391D02*
X1219Y391D01*
X0Y390D02*
X7Y390D01*
X83Y390D02*
X84Y390D01*
X154Y390D02*
X156Y390D01*
X172Y390D02*
X178Y390D01*
X419Y390D02*
X422Y390D01*
X443Y390D02*
X446Y390D01*
X787Y390D02*
X789Y390D01*
X977Y390D02*
X979Y390D01*
X1212Y390D02*
X1219Y390D01*
X0Y389D02*
X7Y389D01*
X83Y389D02*
X84Y389D01*
X154Y389D02*
X156Y389D01*
X172Y389D02*
X178Y389D01*
X418Y389D02*
X421Y389D01*
X444Y389D02*
X447Y389D01*
X787Y389D02*
X789Y389D01*
X977Y389D02*
X979Y389D01*
X1212Y389D02*
X1219Y389D01*
X0Y388D02*
X7Y388D01*
X83Y388D02*
X84Y388D01*
X154Y388D02*
X156Y388D01*
X172Y388D02*
X178Y388D01*
X417Y388D02*
X420Y388D01*
X445Y388D02*
X448Y388D01*
X787Y388D02*
X789Y388D01*
X977Y388D02*
X979Y388D01*
X1212Y388D02*
X1219Y388D01*
X0Y387D02*
X7Y387D01*
X83Y387D02*
X84Y387D01*
X154Y387D02*
X156Y387D01*
X172Y387D02*
X178Y387D01*
X416Y387D02*
X419Y387D01*
X446Y387D02*
X449Y387D01*
X787Y387D02*
X789Y387D01*
X977Y387D02*
X979Y387D01*
X1212Y387D02*
X1219Y387D01*
X0Y386D02*
X7Y386D01*
X83Y386D02*
X84Y386D01*
X154Y386D02*
X156Y386D01*
X172Y386D02*
X178Y386D01*
X190Y386D02*
X194Y386D01*
X415Y386D02*
X418Y386D01*
X447Y386D02*
X450Y386D01*
X787Y386D02*
X789Y386D01*
X977Y386D02*
X979Y386D01*
X1212Y386D02*
X1219Y386D01*
X0Y385D02*
X7Y385D01*
X83Y385D02*
X84Y385D01*
X154Y385D02*
X156Y385D01*
X172Y385D02*
X178Y385D01*
X190Y385D02*
X195Y385D01*
X414Y385D02*
X417Y385D01*
X448Y385D02*
X451Y385D01*
X787Y385D02*
X789Y385D01*
X977Y385D02*
X979Y385D01*
X1212Y385D02*
X1219Y385D01*
X0Y384D02*
X7Y384D01*
X83Y384D02*
X84Y384D01*
X154Y384D02*
X156Y384D01*
X172Y384D02*
X178Y384D01*
X189Y384D02*
X195Y384D01*
X413Y384D02*
X416Y384D01*
X449Y384D02*
X452Y384D01*
X787Y384D02*
X789Y384D01*
X977Y384D02*
X979Y384D01*
X984Y384D02*
X987Y384D01*
X1212Y384D02*
X1219Y384D01*
X0Y383D02*
X7Y383D01*
X83Y383D02*
X84Y383D01*
X154Y383D02*
X156Y383D01*
X172Y383D02*
X178Y383D01*
X189Y383D02*
X195Y383D01*
X412Y383D02*
X415Y383D01*
X450Y383D02*
X453Y383D01*
X787Y383D02*
X789Y383D01*
X977Y383D02*
X979Y383D01*
X983Y383D02*
X988Y383D01*
X1212Y383D02*
X1219Y383D01*
X0Y382D02*
X7Y382D01*
X83Y382D02*
X84Y382D01*
X154Y382D02*
X156Y382D01*
X172Y382D02*
X178Y382D01*
X189Y382D02*
X195Y382D01*
X411Y382D02*
X414Y382D01*
X451Y382D02*
X454Y382D01*
X787Y382D02*
X789Y382D01*
X977Y382D02*
X979Y382D01*
X983Y382D02*
X989Y382D01*
X1212Y382D02*
X1219Y382D01*
X0Y381D02*
X7Y381D01*
X83Y381D02*
X84Y381D01*
X154Y381D02*
X156Y381D01*
X172Y381D02*
X178Y381D01*
X189Y381D02*
X195Y381D01*
X410Y381D02*
X413Y381D01*
X452Y381D02*
X455Y381D01*
X787Y381D02*
X789Y381D01*
X977Y381D02*
X1004Y381D01*
X1212Y381D02*
X1219Y381D01*
X0Y380D02*
X7Y380D01*
X83Y380D02*
X84Y380D01*
X154Y380D02*
X156Y380D01*
X172Y380D02*
X178Y380D01*
X189Y380D02*
X195Y380D01*
X409Y380D02*
X412Y380D01*
X453Y380D02*
X456Y380D01*
X787Y380D02*
X790Y380D01*
X977Y380D02*
X1005Y380D01*
X1212Y380D02*
X1219Y380D01*
X0Y379D02*
X7Y379D01*
X83Y379D02*
X84Y379D01*
X154Y379D02*
X156Y379D01*
X172Y379D02*
X178Y379D01*
X189Y379D02*
X195Y379D01*
X408Y379D02*
X411Y379D01*
X454Y379D02*
X457Y379D01*
X787Y379D02*
X790Y379D01*
X959Y379D02*
X1006Y379D01*
X1212Y379D02*
X1219Y379D01*
X0Y378D02*
X7Y378D01*
X83Y378D02*
X84Y378D01*
X154Y378D02*
X156Y378D01*
X172Y378D02*
X178Y378D01*
X189Y378D02*
X195Y378D01*
X407Y378D02*
X410Y378D01*
X455Y378D02*
X458Y378D01*
X787Y378D02*
X1006Y378D01*
X1212Y378D02*
X1219Y378D01*
X0Y377D02*
X7Y377D01*
X83Y377D02*
X84Y377D01*
X154Y377D02*
X156Y377D01*
X172Y377D02*
X178Y377D01*
X189Y377D02*
X195Y377D01*
X406Y377D02*
X409Y377D01*
X456Y377D02*
X459Y377D01*
X787Y377D02*
X1006Y377D01*
X1212Y377D02*
X1219Y377D01*
X0Y376D02*
X7Y376D01*
X83Y376D02*
X84Y376D01*
X154Y376D02*
X156Y376D01*
X172Y376D02*
X178Y376D01*
X189Y376D02*
X195Y376D01*
X405Y376D02*
X408Y376D01*
X457Y376D02*
X460Y376D01*
X787Y376D02*
X1006Y376D01*
X1212Y376D02*
X1219Y376D01*
X0Y375D02*
X7Y375D01*
X83Y375D02*
X84Y375D01*
X154Y375D02*
X156Y375D01*
X172Y375D02*
X178Y375D01*
X189Y375D02*
X195Y375D01*
X404Y375D02*
X407Y375D01*
X458Y375D02*
X461Y375D01*
X961Y375D02*
X1005Y375D01*
X1212Y375D02*
X1219Y375D01*
X0Y374D02*
X7Y374D01*
X83Y374D02*
X84Y374D01*
X154Y374D02*
X156Y374D01*
X172Y374D02*
X178Y374D01*
X189Y374D02*
X195Y374D01*
X403Y374D02*
X406Y374D01*
X459Y374D02*
X462Y374D01*
X982Y374D02*
X989Y374D01*
X1212Y374D02*
X1219Y374D01*
X0Y373D02*
X7Y373D01*
X83Y373D02*
X84Y373D01*
X154Y373D02*
X156Y373D01*
X172Y373D02*
X178Y373D01*
X189Y373D02*
X195Y373D01*
X402Y373D02*
X405Y373D01*
X460Y373D02*
X463Y373D01*
X983Y373D02*
X989Y373D01*
X1212Y373D02*
X1219Y373D01*
X0Y372D02*
X7Y372D01*
X83Y372D02*
X86Y372D01*
X153Y372D02*
X156Y372D01*
X172Y372D02*
X178Y372D01*
X189Y372D02*
X195Y372D01*
X401Y372D02*
X404Y372D01*
X461Y372D02*
X464Y372D01*
X983Y372D02*
X989Y372D01*
X1212Y372D02*
X1219Y372D01*
X0Y371D02*
X7Y371D01*
X83Y371D02*
X86Y371D01*
X153Y371D02*
X156Y371D01*
X172Y371D02*
X178Y371D01*
X189Y371D02*
X195Y371D01*
X400Y371D02*
X403Y371D01*
X462Y371D02*
X465Y371D01*
X983Y371D02*
X989Y371D01*
X1212Y371D02*
X1219Y371D01*
X0Y370D02*
X7Y370D01*
X83Y370D02*
X86Y370D01*
X153Y370D02*
X156Y370D01*
X172Y370D02*
X178Y370D01*
X189Y370D02*
X195Y370D01*
X399Y370D02*
X402Y370D01*
X463Y370D02*
X466Y370D01*
X983Y370D02*
X989Y370D01*
X1212Y370D02*
X1219Y370D01*
X0Y369D02*
X7Y369D01*
X83Y369D02*
X86Y369D01*
X153Y369D02*
X156Y369D01*
X172Y369D02*
X178Y369D01*
X189Y369D02*
X195Y369D01*
X398Y369D02*
X401Y369D01*
X464Y369D02*
X467Y369D01*
X983Y369D02*
X989Y369D01*
X1212Y369D02*
X1219Y369D01*
X0Y368D02*
X7Y368D01*
X83Y368D02*
X86Y368D01*
X153Y368D02*
X156Y368D01*
X172Y368D02*
X178Y368D01*
X189Y368D02*
X195Y368D01*
X397Y368D02*
X400Y368D01*
X465Y368D02*
X468Y368D01*
X983Y368D02*
X989Y368D01*
X1212Y368D02*
X1219Y368D01*
X0Y367D02*
X7Y367D01*
X83Y367D02*
X86Y367D01*
X153Y367D02*
X156Y367D01*
X172Y367D02*
X178Y367D01*
X189Y367D02*
X195Y367D01*
X396Y367D02*
X399Y367D01*
X466Y367D02*
X469Y367D01*
X983Y367D02*
X989Y367D01*
X1212Y367D02*
X1219Y367D01*
X0Y366D02*
X7Y366D01*
X83Y366D02*
X86Y366D01*
X153Y366D02*
X156Y366D01*
X172Y366D02*
X223Y366D01*
X395Y366D02*
X398Y366D01*
X467Y366D02*
X470Y366D01*
X983Y366D02*
X989Y366D01*
X1212Y366D02*
X1219Y366D01*
X0Y365D02*
X7Y365D01*
X83Y365D02*
X86Y365D01*
X153Y365D02*
X156Y365D01*
X172Y365D02*
X224Y365D01*
X394Y365D02*
X397Y365D01*
X468Y365D02*
X471Y365D01*
X983Y365D02*
X989Y365D01*
X1212Y365D02*
X1219Y365D01*
X0Y364D02*
X7Y364D01*
X83Y364D02*
X86Y364D01*
X153Y364D02*
X156Y364D01*
X172Y364D02*
X224Y364D01*
X343Y364D02*
X345Y364D01*
X393Y364D02*
X396Y364D01*
X469Y364D02*
X472Y364D01*
X983Y364D02*
X989Y364D01*
X1212Y364D02*
X1219Y364D01*
X0Y363D02*
X7Y363D01*
X83Y363D02*
X86Y363D01*
X153Y363D02*
X156Y363D01*
X172Y363D02*
X225Y363D01*
X342Y363D02*
X346Y363D01*
X392Y363D02*
X395Y363D01*
X470Y363D02*
X473Y363D01*
X983Y363D02*
X989Y363D01*
X1212Y363D02*
X1219Y363D01*
X0Y362D02*
X7Y362D01*
X83Y362D02*
X86Y362D01*
X153Y362D02*
X156Y362D01*
X172Y362D02*
X225Y362D01*
X341Y362D02*
X347Y362D01*
X391Y362D02*
X394Y362D01*
X471Y362D02*
X474Y362D01*
X983Y362D02*
X989Y362D01*
X1212Y362D02*
X1219Y362D01*
X0Y361D02*
X7Y361D01*
X83Y361D02*
X86Y361D01*
X153Y361D02*
X156Y361D01*
X172Y361D02*
X224Y361D01*
X341Y361D02*
X348Y361D01*
X390Y361D02*
X393Y361D01*
X472Y361D02*
X475Y361D01*
X983Y361D02*
X989Y361D01*
X1212Y361D02*
X1219Y361D01*
X0Y360D02*
X7Y360D01*
X83Y360D02*
X86Y360D01*
X153Y360D02*
X156Y360D01*
X172Y360D02*
X223Y360D01*
X341Y360D02*
X349Y360D01*
X389Y360D02*
X392Y360D01*
X473Y360D02*
X476Y360D01*
X955Y360D02*
X989Y360D01*
X1212Y360D02*
X1219Y360D01*
X0Y359D02*
X7Y359D01*
X83Y359D02*
X86Y359D01*
X153Y359D02*
X156Y359D01*
X342Y359D02*
X350Y359D01*
X388Y359D02*
X391Y359D01*
X474Y359D02*
X477Y359D01*
X954Y359D02*
X989Y359D01*
X1212Y359D02*
X1219Y359D01*
X0Y358D02*
X7Y358D01*
X83Y358D02*
X86Y358D01*
X153Y358D02*
X156Y358D01*
X343Y358D02*
X351Y358D01*
X387Y358D02*
X390Y358D01*
X475Y358D02*
X478Y358D01*
X953Y358D02*
X989Y358D01*
X1212Y358D02*
X1219Y358D01*
X0Y357D02*
X7Y357D01*
X83Y357D02*
X86Y357D01*
X153Y357D02*
X156Y357D01*
X344Y357D02*
X352Y357D01*
X386Y357D02*
X389Y357D01*
X476Y357D02*
X479Y357D01*
X953Y357D02*
X989Y357D01*
X1212Y357D02*
X1219Y357D01*
X0Y356D02*
X7Y356D01*
X83Y356D02*
X84Y356D01*
X154Y356D02*
X156Y356D01*
X345Y356D02*
X353Y356D01*
X385Y356D02*
X388Y356D01*
X477Y356D02*
X480Y356D01*
X953Y356D02*
X989Y356D01*
X1212Y356D02*
X1219Y356D01*
X0Y355D02*
X7Y355D01*
X83Y355D02*
X84Y355D01*
X154Y355D02*
X156Y355D01*
X346Y355D02*
X354Y355D01*
X384Y355D02*
X387Y355D01*
X478Y355D02*
X481Y355D01*
X954Y355D02*
X989Y355D01*
X1212Y355D02*
X1219Y355D01*
X0Y354D02*
X7Y354D01*
X83Y354D02*
X84Y354D01*
X154Y354D02*
X156Y354D01*
X347Y354D02*
X355Y354D01*
X383Y354D02*
X386Y354D01*
X479Y354D02*
X482Y354D01*
X955Y354D02*
X989Y354D01*
X1212Y354D02*
X1219Y354D01*
X0Y353D02*
X7Y353D01*
X83Y353D02*
X84Y353D01*
X154Y353D02*
X156Y353D01*
X348Y353D02*
X356Y353D01*
X382Y353D02*
X385Y353D01*
X479Y353D02*
X483Y353D01*
X1212Y353D02*
X1219Y353D01*
X0Y352D02*
X7Y352D01*
X83Y352D02*
X84Y352D01*
X154Y352D02*
X156Y352D01*
X349Y352D02*
X357Y352D01*
X381Y352D02*
X384Y352D01*
X480Y352D02*
X484Y352D01*
X1212Y352D02*
X1219Y352D01*
X0Y351D02*
X7Y351D01*
X83Y351D02*
X84Y351D01*
X154Y351D02*
X156Y351D01*
X350Y351D02*
X358Y351D01*
X381Y351D02*
X384Y351D01*
X481Y351D02*
X485Y351D01*
X1212Y351D02*
X1219Y351D01*
X0Y350D02*
X7Y350D01*
X83Y350D02*
X84Y350D01*
X154Y350D02*
X156Y350D01*
X351Y350D02*
X359Y350D01*
X382Y350D02*
X385Y350D01*
X482Y350D02*
X486Y350D01*
X1212Y350D02*
X1219Y350D01*
X0Y349D02*
X7Y349D01*
X83Y349D02*
X84Y349D01*
X154Y349D02*
X156Y349D01*
X352Y349D02*
X360Y349D01*
X383Y349D02*
X386Y349D01*
X483Y349D02*
X487Y349D01*
X1212Y349D02*
X1219Y349D01*
X0Y348D02*
X7Y348D01*
X83Y348D02*
X84Y348D01*
X154Y348D02*
X156Y348D01*
X353Y348D02*
X361Y348D01*
X384Y348D02*
X387Y348D01*
X484Y348D02*
X488Y348D01*
X1212Y348D02*
X1219Y348D01*
X0Y347D02*
X7Y347D01*
X83Y347D02*
X84Y347D01*
X154Y347D02*
X156Y347D01*
X354Y347D02*
X362Y347D01*
X385Y347D02*
X388Y347D01*
X485Y347D02*
X489Y347D01*
X1212Y347D02*
X1219Y347D01*
X0Y346D02*
X7Y346D01*
X83Y346D02*
X84Y346D01*
X154Y346D02*
X156Y346D01*
X188Y346D02*
X225Y346D01*
X355Y346D02*
X363Y346D01*
X386Y346D02*
X389Y346D01*
X486Y346D02*
X490Y346D01*
X1212Y346D02*
X1219Y346D01*
X0Y345D02*
X7Y345D01*
X83Y345D02*
X84Y345D01*
X154Y345D02*
X156Y345D01*
X188Y345D02*
X225Y345D01*
X356Y345D02*
X364Y345D01*
X387Y345D02*
X390Y345D01*
X487Y345D02*
X491Y345D01*
X1212Y345D02*
X1219Y345D01*
X0Y344D02*
X7Y344D01*
X83Y344D02*
X84Y344D01*
X154Y344D02*
X156Y344D01*
X188Y344D02*
X225Y344D01*
X357Y344D02*
X365Y344D01*
X388Y344D02*
X391Y344D01*
X488Y344D02*
X492Y344D01*
X1212Y344D02*
X1219Y344D01*
X0Y343D02*
X7Y343D01*
X83Y343D02*
X84Y343D01*
X154Y343D02*
X156Y343D01*
X188Y343D02*
X225Y343D01*
X358Y343D02*
X365Y343D01*
X389Y343D02*
X392Y343D01*
X489Y343D02*
X493Y343D01*
X1212Y343D02*
X1219Y343D01*
X0Y342D02*
X7Y342D01*
X83Y342D02*
X84Y342D01*
X154Y342D02*
X156Y342D01*
X188Y342D02*
X225Y342D01*
X359Y342D02*
X365Y342D01*
X390Y342D02*
X393Y342D01*
X491Y342D02*
X494Y342D01*
X1212Y342D02*
X1219Y342D01*
X0Y341D02*
X7Y341D01*
X83Y341D02*
X84Y341D01*
X154Y341D02*
X156Y341D01*
X188Y341D02*
X225Y341D01*
X359Y341D02*
X365Y341D01*
X391Y341D02*
X394Y341D01*
X492Y341D02*
X495Y341D01*
X1212Y341D02*
X1219Y341D01*
X0Y340D02*
X7Y340D01*
X83Y340D02*
X84Y340D01*
X154Y340D02*
X156Y340D01*
X188Y340D02*
X224Y340D01*
X358Y340D02*
X365Y340D01*
X392Y340D02*
X395Y340D01*
X493Y340D02*
X496Y340D01*
X1212Y340D02*
X1219Y340D01*
X0Y339D02*
X7Y339D01*
X83Y339D02*
X84Y339D01*
X154Y339D02*
X156Y339D01*
X212Y339D02*
X218Y339D01*
X357Y339D02*
X365Y339D01*
X393Y339D02*
X396Y339D01*
X494Y339D02*
X497Y339D01*
X1212Y339D02*
X1219Y339D01*
X0Y338D02*
X7Y338D01*
X83Y338D02*
X84Y338D01*
X154Y338D02*
X156Y338D01*
X213Y338D02*
X220Y338D01*
X356Y338D02*
X364Y338D01*
X394Y338D02*
X397Y338D01*
X495Y338D02*
X498Y338D01*
X1212Y338D02*
X1219Y338D01*
X0Y337D02*
X7Y337D01*
X83Y337D02*
X84Y337D01*
X154Y337D02*
X156Y337D01*
X215Y337D02*
X221Y337D01*
X355Y337D02*
X363Y337D01*
X395Y337D02*
X398Y337D01*
X496Y337D02*
X499Y337D01*
X1212Y337D02*
X1219Y337D01*
X0Y336D02*
X7Y336D01*
X83Y336D02*
X84Y336D01*
X154Y336D02*
X156Y336D01*
X216Y336D02*
X222Y336D01*
X354Y336D02*
X362Y336D01*
X396Y336D02*
X399Y336D01*
X497Y336D02*
X500Y336D01*
X985Y336D02*
X1004Y336D01*
X1212Y336D02*
X1219Y336D01*
X0Y335D02*
X7Y335D01*
X83Y335D02*
X84Y335D01*
X154Y335D02*
X156Y335D01*
X217Y335D02*
X223Y335D01*
X353Y335D02*
X361Y335D01*
X397Y335D02*
X400Y335D01*
X498Y335D02*
X501Y335D01*
X984Y335D02*
X1005Y335D01*
X1212Y335D02*
X1219Y335D01*
X0Y334D02*
X7Y334D01*
X83Y334D02*
X84Y334D01*
X154Y334D02*
X156Y334D01*
X218Y334D02*
X224Y334D01*
X342Y334D02*
X342Y334D01*
X352Y334D02*
X360Y334D01*
X398Y334D02*
X401Y334D01*
X499Y334D02*
X502Y334D01*
X983Y334D02*
X1006Y334D01*
X1212Y334D02*
X1219Y334D01*
X0Y333D02*
X7Y333D01*
X83Y333D02*
X84Y333D01*
X154Y333D02*
X156Y333D01*
X219Y333D02*
X224Y333D01*
X343Y333D02*
X343Y333D01*
X351Y333D02*
X359Y333D01*
X399Y333D02*
X402Y333D01*
X500Y333D02*
X503Y333D01*
X983Y333D02*
X1006Y333D01*
X1212Y333D02*
X1219Y333D01*
X0Y332D02*
X7Y332D01*
X83Y332D02*
X84Y332D01*
X154Y332D02*
X156Y332D01*
X220Y332D02*
X225Y332D01*
X343Y332D02*
X344Y332D01*
X349Y332D02*
X358Y332D01*
X400Y332D02*
X403Y332D01*
X501Y332D02*
X504Y332D01*
X983Y332D02*
X1006Y332D01*
X1212Y332D02*
X1219Y332D01*
X0Y331D02*
X7Y331D01*
X83Y331D02*
X84Y331D01*
X154Y331D02*
X156Y331D01*
X220Y331D02*
X225Y331D01*
X343Y331D02*
X357Y331D01*
X401Y331D02*
X404Y331D01*
X502Y331D02*
X505Y331D01*
X983Y331D02*
X1006Y331D01*
X1212Y331D02*
X1219Y331D01*
X0Y330D02*
X7Y330D01*
X83Y330D02*
X84Y330D01*
X154Y330D02*
X156Y330D01*
X221Y330D02*
X225Y330D01*
X343Y330D02*
X356Y330D01*
X402Y330D02*
X405Y330D01*
X503Y330D02*
X506Y330D01*
X984Y330D02*
X1006Y330D01*
X1212Y330D02*
X1219Y330D01*
X0Y329D02*
X7Y329D01*
X83Y329D02*
X84Y329D01*
X154Y329D02*
X156Y329D01*
X221Y329D02*
X226Y329D01*
X344Y329D02*
X355Y329D01*
X403Y329D02*
X406Y329D01*
X504Y329D02*
X507Y329D01*
X1000Y329D02*
X1006Y329D01*
X1212Y329D02*
X1219Y329D01*
X0Y328D02*
X7Y328D01*
X83Y328D02*
X84Y328D01*
X154Y328D02*
X156Y328D01*
X221Y328D02*
X226Y328D01*
X344Y328D02*
X354Y328D01*
X404Y328D02*
X407Y328D01*
X505Y328D02*
X508Y328D01*
X1000Y328D02*
X1006Y328D01*
X1212Y328D02*
X1219Y328D01*
X0Y327D02*
X7Y327D01*
X83Y327D02*
X84Y327D01*
X154Y327D02*
X156Y327D01*
X221Y327D02*
X226Y327D01*
X344Y327D02*
X353Y327D01*
X405Y327D02*
X408Y327D01*
X506Y327D02*
X509Y327D01*
X1000Y327D02*
X1006Y327D01*
X1212Y327D02*
X1219Y327D01*
X0Y326D02*
X7Y326D01*
X83Y326D02*
X84Y326D01*
X154Y326D02*
X156Y326D01*
X221Y326D02*
X226Y326D01*
X344Y326D02*
X352Y326D01*
X406Y326D02*
X409Y326D01*
X507Y326D02*
X510Y326D01*
X1000Y326D02*
X1006Y326D01*
X1212Y326D02*
X1219Y326D01*
X0Y325D02*
X7Y325D01*
X83Y325D02*
X84Y325D01*
X154Y325D02*
X156Y325D01*
X221Y325D02*
X225Y325D01*
X344Y325D02*
X350Y325D01*
X407Y325D02*
X410Y325D01*
X508Y325D02*
X511Y325D01*
X1000Y325D02*
X1006Y325D01*
X1212Y325D02*
X1219Y325D01*
X0Y324D02*
X7Y324D01*
X83Y324D02*
X84Y324D01*
X154Y324D02*
X156Y324D01*
X220Y324D02*
X225Y324D01*
X344Y324D02*
X347Y324D01*
X408Y324D02*
X411Y324D01*
X509Y324D02*
X512Y324D01*
X1000Y324D02*
X1006Y324D01*
X1212Y324D02*
X1219Y324D01*
X0Y323D02*
X7Y323D01*
X83Y323D02*
X84Y323D01*
X154Y323D02*
X156Y323D01*
X219Y323D02*
X225Y323D01*
X344Y323D02*
X347Y323D01*
X409Y323D02*
X412Y323D01*
X510Y323D02*
X513Y323D01*
X1000Y323D02*
X1006Y323D01*
X1212Y323D02*
X1219Y323D01*
X0Y322D02*
X7Y322D01*
X83Y322D02*
X84Y322D01*
X154Y322D02*
X156Y322D01*
X218Y322D02*
X224Y322D01*
X344Y322D02*
X346Y322D01*
X410Y322D02*
X413Y322D01*
X511Y322D02*
X514Y322D01*
X953Y322D02*
X1006Y322D01*
X1212Y322D02*
X1219Y322D01*
X0Y321D02*
X7Y321D01*
X83Y321D02*
X84Y321D01*
X154Y321D02*
X156Y321D01*
X216Y321D02*
X224Y321D01*
X344Y321D02*
X346Y321D01*
X411Y321D02*
X414Y321D01*
X512Y321D02*
X515Y321D01*
X953Y321D02*
X1006Y321D01*
X1212Y321D02*
X1219Y321D01*
X0Y320D02*
X7Y320D01*
X83Y320D02*
X84Y320D01*
X154Y320D02*
X156Y320D01*
X188Y320D02*
X237Y320D01*
X343Y320D02*
X346Y320D01*
X412Y320D02*
X415Y320D01*
X513Y320D02*
X516Y320D01*
X953Y320D02*
X1006Y320D01*
X1212Y320D02*
X1219Y320D01*
X0Y319D02*
X7Y319D01*
X83Y319D02*
X84Y319D01*
X154Y319D02*
X156Y319D01*
X188Y319D02*
X237Y319D01*
X343Y319D02*
X345Y319D01*
X413Y319D02*
X416Y319D01*
X514Y319D02*
X517Y319D01*
X953Y319D02*
X1006Y319D01*
X1212Y319D02*
X1219Y319D01*
X0Y318D02*
X7Y318D01*
X83Y318D02*
X84Y318D01*
X154Y318D02*
X156Y318D01*
X188Y318D02*
X237Y318D01*
X343Y318D02*
X344Y318D01*
X414Y318D02*
X417Y318D01*
X515Y318D02*
X518Y318D01*
X953Y318D02*
X1006Y318D01*
X1212Y318D02*
X1219Y318D01*
X0Y317D02*
X7Y317D01*
X83Y317D02*
X84Y317D01*
X154Y317D02*
X156Y317D01*
X188Y317D02*
X237Y317D01*
X342Y317D02*
X343Y317D01*
X415Y317D02*
X418Y317D01*
X516Y317D02*
X519Y317D01*
X953Y317D02*
X1006Y317D01*
X1212Y317D02*
X1219Y317D01*
X0Y316D02*
X7Y316D01*
X83Y316D02*
X84Y316D01*
X154Y316D02*
X156Y316D01*
X188Y316D02*
X237Y316D01*
X342Y316D02*
X342Y316D01*
X416Y316D02*
X419Y316D01*
X517Y316D02*
X520Y316D01*
X953Y316D02*
X1006Y316D01*
X1212Y316D02*
X1219Y316D01*
X0Y315D02*
X7Y315D01*
X83Y315D02*
X84Y315D01*
X154Y315D02*
X156Y315D01*
X188Y315D02*
X237Y315D01*
X417Y315D02*
X420Y315D01*
X518Y315D02*
X521Y315D01*
X953Y315D02*
X959Y315D01*
X1000Y315D02*
X1006Y315D01*
X1212Y315D02*
X1219Y315D01*
X0Y314D02*
X7Y314D01*
X83Y314D02*
X84Y314D01*
X154Y314D02*
X156Y314D01*
X188Y314D02*
X237Y314D01*
X418Y314D02*
X421Y314D01*
X519Y314D02*
X522Y314D01*
X953Y314D02*
X959Y314D01*
X1000Y314D02*
X1006Y314D01*
X1212Y314D02*
X1219Y314D01*
X0Y313D02*
X7Y313D01*
X83Y313D02*
X84Y313D01*
X154Y313D02*
X156Y313D01*
X419Y313D02*
X422Y313D01*
X520Y313D02*
X523Y313D01*
X953Y313D02*
X959Y313D01*
X1000Y313D02*
X1006Y313D01*
X1212Y313D02*
X1219Y313D01*
X0Y312D02*
X7Y312D01*
X83Y312D02*
X84Y312D01*
X154Y312D02*
X156Y312D01*
X420Y312D02*
X423Y312D01*
X521Y312D02*
X524Y312D01*
X953Y312D02*
X959Y312D01*
X1000Y312D02*
X1006Y312D01*
X1212Y312D02*
X1219Y312D01*
X0Y311D02*
X7Y311D01*
X83Y311D02*
X84Y311D01*
X154Y311D02*
X156Y311D01*
X421Y311D02*
X424Y311D01*
X522Y311D02*
X525Y311D01*
X953Y311D02*
X959Y311D01*
X1000Y311D02*
X1006Y311D01*
X1212Y311D02*
X1219Y311D01*
X0Y310D02*
X7Y310D01*
X83Y310D02*
X84Y310D01*
X154Y310D02*
X156Y310D01*
X422Y310D02*
X425Y310D01*
X523Y310D02*
X526Y310D01*
X953Y310D02*
X959Y310D01*
X1000Y310D02*
X1006Y310D01*
X1212Y310D02*
X1219Y310D01*
X0Y309D02*
X7Y309D01*
X83Y309D02*
X84Y309D01*
X154Y309D02*
X156Y309D01*
X423Y309D02*
X426Y309D01*
X524Y309D02*
X527Y309D01*
X953Y309D02*
X959Y309D01*
X1000Y309D02*
X1006Y309D01*
X1212Y309D02*
X1219Y309D01*
X0Y308D02*
X7Y308D01*
X83Y308D02*
X84Y308D01*
X154Y308D02*
X156Y308D01*
X424Y308D02*
X427Y308D01*
X525Y308D02*
X528Y308D01*
X953Y308D02*
X959Y308D01*
X1000Y308D02*
X1006Y308D01*
X1212Y308D02*
X1219Y308D01*
X0Y307D02*
X7Y307D01*
X83Y307D02*
X84Y307D01*
X154Y307D02*
X156Y307D01*
X425Y307D02*
X428Y307D01*
X526Y307D02*
X529Y307D01*
X953Y307D02*
X959Y307D01*
X1000Y307D02*
X1006Y307D01*
X1212Y307D02*
X1219Y307D01*
X0Y306D02*
X7Y306D01*
X83Y306D02*
X84Y306D01*
X154Y306D02*
X156Y306D01*
X426Y306D02*
X429Y306D01*
X527Y306D02*
X530Y306D01*
X953Y306D02*
X959Y306D01*
X1000Y306D02*
X1006Y306D01*
X1212Y306D02*
X1219Y306D01*
X0Y305D02*
X7Y305D01*
X83Y305D02*
X84Y305D01*
X154Y305D02*
X156Y305D01*
X427Y305D02*
X431Y305D01*
X528Y305D02*
X531Y305D01*
X953Y305D02*
X959Y305D01*
X1000Y305D02*
X1006Y305D01*
X1212Y305D02*
X1219Y305D01*
X0Y304D02*
X7Y304D01*
X83Y304D02*
X84Y304D01*
X154Y304D02*
X156Y304D01*
X428Y304D02*
X432Y304D01*
X529Y304D02*
X532Y304D01*
X953Y304D02*
X959Y304D01*
X1001Y304D02*
X1006Y304D01*
X1212Y304D02*
X1219Y304D01*
X0Y303D02*
X7Y303D01*
X83Y303D02*
X84Y303D01*
X154Y303D02*
X156Y303D01*
X429Y303D02*
X433Y303D01*
X530Y303D02*
X533Y303D01*
X954Y303D02*
X958Y303D01*
X1001Y303D02*
X1006Y303D01*
X1212Y303D02*
X1219Y303D01*
X0Y302D02*
X7Y302D01*
X83Y302D02*
X84Y302D01*
X154Y302D02*
X156Y302D01*
X178Y302D02*
X195Y302D01*
X222Y302D02*
X222Y302D01*
X430Y302D02*
X434Y302D01*
X531Y302D02*
X534Y302D01*
X955Y302D02*
X957Y302D01*
X1003Y302D02*
X1004Y302D01*
X1212Y302D02*
X1219Y302D01*
X0Y301D02*
X7Y301D01*
X83Y301D02*
X84Y301D01*
X154Y301D02*
X156Y301D01*
X175Y301D02*
X198Y301D01*
X220Y301D02*
X224Y301D01*
X431Y301D02*
X435Y301D01*
X532Y301D02*
X535Y301D01*
X1212Y301D02*
X1219Y301D01*
X0Y300D02*
X7Y300D01*
X83Y300D02*
X84Y300D01*
X154Y300D02*
X156Y300D01*
X174Y300D02*
X199Y300D01*
X219Y300D02*
X224Y300D01*
X432Y300D02*
X436Y300D01*
X533Y300D02*
X536Y300D01*
X1212Y300D02*
X1219Y300D01*
X0Y299D02*
X7Y299D01*
X83Y299D02*
X84Y299D01*
X154Y299D02*
X156Y299D01*
X173Y299D02*
X200Y299D01*
X219Y299D02*
X225Y299D01*
X433Y299D02*
X437Y299D01*
X534Y299D02*
X537Y299D01*
X1212Y299D02*
X1219Y299D01*
X0Y298D02*
X7Y298D01*
X83Y298D02*
X84Y298D01*
X154Y298D02*
X156Y298D01*
X172Y298D02*
X200Y298D01*
X219Y298D02*
X225Y298D01*
X362Y298D02*
X365Y298D01*
X434Y298D02*
X438Y298D01*
X535Y298D02*
X538Y298D01*
X1212Y298D02*
X1219Y298D01*
X0Y297D02*
X7Y297D01*
X83Y297D02*
X84Y297D01*
X154Y297D02*
X156Y297D01*
X172Y297D02*
X201Y297D01*
X219Y297D02*
X225Y297D01*
X361Y297D02*
X367Y297D01*
X435Y297D02*
X439Y297D01*
X536Y297D02*
X539Y297D01*
X1212Y297D02*
X1219Y297D01*
X0Y296D02*
X7Y296D01*
X83Y296D02*
X84Y296D01*
X154Y296D02*
X156Y296D01*
X172Y296D02*
X201Y296D01*
X219Y296D02*
X225Y296D01*
X360Y296D02*
X368Y296D01*
X436Y296D02*
X440Y296D01*
X535Y296D02*
X538Y296D01*
X1212Y296D02*
X1219Y296D01*
X0Y295D02*
X7Y295D01*
X83Y295D02*
X84Y295D01*
X154Y295D02*
X156Y295D01*
X172Y295D02*
X178Y295D01*
X195Y295D02*
X201Y295D01*
X219Y295D02*
X225Y295D01*
X359Y295D02*
X369Y295D01*
X437Y295D02*
X441Y295D01*
X534Y295D02*
X537Y295D01*
X1212Y295D02*
X1219Y295D01*
X0Y294D02*
X7Y294D01*
X83Y294D02*
X84Y294D01*
X154Y294D02*
X156Y294D01*
X172Y294D02*
X178Y294D01*
X195Y294D02*
X201Y294D01*
X219Y294D02*
X225Y294D01*
X358Y294D02*
X370Y294D01*
X438Y294D02*
X441Y294D01*
X533Y294D02*
X536Y294D01*
X1212Y294D02*
X1219Y294D01*
X0Y293D02*
X7Y293D01*
X83Y293D02*
X84Y293D01*
X154Y293D02*
X156Y293D01*
X172Y293D02*
X178Y293D01*
X195Y293D02*
X201Y293D01*
X219Y293D02*
X225Y293D01*
X357Y293D02*
X371Y293D01*
X414Y293D02*
X416Y293D01*
X439Y293D02*
X442Y293D01*
X532Y293D02*
X535Y293D01*
X1212Y293D02*
X1219Y293D01*
X0Y292D02*
X7Y292D01*
X83Y292D02*
X85Y292D01*
X154Y292D02*
X156Y292D01*
X172Y292D02*
X178Y292D01*
X195Y292D02*
X201Y292D01*
X219Y292D02*
X225Y292D01*
X357Y292D02*
X371Y292D01*
X413Y292D02*
X417Y292D01*
X440Y292D02*
X443Y292D01*
X531Y292D02*
X534Y292D01*
X1212Y292D02*
X1219Y292D01*
X0Y291D02*
X7Y291D01*
X83Y291D02*
X156Y291D01*
X172Y291D02*
X178Y291D01*
X195Y291D02*
X201Y291D01*
X219Y291D02*
X225Y291D01*
X357Y291D02*
X372Y291D01*
X412Y291D02*
X418Y291D01*
X441Y291D02*
X444Y291D01*
X530Y291D02*
X533Y291D01*
X1212Y291D02*
X1219Y291D01*
X0Y290D02*
X7Y290D01*
X83Y290D02*
X156Y290D01*
X172Y290D02*
X178Y290D01*
X195Y290D02*
X201Y290D01*
X219Y290D02*
X225Y290D01*
X357Y290D02*
X372Y290D01*
X411Y290D02*
X419Y290D01*
X442Y290D02*
X445Y290D01*
X529Y290D02*
X532Y290D01*
X1212Y290D02*
X1219Y290D01*
X0Y289D02*
X7Y289D01*
X83Y289D02*
X156Y289D01*
X172Y289D02*
X178Y289D01*
X195Y289D02*
X201Y289D01*
X219Y289D02*
X225Y289D01*
X357Y289D02*
X371Y289D01*
X410Y289D02*
X420Y289D01*
X443Y289D02*
X446Y289D01*
X528Y289D02*
X531Y289D01*
X1212Y289D02*
X1219Y289D01*
X0Y288D02*
X7Y288D01*
X172Y288D02*
X178Y288D01*
X195Y288D02*
X201Y288D01*
X219Y288D02*
X225Y288D01*
X358Y288D02*
X371Y288D01*
X409Y288D02*
X420Y288D01*
X444Y288D02*
X447Y288D01*
X527Y288D02*
X530Y288D01*
X1212Y288D02*
X1219Y288D01*
X0Y287D02*
X7Y287D01*
X172Y287D02*
X178Y287D01*
X195Y287D02*
X201Y287D01*
X219Y287D02*
X225Y287D01*
X359Y287D02*
X370Y287D01*
X408Y287D02*
X420Y287D01*
X445Y287D02*
X448Y287D01*
X526Y287D02*
X529Y287D01*
X1212Y287D02*
X1219Y287D01*
X0Y286D02*
X7Y286D01*
X172Y286D02*
X178Y286D01*
X195Y286D02*
X201Y286D01*
X219Y286D02*
X225Y286D01*
X360Y286D02*
X369Y286D01*
X407Y286D02*
X420Y286D01*
X446Y286D02*
X449Y286D01*
X525Y286D02*
X528Y286D01*
X1212Y286D02*
X1219Y286D01*
X0Y285D02*
X7Y285D01*
X172Y285D02*
X178Y285D01*
X195Y285D02*
X201Y285D01*
X219Y285D02*
X225Y285D01*
X361Y285D02*
X368Y285D01*
X406Y285D02*
X419Y285D01*
X447Y285D02*
X450Y285D01*
X524Y285D02*
X527Y285D01*
X973Y285D02*
X975Y285D01*
X993Y285D02*
X1000Y285D01*
X1212Y285D02*
X1219Y285D01*
X0Y284D02*
X7Y284D01*
X172Y284D02*
X178Y284D01*
X195Y284D02*
X201Y284D01*
X219Y284D02*
X225Y284D01*
X362Y284D02*
X367Y284D01*
X405Y284D02*
X413Y284D01*
X448Y284D02*
X451Y284D01*
X523Y284D02*
X526Y284D01*
X972Y284D02*
X976Y284D01*
X991Y284D02*
X1002Y284D01*
X1212Y284D02*
X1219Y284D01*
X0Y283D02*
X7Y283D01*
X172Y283D02*
X178Y283D01*
X195Y283D02*
X201Y283D01*
X219Y283D02*
X225Y283D01*
X364Y283D02*
X365Y283D01*
X404Y283D02*
X412Y283D01*
X449Y283D02*
X452Y283D01*
X522Y283D02*
X525Y283D01*
X971Y283D02*
X977Y283D01*
X990Y283D02*
X1003Y283D01*
X1212Y283D02*
X1219Y283D01*
X0Y282D02*
X7Y282D01*
X172Y282D02*
X178Y282D01*
X195Y282D02*
X201Y282D01*
X219Y282D02*
X225Y282D01*
X403Y282D02*
X411Y282D01*
X450Y282D02*
X453Y282D01*
X521Y282D02*
X524Y282D01*
X970Y282D02*
X977Y282D01*
X988Y282D02*
X1004Y282D01*
X1212Y282D02*
X1219Y282D01*
X0Y281D02*
X7Y281D01*
X172Y281D02*
X178Y281D01*
X195Y281D02*
X201Y281D01*
X219Y281D02*
X225Y281D01*
X402Y281D02*
X410Y281D01*
X451Y281D02*
X454Y281D01*
X520Y281D02*
X523Y281D01*
X969Y281D02*
X977Y281D01*
X988Y281D02*
X1005Y281D01*
X1212Y281D02*
X1219Y281D01*
X0Y280D02*
X7Y280D01*
X172Y280D02*
X178Y280D01*
X195Y280D02*
X201Y280D01*
X219Y280D02*
X225Y280D01*
X401Y280D02*
X409Y280D01*
X452Y280D02*
X455Y280D01*
X519Y280D02*
X522Y280D01*
X969Y280D02*
X976Y280D01*
X987Y280D02*
X1005Y280D01*
X1212Y280D02*
X1219Y280D01*
X0Y279D02*
X7Y279D01*
X172Y279D02*
X178Y279D01*
X195Y279D02*
X201Y279D01*
X219Y279D02*
X225Y279D01*
X400Y279D02*
X408Y279D01*
X453Y279D02*
X456Y279D01*
X518Y279D02*
X521Y279D01*
X968Y279D02*
X976Y279D01*
X987Y279D02*
X1006Y279D01*
X1212Y279D02*
X1219Y279D01*
X0Y278D02*
X7Y278D01*
X172Y278D02*
X178Y278D01*
X195Y278D02*
X201Y278D01*
X219Y278D02*
X225Y278D01*
X399Y278D02*
X407Y278D01*
X454Y278D02*
X457Y278D01*
X517Y278D02*
X520Y278D01*
X968Y278D02*
X975Y278D01*
X986Y278D02*
X993Y278D01*
X999Y278D02*
X1006Y278D01*
X1212Y278D02*
X1219Y278D01*
X0Y277D02*
X7Y277D01*
X172Y277D02*
X178Y277D01*
X195Y277D02*
X201Y277D01*
X219Y277D02*
X225Y277D01*
X398Y277D02*
X406Y277D01*
X455Y277D02*
X458Y277D01*
X516Y277D02*
X519Y277D01*
X968Y277D02*
X974Y277D01*
X986Y277D02*
X992Y277D01*
X1000Y277D02*
X1006Y277D01*
X1212Y277D02*
X1219Y277D01*
X0Y276D02*
X7Y276D01*
X172Y276D02*
X178Y276D01*
X195Y276D02*
X201Y276D01*
X219Y276D02*
X225Y276D01*
X397Y276D02*
X405Y276D01*
X456Y276D02*
X459Y276D01*
X515Y276D02*
X518Y276D01*
X968Y276D02*
X974Y276D01*
X985Y276D02*
X992Y276D01*
X1000Y276D02*
X1006Y276D01*
X1212Y276D02*
X1219Y276D01*
X0Y275D02*
X7Y275D01*
X172Y275D02*
X178Y275D01*
X195Y275D02*
X201Y275D01*
X219Y275D02*
X225Y275D01*
X396Y275D02*
X404Y275D01*
X457Y275D02*
X460Y275D01*
X514Y275D02*
X517Y275D01*
X968Y275D02*
X974Y275D01*
X985Y275D02*
X992Y275D01*
X1000Y275D02*
X1006Y275D01*
X1212Y275D02*
X1219Y275D01*
X0Y274D02*
X7Y274D01*
X172Y274D02*
X178Y274D01*
X195Y274D02*
X225Y274D01*
X395Y274D02*
X403Y274D01*
X458Y274D02*
X461Y274D01*
X513Y274D02*
X516Y274D01*
X968Y274D02*
X974Y274D01*
X985Y274D02*
X991Y274D01*
X1000Y274D02*
X1006Y274D01*
X1212Y274D02*
X1219Y274D01*
X0Y273D02*
X7Y273D01*
X172Y273D02*
X178Y273D01*
X195Y273D02*
X225Y273D01*
X394Y273D02*
X402Y273D01*
X459Y273D02*
X462Y273D01*
X512Y273D02*
X515Y273D01*
X968Y273D02*
X974Y273D01*
X984Y273D02*
X991Y273D01*
X1000Y273D02*
X1006Y273D01*
X1212Y273D02*
X1219Y273D01*
X0Y272D02*
X7Y272D01*
X172Y272D02*
X178Y272D01*
X196Y272D02*
X225Y272D01*
X393Y272D02*
X401Y272D01*
X460Y272D02*
X463Y272D01*
X511Y272D02*
X514Y272D01*
X968Y272D02*
X974Y272D01*
X984Y272D02*
X990Y272D01*
X1000Y272D02*
X1006Y272D01*
X1212Y272D02*
X1219Y272D01*
X0Y271D02*
X7Y271D01*
X172Y271D02*
X178Y271D01*
X196Y271D02*
X225Y271D01*
X392Y271D02*
X400Y271D01*
X461Y271D02*
X464Y271D01*
X510Y271D02*
X513Y271D01*
X968Y271D02*
X974Y271D01*
X983Y271D02*
X990Y271D01*
X1000Y271D02*
X1006Y271D01*
X1212Y271D02*
X1219Y271D01*
X0Y270D02*
X7Y270D01*
X172Y270D02*
X177Y270D01*
X197Y270D02*
X225Y270D01*
X391Y270D02*
X399Y270D01*
X462Y270D02*
X465Y270D01*
X509Y270D02*
X512Y270D01*
X968Y270D02*
X974Y270D01*
X983Y270D02*
X989Y270D01*
X1000Y270D02*
X1006Y270D01*
X1212Y270D02*
X1219Y270D01*
X0Y269D02*
X7Y269D01*
X172Y269D02*
X177Y269D01*
X198Y269D02*
X225Y269D01*
X390Y269D02*
X399Y269D01*
X463Y269D02*
X466Y269D01*
X508Y269D02*
X511Y269D01*
X968Y269D02*
X974Y269D01*
X982Y269D02*
X989Y269D01*
X1000Y269D02*
X1006Y269D01*
X1212Y269D02*
X1219Y269D01*
X0Y268D02*
X7Y268D01*
X173Y268D02*
X176Y268D01*
X200Y268D02*
X225Y268D01*
X389Y268D02*
X400Y268D01*
X464Y268D02*
X467Y268D01*
X507Y268D02*
X510Y268D01*
X968Y268D02*
X974Y268D01*
X982Y268D02*
X989Y268D01*
X1000Y268D02*
X1006Y268D01*
X1212Y268D02*
X1219Y268D01*
X0Y267D02*
X7Y267D01*
X388Y267D02*
X401Y267D01*
X465Y267D02*
X468Y267D01*
X506Y267D02*
X509Y267D01*
X968Y267D02*
X974Y267D01*
X982Y267D02*
X988Y267D01*
X1000Y267D02*
X1006Y267D01*
X1212Y267D02*
X1219Y267D01*
X0Y266D02*
X7Y266D01*
X387Y266D02*
X402Y266D01*
X466Y266D02*
X469Y266D01*
X505Y266D02*
X508Y266D01*
X968Y266D02*
X974Y266D01*
X981Y266D02*
X988Y266D01*
X1000Y266D02*
X1006Y266D01*
X1212Y266D02*
X1219Y266D01*
X0Y265D02*
X7Y265D01*
X386Y265D02*
X403Y265D01*
X467Y265D02*
X470Y265D01*
X504Y265D02*
X507Y265D01*
X968Y265D02*
X974Y265D01*
X981Y265D02*
X987Y265D01*
X1000Y265D02*
X1006Y265D01*
X1212Y265D02*
X1219Y265D01*
X0Y264D02*
X7Y264D01*
X385Y264D02*
X393Y264D01*
X395Y264D02*
X404Y264D01*
X468Y264D02*
X471Y264D01*
X503Y264D02*
X506Y264D01*
X968Y264D02*
X974Y264D01*
X980Y264D02*
X987Y264D01*
X1000Y264D02*
X1006Y264D01*
X1212Y264D02*
X1219Y264D01*
X0Y263D02*
X7Y263D01*
X384Y263D02*
X392Y263D01*
X396Y263D02*
X405Y263D01*
X469Y263D02*
X472Y263D01*
X502Y263D02*
X505Y263D01*
X968Y263D02*
X974Y263D01*
X980Y263D02*
X986Y263D01*
X1000Y263D02*
X1006Y263D01*
X1212Y263D02*
X1219Y263D01*
X0Y262D02*
X7Y262D01*
X383Y262D02*
X391Y262D01*
X397Y262D02*
X406Y262D01*
X470Y262D02*
X473Y262D01*
X501Y262D02*
X504Y262D01*
X968Y262D02*
X974Y262D01*
X979Y262D02*
X986Y262D01*
X1000Y262D02*
X1006Y262D01*
X1212Y262D02*
X1219Y262D01*
X0Y261D02*
X7Y261D01*
X382Y261D02*
X390Y261D01*
X398Y261D02*
X407Y261D01*
X471Y261D02*
X474Y261D01*
X500Y261D02*
X503Y261D01*
X968Y261D02*
X974Y261D01*
X979Y261D02*
X986Y261D01*
X1000Y261D02*
X1006Y261D01*
X1212Y261D02*
X1219Y261D01*
X0Y260D02*
X7Y260D01*
X381Y260D02*
X389Y260D01*
X399Y260D02*
X408Y260D01*
X472Y260D02*
X475Y260D01*
X499Y260D02*
X502Y260D01*
X968Y260D02*
X974Y260D01*
X978Y260D02*
X985Y260D01*
X1000Y260D02*
X1006Y260D01*
X1212Y260D02*
X1219Y260D01*
X0Y259D02*
X7Y259D01*
X380Y259D02*
X388Y259D01*
X400Y259D02*
X409Y259D01*
X473Y259D02*
X476Y259D01*
X498Y259D02*
X501Y259D01*
X968Y259D02*
X985Y259D01*
X999Y259D02*
X1006Y259D01*
X1212Y259D02*
X1219Y259D01*
X0Y258D02*
X7Y258D01*
X379Y258D02*
X387Y258D01*
X401Y258D02*
X410Y258D01*
X474Y258D02*
X477Y258D01*
X497Y258D02*
X500Y258D01*
X969Y258D02*
X984Y258D01*
X999Y258D02*
X1006Y258D01*
X1212Y258D02*
X1219Y258D01*
X0Y257D02*
X7Y257D01*
X379Y257D02*
X386Y257D01*
X402Y257D02*
X411Y257D01*
X449Y257D02*
X452Y257D01*
X475Y257D02*
X478Y257D01*
X496Y257D02*
X499Y257D01*
X969Y257D02*
X984Y257D01*
X998Y257D02*
X1005Y257D01*
X1212Y257D02*
X1219Y257D01*
X0Y256D02*
X7Y256D01*
X379Y256D02*
X387Y256D01*
X403Y256D02*
X412Y256D01*
X447Y256D02*
X453Y256D01*
X476Y256D02*
X479Y256D01*
X495Y256D02*
X498Y256D01*
X970Y256D02*
X983Y256D01*
X998Y256D02*
X1005Y256D01*
X1212Y256D02*
X1219Y256D01*
X0Y255D02*
X7Y255D01*
X379Y255D02*
X388Y255D01*
X404Y255D02*
X413Y255D01*
X446Y255D02*
X453Y255D01*
X477Y255D02*
X480Y255D01*
X494Y255D02*
X497Y255D01*
X971Y255D02*
X982Y255D01*
X998Y255D02*
X1004Y255D01*
X1212Y255D02*
X1219Y255D01*
X0Y254D02*
X7Y254D01*
X380Y254D02*
X389Y254D01*
X405Y254D02*
X414Y254D01*
X445Y254D02*
X453Y254D01*
X478Y254D02*
X481Y254D01*
X493Y254D02*
X496Y254D01*
X972Y254D02*
X981Y254D01*
X998Y254D02*
X1004Y254D01*
X1212Y254D02*
X1219Y254D01*
X0Y253D02*
X7Y253D01*
X381Y253D02*
X390Y253D01*
X406Y253D02*
X415Y253D01*
X444Y253D02*
X453Y253D01*
X479Y253D02*
X482Y253D01*
X492Y253D02*
X495Y253D01*
X973Y253D02*
X979Y253D01*
X998Y253D02*
X1003Y253D01*
X1212Y253D02*
X1219Y253D01*
X0Y252D02*
X7Y252D01*
X382Y252D02*
X391Y252D01*
X407Y252D02*
X416Y252D01*
X443Y252D02*
X452Y252D01*
X480Y252D02*
X483Y252D01*
X491Y252D02*
X494Y252D01*
X999Y252D02*
X1002Y252D01*
X1212Y252D02*
X1219Y252D01*
X0Y251D02*
X7Y251D01*
X175Y251D02*
X197Y251D01*
X220Y251D02*
X223Y251D01*
X383Y251D02*
X392Y251D01*
X408Y251D02*
X416Y251D01*
X442Y251D02*
X451Y251D01*
X481Y251D02*
X484Y251D01*
X490Y251D02*
X493Y251D01*
X1212Y251D02*
X1219Y251D01*
X0Y250D02*
X7Y250D01*
X174Y250D02*
X199Y250D01*
X219Y250D02*
X224Y250D01*
X384Y250D02*
X393Y250D01*
X409Y250D02*
X417Y250D01*
X441Y250D02*
X450Y250D01*
X482Y250D02*
X485Y250D01*
X489Y250D02*
X492Y250D01*
X1212Y250D02*
X1219Y250D01*
X0Y249D02*
X7Y249D01*
X173Y249D02*
X200Y249D01*
X222Y249D02*
X225Y249D01*
X385Y249D02*
X394Y249D01*
X408Y249D02*
X417Y249D01*
X440Y249D02*
X449Y249D01*
X483Y249D02*
X486Y249D01*
X488Y249D02*
X491Y249D01*
X1212Y249D02*
X1219Y249D01*
X0Y248D02*
X7Y248D01*
X172Y248D02*
X200Y248D01*
X386Y248D02*
X395Y248D01*
X407Y248D02*
X416Y248D01*
X439Y248D02*
X448Y248D01*
X484Y248D02*
X490Y248D01*
X1212Y248D02*
X1219Y248D01*
X0Y247D02*
X7Y247D01*
X172Y247D02*
X201Y247D01*
X387Y247D02*
X396Y247D01*
X406Y247D02*
X415Y247D01*
X438Y247D02*
X447Y247D01*
X485Y247D02*
X489Y247D01*
X1212Y247D02*
X1219Y247D01*
X0Y246D02*
X7Y246D01*
X172Y246D02*
X201Y246D01*
X388Y246D02*
X397Y246D01*
X405Y246D02*
X414Y246D01*
X437Y246D02*
X446Y246D01*
X486Y246D02*
X488Y246D01*
X1212Y246D02*
X1219Y246D01*
X0Y245D02*
X7Y245D01*
X172Y245D02*
X201Y245D01*
X389Y245D02*
X398Y245D01*
X404Y245D02*
X413Y245D01*
X436Y245D02*
X445Y245D01*
X487Y245D02*
X487Y245D01*
X1212Y245D02*
X1219Y245D01*
X0Y244D02*
X7Y244D01*
X172Y244D02*
X178Y244D01*
X195Y244D02*
X201Y244D01*
X390Y244D02*
X399Y244D01*
X403Y244D02*
X412Y244D01*
X435Y244D02*
X444Y244D01*
X1212Y244D02*
X1219Y244D01*
X0Y243D02*
X7Y243D01*
X172Y243D02*
X178Y243D01*
X195Y243D02*
X201Y243D01*
X391Y243D02*
X400Y243D01*
X402Y243D02*
X411Y243D01*
X434Y243D02*
X443Y243D01*
X1212Y243D02*
X1219Y243D01*
X0Y242D02*
X7Y242D01*
X172Y242D02*
X178Y242D01*
X195Y242D02*
X201Y242D01*
X392Y242D02*
X410Y242D01*
X433Y242D02*
X442Y242D01*
X1212Y242D02*
X1219Y242D01*
X0Y241D02*
X7Y241D01*
X172Y241D02*
X178Y241D01*
X195Y241D02*
X201Y241D01*
X393Y241D02*
X409Y241D01*
X432Y241D02*
X441Y241D01*
X1212Y241D02*
X1219Y241D01*
X0Y240D02*
X7Y240D01*
X172Y240D02*
X178Y240D01*
X195Y240D02*
X200Y240D01*
X394Y240D02*
X408Y240D01*
X431Y240D02*
X440Y240D01*
X1212Y240D02*
X1219Y240D01*
X0Y239D02*
X7Y239D01*
X172Y239D02*
X178Y239D01*
X195Y239D02*
X199Y239D01*
X395Y239D02*
X407Y239D01*
X430Y239D02*
X439Y239D01*
X1212Y239D02*
X1219Y239D01*
X0Y238D02*
X7Y238D01*
X172Y238D02*
X178Y238D01*
X195Y238D02*
X198Y238D01*
X396Y238D02*
X406Y238D01*
X429Y238D02*
X438Y238D01*
X1212Y238D02*
X1219Y238D01*
X0Y237D02*
X7Y237D01*
X172Y237D02*
X178Y237D01*
X195Y237D02*
X198Y237D01*
X397Y237D02*
X405Y237D01*
X428Y237D02*
X437Y237D01*
X1212Y237D02*
X1219Y237D01*
X0Y236D02*
X7Y236D01*
X172Y236D02*
X178Y236D01*
X195Y236D02*
X197Y236D01*
X398Y236D02*
X404Y236D01*
X427Y236D02*
X436Y236D01*
X1212Y236D02*
X1219Y236D01*
X0Y235D02*
X7Y235D01*
X172Y235D02*
X178Y235D01*
X195Y235D02*
X197Y235D01*
X399Y235D02*
X403Y235D01*
X426Y235D02*
X435Y235D01*
X974Y235D02*
X974Y235D01*
X993Y235D02*
X1000Y235D01*
X1212Y235D02*
X1219Y235D01*
X0Y234D02*
X7Y234D01*
X172Y234D02*
X178Y234D01*
X195Y234D02*
X196Y234D01*
X400Y234D02*
X402Y234D01*
X425Y234D02*
X434Y234D01*
X972Y234D02*
X976Y234D01*
X991Y234D02*
X1002Y234D01*
X1212Y234D02*
X1219Y234D01*
X0Y233D02*
X7Y233D01*
X172Y233D02*
X178Y233D01*
X195Y233D02*
X196Y233D01*
X424Y233D02*
X433Y233D01*
X971Y233D02*
X977Y233D01*
X990Y233D02*
X1003Y233D01*
X1212Y233D02*
X1219Y233D01*
X0Y232D02*
X7Y232D01*
X172Y232D02*
X178Y232D01*
X195Y232D02*
X196Y232D01*
X423Y232D02*
X439Y232D01*
X970Y232D02*
X977Y232D01*
X989Y232D02*
X1004Y232D01*
X1212Y232D02*
X1219Y232D01*
X0Y231D02*
X7Y231D01*
X172Y231D02*
X178Y231D01*
X195Y231D02*
X195Y231D01*
X422Y231D02*
X451Y231D01*
X969Y231D02*
X977Y231D01*
X988Y231D02*
X1005Y231D01*
X1212Y231D02*
X1219Y231D01*
X0Y230D02*
X7Y230D01*
X172Y230D02*
X178Y230D01*
X195Y230D02*
X195Y230D01*
X421Y230D02*
X458Y230D01*
X969Y230D02*
X976Y230D01*
X987Y230D02*
X1005Y230D01*
X1212Y230D02*
X1219Y230D01*
X0Y229D02*
X7Y229D01*
X172Y229D02*
X178Y229D01*
X195Y229D02*
X195Y229D01*
X420Y229D02*
X459Y229D01*
X968Y229D02*
X976Y229D01*
X987Y229D02*
X1006Y229D01*
X1212Y229D02*
X1219Y229D01*
X0Y228D02*
X7Y228D01*
X172Y228D02*
X178Y228D01*
X195Y228D02*
X195Y228D01*
X419Y228D02*
X460Y228D01*
X968Y228D02*
X975Y228D01*
X986Y228D02*
X993Y228D01*
X999Y228D02*
X1006Y228D01*
X1212Y228D02*
X1219Y228D01*
X0Y227D02*
X7Y227D01*
X172Y227D02*
X178Y227D01*
X418Y227D02*
X460Y227D01*
X968Y227D02*
X974Y227D01*
X986Y227D02*
X993Y227D01*
X1000Y227D02*
X1006Y227D01*
X1212Y227D02*
X1219Y227D01*
X0Y226D02*
X7Y226D01*
X172Y226D02*
X178Y226D01*
X417Y226D02*
X460Y226D01*
X968Y226D02*
X974Y226D01*
X985Y226D02*
X992Y226D01*
X1000Y226D02*
X1006Y226D01*
X1212Y226D02*
X1219Y226D01*
X0Y225D02*
X7Y225D01*
X172Y225D02*
X178Y225D01*
X416Y225D02*
X425Y225D01*
X432Y225D02*
X459Y225D01*
X968Y225D02*
X974Y225D01*
X985Y225D02*
X992Y225D01*
X1000Y225D02*
X1006Y225D01*
X1212Y225D02*
X1219Y225D01*
X0Y224D02*
X7Y224D01*
X172Y224D02*
X178Y224D01*
X415Y224D02*
X424Y224D01*
X432Y224D02*
X438Y224D01*
X452Y224D02*
X458Y224D01*
X968Y224D02*
X974Y224D01*
X985Y224D02*
X991Y224D01*
X1000Y224D02*
X1006Y224D01*
X1212Y224D02*
X1219Y224D01*
X0Y223D02*
X7Y223D01*
X172Y223D02*
X178Y223D01*
X415Y223D02*
X423Y223D01*
X432Y223D02*
X438Y223D01*
X968Y223D02*
X974Y223D01*
X984Y223D02*
X991Y223D01*
X1000Y223D02*
X1006Y223D01*
X1212Y223D02*
X1219Y223D01*
X0Y222D02*
X7Y222D01*
X172Y222D02*
X178Y222D01*
X414Y222D02*
X422Y222D01*
X432Y222D02*
X438Y222D01*
X968Y222D02*
X974Y222D01*
X984Y222D02*
X990Y222D01*
X1000Y222D02*
X1006Y222D01*
X1212Y222D02*
X1219Y222D01*
X0Y221D02*
X7Y221D01*
X172Y221D02*
X178Y221D01*
X414Y221D02*
X421Y221D01*
X432Y221D02*
X438Y221D01*
X968Y221D02*
X974Y221D01*
X983Y221D02*
X990Y221D01*
X1000Y221D02*
X1006Y221D01*
X1212Y221D02*
X1219Y221D01*
X0Y220D02*
X7Y220D01*
X172Y220D02*
X177Y220D01*
X414Y220D02*
X420Y220D01*
X432Y220D02*
X438Y220D01*
X968Y220D02*
X974Y220D01*
X983Y220D02*
X989Y220D01*
X1000Y220D02*
X1006Y220D01*
X1212Y220D02*
X1219Y220D01*
X0Y219D02*
X7Y219D01*
X172Y219D02*
X177Y219D01*
X415Y219D02*
X419Y219D01*
X432Y219D02*
X438Y219D01*
X968Y219D02*
X974Y219D01*
X982Y219D02*
X989Y219D01*
X1000Y219D02*
X1006Y219D01*
X1212Y219D02*
X1219Y219D01*
X0Y218D02*
X7Y218D01*
X173Y218D02*
X176Y218D01*
X416Y218D02*
X418Y218D01*
X432Y218D02*
X438Y218D01*
X968Y218D02*
X974Y218D01*
X982Y218D02*
X989Y218D01*
X1000Y218D02*
X1006Y218D01*
X1212Y218D02*
X1219Y218D01*
X0Y217D02*
X7Y217D01*
X432Y217D02*
X438Y217D01*
X968Y217D02*
X974Y217D01*
X982Y217D02*
X988Y217D01*
X1000Y217D02*
X1006Y217D01*
X1212Y217D02*
X1219Y217D01*
X0Y216D02*
X7Y216D01*
X432Y216D02*
X438Y216D01*
X968Y216D02*
X974Y216D01*
X981Y216D02*
X988Y216D01*
X1000Y216D02*
X1006Y216D01*
X1212Y216D02*
X1219Y216D01*
X0Y215D02*
X7Y215D01*
X433Y215D02*
X439Y215D01*
X968Y215D02*
X974Y215D01*
X981Y215D02*
X987Y215D01*
X1000Y215D02*
X1006Y215D01*
X1212Y215D02*
X1219Y215D01*
X0Y214D02*
X7Y214D01*
X433Y214D02*
X439Y214D01*
X968Y214D02*
X974Y214D01*
X980Y214D02*
X987Y214D01*
X1000Y214D02*
X1006Y214D01*
X1212Y214D02*
X1219Y214D01*
X0Y213D02*
X7Y213D01*
X433Y213D02*
X439Y213D01*
X968Y213D02*
X974Y213D01*
X980Y213D02*
X986Y213D01*
X1000Y213D02*
X1006Y213D01*
X1212Y213D02*
X1219Y213D01*
X0Y212D02*
X7Y212D01*
X433Y212D02*
X439Y212D01*
X968Y212D02*
X974Y212D01*
X979Y212D02*
X986Y212D01*
X1000Y212D02*
X1006Y212D01*
X1212Y212D02*
X1219Y212D01*
X0Y211D02*
X7Y211D01*
X433Y211D02*
X439Y211D01*
X968Y211D02*
X974Y211D01*
X979Y211D02*
X986Y211D01*
X1000Y211D02*
X1006Y211D01*
X1212Y211D02*
X1219Y211D01*
X0Y210D02*
X7Y210D01*
X433Y210D02*
X439Y210D01*
X968Y210D02*
X974Y210D01*
X978Y210D02*
X985Y210D01*
X1000Y210D02*
X1006Y210D01*
X1212Y210D02*
X1219Y210D01*
X0Y209D02*
X7Y209D01*
X433Y209D02*
X439Y209D01*
X968Y209D02*
X985Y209D01*
X1000Y209D02*
X1006Y209D01*
X1212Y209D02*
X1219Y209D01*
X0Y208D02*
X7Y208D01*
X433Y208D02*
X439Y208D01*
X969Y208D02*
X984Y208D01*
X999Y208D02*
X1006Y208D01*
X1212Y208D02*
X1219Y208D01*
X0Y207D02*
X7Y207D01*
X433Y207D02*
X439Y207D01*
X969Y207D02*
X984Y207D01*
X998Y207D02*
X1005Y207D01*
X1212Y207D02*
X1219Y207D01*
X0Y206D02*
X7Y206D01*
X433Y206D02*
X439Y206D01*
X970Y206D02*
X983Y206D01*
X998Y206D02*
X1005Y206D01*
X1212Y206D02*
X1219Y206D01*
X0Y205D02*
X7Y205D01*
X433Y205D02*
X439Y205D01*
X970Y205D02*
X982Y205D01*
X998Y205D02*
X1004Y205D01*
X1212Y205D02*
X1219Y205D01*
X0Y204D02*
X7Y204D01*
X433Y204D02*
X439Y204D01*
X971Y204D02*
X981Y204D01*
X998Y204D02*
X1004Y204D01*
X1212Y204D02*
X1219Y204D01*
X0Y203D02*
X7Y203D01*
X433Y203D02*
X440Y203D01*
X973Y203D02*
X979Y203D01*
X998Y203D02*
X1003Y203D01*
X1212Y203D02*
X1219Y203D01*
X0Y202D02*
X7Y202D01*
X434Y202D02*
X440Y202D01*
X999Y202D02*
X1002Y202D01*
X1212Y202D02*
X1219Y202D01*
X0Y201D02*
X7Y201D01*
X434Y201D02*
X439Y201D01*
X1212Y201D02*
X1219Y201D01*
X0Y200D02*
X7Y200D01*
X434Y200D02*
X439Y200D01*
X1212Y200D02*
X1219Y200D01*
X0Y199D02*
X7Y199D01*
X435Y199D02*
X438Y199D01*
X1212Y199D02*
X1219Y199D01*
X0Y198D02*
X7Y198D01*
X1212Y198D02*
X1219Y198D01*
X0Y197D02*
X7Y197D01*
X1212Y197D02*
X1219Y197D01*
X0Y196D02*
X7Y196D01*
X1212Y196D02*
X1219Y196D01*
X0Y195D02*
X7Y195D01*
X1212Y195D02*
X1219Y195D01*
X0Y194D02*
X7Y194D01*
X1212Y194D02*
X1219Y194D01*
X0Y193D02*
X7Y193D01*
X1212Y193D02*
X1219Y193D01*
X0Y192D02*
X7Y192D01*
X1212Y192D02*
X1219Y192D01*
X0Y191D02*
X7Y191D01*
X1212Y191D02*
X1219Y191D01*
X0Y190D02*
X7Y190D01*
X1212Y190D02*
X1219Y190D01*
X0Y189D02*
X7Y189D01*
X1212Y189D02*
X1219Y189D01*
X0Y188D02*
X7Y188D01*
X1212Y188D02*
X1219Y188D01*
X0Y187D02*
X7Y187D01*
X1212Y187D02*
X1219Y187D01*
X0Y186D02*
X7Y186D01*
X1212Y186D02*
X1219Y186D01*
X0Y185D02*
X7Y185D01*
X1212Y185D02*
X1219Y185D01*
X0Y184D02*
X7Y184D01*
X1212Y184D02*
X1219Y184D01*
X0Y183D02*
X7Y183D01*
X1212Y183D02*
X1219Y183D01*
X0Y182D02*
X7Y182D01*
X1212Y182D02*
X1219Y182D01*
X0Y181D02*
X7Y181D01*
X1212Y181D02*
X1219Y181D01*
X0Y180D02*
X7Y180D01*
X1212Y180D02*
X1219Y180D01*
X0Y179D02*
X7Y179D01*
X1212Y179D02*
X1219Y179D01*
X0Y178D02*
X7Y178D01*
X1212Y178D02*
X1219Y178D01*
X0Y177D02*
X7Y177D01*
X1212Y177D02*
X1219Y177D01*
X0Y176D02*
X7Y176D01*
X1212Y176D02*
X1219Y176D01*
X0Y175D02*
X7Y175D01*
X1212Y175D02*
X1219Y175D01*
X0Y174D02*
X7Y174D01*
X1212Y174D02*
X1219Y174D01*
X0Y173D02*
X7Y173D01*
X1212Y173D02*
X1219Y173D01*
X0Y172D02*
X7Y172D01*
X1212Y172D02*
X1219Y172D01*
X0Y171D02*
X7Y171D01*
X1212Y171D02*
X1219Y171D01*
X0Y170D02*
X7Y170D01*
X1212Y170D02*
X1219Y170D01*
X0Y169D02*
X7Y169D01*
X1212Y169D02*
X1219Y169D01*
X0Y168D02*
X7Y168D01*
X1212Y168D02*
X1219Y168D01*
X0Y167D02*
X7Y167D01*
X1212Y167D02*
X1219Y167D01*
X0Y166D02*
X7Y166D01*
X1212Y166D02*
X1219Y166D01*
X0Y165D02*
X7Y165D01*
X1212Y165D02*
X1219Y165D01*
X0Y164D02*
X7Y164D01*
X1212Y164D02*
X1219Y164D01*
X0Y163D02*
X7Y163D01*
X1212Y163D02*
X1219Y163D01*
X0Y162D02*
X7Y162D01*
X1212Y162D02*
X1219Y162D01*
X0Y161D02*
X7Y161D01*
X1212Y161D02*
X1219Y161D01*
X0Y160D02*
X7Y160D01*
X1212Y160D02*
X1219Y160D01*
X0Y159D02*
X7Y159D01*
X1212Y159D02*
X1219Y159D01*
X0Y158D02*
X7Y158D01*
X1212Y158D02*
X1219Y158D01*
X0Y157D02*
X7Y157D01*
X1212Y157D02*
X1219Y157D01*
X0Y156D02*
X7Y156D01*
X1212Y156D02*
X1219Y156D01*
X0Y155D02*
X7Y155D01*
X1212Y155D02*
X1219Y155D01*
X0Y154D02*
X7Y154D01*
X1212Y154D02*
X1219Y154D01*
X0Y153D02*
X7Y153D01*
X1212Y153D02*
X1219Y153D01*
X0Y152D02*
X7Y152D01*
X1212Y152D02*
X1219Y152D01*
X0Y151D02*
X7Y151D01*
X1212Y151D02*
X1219Y151D01*
X0Y150D02*
X7Y150D01*
X1212Y150D02*
X1219Y150D01*
X0Y149D02*
X7Y149D01*
X1212Y149D02*
X1219Y149D01*
X0Y148D02*
X7Y148D01*
X1212Y148D02*
X1219Y148D01*
X0Y147D02*
X7Y147D01*
X1212Y147D02*
X1219Y147D01*
X0Y146D02*
X7Y146D01*
X632Y146D02*
X636Y146D01*
X1212Y146D02*
X1219Y146D01*
X0Y145D02*
X7Y145D01*
X608Y145D02*
X638Y145D01*
X1212Y145D02*
X1219Y145D01*
X0Y144D02*
X7Y144D01*
X606Y144D02*
X638Y144D01*
X1212Y144D02*
X1219Y144D01*
X0Y143D02*
X7Y143D01*
X604Y143D02*
X639Y143D01*
X1212Y143D02*
X1219Y143D01*
X0Y142D02*
X7Y142D01*
X603Y142D02*
X638Y142D01*
X1212Y142D02*
X1219Y142D01*
X0Y141D02*
X7Y141D01*
X602Y141D02*
X638Y141D01*
X1212Y141D02*
X1219Y141D01*
X0Y140D02*
X7Y140D01*
X602Y140D02*
X637Y140D01*
X1212Y140D02*
X1219Y140D01*
X0Y139D02*
X7Y139D01*
X601Y139D02*
X630Y139D01*
X1212Y139D02*
X1219Y139D01*
X0Y138D02*
X7Y138D01*
X601Y138D02*
X609Y138D01*
X1212Y138D02*
X1219Y138D01*
X0Y137D02*
X7Y137D01*
X600Y137D02*
X607Y137D01*
X1212Y137D02*
X1219Y137D01*
X0Y136D02*
X7Y136D01*
X600Y136D02*
X606Y136D01*
X1212Y136D02*
X1219Y136D01*
X0Y135D02*
X7Y135D01*
X600Y135D02*
X606Y135D01*
X1212Y135D02*
X1219Y135D01*
X0Y134D02*
X7Y134D01*
X600Y134D02*
X606Y134D01*
X1212Y134D02*
X1219Y134D01*
X0Y133D02*
X7Y133D01*
X600Y133D02*
X606Y133D01*
X1212Y133D02*
X1219Y133D01*
X0Y132D02*
X7Y132D01*
X600Y132D02*
X606Y132D01*
X1212Y132D02*
X1219Y132D01*
X0Y131D02*
X7Y131D01*
X600Y131D02*
X606Y131D01*
X1212Y131D02*
X1219Y131D01*
X0Y130D02*
X7Y130D01*
X600Y130D02*
X606Y130D01*
X1212Y130D02*
X1219Y130D01*
X0Y129D02*
X7Y129D01*
X600Y129D02*
X607Y129D01*
X1212Y129D02*
X1219Y129D01*
X0Y128D02*
X7Y128D01*
X601Y128D02*
X607Y128D01*
X1212Y128D02*
X1219Y128D01*
X0Y127D02*
X7Y127D01*
X601Y127D02*
X608Y127D01*
X1212Y127D02*
X1219Y127D01*
X0Y126D02*
X7Y126D01*
X602Y126D02*
X609Y126D01*
X1212Y126D02*
X1219Y126D01*
X0Y125D02*
X7Y125D01*
X602Y125D02*
X609Y125D01*
X1212Y125D02*
X1219Y125D01*
X0Y124D02*
X7Y124D01*
X603Y124D02*
X610Y124D01*
X1212Y124D02*
X1219Y124D01*
X0Y123D02*
X7Y123D01*
X603Y123D02*
X611Y123D01*
X1212Y123D02*
X1219Y123D01*
X0Y122D02*
X7Y122D01*
X604Y122D02*
X611Y122D01*
X1212Y122D02*
X1219Y122D01*
X0Y121D02*
X7Y121D01*
X605Y121D02*
X612Y121D01*
X1212Y121D02*
X1219Y121D01*
X0Y120D02*
X7Y120D01*
X605Y120D02*
X613Y120D01*
X1212Y120D02*
X1219Y120D01*
X0Y119D02*
X7Y119D01*
X606Y119D02*
X613Y119D01*
X1212Y119D02*
X1219Y119D01*
X0Y118D02*
X7Y118D01*
X602Y118D02*
X637Y118D01*
X1212Y118D02*
X1219Y118D01*
X0Y117D02*
X7Y117D01*
X601Y117D02*
X638Y117D01*
X1212Y117D02*
X1219Y117D01*
X0Y116D02*
X7Y116D01*
X600Y116D02*
X638Y116D01*
X1212Y116D02*
X1219Y116D01*
X0Y115D02*
X7Y115D01*
X600Y115D02*
X639Y115D01*
X1212Y115D02*
X1219Y115D01*
X0Y114D02*
X7Y114D01*
X600Y114D02*
X638Y114D01*
X1212Y114D02*
X1219Y114D01*
X0Y113D02*
X7Y113D01*
X601Y113D02*
X638Y113D01*
X1212Y113D02*
X1219Y113D01*
X0Y112D02*
X7Y112D01*
X602Y112D02*
X637Y112D01*
X1212Y112D02*
X1219Y112D01*
X0Y111D02*
X7Y111D01*
X1212Y111D02*
X1219Y111D01*
X0Y110D02*
X7Y110D01*
X670Y110D02*
X672Y110D01*
X1212Y110D02*
X1219Y110D01*
X0Y109D02*
X7Y109D01*
X669Y109D02*
X673Y109D01*
X1212Y109D02*
X1219Y109D01*
X0Y108D02*
X7Y108D01*
X668Y108D02*
X674Y108D01*
X1212Y108D02*
X1219Y108D01*
X0Y107D02*
X7Y107D01*
X669Y107D02*
X675Y107D01*
X1212Y107D02*
X1219Y107D01*
X0Y106D02*
X7Y106D01*
X670Y106D02*
X676Y106D01*
X1212Y106D02*
X1219Y106D01*
X0Y105D02*
X7Y105D01*
X671Y105D02*
X677Y105D01*
X1212Y105D02*
X1219Y105D01*
X0Y104D02*
X7Y104D01*
X672Y104D02*
X678Y104D01*
X1212Y104D02*
X1219Y104D01*
X0Y103D02*
X7Y103D01*
X673Y103D02*
X679Y103D01*
X1212Y103D02*
X1219Y103D01*
X0Y102D02*
X7Y102D01*
X674Y102D02*
X680Y102D01*
X1212Y102D02*
X1219Y102D01*
X0Y101D02*
X7Y101D01*
X675Y101D02*
X681Y101D01*
X1212Y101D02*
X1219Y101D01*
X0Y100D02*
X7Y100D01*
X676Y100D02*
X682Y100D01*
X1212Y100D02*
X1219Y100D01*
X0Y99D02*
X7Y99D01*
X677Y99D02*
X683Y99D01*
X1212Y99D02*
X1219Y99D01*
X0Y98D02*
X7Y98D01*
X678Y98D02*
X684Y98D01*
X1212Y98D02*
X1219Y98D01*
X0Y97D02*
X7Y97D01*
X679Y97D02*
X684Y97D01*
X1212Y97D02*
X1219Y97D01*
X0Y96D02*
X7Y96D01*
X680Y96D02*
X685Y96D01*
X1212Y96D02*
X1219Y96D01*
X0Y95D02*
X7Y95D01*
X681Y95D02*
X686Y95D01*
X1212Y95D02*
X1219Y95D01*
X0Y94D02*
X7Y94D01*
X682Y94D02*
X687Y94D01*
X1212Y94D02*
X1219Y94D01*
X0Y93D02*
X7Y93D01*
X683Y93D02*
X688Y93D01*
X1212Y93D02*
X1219Y93D01*
X0Y92D02*
X7Y92D01*
X634Y92D02*
X637Y92D01*
X684Y92D02*
X689Y92D01*
X1212Y92D02*
X1219Y92D01*
X0Y91D02*
X7Y91D01*
X633Y91D02*
X638Y91D01*
X685Y91D02*
X690Y91D01*
X1212Y91D02*
X1219Y91D01*
X0Y90D02*
X7Y90D01*
X633Y90D02*
X638Y90D01*
X686Y90D02*
X692Y90D01*
X1212Y90D02*
X1219Y90D01*
X0Y89D02*
X7Y89D01*
X633Y89D02*
X639Y89D01*
X687Y89D02*
X693Y89D01*
X1212Y89D02*
X1219Y89D01*
X0Y88D02*
X7Y88D01*
X633Y88D02*
X639Y88D01*
X688Y88D02*
X694Y88D01*
X1212Y88D02*
X1219Y88D01*
X0Y87D02*
X7Y87D01*
X633Y87D02*
X639Y87D01*
X689Y87D02*
X695Y87D01*
X1212Y87D02*
X1219Y87D01*
X0Y86D02*
X7Y86D01*
X633Y86D02*
X639Y86D01*
X690Y86D02*
X696Y86D01*
X1212Y86D02*
X1219Y86D01*
X0Y85D02*
X7Y85D01*
X633Y85D02*
X639Y85D01*
X691Y85D02*
X697Y85D01*
X1212Y85D02*
X1219Y85D01*
X0Y84D02*
X7Y84D01*
X633Y84D02*
X639Y84D01*
X692Y84D02*
X698Y84D01*
X1212Y84D02*
X1219Y84D01*
X0Y83D02*
X7Y83D01*
X633Y83D02*
X639Y83D01*
X693Y83D02*
X699Y83D01*
X1212Y83D02*
X1219Y83D01*
X0Y82D02*
X7Y82D01*
X585Y82D02*
X589Y82D01*
X603Y82D02*
X639Y82D01*
X694Y82D02*
X700Y82D01*
X1212Y82D02*
X1219Y82D01*
X0Y81D02*
X7Y81D01*
X583Y81D02*
X591Y81D01*
X601Y81D02*
X639Y81D01*
X695Y81D02*
X701Y81D01*
X1212Y81D02*
X1219Y81D01*
X0Y80D02*
X7Y80D01*
X583Y80D02*
X591Y80D01*
X601Y80D02*
X639Y80D01*
X696Y80D02*
X702Y80D01*
X1212Y80D02*
X1219Y80D01*
X0Y79D02*
X7Y79D01*
X583Y79D02*
X591Y79D01*
X600Y79D02*
X639Y79D01*
X697Y79D02*
X703Y79D01*
X1212Y79D02*
X1219Y79D01*
X0Y78D02*
X7Y78D01*
X583Y78D02*
X591Y78D01*
X600Y78D02*
X639Y78D01*
X698Y78D02*
X704Y78D01*
X1212Y78D02*
X1219Y78D01*
X0Y77D02*
X7Y77D01*
X583Y77D02*
X591Y77D01*
X600Y77D02*
X639Y77D01*
X699Y77D02*
X705Y77D01*
X1212Y77D02*
X1219Y77D01*
X0Y76D02*
X7Y76D01*
X583Y76D02*
X591Y76D01*
X600Y76D02*
X639Y76D01*
X700Y76D02*
X705Y76D01*
X1212Y76D02*
X1219Y76D01*
X0Y75D02*
X7Y75D01*
X583Y75D02*
X591Y75D01*
X600Y75D02*
X606Y75D01*
X632Y75D02*
X639Y75D01*
X701Y75D02*
X704Y75D01*
X1212Y75D02*
X1219Y75D01*
X0Y74D02*
X7Y74D01*
X583Y74D02*
X591Y74D01*
X600Y74D02*
X606Y74D01*
X633Y74D02*
X639Y74D01*
X702Y74D02*
X703Y74D01*
X1212Y74D02*
X1219Y74D01*
X0Y73D02*
X7Y73D01*
X583Y73D02*
X591Y73D01*
X600Y73D02*
X606Y73D01*
X633Y73D02*
X639Y73D01*
X1212Y73D02*
X1219Y73D01*
X0Y72D02*
X7Y72D01*
X585Y72D02*
X589Y72D01*
X600Y72D02*
X606Y72D01*
X633Y72D02*
X639Y72D01*
X1212Y72D02*
X1219Y72D01*
X0Y71D02*
X7Y71D01*
X600Y71D02*
X606Y71D01*
X633Y71D02*
X639Y71D01*
X1212Y71D02*
X1219Y71D01*
X0Y70D02*
X7Y70D01*
X600Y70D02*
X606Y70D01*
X633Y70D02*
X639Y70D01*
X1212Y70D02*
X1219Y70D01*
X0Y69D02*
X7Y69D01*
X600Y69D02*
X606Y69D01*
X633Y69D02*
X639Y69D01*
X1212Y69D02*
X1219Y69D01*
X0Y68D02*
X7Y68D01*
X600Y68D02*
X606Y68D01*
X633Y68D02*
X639Y68D01*
X1212Y68D02*
X1219Y68D01*
X0Y67D02*
X7Y67D01*
X601Y67D02*
X606Y67D01*
X633Y67D02*
X638Y67D01*
X1212Y67D02*
X1219Y67D01*
X0Y66D02*
X7Y66D01*
X601Y66D02*
X605Y66D01*
X634Y66D02*
X638Y66D01*
X1212Y66D02*
X1219Y66D01*
X0Y65D02*
X7Y65D01*
X603Y65D02*
X604Y65D01*
X635Y65D02*
X636Y65D01*
X1212Y65D02*
X1219Y65D01*
X0Y64D02*
X7Y64D01*
X1212Y64D02*
X1219Y64D01*
X0Y63D02*
X7Y63D01*
X1212Y63D02*
X1219Y63D01*
X0Y62D02*
X7Y62D01*
X1212Y62D02*
X1219Y62D01*
X0Y61D02*
X7Y61D01*
X1212Y61D02*
X1219Y61D01*
X0Y60D02*
X7Y60D01*
X1212Y60D02*
X1219Y60D01*
X0Y59D02*
X7Y59D01*
X1212Y59D02*
X1219Y59D01*
X0Y58D02*
X7Y58D01*
X1212Y58D02*
X1219Y58D01*
X0Y57D02*
X7Y57D01*
X1212Y57D02*
X1219Y57D01*
X0Y56D02*
X7Y56D01*
X1212Y56D02*
X1219Y56D01*
X0Y55D02*
X7Y55D01*
X1212Y55D02*
X1219Y55D01*
X0Y54D02*
X7Y54D01*
X1212Y54D02*
X1219Y54D01*
X0Y53D02*
X7Y53D01*
X1212Y53D02*
X1219Y53D01*
X0Y52D02*
X7Y52D01*
X1212Y52D02*
X1219Y52D01*
X0Y51D02*
X7Y51D01*
X1212Y51D02*
X1219Y51D01*
X0Y50D02*
X7Y50D01*
X1212Y50D02*
X1219Y50D01*
X0Y49D02*
X7Y49D01*
X1212Y49D02*
X1219Y49D01*
X0Y48D02*
X7Y48D01*
X1212Y48D02*
X1219Y48D01*
X0Y47D02*
X7Y47D01*
X1212Y47D02*
X1219Y47D01*
X0Y46D02*
X7Y46D01*
X1212Y46D02*
X1219Y46D01*
X0Y45D02*
X7Y45D01*
X587Y45D02*
X603Y45D01*
X1212Y45D02*
X1219Y45D01*
X0Y44D02*
X7Y44D01*
X586Y44D02*
X605Y44D01*
X1212Y44D02*
X1219Y44D01*
X0Y43D02*
X7Y43D01*
X586Y43D02*
X608Y43D01*
X1212Y43D02*
X1219Y43D01*
X0Y42D02*
X7Y42D01*
X586Y42D02*
X610Y42D01*
X1212Y42D02*
X1219Y42D01*
X0Y41D02*
X7Y41D01*
X586Y41D02*
X613Y41D01*
X1212Y41D02*
X1219Y41D01*
X0Y40D02*
X7Y40D01*
X586Y40D02*
X615Y40D01*
X1212Y40D02*
X1219Y40D01*
X0Y39D02*
X7Y39D01*
X588Y39D02*
X618Y39D01*
X1212Y39D02*
X1219Y39D01*
X0Y38D02*
X7Y38D01*
X602Y38D02*
X621Y38D01*
X1212Y38D02*
X1219Y38D01*
X0Y37D02*
X7Y37D01*
X605Y37D02*
X623Y37D01*
X1212Y37D02*
X1219Y37D01*
X0Y36D02*
X7Y36D01*
X607Y36D02*
X626Y36D01*
X1212Y36D02*
X1219Y36D01*
X0Y35D02*
X7Y35D01*
X610Y35D02*
X628Y35D01*
X1212Y35D02*
X1219Y35D01*
X0Y34D02*
X7Y34D01*
X612Y34D02*
X631Y34D01*
X1212Y34D02*
X1219Y34D01*
X0Y33D02*
X7Y33D01*
X615Y33D02*
X633Y33D01*
X1212Y33D02*
X1219Y33D01*
X0Y32D02*
X7Y32D01*
X617Y32D02*
X636Y32D01*
X1212Y32D02*
X1219Y32D01*
X0Y31D02*
X7Y31D01*
X620Y31D02*
X638Y31D01*
X1212Y31D02*
X1219Y31D01*
X0Y30D02*
X7Y30D01*
X623Y30D02*
X638Y30D01*
X1212Y30D02*
X1219Y30D01*
X0Y29D02*
X7Y29D01*
X625Y29D02*
X639Y29D01*
X1212Y29D02*
X1219Y29D01*
X0Y28D02*
X7Y28D01*
X625Y28D02*
X639Y28D01*
X1212Y28D02*
X1219Y28D01*
X0Y27D02*
X7Y27D01*
X622Y27D02*
X638Y27D01*
X1212Y27D02*
X1219Y27D01*
X0Y26D02*
X7Y26D01*
X620Y26D02*
X638Y26D01*
X1212Y26D02*
X1219Y26D01*
X0Y25D02*
X7Y25D01*
X617Y25D02*
X636Y25D01*
X1212Y25D02*
X1219Y25D01*
X0Y24D02*
X7Y24D01*
X615Y24D02*
X633Y24D01*
X1212Y24D02*
X1219Y24D01*
X0Y23D02*
X7Y23D01*
X612Y23D02*
X631Y23D01*
X1212Y23D02*
X1219Y23D01*
X0Y22D02*
X7Y22D01*
X610Y22D02*
X628Y22D01*
X1212Y22D02*
X1219Y22D01*
X0Y21D02*
X7Y21D01*
X607Y21D02*
X626Y21D01*
X1212Y21D02*
X1219Y21D01*
X0Y20D02*
X7Y20D01*
X605Y20D02*
X623Y20D01*
X1212Y20D02*
X1219Y20D01*
X0Y19D02*
X7Y19D01*
X602Y19D02*
X620Y19D01*
X1212Y19D02*
X1219Y19D01*
X0Y18D02*
X7Y18D01*
X588Y18D02*
X618Y18D01*
X1212Y18D02*
X1219Y18D01*
X0Y17D02*
X7Y17D01*
X586Y17D02*
X615Y17D01*
X1212Y17D02*
X1219Y17D01*
X0Y16D02*
X7Y16D01*
X586Y16D02*
X613Y16D01*
X1212Y16D02*
X1219Y16D01*
X0Y15D02*
X7Y15D01*
X586Y15D02*
X610Y15D01*
X1212Y15D02*
X1219Y15D01*
X0Y14D02*
X7Y14D01*
X586Y14D02*
X608Y14D01*
X1212Y14D02*
X1219Y14D01*
X0Y13D02*
X7Y13D01*
X586Y13D02*
X605Y13D01*
X1212Y13D02*
X1219Y13D01*
X0Y12D02*
X7Y12D01*
X587Y12D02*
X602Y12D01*
X1212Y12D02*
X1219Y12D01*
X0Y11D02*
X7Y11D01*
X1212Y11D02*
X1219Y11D01*
X0Y10D02*
X7Y10D01*
X1212Y10D02*
X1219Y10D01*
X0Y9D02*
X1219Y9D01*
X0Y8D02*
X1219Y8D01*
X0Y7D02*
X1219Y7D01*
X0Y6D02*
X1219Y6D01*
X0Y5D02*
X1219Y5D01*
X0Y4D02*
X1219Y4D01*
X0Y3D02*
X1219Y3D01*
X0Y2D02*
X1219Y2D01*
D02*
G04 End of Silk1*
M02*