G04 MADE WITH FRITZING*
G04 WWW.FRITZING.ORG*
G04 DOUBLE SIDED*
G04 HOLES PLATED*
G04 CONTOUR ON CENTER OF CONTOUR VECTOR*
%ASAXBY*%
%FSLAX23Y23*%
%MOIN*%
%OFA0B0*%
%SFA1.0B1.0*%
%ADD10R,0.001000X0.001000*%
%LNSILK0*%
G90*
G70*
G36*
X794Y695D02*
X794Y694D01*
X793Y694D01*
X793Y695D01*
X794Y695D01*
G37*
D02*
G36*
X638Y532D02*
X638Y531D01*
X637Y531D01*
X637Y532D01*
X638Y532D01*
G37*
D02*
G36*
X640Y523D02*
X640Y522D01*
X639Y522D01*
X639Y523D01*
X640Y523D01*
G37*
D02*
G36*
X780Y503D02*
X780Y502D01*
X779Y502D01*
X779Y503D01*
X780Y503D01*
G37*
D02*
G36*
X789Y493D02*
X789Y493D01*
X788Y493D01*
X788Y493D01*
X789Y493D01*
G37*
D02*
G36*
X796Y493D02*
X796Y492D01*
X795Y492D01*
X795Y493D01*
X796Y493D01*
G37*
D02*
G36*
X789Y493D02*
X789Y492D01*
X789Y492D01*
X789Y493D01*
X789Y493D01*
G37*
D02*
G36*
X795Y492D02*
X795Y491D01*
X794Y491D01*
X794Y492D01*
X795Y492D01*
G37*
D02*
G36*
X791Y492D02*
X791Y491D01*
X790Y491D01*
X790Y492D01*
X791Y492D01*
G37*
D02*
G36*
X811Y488D02*
X811Y488D01*
X810Y488D01*
X810Y487D01*
X810Y487D01*
X810Y480D01*
X810Y480D01*
X810Y477D01*
X811Y477D01*
X811Y475D01*
X812Y475D01*
X812Y472D01*
X813Y472D01*
X813Y471D01*
X813Y471D01*
X813Y470D01*
X814Y470D01*
X814Y469D01*
X815Y469D01*
X815Y468D01*
X813Y468D01*
X813Y469D01*
X812Y469D01*
X812Y471D01*
X811Y471D01*
X811Y472D01*
X810Y472D01*
X810Y474D01*
X810Y474D01*
X810Y475D01*
X809Y475D01*
X809Y477D01*
X808Y477D01*
X808Y480D01*
X807Y480D01*
X807Y488D01*
X808Y488D01*
X808Y488D01*
X811Y488D01*
G37*
D02*
G36*
X837Y470D02*
X837Y468D01*
X838Y468D01*
X838Y466D01*
X836Y466D01*
X836Y467D01*
X835Y467D01*
X835Y467D01*
X836Y467D01*
X836Y468D01*
X836Y468D01*
X836Y470D01*
X837Y470D01*
G37*
D02*
G36*
X737Y639D02*
X737Y638D01*
X736Y638D01*
X736Y636D01*
X735Y636D01*
X735Y634D01*
X734Y634D01*
X734Y631D01*
X734Y631D01*
X734Y628D01*
X719Y628D01*
X719Y629D01*
X717Y629D01*
X717Y630D01*
X713Y630D01*
X713Y631D01*
X712Y631D01*
X712Y631D01*
X710Y631D01*
X710Y632D01*
X713Y632D01*
X713Y633D01*
X716Y633D01*
X716Y634D01*
X719Y634D01*
X719Y634D01*
X724Y634D01*
X724Y635D01*
X727Y635D01*
X727Y636D01*
X729Y636D01*
X729Y636D01*
X732Y636D01*
X732Y637D01*
X733Y637D01*
X733Y638D01*
X735Y638D01*
X735Y639D01*
X737Y639D01*
G37*
D02*
G36*
X692Y629D02*
X692Y629D01*
X718Y629D01*
X718Y628D01*
X670Y628D01*
X670Y629D01*
X675Y629D01*
X675Y629D01*
X692Y629D01*
G37*
D02*
G36*
X734Y628D02*
X734Y627D01*
X657Y627D01*
X657Y628D01*
X734Y628D01*
G37*
D02*
G36*
X734Y628D02*
X734Y627D01*
X657Y627D01*
X657Y628D01*
X734Y628D01*
G37*
D02*
G36*
X734Y627D02*
X734Y626D01*
X733Y626D01*
X733Y621D01*
X732Y621D01*
X732Y618D01*
X732Y618D01*
X732Y614D01*
X731Y614D01*
X731Y608D01*
X730Y608D01*
X730Y601D01*
X729Y601D01*
X729Y589D01*
X730Y589D01*
X730Y587D01*
X640Y587D01*
X640Y590D01*
X641Y590D01*
X641Y596D01*
X642Y596D01*
X642Y600D01*
X643Y600D01*
X643Y605D01*
X643Y605D01*
X643Y609D01*
X644Y609D01*
X644Y614D01*
X645Y614D01*
X645Y622D01*
X646Y622D01*
X646Y623D01*
X648Y623D01*
X648Y623D01*
X649Y623D01*
X649Y624D01*
X650Y624D01*
X650Y625D01*
X651Y625D01*
X651Y626D01*
X653Y626D01*
X653Y626D01*
X655Y626D01*
X655Y627D01*
X734Y627D01*
G37*
D02*
G36*
X733Y588D02*
X733Y587D01*
X732Y587D01*
X732Y588D01*
X733Y588D01*
G37*
D02*
G36*
X733Y587D02*
X733Y587D01*
X640Y587D01*
X640Y587D01*
X733Y587D01*
G37*
D02*
G36*
X733Y587D02*
X733Y587D01*
X640Y587D01*
X640Y587D01*
X733Y587D01*
G37*
D02*
G36*
X734Y587D02*
X734Y582D01*
X734Y582D01*
X734Y578D01*
X735Y578D01*
X735Y574D01*
X736Y574D01*
X736Y571D01*
X737Y571D01*
X737Y555D01*
X659Y555D01*
X659Y554D01*
X656Y554D01*
X656Y553D01*
X654Y553D01*
X654Y553D01*
X652Y553D01*
X652Y552D01*
X651Y552D01*
X651Y551D01*
X650Y551D01*
X650Y550D01*
X643Y550D01*
X643Y550D01*
X642Y550D01*
X642Y549D01*
X640Y549D01*
X640Y548D01*
X640Y548D01*
X640Y547D01*
X639Y547D01*
X639Y548D01*
X638Y548D01*
X638Y550D01*
X638Y550D01*
X638Y552D01*
X637Y552D01*
X637Y562D01*
X638Y562D01*
X638Y569D01*
X638Y569D01*
X638Y573D01*
X639Y573D01*
X639Y582D01*
X640Y582D01*
X640Y587D01*
X734Y587D01*
G37*
D02*
G36*
X740Y557D02*
X740Y556D01*
X741Y556D01*
X741Y555D01*
X739Y555D01*
X739Y556D01*
X740Y556D01*
X740Y557D01*
X740Y557D01*
G37*
D02*
G36*
X741Y555D02*
X741Y554D01*
X665Y554D01*
X665Y555D01*
X741Y555D01*
G37*
D02*
G36*
X741Y555D02*
X741Y554D01*
X665Y554D01*
X665Y555D01*
X741Y555D01*
G37*
D02*
G36*
X742Y554D02*
X742Y553D01*
X742Y553D01*
X742Y551D01*
X743Y551D01*
X743Y549D01*
X744Y549D01*
X744Y546D01*
X745Y546D01*
X745Y544D01*
X691Y544D01*
X691Y545D01*
X688Y545D01*
X688Y546D01*
X687Y546D01*
X687Y547D01*
X685Y547D01*
X685Y548D01*
X684Y548D01*
X684Y548D01*
X682Y548D01*
X682Y549D01*
X680Y549D01*
X680Y550D01*
X678Y550D01*
X678Y550D01*
X675Y550D01*
X675Y551D01*
X674Y551D01*
X674Y552D01*
X672Y552D01*
X672Y553D01*
X670Y553D01*
X670Y553D01*
X669Y553D01*
X669Y554D01*
X742Y554D01*
G37*
D02*
G36*
X647Y550D02*
X647Y550D01*
X646Y550D01*
X646Y550D01*
X647Y550D01*
G37*
D02*
G36*
X672Y546D02*
X672Y545D01*
X678Y545D01*
X678Y545D01*
X686Y545D01*
X686Y544D01*
X660Y544D01*
X660Y545D01*
X661Y545D01*
X661Y545D01*
X664Y545D01*
X664Y546D01*
X672Y546D01*
G37*
D02*
G36*
X745Y544D02*
X745Y543D01*
X659Y543D01*
X659Y544D01*
X745Y544D01*
G37*
D02*
G36*
X745Y544D02*
X745Y543D01*
X659Y543D01*
X659Y544D01*
X745Y544D01*
G37*
D02*
G36*
X745Y543D02*
X745Y542D01*
X746Y542D01*
X746Y539D01*
X747Y539D01*
X747Y537D01*
X747Y537D01*
X747Y535D01*
X748Y535D01*
X748Y530D01*
X749Y530D01*
X749Y521D01*
X750Y521D01*
X750Y516D01*
X668Y516D01*
X668Y518D01*
X669Y518D01*
X669Y520D01*
X669Y520D01*
X669Y521D01*
X670Y521D01*
X670Y523D01*
X667Y523D01*
X667Y524D01*
X665Y524D01*
X665Y525D01*
X664Y525D01*
X664Y527D01*
X665Y527D01*
X665Y528D01*
X666Y528D01*
X666Y529D01*
X667Y529D01*
X667Y529D01*
X669Y529D01*
X669Y530D01*
X669Y530D01*
X669Y531D01*
X670Y531D01*
X670Y532D01*
X671Y532D01*
X671Y532D01*
X672Y532D01*
X672Y533D01*
X673Y533D01*
X673Y534D01*
X674Y534D01*
X674Y535D01*
X674Y535D01*
X674Y535D01*
X675Y535D01*
X675Y537D01*
X672Y537D01*
X672Y537D01*
X664Y537D01*
X664Y538D01*
X660Y538D01*
X660Y539D01*
X657Y539D01*
X657Y540D01*
X654Y540D01*
X654Y540D01*
X655Y540D01*
X655Y541D01*
X656Y541D01*
X656Y542D01*
X657Y542D01*
X657Y542D01*
X659Y542D01*
X659Y543D01*
X745Y543D01*
G37*
D02*
G36*
X650Y538D02*
X650Y537D01*
X651Y537D01*
X651Y537D01*
X645Y537D01*
X645Y537D01*
X648Y537D01*
X648Y538D01*
X650Y538D01*
G37*
D02*
G36*
X644Y537D02*
X644Y537D01*
X643Y537D01*
X643Y537D01*
X644Y537D01*
G37*
D02*
G36*
X654Y537D02*
X654Y536D01*
X643Y536D01*
X643Y537D01*
X654Y537D01*
G37*
D02*
G36*
X654Y537D02*
X654Y536D01*
X643Y536D01*
X643Y537D01*
X654Y537D01*
G37*
D02*
G36*
X659Y536D02*
X659Y531D01*
X660Y531D01*
X660Y528D01*
X661Y528D01*
X661Y527D01*
X656Y527D01*
X656Y527D01*
X654Y527D01*
X654Y526D01*
X651Y526D01*
X651Y525D01*
X650Y525D01*
X650Y524D01*
X645Y524D01*
X645Y524D01*
X643Y524D01*
X643Y523D01*
X640Y523D01*
X640Y524D01*
X640Y524D01*
X640Y527D01*
X641Y527D01*
X641Y529D01*
X642Y529D01*
X642Y532D01*
X643Y532D01*
X643Y536D01*
X659Y536D01*
G37*
D02*
G36*
X660Y527D02*
X660Y526D01*
X659Y526D01*
X659Y525D01*
X659Y525D01*
X659Y524D01*
X657Y524D01*
X657Y524D01*
X656Y524D01*
X656Y523D01*
X656Y523D01*
X656Y522D01*
X655Y522D01*
X655Y522D01*
X654Y522D01*
X654Y519D01*
X640Y519D01*
X640Y520D01*
X643Y520D01*
X643Y521D01*
X644Y521D01*
X644Y522D01*
X646Y522D01*
X646Y522D01*
X648Y522D01*
X648Y523D01*
X650Y523D01*
X650Y524D01*
X652Y524D01*
X652Y524D01*
X656Y524D01*
X656Y525D01*
X657Y525D01*
X657Y526D01*
X658Y526D01*
X658Y527D01*
X660Y527D01*
G37*
D02*
G36*
X662Y523D02*
X662Y522D01*
X663Y522D01*
X663Y521D01*
X664Y521D01*
X664Y520D01*
X665Y520D01*
X665Y519D01*
X656Y519D01*
X656Y520D01*
X657Y520D01*
X657Y521D01*
X659Y521D01*
X659Y522D01*
X660Y522D01*
X660Y522D01*
X661Y522D01*
X661Y523D01*
X662Y523D01*
G37*
D02*
G36*
X754Y522D02*
X754Y516D01*
X751Y516D01*
X751Y518D01*
X752Y518D01*
X752Y519D01*
X753Y519D01*
X753Y520D01*
X753Y520D01*
X753Y522D01*
X754Y522D01*
G37*
D02*
G36*
X665Y519D02*
X665Y519D01*
X639Y519D01*
X639Y519D01*
X665Y519D01*
G37*
D02*
G36*
X665Y519D02*
X665Y519D01*
X639Y519D01*
X639Y519D01*
X665Y519D01*
G37*
D02*
G36*
X665Y519D02*
X665Y516D01*
X666Y516D01*
X666Y508D01*
X635Y508D01*
X635Y510D01*
X636Y510D01*
X636Y511D01*
X637Y511D01*
X637Y514D01*
X638Y514D01*
X638Y516D01*
X638Y516D01*
X638Y518D01*
X639Y518D01*
X639Y519D01*
X665Y519D01*
G37*
D02*
G36*
X754Y516D02*
X754Y516D01*
X668Y516D01*
X668Y516D01*
X754Y516D01*
G37*
D02*
G36*
X754Y516D02*
X754Y516D01*
X668Y516D01*
X668Y516D01*
X754Y516D01*
G37*
D02*
G36*
X754Y516D02*
X754Y508D01*
X667Y508D01*
X667Y511D01*
X668Y511D01*
X668Y516D01*
X754Y516D01*
G37*
D02*
G36*
X754Y508D02*
X754Y507D01*
X635Y507D01*
X635Y508D01*
X754Y508D01*
G37*
D02*
G36*
X754Y508D02*
X754Y507D01*
X635Y507D01*
X635Y508D01*
X754Y508D01*
G37*
D02*
G36*
X754Y507D02*
X754Y496D01*
X753Y496D01*
X753Y493D01*
X753Y493D01*
X753Y493D01*
X752Y493D01*
X752Y492D01*
X751Y492D01*
X751Y491D01*
X750Y491D01*
X750Y490D01*
X750Y490D01*
X750Y489D01*
X749Y489D01*
X749Y488D01*
X747Y488D01*
X747Y487D01*
X747Y487D01*
X747Y486D01*
X746Y486D01*
X746Y485D01*
X745Y485D01*
X745Y484D01*
X745Y484D01*
X745Y483D01*
X744Y483D01*
X744Y482D01*
X743Y482D01*
X743Y481D01*
X742Y481D01*
X742Y480D01*
X742Y480D01*
X742Y480D01*
X741Y480D01*
X741Y478D01*
X740Y478D01*
X740Y477D01*
X740Y477D01*
X740Y477D01*
X739Y477D01*
X739Y476D01*
X738Y476D01*
X738Y475D01*
X737Y475D01*
X737Y474D01*
X737Y474D01*
X737Y473D01*
X736Y473D01*
X736Y472D01*
X735Y472D01*
X735Y472D01*
X734Y472D01*
X734Y471D01*
X734Y471D01*
X734Y470D01*
X648Y470D01*
X648Y469D01*
X635Y469D01*
X635Y469D01*
X633Y469D01*
X633Y468D01*
X633Y468D01*
X633Y467D01*
X631Y467D01*
X631Y467D01*
X630Y467D01*
X630Y466D01*
X630Y466D01*
X630Y462D01*
X630Y462D01*
X630Y462D01*
X626Y462D01*
X626Y461D01*
X622Y461D01*
X622Y462D01*
X619Y462D01*
X619Y462D01*
X618Y462D01*
X618Y464D01*
X617Y464D01*
X617Y465D01*
X617Y465D01*
X617Y469D01*
X617Y469D01*
X617Y471D01*
X618Y471D01*
X618Y472D01*
X619Y472D01*
X619Y474D01*
X620Y474D01*
X620Y475D01*
X620Y475D01*
X620Y476D01*
X621Y476D01*
X621Y477D01*
X622Y477D01*
X622Y479D01*
X623Y479D01*
X623Y480D01*
X624Y480D01*
X624Y483D01*
X625Y483D01*
X625Y483D01*
X625Y483D01*
X625Y485D01*
X626Y485D01*
X626Y486D01*
X627Y486D01*
X627Y488D01*
X627Y488D01*
X627Y489D01*
X628Y489D01*
X628Y490D01*
X629Y490D01*
X629Y493D01*
X630Y493D01*
X630Y495D01*
X630Y495D01*
X630Y496D01*
X631Y496D01*
X631Y498D01*
X632Y498D01*
X632Y499D01*
X633Y499D01*
X633Y501D01*
X633Y501D01*
X633Y503D01*
X634Y503D01*
X634Y506D01*
X635Y506D01*
X635Y507D01*
X754Y507D01*
G37*
D02*
G36*
X734Y470D02*
X734Y469D01*
X733Y469D01*
X733Y468D01*
X650Y468D01*
X650Y469D01*
X649Y469D01*
X649Y470D01*
X734Y470D01*
G37*
D02*
G36*
X648Y469D02*
X648Y467D01*
X648Y467D01*
X648Y466D01*
X645Y466D01*
X645Y467D01*
X643Y467D01*
X643Y468D01*
X641Y468D01*
X641Y469D01*
X638Y469D01*
X638Y469D01*
X648Y469D01*
G37*
D02*
G36*
X737Y469D02*
X737Y468D01*
X736Y468D01*
X736Y469D01*
X737Y469D01*
G37*
D02*
G36*
X737Y468D02*
X737Y467D01*
X650Y467D01*
X650Y468D01*
X737Y468D01*
G37*
D02*
G36*
X737Y468D02*
X737Y467D01*
X650Y467D01*
X650Y468D01*
X737Y468D01*
G37*
D02*
G36*
X735Y467D02*
X735Y467D01*
X734Y467D01*
X734Y466D01*
X734Y466D01*
X734Y465D01*
X733Y465D01*
X733Y464D01*
X732Y464D01*
X732Y463D01*
X731Y463D01*
X731Y462D01*
X729Y462D01*
X729Y461D01*
X729Y461D01*
X729Y460D01*
X728Y460D01*
X728Y459D01*
X698Y459D01*
X698Y458D01*
X698Y458D01*
X698Y457D01*
X647Y457D01*
X647Y458D01*
X648Y458D01*
X648Y459D01*
X649Y459D01*
X649Y459D01*
X650Y459D01*
X650Y461D01*
X651Y461D01*
X651Y462D01*
X651Y462D01*
X651Y467D01*
X651Y467D01*
X651Y467D01*
X735Y467D01*
G37*
D02*
G36*
X643Y467D02*
X643Y466D01*
X638Y466D01*
X638Y467D01*
X643Y467D01*
G37*
D02*
G36*
X649Y466D02*
X649Y465D01*
X636Y465D01*
X636Y466D01*
X649Y466D01*
G37*
D02*
G36*
X649Y466D02*
X649Y465D01*
X636Y465D01*
X636Y466D01*
X649Y466D01*
G37*
D02*
G36*
X649Y465D02*
X649Y464D01*
X648Y464D01*
X648Y462D01*
X648Y462D01*
X648Y462D01*
X631Y462D01*
X631Y462D01*
X633Y462D01*
X633Y463D01*
X634Y463D01*
X634Y464D01*
X635Y464D01*
X635Y465D01*
X649Y465D01*
G37*
D02*
G36*
X727Y459D02*
X727Y459D01*
X727Y459D01*
X727Y458D01*
X726Y458D01*
X726Y457D01*
X699Y457D01*
X699Y459D01*
X727Y459D01*
G37*
D02*
G36*
X725Y457D02*
X725Y456D01*
X648Y456D01*
X648Y457D01*
X725Y457D01*
G37*
D02*
G36*
X725Y457D02*
X725Y456D01*
X648Y456D01*
X648Y457D01*
X725Y457D01*
G37*
D02*
G36*
X724Y456D02*
X724Y456D01*
X723Y456D01*
X723Y455D01*
X722Y455D01*
X722Y454D01*
X721Y454D01*
X721Y454D01*
X721Y454D01*
X721Y453D01*
X720Y453D01*
X720Y452D01*
X701Y452D01*
X701Y449D01*
X700Y449D01*
X700Y446D01*
X700Y446D01*
X700Y446D01*
X699Y446D01*
X699Y444D01*
X698Y444D01*
X698Y443D01*
X698Y443D01*
X698Y443D01*
X697Y443D01*
X697Y441D01*
X696Y441D01*
X696Y441D01*
X695Y441D01*
X695Y440D01*
X694Y440D01*
X694Y439D01*
X693Y439D01*
X693Y438D01*
X692Y438D01*
X692Y438D01*
X691Y438D01*
X691Y437D01*
X690Y437D01*
X690Y436D01*
X688Y436D01*
X688Y436D01*
X674Y436D01*
X674Y436D01*
X673Y436D01*
X673Y437D01*
X672Y437D01*
X672Y438D01*
X670Y438D01*
X670Y438D01*
X669Y438D01*
X669Y439D01*
X668Y439D01*
X668Y440D01*
X667Y440D01*
X667Y441D01*
X665Y441D01*
X665Y441D01*
X664Y441D01*
X664Y442D01*
X664Y442D01*
X664Y443D01*
X663Y443D01*
X663Y443D01*
X662Y443D01*
X662Y444D01*
X661Y444D01*
X661Y445D01*
X665Y445D01*
X665Y446D01*
X664Y446D01*
X664Y447D01*
X663Y447D01*
X663Y448D01*
X662Y448D01*
X662Y449D01*
X661Y449D01*
X661Y449D01*
X660Y449D01*
X660Y451D01*
X659Y451D01*
X659Y451D01*
X657Y451D01*
X657Y452D01*
X656Y452D01*
X656Y453D01*
X655Y453D01*
X655Y454D01*
X654Y454D01*
X654Y454D01*
X654Y454D01*
X654Y455D01*
X652Y455D01*
X652Y456D01*
X651Y456D01*
X651Y456D01*
X724Y456D01*
G37*
D02*
G36*
X719Y452D02*
X719Y451D01*
X718Y451D01*
X718Y451D01*
X716Y451D01*
X716Y450D01*
X716Y450D01*
X716Y449D01*
X715Y449D01*
X715Y449D01*
X714Y449D01*
X714Y448D01*
X713Y448D01*
X713Y446D01*
X711Y446D01*
X711Y446D01*
X709Y446D01*
X709Y445D01*
X708Y445D01*
X708Y443D01*
X711Y443D01*
X711Y443D01*
X712Y443D01*
X712Y442D01*
X711Y442D01*
X711Y441D01*
X710Y441D01*
X710Y440D01*
X709Y440D01*
X709Y439D01*
X708Y439D01*
X708Y438D01*
X708Y438D01*
X708Y437D01*
X707Y437D01*
X707Y436D01*
X706Y436D01*
X706Y435D01*
X705Y435D01*
X705Y434D01*
X704Y434D01*
X704Y433D01*
X703Y433D01*
X703Y433D01*
X703Y433D01*
X703Y432D01*
X702Y432D01*
X702Y433D01*
X703Y433D01*
X703Y435D01*
X703Y435D01*
X703Y436D01*
X704Y436D01*
X704Y437D01*
X705Y437D01*
X705Y439D01*
X706Y439D01*
X706Y446D01*
X705Y446D01*
X705Y449D01*
X704Y449D01*
X704Y450D01*
X703Y450D01*
X703Y451D01*
X703Y451D01*
X703Y452D01*
X719Y452D01*
G37*
D02*
G36*
X779Y466D02*
X779Y464D01*
X778Y464D01*
X778Y466D01*
X779Y466D01*
G37*
D02*
G36*
X820Y460D02*
X820Y459D01*
X819Y459D01*
X819Y460D01*
X820Y460D01*
G37*
D02*
G36*
X814Y457D02*
X814Y456D01*
X812Y456D01*
X812Y457D01*
X814Y457D01*
G37*
D02*
G36*
X630Y457D02*
X630Y456D01*
X630Y456D01*
X630Y457D01*
X630Y457D01*
G37*
D02*
G36*
X828Y456D02*
X828Y456D01*
X827Y456D01*
X827Y456D01*
X828Y456D01*
G37*
D02*
G36*
X825Y456D02*
X825Y456D01*
X824Y456D01*
X824Y456D01*
X825Y456D01*
G37*
D02*
G36*
X810Y456D02*
X810Y456D01*
X810Y456D01*
X810Y454D01*
X810Y454D01*
X810Y454D01*
X809Y454D01*
X809Y455D01*
X808Y455D01*
X808Y456D01*
X809Y456D01*
X809Y456D01*
X810Y456D01*
G37*
D02*
G36*
X824Y456D02*
X824Y455D01*
X823Y455D01*
X823Y454D01*
X821Y454D01*
X821Y456D01*
X824Y456D01*
G37*
D02*
G36*
X831Y454D02*
X831Y454D01*
X831Y454D01*
X831Y452D01*
X831Y452D01*
X831Y453D01*
X830Y453D01*
X830Y454D01*
X831Y454D01*
G37*
D02*
G36*
X818Y454D02*
X818Y454D01*
X818Y454D01*
X818Y453D01*
X819Y453D01*
X819Y451D01*
X820Y451D01*
X820Y451D01*
X820Y451D01*
X820Y450D01*
X821Y450D01*
X821Y449D01*
X822Y449D01*
X822Y446D01*
X823Y446D01*
X823Y443D01*
X823Y443D01*
X823Y439D01*
X824Y439D01*
X824Y438D01*
X823Y438D01*
X823Y436D01*
X823Y436D01*
X823Y435D01*
X822Y435D01*
X822Y434D01*
X820Y434D01*
X820Y433D01*
X819Y433D01*
X819Y434D01*
X816Y434D01*
X816Y435D01*
X815Y435D01*
X815Y436D01*
X815Y436D01*
X815Y436D01*
X814Y436D01*
X814Y437D01*
X813Y437D01*
X813Y438D01*
X813Y438D01*
X813Y438D01*
X812Y438D01*
X812Y440D01*
X813Y440D01*
X813Y441D01*
X812Y441D01*
X812Y443D01*
X811Y443D01*
X811Y444D01*
X810Y444D01*
X810Y446D01*
X810Y446D01*
X810Y447D01*
X810Y447D01*
X810Y448D01*
X811Y448D01*
X811Y451D01*
X812Y451D01*
X812Y453D01*
X813Y453D01*
X813Y454D01*
X815Y454D01*
X815Y454D01*
X818Y454D01*
G37*
D02*
G36*
X831Y451D02*
X831Y450D01*
X831Y450D01*
X831Y449D01*
X829Y449D01*
X829Y450D01*
X828Y450D01*
X828Y451D01*
X831Y451D01*
G37*
D02*
G36*
X824Y451D02*
X824Y450D01*
X825Y450D01*
X825Y449D01*
X826Y449D01*
X826Y448D01*
X826Y448D01*
X826Y447D01*
X826Y447D01*
X826Y446D01*
X825Y446D01*
X825Y447D01*
X824Y447D01*
X824Y449D01*
X823Y449D01*
X823Y451D01*
X823Y451D01*
X823Y451D01*
X824Y451D01*
G37*
D02*
G36*
X808Y450D02*
X808Y449D01*
X807Y449D01*
X807Y450D01*
X808Y450D01*
G37*
D02*
G36*
X836Y447D02*
X836Y446D01*
X836Y446D01*
X836Y444D01*
X837Y444D01*
X837Y443D01*
X835Y443D01*
X835Y441D01*
X834Y441D01*
X834Y441D01*
X833Y441D01*
X833Y442D01*
X833Y442D01*
X833Y446D01*
X835Y446D01*
X835Y447D01*
X836Y447D01*
G37*
D02*
G36*
X837Y443D02*
X837Y442D01*
X836Y442D01*
X836Y443D01*
X837Y443D01*
G37*
D02*
G36*
X830Y447D02*
X830Y446D01*
X828Y446D01*
X828Y447D01*
X830Y447D01*
G37*
D02*
G36*
X831Y446D02*
X831Y445D01*
X830Y445D01*
X830Y446D01*
X831Y446D01*
G37*
D02*
G36*
X828Y446D02*
X828Y445D01*
X827Y445D01*
X827Y446D01*
X828Y446D01*
G37*
D02*
G36*
X826Y446D02*
X826Y445D01*
X826Y445D01*
X826Y446D01*
X826Y446D01*
G37*
D02*
G36*
X828Y445D02*
X828Y444D01*
X826Y444D01*
X826Y445D01*
X828Y445D01*
G37*
D02*
G36*
X828Y445D02*
X828Y444D01*
X826Y444D01*
X826Y445D01*
X828Y445D01*
G37*
D02*
G36*
X828Y444D02*
X828Y443D01*
X826Y443D01*
X826Y444D01*
X828Y444D01*
G37*
D02*
G36*
X831Y441D02*
X831Y441D01*
X832Y441D01*
X832Y440D01*
X833Y440D01*
X833Y438D01*
X833Y438D01*
X833Y437D01*
X833Y437D01*
X833Y436D01*
X832Y436D01*
X832Y435D01*
X831Y435D01*
X831Y439D01*
X831Y439D01*
X831Y441D01*
X830Y441D01*
X830Y441D01*
X831Y441D01*
G37*
D02*
G36*
X830Y467D02*
X830Y467D01*
X832Y467D01*
X832Y466D01*
X833Y466D01*
X833Y465D01*
X833Y465D01*
X833Y464D01*
X834Y464D01*
X834Y464D01*
X835Y464D01*
X835Y463D01*
X836Y463D01*
X836Y462D01*
X817Y462D01*
X817Y462D01*
X813Y462D01*
X813Y461D01*
X810Y461D01*
X810Y460D01*
X809Y460D01*
X809Y459D01*
X808Y459D01*
X808Y459D01*
X807Y459D01*
X807Y457D01*
X807Y457D01*
X807Y456D01*
X806Y456D01*
X806Y455D01*
X805Y455D01*
X805Y454D01*
X805Y454D01*
X805Y452D01*
X804Y452D01*
X804Y449D01*
X805Y449D01*
X805Y443D01*
X805Y443D01*
X805Y441D01*
X806Y441D01*
X806Y441D01*
X807Y441D01*
X807Y438D01*
X807Y438D01*
X807Y437D01*
X808Y437D01*
X808Y436D01*
X809Y436D01*
X809Y436D01*
X810Y436D01*
X810Y435D01*
X811Y435D01*
X811Y434D01*
X812Y434D01*
X812Y433D01*
X813Y433D01*
X813Y433D01*
X815Y433D01*
X815Y432D01*
X817Y432D01*
X817Y431D01*
X810Y431D01*
X810Y432D01*
X810Y432D01*
X810Y433D01*
X808Y433D01*
X808Y433D01*
X807Y433D01*
X807Y434D01*
X807Y434D01*
X807Y435D01*
X806Y435D01*
X806Y436D01*
X805Y436D01*
X805Y436D01*
X805Y436D01*
X805Y437D01*
X804Y437D01*
X804Y438D01*
X803Y438D01*
X803Y440D01*
X802Y440D01*
X802Y441D01*
X802Y441D01*
X802Y443D01*
X801Y443D01*
X801Y454D01*
X802Y454D01*
X802Y456D01*
X802Y456D01*
X802Y456D01*
X803Y456D01*
X803Y458D01*
X804Y458D01*
X804Y459D01*
X805Y459D01*
X805Y459D01*
X805Y459D01*
X805Y461D01*
X806Y461D01*
X806Y462D01*
X807Y462D01*
X807Y462D01*
X808Y462D01*
X808Y463D01*
X810Y463D01*
X810Y464D01*
X810Y464D01*
X810Y464D01*
X812Y464D01*
X812Y465D01*
X813Y465D01*
X813Y466D01*
X815Y466D01*
X815Y467D01*
X817Y467D01*
X817Y467D01*
X830Y467D01*
G37*
D02*
G36*
X838Y462D02*
X838Y462D01*
X839Y462D01*
X839Y461D01*
X839Y461D01*
X839Y460D01*
X840Y460D01*
X840Y459D01*
X839Y459D01*
X839Y457D01*
X839Y457D01*
X839Y454D01*
X838Y454D01*
X838Y449D01*
X837Y449D01*
X837Y451D01*
X836Y451D01*
X836Y451D01*
X836Y451D01*
X836Y453D01*
X835Y453D01*
X835Y454D01*
X834Y454D01*
X834Y454D01*
X833Y454D01*
X833Y455D01*
X833Y455D01*
X833Y456D01*
X831Y456D01*
X831Y457D01*
X831Y457D01*
X831Y458D01*
X830Y458D01*
X830Y459D01*
X828Y459D01*
X828Y459D01*
X827Y459D01*
X827Y460D01*
X826Y460D01*
X826Y461D01*
X825Y461D01*
X825Y462D01*
X822Y462D01*
X822Y462D01*
X838Y462D01*
G37*
D02*
G36*
X828Y441D02*
X828Y438D01*
X829Y438D01*
X829Y436D01*
X828Y436D01*
X828Y434D01*
X827Y434D01*
X827Y433D01*
X826Y433D01*
X826Y432D01*
X826Y432D01*
X826Y431D01*
X822Y431D01*
X822Y432D01*
X823Y432D01*
X823Y433D01*
X824Y433D01*
X824Y433D01*
X825Y433D01*
X825Y434D01*
X826Y434D01*
X826Y436D01*
X826Y436D01*
X826Y441D01*
X828Y441D01*
G37*
D02*
G36*
X825Y431D02*
X825Y430D01*
X811Y430D01*
X811Y431D01*
X825Y431D01*
G37*
D02*
G36*
X825Y431D02*
X825Y430D01*
X811Y430D01*
X811Y431D01*
X825Y431D01*
G37*
D02*
G36*
X823Y430D02*
X823Y430D01*
X822Y430D01*
X822Y429D01*
X815Y429D01*
X815Y430D01*
X813Y430D01*
X813Y430D01*
X823Y430D01*
G37*
D02*
G36*
X810Y441D02*
X810Y441D01*
X810Y441D01*
X810Y441D01*
X810Y441D01*
G37*
D02*
G36*
X834Y435D02*
X834Y434D01*
X836Y434D01*
X836Y430D01*
X834Y430D01*
X834Y431D01*
X833Y431D01*
X833Y435D01*
X834Y435D01*
G37*
D02*
G36*
X702Y432D02*
X702Y430D01*
X700Y430D01*
X700Y431D01*
X701Y431D01*
X701Y432D01*
X702Y432D01*
G37*
D02*
G36*
X700Y430D02*
X700Y430D01*
X700Y430D01*
X700Y430D01*
X700Y430D01*
G37*
D02*
G36*
X700Y430D02*
X700Y429D01*
X699Y429D01*
X699Y430D01*
X700Y430D01*
G37*
D02*
G36*
X699Y429D02*
X699Y428D01*
X698Y428D01*
X698Y428D01*
X698Y428D01*
X698Y427D01*
X697Y427D01*
X697Y428D01*
X698Y428D01*
X698Y429D01*
X699Y429D01*
G37*
D02*
G36*
X836Y428D02*
X836Y423D01*
X836Y423D01*
X836Y421D01*
X835Y421D01*
X835Y420D01*
X834Y420D01*
X834Y425D01*
X836Y425D01*
X836Y428D01*
X836Y428D01*
G37*
D02*
G36*
X697Y427D02*
X697Y425D01*
X696Y425D01*
X696Y425D01*
X694Y425D01*
X694Y424D01*
X692Y424D01*
X692Y425D01*
X693Y425D01*
X693Y425D01*
X695Y425D01*
X695Y426D01*
X696Y426D01*
X696Y427D01*
X697Y427D01*
G37*
D02*
G36*
X698Y425D02*
X698Y424D01*
X697Y424D01*
X697Y423D01*
X696Y423D01*
X696Y423D01*
X695Y423D01*
X695Y425D01*
X698Y425D01*
G37*
D02*
G36*
X657Y423D02*
X657Y422D01*
X656Y422D01*
X656Y423D01*
X657Y423D01*
G37*
D02*
G36*
X694Y422D02*
X694Y421D01*
X693Y421D01*
X693Y422D01*
X694Y422D01*
G37*
D02*
G36*
X658Y422D02*
X658Y421D01*
X657Y421D01*
X657Y422D01*
X658Y422D01*
G37*
D02*
G36*
X659Y421D02*
X659Y420D01*
X661Y420D01*
X661Y420D01*
X663Y420D01*
X663Y419D01*
X664Y419D01*
X664Y418D01*
X663Y418D01*
X663Y417D01*
X664Y417D01*
X664Y416D01*
X664Y416D01*
X664Y415D01*
X661Y415D01*
X661Y417D01*
X661Y417D01*
X661Y418D01*
X660Y418D01*
X660Y420D01*
X659Y420D01*
X659Y420D01*
X658Y420D01*
X658Y421D01*
X659Y421D01*
G37*
D02*
G36*
X666Y418D02*
X666Y417D01*
X665Y417D01*
X665Y418D01*
X666Y418D01*
G37*
D02*
G36*
X834Y418D02*
X834Y417D01*
X833Y417D01*
X833Y418D01*
X834Y418D01*
G37*
D02*
G36*
X836Y417D02*
X836Y417D01*
X836Y417D01*
X836Y417D01*
X836Y417D01*
G37*
D02*
G36*
X836Y417D02*
X836Y416D01*
X833Y416D01*
X833Y417D01*
X836Y417D01*
G37*
D02*
G36*
X836Y417D02*
X836Y416D01*
X833Y416D01*
X833Y417D01*
X836Y417D01*
G37*
D02*
G36*
X836Y416D02*
X836Y407D01*
X836Y407D01*
X836Y408D01*
X835Y408D01*
X835Y410D01*
X834Y410D01*
X834Y411D01*
X833Y411D01*
X833Y415D01*
X833Y415D01*
X833Y416D01*
X836Y416D01*
G37*
D02*
G36*
X653Y415D02*
X653Y415D01*
X650Y415D01*
X650Y415D01*
X653Y415D01*
G37*
D02*
G36*
X820Y415D02*
X820Y414D01*
X819Y414D01*
X819Y415D01*
X820Y415D01*
G37*
D02*
G36*
X818Y415D02*
X818Y414D01*
X817Y414D01*
X817Y415D01*
X818Y415D01*
G37*
D02*
G36*
X820Y414D02*
X820Y413D01*
X817Y413D01*
X817Y414D01*
X820Y414D01*
G37*
D02*
G36*
X820Y414D02*
X820Y413D01*
X817Y413D01*
X817Y414D01*
X820Y414D01*
G37*
D02*
G36*
X820Y413D02*
X820Y412D01*
X818Y412D01*
X818Y412D01*
X817Y412D01*
X817Y413D01*
X820Y413D01*
G37*
D02*
G36*
X813Y415D02*
X813Y414D01*
X813Y414D01*
X813Y415D01*
X813Y415D01*
G37*
D02*
G36*
X811Y413D02*
X811Y412D01*
X813Y412D01*
X813Y412D01*
X812Y412D01*
X812Y409D01*
X809Y409D01*
X809Y410D01*
X808Y410D01*
X808Y412D01*
X809Y412D01*
X809Y412D01*
X810Y412D01*
X810Y413D01*
X811Y413D01*
G37*
D02*
G36*
X820Y411D02*
X820Y410D01*
X820Y410D01*
X820Y411D01*
X820Y411D01*
G37*
D02*
G36*
X831Y410D02*
X831Y409D01*
X831Y409D01*
X831Y410D01*
X831Y410D01*
G37*
D02*
G36*
X828Y410D02*
X828Y409D01*
X828Y409D01*
X828Y408D01*
X830Y408D01*
X830Y407D01*
X831Y407D01*
X831Y407D01*
X832Y407D01*
X832Y404D01*
X833Y404D01*
X833Y402D01*
X834Y402D01*
X834Y400D01*
X833Y400D01*
X833Y399D01*
X833Y399D01*
X833Y400D01*
X831Y400D01*
X831Y404D01*
X831Y404D01*
X831Y404D01*
X830Y404D01*
X830Y405D01*
X829Y405D01*
X829Y406D01*
X828Y406D01*
X828Y407D01*
X828Y407D01*
X828Y409D01*
X827Y409D01*
X827Y410D01*
X828Y410D01*
G37*
D02*
G36*
X821Y410D02*
X821Y409D01*
X823Y409D01*
X823Y409D01*
X822Y409D01*
X822Y407D01*
X820Y407D01*
X820Y408D01*
X820Y408D01*
X820Y409D01*
X820Y409D01*
X820Y410D01*
X821Y410D01*
G37*
D02*
G36*
X826Y408D02*
X826Y407D01*
X826Y407D01*
X826Y407D01*
X824Y407D01*
X824Y408D01*
X826Y408D01*
G37*
D02*
G36*
X813Y407D02*
X813Y407D01*
X811Y407D01*
X811Y407D01*
X813Y407D01*
G37*
D02*
G36*
X814Y407D02*
X814Y406D01*
X809Y406D01*
X809Y407D01*
X814Y407D01*
G37*
D02*
G36*
X807Y407D02*
X807Y406D01*
X807Y406D01*
X807Y407D01*
X807Y407D01*
G37*
D02*
G36*
X816Y406D02*
X816Y405D01*
X806Y405D01*
X806Y406D01*
X816Y406D01*
G37*
D02*
G36*
X816Y406D02*
X816Y405D01*
X806Y405D01*
X806Y406D01*
X816Y406D01*
G37*
D02*
G36*
X818Y405D02*
X818Y404D01*
X819Y404D01*
X819Y404D01*
X820Y404D01*
X820Y403D01*
X821Y403D01*
X821Y402D01*
X822Y402D01*
X822Y401D01*
X823Y401D01*
X823Y400D01*
X823Y400D01*
X823Y399D01*
X824Y399D01*
X824Y399D01*
X825Y399D01*
X825Y398D01*
X826Y398D01*
X826Y396D01*
X825Y396D01*
X825Y395D01*
X824Y395D01*
X824Y394D01*
X823Y394D01*
X823Y394D01*
X822Y394D01*
X822Y393D01*
X820Y393D01*
X820Y392D01*
X818Y392D01*
X818Y391D01*
X813Y391D01*
X813Y392D01*
X812Y392D01*
X812Y393D01*
X811Y393D01*
X811Y394D01*
X810Y394D01*
X810Y395D01*
X810Y395D01*
X810Y396D01*
X809Y396D01*
X809Y397D01*
X808Y397D01*
X808Y398D01*
X807Y398D01*
X807Y399D01*
X807Y399D01*
X807Y402D01*
X806Y402D01*
X806Y405D01*
X818Y405D01*
G37*
D02*
G36*
X825Y404D02*
X825Y403D01*
X824Y403D01*
X824Y404D01*
X825Y404D01*
G37*
D02*
G36*
X826Y403D02*
X826Y402D01*
X826Y402D01*
X826Y402D01*
X825Y402D01*
X825Y403D01*
X826Y403D01*
G37*
D02*
G36*
X827Y402D02*
X827Y401D01*
X826Y401D01*
X826Y402D01*
X827Y402D01*
G37*
D02*
G36*
X833Y399D02*
X833Y398D01*
X832Y398D01*
X832Y399D01*
X833Y399D01*
G37*
D02*
G36*
X836Y398D02*
X836Y397D01*
X836Y397D01*
X836Y396D01*
X835Y396D01*
X835Y398D01*
X836Y398D01*
G37*
D02*
G36*
X836Y394D02*
X836Y394D01*
X833Y394D01*
X833Y394D01*
X836Y394D01*
G37*
D02*
G36*
X829Y399D02*
X829Y397D01*
X831Y397D01*
X831Y395D01*
X829Y395D01*
X829Y394D01*
X830Y394D01*
X830Y394D01*
X831Y394D01*
X831Y393D01*
X829Y393D01*
X829Y394D01*
X828Y394D01*
X828Y399D01*
X827Y399D01*
X827Y399D01*
X829Y399D01*
G37*
D02*
G36*
X833Y394D02*
X833Y393D01*
X833Y393D01*
X833Y394D01*
X833Y394D01*
G37*
D02*
G36*
X833Y393D02*
X833Y392D01*
X831Y392D01*
X831Y393D01*
X833Y393D01*
G37*
D02*
G36*
X833Y393D02*
X833Y392D01*
X831Y392D01*
X831Y393D01*
X833Y393D01*
G37*
D02*
G36*
X834Y392D02*
X834Y391D01*
X836Y391D01*
X836Y390D01*
X835Y390D01*
X835Y389D01*
X833Y389D01*
X833Y389D01*
X833Y389D01*
X833Y388D01*
X831Y388D01*
X831Y389D01*
X832Y389D01*
X832Y390D01*
X831Y390D01*
X831Y392D01*
X834Y392D01*
G37*
D02*
G36*
X826Y389D02*
X826Y389D01*
X828Y389D01*
X828Y388D01*
X825Y388D01*
X825Y389D01*
X826Y389D01*
X826Y389D01*
X826Y389D01*
G37*
D02*
G36*
X833Y388D02*
X833Y387D01*
X826Y387D01*
X826Y388D01*
X833Y388D01*
G37*
D02*
G36*
X833Y388D02*
X833Y387D01*
X826Y387D01*
X826Y388D01*
X833Y388D01*
G37*
D02*
G36*
X833Y387D02*
X833Y386D01*
X832Y386D01*
X832Y386D01*
X831Y386D01*
X831Y384D01*
X828Y384D01*
X828Y383D01*
X827Y383D01*
X827Y386D01*
X826Y386D01*
X826Y387D01*
X833Y387D01*
G37*
D02*
G36*
X831Y384D02*
X831Y383D01*
X830Y383D01*
X830Y384D01*
X831Y384D01*
G37*
D02*
G36*
X808Y393D02*
X808Y392D01*
X807Y392D01*
X807Y393D01*
X808Y393D01*
G37*
D02*
G36*
X828Y391D02*
X828Y390D01*
X828Y390D01*
X828Y391D01*
X828Y391D01*
G37*
D02*
G36*
X823Y391D02*
X823Y390D01*
X823Y390D01*
X823Y391D01*
X823Y391D01*
G37*
D02*
G36*
X798Y430D02*
X798Y429D01*
X797Y429D01*
X797Y428D01*
X796Y428D01*
X796Y428D01*
X795Y428D01*
X795Y427D01*
X794Y427D01*
X794Y426D01*
X792Y426D01*
X792Y425D01*
X792Y425D01*
X792Y425D01*
X791Y425D01*
X791Y424D01*
X789Y424D01*
X789Y423D01*
X789Y423D01*
X789Y423D01*
X788Y423D01*
X788Y421D01*
X787Y421D01*
X787Y420D01*
X787Y420D01*
X787Y416D01*
X786Y416D01*
X786Y412D01*
X785Y412D01*
X785Y409D01*
X786Y409D01*
X786Y407D01*
X787Y407D01*
X787Y404D01*
X787Y404D01*
X787Y403D01*
X788Y403D01*
X788Y402D01*
X789Y402D01*
X789Y401D01*
X789Y401D01*
X789Y400D01*
X790Y400D01*
X790Y399D01*
X792Y399D01*
X792Y399D01*
X792Y399D01*
X792Y398D01*
X793Y398D01*
X793Y397D01*
X794Y397D01*
X794Y396D01*
X794Y396D01*
X794Y396D01*
X795Y396D01*
X795Y395D01*
X796Y395D01*
X796Y394D01*
X797Y394D01*
X797Y394D01*
X798Y394D01*
X798Y393D01*
X800Y393D01*
X800Y392D01*
X801Y392D01*
X801Y391D01*
X802Y391D01*
X802Y391D01*
X804Y391D01*
X804Y390D01*
X806Y390D01*
X806Y389D01*
X810Y389D01*
X810Y389D01*
X797Y389D01*
X797Y388D01*
X796Y388D01*
X796Y389D01*
X795Y389D01*
X795Y389D01*
X794Y389D01*
X794Y390D01*
X794Y390D01*
X794Y391D01*
X793Y391D01*
X793Y391D01*
X792Y391D01*
X792Y392D01*
X792Y392D01*
X792Y393D01*
X791Y393D01*
X791Y394D01*
X790Y394D01*
X790Y394D01*
X789Y394D01*
X789Y395D01*
X789Y395D01*
X789Y396D01*
X788Y396D01*
X788Y397D01*
X787Y397D01*
X787Y399D01*
X787Y399D01*
X787Y399D01*
X786Y399D01*
X786Y401D01*
X785Y401D01*
X785Y403D01*
X784Y403D01*
X784Y404D01*
X784Y404D01*
X784Y407D01*
X783Y407D01*
X783Y416D01*
X784Y416D01*
X784Y418D01*
X784Y418D01*
X784Y420D01*
X785Y420D01*
X785Y421D01*
X786Y421D01*
X786Y423D01*
X787Y423D01*
X787Y423D01*
X787Y423D01*
X787Y425D01*
X788Y425D01*
X788Y425D01*
X789Y425D01*
X789Y426D01*
X790Y426D01*
X790Y427D01*
X791Y427D01*
X791Y428D01*
X792Y428D01*
X792Y428D01*
X793Y428D01*
X793Y429D01*
X795Y429D01*
X795Y430D01*
X798Y430D01*
G37*
D02*
G36*
X823Y390D02*
X823Y389D01*
X820Y389D01*
X820Y389D01*
X822Y389D01*
X822Y390D01*
X823Y390D01*
G37*
D02*
G36*
X821Y389D02*
X821Y388D01*
X800Y388D01*
X800Y389D01*
X821Y389D01*
G37*
D02*
G36*
X821Y389D02*
X821Y388D01*
X800Y388D01*
X800Y389D01*
X821Y389D01*
G37*
D02*
G36*
X820Y388D02*
X820Y387D01*
X819Y387D01*
X819Y386D01*
X818Y386D01*
X818Y386D01*
X815Y386D01*
X815Y385D01*
X804Y385D01*
X804Y386D01*
X803Y386D01*
X803Y387D01*
X802Y387D01*
X802Y388D01*
X820Y388D01*
G37*
D02*
G36*
X802Y386D02*
X802Y385D01*
X800Y385D01*
X800Y386D01*
X802Y386D01*
G37*
D02*
G36*
X813Y385D02*
X813Y384D01*
X801Y384D01*
X801Y385D01*
X813Y385D01*
G37*
D02*
G36*
X813Y385D02*
X813Y384D01*
X801Y384D01*
X801Y385D01*
X813Y385D01*
G37*
D02*
G36*
X810Y384D02*
X810Y383D01*
X802Y383D01*
X802Y384D01*
X810Y384D01*
G37*
D02*
G36*
X799Y387D02*
X799Y386D01*
X798Y386D01*
X798Y387D01*
X799Y387D01*
G37*
D02*
G36*
X800Y386D02*
X800Y386D01*
X799Y386D01*
X799Y386D01*
X800Y386D01*
G37*
D02*
G36*
X837Y385D02*
X837Y383D01*
X838Y383D01*
X838Y378D01*
X839Y378D01*
X839Y375D01*
X839Y375D01*
X839Y373D01*
X840Y373D01*
X840Y372D01*
X841Y372D01*
X841Y370D01*
X841Y370D01*
X841Y369D01*
X842Y369D01*
X842Y368D01*
X843Y368D01*
X843Y366D01*
X842Y366D01*
X842Y367D01*
X841Y367D01*
X841Y368D01*
X839Y368D01*
X839Y368D01*
X839Y368D01*
X839Y369D01*
X838Y369D01*
X838Y370D01*
X837Y370D01*
X837Y371D01*
X836Y371D01*
X836Y372D01*
X836Y372D01*
X836Y373D01*
X834Y373D01*
X834Y373D01*
X833Y373D01*
X833Y374D01*
X833Y374D01*
X833Y376D01*
X832Y376D01*
X832Y376D01*
X831Y376D01*
X831Y377D01*
X830Y377D01*
X830Y378D01*
X828Y378D01*
X828Y378D01*
X828Y378D01*
X828Y379D01*
X829Y379D01*
X829Y380D01*
X830Y380D01*
X830Y381D01*
X831Y381D01*
X831Y381D01*
X831Y381D01*
X831Y382D01*
X832Y382D01*
X832Y383D01*
X833Y383D01*
X833Y383D01*
X836Y383D01*
X836Y384D01*
X836Y384D01*
X836Y385D01*
X837Y385D01*
G37*
D02*
G36*
X820Y384D02*
X820Y383D01*
X821Y383D01*
X821Y383D01*
X822Y383D01*
X822Y382D01*
X816Y382D01*
X816Y381D01*
X810Y381D01*
X810Y380D01*
X808Y380D01*
X808Y381D01*
X807Y381D01*
X807Y382D01*
X812Y382D01*
X812Y383D01*
X815Y383D01*
X815Y383D01*
X818Y383D01*
X818Y384D01*
X820Y384D01*
G37*
D02*
G36*
X820Y382D02*
X820Y381D01*
X818Y381D01*
X818Y382D01*
X820Y382D01*
G37*
D02*
G36*
X815Y381D02*
X815Y381D01*
X812Y381D01*
X812Y381D01*
X815Y381D01*
G37*
D02*
G36*
X826Y382D02*
X826Y381D01*
X825Y381D01*
X825Y382D01*
X826Y382D01*
G37*
D02*
G36*
X823Y382D02*
X823Y381D01*
X823Y381D01*
X823Y381D01*
X822Y381D01*
X822Y382D01*
X823Y382D01*
G37*
D02*
G36*
X823Y378D02*
X823Y378D01*
X821Y378D01*
X821Y378D01*
X823Y378D01*
G37*
D02*
G36*
X816Y378D02*
X816Y378D01*
X812Y378D01*
X812Y378D01*
X816Y378D01*
G37*
D02*
G36*
X828Y376D02*
X828Y375D01*
X823Y375D01*
X823Y376D01*
X828Y376D01*
G37*
D02*
G36*
X812Y376D02*
X812Y375D01*
X805Y375D01*
X805Y376D01*
X812Y376D01*
G37*
D02*
G36*
X829Y375D02*
X829Y374D01*
X806Y374D01*
X806Y375D01*
X829Y375D01*
G37*
D02*
G36*
X829Y375D02*
X829Y374D01*
X806Y374D01*
X806Y375D01*
X829Y375D01*
G37*
D02*
G36*
X831Y374D02*
X831Y373D01*
X831Y373D01*
X831Y373D01*
X832Y373D01*
X832Y372D01*
X833Y372D01*
X833Y370D01*
X833Y370D01*
X833Y370D01*
X834Y370D01*
X834Y369D01*
X817Y369D01*
X817Y368D01*
X815Y368D01*
X815Y368D01*
X813Y368D01*
X813Y367D01*
X812Y367D01*
X812Y366D01*
X810Y366D01*
X810Y365D01*
X810Y365D01*
X810Y365D01*
X809Y365D01*
X809Y364D01*
X808Y364D01*
X808Y365D01*
X807Y365D01*
X807Y365D01*
X807Y365D01*
X807Y367D01*
X806Y367D01*
X806Y368D01*
X805Y368D01*
X805Y373D01*
X805Y373D01*
X805Y373D01*
X806Y373D01*
X806Y374D01*
X831Y374D01*
G37*
D02*
G36*
X835Y369D02*
X835Y368D01*
X836Y368D01*
X836Y368D01*
X836Y368D01*
X836Y367D01*
X837Y367D01*
X837Y366D01*
X838Y366D01*
X838Y365D01*
X839Y365D01*
X839Y365D01*
X839Y365D01*
X839Y364D01*
X841Y364D01*
X841Y363D01*
X837Y363D01*
X837Y364D01*
X831Y364D01*
X831Y365D01*
X829Y365D01*
X829Y365D01*
X827Y365D01*
X827Y366D01*
X826Y366D01*
X826Y367D01*
X826Y367D01*
X826Y368D01*
X823Y368D01*
X823Y368D01*
X821Y368D01*
X821Y369D01*
X835Y369D01*
G37*
D02*
G36*
X802Y374D02*
X802Y372D01*
X801Y372D01*
X801Y371D01*
X802Y371D01*
X802Y368D01*
X801Y368D01*
X801Y369D01*
X799Y369D01*
X799Y371D01*
X800Y371D01*
X800Y373D01*
X801Y373D01*
X801Y374D01*
X802Y374D01*
G37*
D02*
G36*
X797Y368D02*
X797Y366D01*
X797Y366D01*
X797Y365D01*
X796Y365D01*
X796Y368D01*
X797Y368D01*
X797Y368D01*
X797Y368D01*
G37*
D02*
G36*
X802Y368D02*
X802Y366D01*
X802Y366D01*
X802Y368D01*
X802Y368D01*
G37*
D02*
G36*
X844Y366D02*
X844Y365D01*
X843Y365D01*
X843Y366D01*
X844Y366D01*
G37*
D02*
G36*
X822Y365D02*
X822Y365D01*
X823Y365D01*
X823Y364D01*
X822Y364D01*
X822Y363D01*
X818Y363D01*
X818Y364D01*
X818Y364D01*
X818Y365D01*
X821Y365D01*
X821Y365D01*
X822Y365D01*
G37*
D02*
G36*
X816Y365D02*
X816Y363D01*
X814Y363D01*
X814Y364D01*
X815Y364D01*
X815Y365D01*
X816Y365D01*
G37*
D02*
G36*
X813Y364D02*
X813Y363D01*
X812Y363D01*
X812Y364D01*
X813Y364D01*
G37*
D02*
G36*
X821Y363D02*
X821Y363D01*
X812Y363D01*
X812Y363D01*
X821Y363D01*
G37*
D02*
G36*
X821Y363D02*
X821Y363D01*
X812Y363D01*
X812Y363D01*
X821Y363D01*
G37*
D02*
G36*
X821Y363D02*
X821Y363D01*
X812Y363D01*
X812Y363D01*
X821Y363D01*
G37*
D02*
G36*
X799Y365D02*
X799Y364D01*
X798Y364D01*
X798Y365D01*
X799Y365D01*
G37*
D02*
G36*
X800Y364D02*
X800Y363D01*
X799Y363D01*
X799Y364D01*
X800Y364D01*
G37*
D02*
G36*
X804Y363D02*
X804Y363D01*
X802Y363D01*
X802Y363D01*
X804Y363D01*
G37*
D02*
G36*
X801Y363D02*
X801Y363D01*
X800Y363D01*
X800Y363D01*
X801Y363D01*
G37*
D02*
G36*
X805Y363D02*
X805Y362D01*
X800Y362D01*
X800Y363D01*
X805Y363D01*
G37*
D02*
G36*
X805Y363D02*
X805Y362D01*
X800Y362D01*
X800Y363D01*
X805Y363D01*
G37*
D02*
G36*
X805Y362D02*
X805Y359D01*
X805Y359D01*
X805Y358D01*
X804Y358D01*
X804Y359D01*
X803Y359D01*
X803Y360D01*
X804Y360D01*
X804Y361D01*
X803Y361D01*
X803Y362D01*
X805Y362D01*
G37*
D02*
G36*
X826Y363D02*
X826Y362D01*
X824Y362D01*
X824Y363D01*
X826Y363D01*
G37*
D02*
G36*
X823Y360D02*
X823Y360D01*
X822Y360D01*
X822Y360D01*
X823Y360D01*
G37*
D02*
G36*
X826Y360D02*
X826Y359D01*
X825Y359D01*
X825Y358D01*
X823Y358D01*
X823Y360D01*
X826Y360D01*
G37*
D02*
G36*
X822Y360D02*
X822Y359D01*
X821Y359D01*
X821Y360D01*
X822Y360D01*
G37*
D02*
G36*
X812Y359D02*
X812Y357D01*
X811Y357D01*
X811Y359D01*
X812Y359D01*
G37*
D02*
G36*
X817Y358D02*
X817Y357D01*
X816Y357D01*
X816Y356D01*
X813Y356D01*
X813Y357D01*
X814Y357D01*
X814Y358D01*
X817Y358D01*
G37*
D02*
G36*
X806Y357D02*
X806Y357D01*
X805Y357D01*
X805Y357D01*
X806Y357D01*
G37*
D02*
G36*
X811Y357D02*
X811Y355D01*
X810Y355D01*
X810Y355D01*
X807Y355D01*
X807Y356D01*
X808Y356D01*
X808Y357D01*
X811Y357D01*
G37*
D02*
G36*
X823Y356D02*
X823Y355D01*
X822Y355D01*
X822Y356D01*
X823Y356D01*
G37*
D02*
G36*
X805Y356D02*
X805Y355D01*
X805Y355D01*
X805Y356D01*
X805Y356D01*
G37*
D02*
G36*
X812Y355D02*
X812Y354D01*
X813Y354D01*
X813Y353D01*
X811Y353D01*
X811Y355D01*
X812Y355D01*
G37*
D02*
G36*
X818Y354D02*
X818Y353D01*
X817Y353D01*
X817Y354D01*
X818Y354D01*
G37*
D02*
G36*
X640Y349D02*
X640Y348D01*
X639Y348D01*
X639Y349D01*
X640Y349D01*
G37*
D02*
G36*
X921Y702D02*
X921Y680D01*
X855Y680D01*
X855Y678D01*
X856Y678D01*
X856Y676D01*
X857Y676D01*
X857Y676D01*
X857Y676D01*
X857Y674D01*
X858Y674D01*
X858Y673D01*
X859Y673D01*
X859Y672D01*
X858Y672D01*
X858Y673D01*
X857Y673D01*
X857Y673D01*
X857Y673D01*
X857Y674D01*
X855Y674D01*
X855Y675D01*
X854Y675D01*
X854Y676D01*
X853Y676D01*
X853Y676D01*
X852Y676D01*
X852Y677D01*
X850Y677D01*
X850Y678D01*
X849Y678D01*
X849Y678D01*
X848Y678D01*
X848Y679D01*
X847Y679D01*
X847Y680D01*
X847Y680D01*
X847Y681D01*
X845Y681D01*
X845Y681D01*
X843Y681D01*
X843Y682D01*
X842Y682D01*
X842Y683D01*
X841Y683D01*
X841Y683D01*
X839Y683D01*
X839Y684D01*
X838Y684D01*
X838Y685D01*
X837Y685D01*
X837Y686D01*
X836Y686D01*
X836Y686D01*
X833Y686D01*
X833Y687D01*
X832Y687D01*
X832Y688D01*
X831Y688D01*
X831Y689D01*
X829Y689D01*
X829Y689D01*
X828Y689D01*
X828Y690D01*
X826Y690D01*
X826Y691D01*
X825Y691D01*
X825Y691D01*
X822Y691D01*
X822Y692D01*
X820Y692D01*
X820Y693D01*
X818Y693D01*
X818Y694D01*
X817Y694D01*
X817Y694D01*
X815Y694D01*
X815Y695D01*
X813Y695D01*
X813Y696D01*
X811Y696D01*
X811Y696D01*
X807Y696D01*
X807Y697D01*
X805Y697D01*
X805Y698D01*
X802Y698D01*
X802Y699D01*
X800Y699D01*
X800Y699D01*
X798Y699D01*
X798Y700D01*
X794Y700D01*
X794Y701D01*
X792Y701D01*
X792Y702D01*
X787Y702D01*
X787Y702D01*
X921Y702D01*
G37*
D02*
G36*
X787Y700D02*
X787Y699D01*
X787Y699D01*
X787Y699D01*
X789Y699D01*
X789Y698D01*
X789Y698D01*
X789Y697D01*
X791Y697D01*
X791Y696D01*
X792Y696D01*
X792Y696D01*
X792Y696D01*
X792Y695D01*
X791Y695D01*
X791Y696D01*
X789Y696D01*
X789Y696D01*
X784Y696D01*
X784Y697D01*
X781Y697D01*
X781Y698D01*
X776Y698D01*
X776Y699D01*
X773Y699D01*
X773Y699D01*
X766Y699D01*
X766Y700D01*
X787Y700D01*
G37*
D02*
G36*
X921Y680D02*
X921Y665D01*
X875Y665D01*
X875Y664D01*
X875Y664D01*
X875Y660D01*
X874Y660D01*
X874Y659D01*
X873Y659D01*
X873Y658D01*
X873Y658D01*
X873Y657D01*
X872Y657D01*
X872Y660D01*
X871Y660D01*
X871Y662D01*
X870Y662D01*
X870Y664D01*
X870Y664D01*
X870Y665D01*
X869Y665D01*
X869Y668D01*
X868Y668D01*
X868Y669D01*
X867Y669D01*
X867Y670D01*
X866Y670D01*
X866Y672D01*
X865Y672D01*
X865Y673D01*
X865Y673D01*
X865Y673D01*
X864Y673D01*
X864Y675D01*
X863Y675D01*
X863Y676D01*
X862Y676D01*
X862Y676D01*
X861Y676D01*
X861Y677D01*
X860Y677D01*
X860Y678D01*
X859Y678D01*
X859Y678D01*
X858Y678D01*
X858Y679D01*
X857Y679D01*
X857Y680D01*
X921Y680D01*
G37*
D02*
G36*
X921Y665D02*
X921Y636D01*
X895Y636D01*
X895Y639D01*
X894Y639D01*
X894Y639D01*
X893Y639D01*
X893Y640D01*
X892Y640D01*
X892Y641D01*
X891Y641D01*
X891Y642D01*
X891Y642D01*
X891Y642D01*
X890Y642D01*
X890Y643D01*
X888Y643D01*
X888Y644D01*
X887Y644D01*
X887Y644D01*
X885Y644D01*
X885Y645D01*
X884Y645D01*
X884Y647D01*
X883Y647D01*
X883Y647D01*
X883Y647D01*
X883Y648D01*
X882Y648D01*
X882Y649D01*
X881Y649D01*
X881Y650D01*
X880Y650D01*
X880Y651D01*
X880Y651D01*
X880Y653D01*
X879Y653D01*
X879Y655D01*
X878Y655D01*
X878Y657D01*
X878Y657D01*
X878Y659D01*
X877Y659D01*
X877Y661D01*
X876Y661D01*
X876Y665D01*
X921Y665D01*
G37*
D02*
G36*
X662Y657D02*
X662Y656D01*
X661Y656D01*
X661Y655D01*
X659Y655D01*
X659Y656D01*
X660Y656D01*
X660Y657D01*
X662Y657D01*
G37*
D02*
G36*
X661Y655D02*
X661Y655D01*
X367Y655D01*
X367Y655D01*
X661Y655D01*
G37*
D02*
G36*
X661Y655D02*
X661Y655D01*
X367Y655D01*
X367Y655D01*
X661Y655D01*
G37*
D02*
G36*
X661Y655D02*
X661Y654D01*
X660Y654D01*
X660Y653D01*
X659Y653D01*
X659Y652D01*
X659Y652D01*
X659Y652D01*
X658Y652D01*
X658Y651D01*
X657Y651D01*
X657Y650D01*
X656Y650D01*
X656Y649D01*
X656Y649D01*
X656Y649D01*
X655Y649D01*
X655Y648D01*
X654Y648D01*
X654Y647D01*
X654Y647D01*
X654Y647D01*
X653Y647D01*
X653Y645D01*
X652Y645D01*
X652Y644D01*
X651Y644D01*
X651Y644D01*
X650Y644D01*
X650Y642D01*
X649Y642D01*
X649Y641D01*
X648Y641D01*
X648Y639D01*
X647Y639D01*
X647Y638D01*
X646Y638D01*
X646Y636D01*
X646Y636D01*
X646Y634D01*
X645Y634D01*
X645Y631D01*
X644Y631D01*
X644Y629D01*
X643Y629D01*
X643Y626D01*
X643Y626D01*
X643Y622D01*
X643Y622D01*
X643Y621D01*
X643Y621D01*
X643Y615D01*
X642Y615D01*
X642Y612D01*
X641Y612D01*
X641Y608D01*
X640Y608D01*
X640Y603D01*
X640Y603D01*
X640Y597D01*
X639Y597D01*
X639Y592D01*
X638Y592D01*
X638Y589D01*
X638Y589D01*
X638Y587D01*
X637Y587D01*
X637Y582D01*
X636Y582D01*
X636Y579D01*
X635Y579D01*
X635Y575D01*
X635Y575D01*
X635Y571D01*
X634Y571D01*
X634Y563D01*
X633Y563D01*
X633Y550D01*
X634Y550D01*
X634Y547D01*
X635Y547D01*
X635Y545D01*
X635Y545D01*
X635Y544D01*
X636Y544D01*
X636Y543D01*
X637Y543D01*
X637Y542D01*
X638Y542D01*
X638Y540D01*
X638Y540D01*
X638Y540D01*
X639Y540D01*
X639Y535D01*
X638Y535D01*
X638Y534D01*
X637Y534D01*
X637Y533D01*
X633Y533D01*
X633Y532D01*
X629Y532D01*
X629Y532D01*
X625Y532D01*
X625Y531D01*
X621Y531D01*
X621Y530D01*
X617Y530D01*
X617Y529D01*
X609Y529D01*
X609Y529D01*
X605Y529D01*
X605Y528D01*
X601Y528D01*
X601Y527D01*
X598Y527D01*
X598Y527D01*
X593Y527D01*
X593Y526D01*
X589Y526D01*
X589Y525D01*
X586Y525D01*
X586Y524D01*
X578Y524D01*
X578Y524D01*
X573Y524D01*
X573Y523D01*
X569Y523D01*
X569Y522D01*
X565Y522D01*
X565Y522D01*
X562Y522D01*
X562Y521D01*
X557Y521D01*
X557Y520D01*
X553Y520D01*
X553Y519D01*
X546Y519D01*
X546Y519D01*
X541Y519D01*
X541Y518D01*
X538Y518D01*
X538Y517D01*
X533Y517D01*
X533Y516D01*
X530Y516D01*
X530Y516D01*
X526Y516D01*
X526Y515D01*
X520Y515D01*
X520Y514D01*
X515Y514D01*
X515Y514D01*
X510Y514D01*
X510Y513D01*
X505Y513D01*
X505Y512D01*
X502Y512D01*
X502Y511D01*
X497Y511D01*
X497Y511D01*
X494Y511D01*
X494Y510D01*
X489Y510D01*
X489Y509D01*
X485Y509D01*
X485Y509D01*
X478Y509D01*
X478Y508D01*
X474Y508D01*
X474Y507D01*
X470Y507D01*
X470Y506D01*
X465Y506D01*
X465Y506D01*
X462Y506D01*
X462Y505D01*
X458Y505D01*
X458Y504D01*
X453Y504D01*
X453Y503D01*
X447Y503D01*
X447Y503D01*
X442Y503D01*
X442Y502D01*
X437Y502D01*
X437Y501D01*
X434Y501D01*
X434Y501D01*
X429Y501D01*
X429Y500D01*
X426Y500D01*
X426Y499D01*
X422Y499D01*
X422Y498D01*
X414Y498D01*
X414Y498D01*
X411Y498D01*
X411Y497D01*
X406Y497D01*
X406Y496D01*
X402Y496D01*
X402Y496D01*
X399Y496D01*
X399Y495D01*
X394Y495D01*
X394Y494D01*
X390Y494D01*
X390Y493D01*
X383Y493D01*
X383Y493D01*
X381Y493D01*
X381Y491D01*
X382Y491D01*
X382Y490D01*
X384Y490D01*
X384Y490D01*
X385Y490D01*
X385Y489D01*
X387Y489D01*
X387Y488D01*
X389Y488D01*
X389Y488D01*
X391Y488D01*
X391Y487D01*
X393Y487D01*
X393Y486D01*
X394Y486D01*
X394Y485D01*
X395Y485D01*
X395Y485D01*
X397Y485D01*
X397Y484D01*
X398Y484D01*
X398Y483D01*
X400Y483D01*
X400Y483D01*
X403Y483D01*
X403Y482D01*
X405Y482D01*
X405Y481D01*
X406Y481D01*
X406Y480D01*
X408Y480D01*
X408Y480D01*
X367Y480D01*
X367Y655D01*
X661Y655D01*
G37*
D02*
G36*
X883Y644D02*
X883Y643D01*
X885Y643D01*
X885Y642D01*
X886Y642D01*
X886Y642D01*
X886Y642D01*
X886Y641D01*
X887Y641D01*
X887Y640D01*
X888Y640D01*
X888Y639D01*
X890Y639D01*
X890Y638D01*
X891Y638D01*
X891Y637D01*
X892Y637D01*
X892Y636D01*
X893Y636D01*
X893Y636D01*
X885Y636D01*
X885Y638D01*
X884Y638D01*
X884Y639D01*
X883Y639D01*
X883Y639D01*
X883Y639D01*
X883Y640D01*
X882Y640D01*
X882Y642D01*
X881Y642D01*
X881Y642D01*
X880Y642D01*
X880Y643D01*
X880Y643D01*
X880Y644D01*
X883Y644D01*
G37*
D02*
G36*
X921Y636D02*
X921Y635D01*
X886Y635D01*
X886Y636D01*
X921Y636D01*
G37*
D02*
G36*
X921Y636D02*
X921Y635D01*
X886Y635D01*
X886Y636D01*
X921Y636D01*
G37*
D02*
G36*
X921Y635D02*
X921Y608D01*
X897Y608D01*
X897Y610D01*
X896Y610D01*
X896Y612D01*
X896Y612D01*
X896Y614D01*
X895Y614D01*
X895Y618D01*
X894Y618D01*
X894Y620D01*
X893Y620D01*
X893Y621D01*
X893Y621D01*
X893Y623D01*
X892Y623D01*
X892Y624D01*
X891Y624D01*
X891Y626D01*
X891Y626D01*
X891Y627D01*
X890Y627D01*
X890Y629D01*
X889Y629D01*
X889Y631D01*
X888Y631D01*
X888Y632D01*
X888Y632D01*
X888Y633D01*
X887Y633D01*
X887Y634D01*
X886Y634D01*
X886Y635D01*
X921Y635D01*
G37*
D02*
G36*
X892Y611D02*
X892Y610D01*
X893Y610D01*
X893Y610D01*
X893Y610D01*
X893Y609D01*
X895Y609D01*
X895Y608D01*
X896Y608D01*
X896Y608D01*
X892Y608D01*
X892Y609D01*
X891Y609D01*
X891Y611D01*
X892Y611D01*
G37*
D02*
G36*
X921Y608D02*
X921Y607D01*
X892Y607D01*
X892Y608D01*
X921Y608D01*
G37*
D02*
G36*
X921Y608D02*
X921Y607D01*
X892Y607D01*
X892Y608D01*
X921Y608D01*
G37*
D02*
G36*
X921Y607D02*
X921Y558D01*
X896Y558D01*
X896Y575D01*
X896Y575D01*
X896Y587D01*
X895Y587D01*
X895Y595D01*
X894Y595D01*
X894Y600D01*
X893Y600D01*
X893Y602D01*
X893Y602D01*
X893Y605D01*
X892Y605D01*
X892Y607D01*
X921Y607D01*
G37*
D02*
G36*
X893Y566D02*
X893Y563D01*
X894Y563D01*
X894Y561D01*
X895Y561D01*
X895Y558D01*
X891Y558D01*
X891Y558D01*
X892Y558D01*
X892Y563D01*
X893Y563D01*
X893Y566D01*
X893Y566D01*
G37*
D02*
G36*
X781Y563D02*
X781Y563D01*
X781Y563D01*
X781Y562D01*
X783Y562D01*
X783Y561D01*
X786Y561D01*
X786Y560D01*
X785Y560D01*
X785Y559D01*
X784Y559D01*
X784Y558D01*
X784Y558D01*
X784Y557D01*
X783Y557D01*
X783Y556D01*
X782Y556D01*
X782Y556D01*
X781Y556D01*
X781Y554D01*
X781Y554D01*
X781Y550D01*
X780Y550D01*
X780Y549D01*
X778Y549D01*
X778Y551D01*
X779Y551D01*
X779Y557D01*
X779Y557D01*
X779Y562D01*
X780Y562D01*
X780Y563D01*
X781Y563D01*
G37*
D02*
G36*
X803Y563D02*
X803Y562D01*
X805Y562D01*
X805Y561D01*
X807Y561D01*
X807Y561D01*
X807Y561D01*
X807Y560D01*
X808Y560D01*
X808Y559D01*
X809Y559D01*
X809Y558D01*
X810Y558D01*
X810Y558D01*
X810Y558D01*
X810Y556D01*
X811Y556D01*
X811Y556D01*
X792Y556D01*
X792Y555D01*
X791Y555D01*
X791Y554D01*
X789Y554D01*
X789Y553D01*
X789Y553D01*
X789Y553D01*
X788Y553D01*
X788Y552D01*
X787Y552D01*
X787Y550D01*
X786Y550D01*
X786Y550D01*
X785Y550D01*
X785Y549D01*
X781Y549D01*
X781Y550D01*
X782Y550D01*
X782Y551D01*
X783Y551D01*
X783Y553D01*
X784Y553D01*
X784Y554D01*
X784Y554D01*
X784Y555D01*
X785Y555D01*
X785Y556D01*
X786Y556D01*
X786Y557D01*
X787Y557D01*
X787Y558D01*
X787Y558D01*
X787Y558D01*
X788Y558D01*
X788Y559D01*
X789Y559D01*
X789Y560D01*
X789Y560D01*
X789Y561D01*
X791Y561D01*
X791Y561D01*
X793Y561D01*
X793Y562D01*
X794Y562D01*
X794Y563D01*
X803Y563D01*
G37*
D02*
G36*
X921Y558D02*
X921Y557D01*
X891Y557D01*
X891Y558D01*
X921Y558D01*
G37*
D02*
G36*
X921Y558D02*
X921Y557D01*
X891Y557D01*
X891Y558D01*
X921Y558D01*
G37*
D02*
G36*
X921Y557D02*
X921Y532D01*
X880Y532D01*
X880Y534D01*
X880Y534D01*
X880Y535D01*
X882Y535D01*
X882Y536D01*
X883Y536D01*
X883Y537D01*
X883Y537D01*
X883Y538D01*
X884Y538D01*
X884Y540D01*
X885Y540D01*
X885Y541D01*
X886Y541D01*
X886Y542D01*
X886Y542D01*
X886Y544D01*
X887Y544D01*
X887Y545D01*
X888Y545D01*
X888Y547D01*
X888Y547D01*
X888Y548D01*
X889Y548D01*
X889Y550D01*
X890Y550D01*
X890Y553D01*
X891Y553D01*
X891Y556D01*
X891Y556D01*
X891Y557D01*
X921Y557D01*
G37*
D02*
G36*
X812Y556D02*
X812Y552D01*
X813Y552D01*
X813Y545D01*
X812Y545D01*
X812Y542D01*
X811Y542D01*
X811Y540D01*
X810Y540D01*
X810Y538D01*
X810Y538D01*
X810Y537D01*
X802Y537D01*
X802Y535D01*
X802Y535D01*
X802Y535D01*
X797Y535D01*
X797Y536D01*
X797Y536D01*
X797Y537D01*
X796Y537D01*
X796Y542D01*
X795Y542D01*
X795Y544D01*
X794Y544D01*
X794Y545D01*
X794Y545D01*
X794Y548D01*
X793Y548D01*
X793Y550D01*
X794Y550D01*
X794Y551D01*
X795Y551D01*
X795Y552D01*
X797Y552D01*
X797Y553D01*
X798Y553D01*
X798Y553D01*
X800Y553D01*
X800Y554D01*
X800Y554D01*
X800Y556D01*
X812Y556D01*
G37*
D02*
G36*
X785Y549D02*
X785Y548D01*
X778Y548D01*
X778Y549D01*
X785Y549D01*
G37*
D02*
G36*
X785Y549D02*
X785Y548D01*
X778Y548D01*
X778Y549D01*
X785Y549D01*
G37*
D02*
G36*
X784Y548D02*
X784Y547D01*
X784Y547D01*
X784Y545D01*
X783Y545D01*
X783Y544D01*
X782Y544D01*
X782Y541D01*
X781Y541D01*
X781Y538D01*
X781Y538D01*
X781Y532D01*
X780Y532D01*
X780Y530D01*
X781Y530D01*
X781Y529D01*
X780Y529D01*
X780Y526D01*
X781Y526D01*
X781Y524D01*
X782Y524D01*
X782Y522D01*
X783Y522D01*
X783Y519D01*
X784Y519D01*
X784Y519D01*
X784Y519D01*
X784Y517D01*
X785Y517D01*
X785Y511D01*
X780Y511D01*
X780Y517D01*
X779Y517D01*
X779Y522D01*
X779Y522D01*
X779Y527D01*
X778Y527D01*
X778Y548D01*
X784Y548D01*
G37*
D02*
G36*
X789Y542D02*
X789Y542D01*
X789Y542D01*
X789Y540D01*
X791Y540D01*
X791Y539D01*
X792Y539D01*
X792Y538D01*
X792Y538D01*
X792Y537D01*
X793Y537D01*
X793Y537D01*
X794Y537D01*
X794Y536D01*
X794Y536D01*
X794Y535D01*
X796Y535D01*
X796Y535D01*
X785Y535D01*
X785Y536D01*
X786Y536D01*
X786Y539D01*
X787Y539D01*
X787Y540D01*
X787Y540D01*
X787Y541D01*
X788Y541D01*
X788Y542D01*
X789Y542D01*
G37*
D02*
G36*
X809Y537D02*
X809Y535D01*
X808Y535D01*
X808Y535D01*
X807Y535D01*
X807Y532D01*
X807Y532D01*
X807Y530D01*
X806Y530D01*
X806Y529D01*
X805Y529D01*
X805Y527D01*
X805Y527D01*
X805Y525D01*
X804Y525D01*
X804Y524D01*
X803Y524D01*
X803Y521D01*
X802Y521D01*
X802Y519D01*
X802Y519D01*
X802Y516D01*
X799Y516D01*
X799Y517D01*
X800Y517D01*
X800Y519D01*
X800Y519D01*
X800Y522D01*
X801Y522D01*
X801Y526D01*
X802Y526D01*
X802Y529D01*
X802Y529D01*
X802Y530D01*
X803Y530D01*
X803Y533D01*
X804Y533D01*
X804Y535D01*
X805Y535D01*
X805Y537D01*
X809Y537D01*
G37*
D02*
G36*
X878Y535D02*
X878Y532D01*
X877Y532D01*
X877Y533D01*
X878Y533D01*
X878Y535D01*
X878Y535D01*
G37*
D02*
G36*
X802Y535D02*
X802Y534D01*
X784Y534D01*
X784Y535D01*
X802Y535D01*
G37*
D02*
G36*
X802Y535D02*
X802Y534D01*
X784Y534D01*
X784Y535D01*
X802Y535D01*
G37*
D02*
G36*
X801Y534D02*
X801Y532D01*
X800Y532D01*
X800Y531D01*
X800Y531D01*
X800Y529D01*
X799Y529D01*
X799Y525D01*
X798Y525D01*
X798Y521D01*
X797Y521D01*
X797Y516D01*
X792Y516D01*
X792Y517D01*
X792Y517D01*
X792Y519D01*
X791Y519D01*
X791Y521D01*
X790Y521D01*
X790Y522D01*
X789Y522D01*
X789Y523D01*
X789Y523D01*
X789Y524D01*
X788Y524D01*
X788Y524D01*
X787Y524D01*
X787Y525D01*
X787Y525D01*
X787Y526D01*
X786Y526D01*
X786Y527D01*
X785Y527D01*
X785Y528D01*
X784Y528D01*
X784Y529D01*
X784Y529D01*
X784Y529D01*
X783Y529D01*
X783Y531D01*
X784Y531D01*
X784Y532D01*
X784Y532D01*
X784Y534D01*
X801Y534D01*
G37*
D02*
G36*
X921Y532D02*
X921Y532D01*
X877Y532D01*
X877Y532D01*
X921Y532D01*
G37*
D02*
G36*
X921Y532D02*
X921Y532D01*
X877Y532D01*
X877Y532D01*
X921Y532D01*
G37*
D02*
G36*
X921Y532D02*
X921Y498D01*
X858Y498D01*
X858Y499D01*
X859Y499D01*
X859Y501D01*
X860Y501D01*
X860Y502D01*
X860Y502D01*
X860Y503D01*
X861Y503D01*
X861Y504D01*
X862Y504D01*
X862Y506D01*
X862Y506D01*
X862Y507D01*
X863Y507D01*
X863Y508D01*
X864Y508D01*
X864Y510D01*
X865Y510D01*
X865Y511D01*
X865Y511D01*
X865Y513D01*
X866Y513D01*
X866Y514D01*
X867Y514D01*
X867Y514D01*
X867Y514D01*
X867Y516D01*
X868Y516D01*
X868Y517D01*
X869Y517D01*
X869Y519D01*
X870Y519D01*
X870Y520D01*
X870Y520D01*
X870Y522D01*
X871Y522D01*
X871Y523D01*
X872Y523D01*
X872Y524D01*
X873Y524D01*
X873Y525D01*
X873Y525D01*
X873Y526D01*
X874Y526D01*
X874Y528D01*
X875Y528D01*
X875Y529D01*
X875Y529D01*
X875Y530D01*
X876Y530D01*
X876Y532D01*
X921Y532D01*
G37*
D02*
G36*
X637Y531D02*
X637Y529D01*
X636Y529D01*
X636Y527D01*
X635Y527D01*
X635Y524D01*
X635Y524D01*
X635Y522D01*
X634Y522D01*
X634Y521D01*
X633Y521D01*
X633Y520D01*
X630Y520D01*
X630Y519D01*
X626Y519D01*
X626Y519D01*
X624Y519D01*
X624Y518D01*
X621Y518D01*
X621Y517D01*
X619Y517D01*
X619Y516D01*
X617Y516D01*
X617Y516D01*
X614Y516D01*
X614Y515D01*
X612Y515D01*
X612Y514D01*
X608Y514D01*
X608Y514D01*
X604Y514D01*
X604Y513D01*
X603Y513D01*
X603Y512D01*
X600Y512D01*
X600Y511D01*
X598Y511D01*
X598Y511D01*
X596Y511D01*
X596Y510D01*
X593Y510D01*
X593Y509D01*
X591Y509D01*
X591Y509D01*
X586Y509D01*
X586Y508D01*
X583Y508D01*
X583Y507D01*
X581Y507D01*
X581Y506D01*
X578Y506D01*
X578Y506D01*
X577Y506D01*
X577Y505D01*
X575Y505D01*
X575Y504D01*
X572Y504D01*
X572Y503D01*
X567Y503D01*
X567Y503D01*
X565Y503D01*
X565Y502D01*
X562Y502D01*
X562Y501D01*
X560Y501D01*
X560Y501D01*
X557Y501D01*
X557Y500D01*
X556Y500D01*
X556Y499D01*
X553Y499D01*
X553Y498D01*
X549Y498D01*
X549Y498D01*
X547Y498D01*
X547Y497D01*
X544Y497D01*
X544Y496D01*
X541Y496D01*
X541Y496D01*
X539Y496D01*
X539Y495D01*
X536Y495D01*
X536Y494D01*
X535Y494D01*
X535Y493D01*
X530Y493D01*
X530Y493D01*
X528Y493D01*
X528Y492D01*
X525Y492D01*
X525Y491D01*
X523Y491D01*
X523Y490D01*
X520Y490D01*
X520Y490D01*
X518Y490D01*
X518Y489D01*
X515Y489D01*
X515Y488D01*
X514Y488D01*
X514Y488D01*
X509Y488D01*
X509Y487D01*
X507Y487D01*
X507Y486D01*
X504Y486D01*
X504Y485D01*
X502Y485D01*
X502Y485D01*
X500Y485D01*
X500Y484D01*
X497Y484D01*
X497Y483D01*
X494Y483D01*
X494Y483D01*
X490Y483D01*
X490Y482D01*
X488Y482D01*
X488Y481D01*
X485Y481D01*
X485Y480D01*
X483Y480D01*
X483Y480D01*
X412Y480D01*
X412Y480D01*
X415Y480D01*
X415Y481D01*
X418Y481D01*
X418Y482D01*
X421Y482D01*
X421Y483D01*
X425Y483D01*
X425Y483D01*
X429Y483D01*
X429Y484D01*
X432Y484D01*
X432Y485D01*
X434Y485D01*
X434Y485D01*
X437Y485D01*
X437Y486D01*
X440Y486D01*
X440Y487D01*
X442Y487D01*
X442Y488D01*
X446Y488D01*
X446Y488D01*
X450Y488D01*
X450Y489D01*
X454Y489D01*
X454Y490D01*
X456Y490D01*
X456Y490D01*
X459Y490D01*
X459Y491D01*
X462Y491D01*
X462Y492D01*
X465Y492D01*
X465Y493D01*
X467Y493D01*
X467Y493D01*
X473Y493D01*
X473Y494D01*
X476Y494D01*
X476Y495D01*
X479Y495D01*
X479Y496D01*
X481Y496D01*
X481Y496D01*
X484Y496D01*
X484Y497D01*
X487Y497D01*
X487Y498D01*
X489Y498D01*
X489Y498D01*
X495Y498D01*
X495Y499D01*
X498Y499D01*
X498Y500D01*
X501Y500D01*
X501Y501D01*
X504Y501D01*
X504Y501D01*
X507Y501D01*
X507Y502D01*
X510Y502D01*
X510Y503D01*
X513Y503D01*
X513Y503D01*
X517Y503D01*
X517Y504D01*
X520Y504D01*
X520Y505D01*
X523Y505D01*
X523Y506D01*
X526Y506D01*
X526Y506D01*
X529Y506D01*
X529Y507D01*
X531Y507D01*
X531Y508D01*
X535Y508D01*
X535Y509D01*
X539Y509D01*
X539Y509D01*
X543Y509D01*
X543Y510D01*
X545Y510D01*
X545Y511D01*
X548Y511D01*
X548Y511D01*
X551Y511D01*
X551Y512D01*
X554Y512D01*
X554Y513D01*
X556Y513D01*
X556Y514D01*
X560Y514D01*
X560Y514D01*
X565Y514D01*
X565Y515D01*
X567Y515D01*
X567Y516D01*
X570Y516D01*
X570Y516D01*
X573Y516D01*
X573Y517D01*
X576Y517D01*
X576Y518D01*
X578Y518D01*
X578Y519D01*
X582Y519D01*
X582Y519D01*
X586Y519D01*
X586Y520D01*
X590Y520D01*
X590Y521D01*
X593Y521D01*
X593Y522D01*
X595Y522D01*
X595Y522D01*
X599Y522D01*
X599Y523D01*
X601Y523D01*
X601Y524D01*
X603Y524D01*
X603Y524D01*
X609Y524D01*
X609Y525D01*
X612Y525D01*
X612Y526D01*
X615Y526D01*
X615Y527D01*
X618Y527D01*
X618Y527D01*
X620Y527D01*
X620Y528D01*
X623Y528D01*
X623Y529D01*
X626Y529D01*
X626Y529D01*
X631Y529D01*
X631Y530D01*
X634Y530D01*
X634Y531D01*
X637Y531D01*
G37*
D02*
G36*
X812Y529D02*
X812Y524D01*
X813Y524D01*
X813Y517D01*
X813Y517D01*
X813Y513D01*
X814Y513D01*
X814Y506D01*
X815Y506D01*
X815Y503D01*
X815Y503D01*
X815Y500D01*
X816Y500D01*
X816Y497D01*
X817Y497D01*
X817Y494D01*
X818Y494D01*
X818Y493D01*
X818Y493D01*
X818Y493D01*
X810Y493D01*
X810Y492D01*
X808Y492D01*
X808Y491D01*
X807Y491D01*
X807Y490D01*
X807Y490D01*
X807Y489D01*
X806Y489D01*
X806Y488D01*
X798Y488D01*
X798Y488D01*
X800Y488D01*
X800Y489D01*
X801Y489D01*
X801Y490D01*
X802Y490D01*
X802Y492D01*
X802Y492D01*
X802Y493D01*
X803Y493D01*
X803Y493D01*
X804Y493D01*
X804Y495D01*
X805Y495D01*
X805Y497D01*
X805Y497D01*
X805Y502D01*
X806Y502D01*
X806Y507D01*
X807Y507D01*
X807Y515D01*
X807Y515D01*
X807Y519D01*
X808Y519D01*
X808Y521D01*
X809Y521D01*
X809Y524D01*
X810Y524D01*
X810Y525D01*
X810Y525D01*
X810Y527D01*
X811Y527D01*
X811Y529D01*
X812Y529D01*
G37*
D02*
G36*
X633Y517D02*
X633Y516D01*
X633Y516D01*
X633Y514D01*
X632Y514D01*
X632Y513D01*
X631Y513D01*
X631Y511D01*
X630Y511D01*
X630Y509D01*
X630Y509D01*
X630Y507D01*
X629Y507D01*
X629Y504D01*
X628Y504D01*
X628Y503D01*
X627Y503D01*
X627Y501D01*
X627Y501D01*
X627Y500D01*
X626Y500D01*
X626Y498D01*
X625Y498D01*
X625Y497D01*
X625Y497D01*
X625Y496D01*
X624Y496D01*
X624Y493D01*
X623Y493D01*
X623Y492D01*
X622Y492D01*
X622Y490D01*
X622Y490D01*
X622Y489D01*
X621Y489D01*
X621Y488D01*
X620Y488D01*
X620Y487D01*
X620Y487D01*
X620Y485D01*
X619Y485D01*
X619Y483D01*
X618Y483D01*
X618Y482D01*
X617Y482D01*
X617Y481D01*
X617Y481D01*
X617Y480D01*
X616Y480D01*
X616Y479D01*
X615Y479D01*
X615Y478D01*
X614Y478D01*
X614Y477D01*
X614Y477D01*
X614Y476D01*
X613Y476D01*
X613Y474D01*
X612Y474D01*
X612Y472D01*
X612Y472D01*
X612Y470D01*
X611Y470D01*
X611Y464D01*
X612Y464D01*
X612Y463D01*
X612Y463D01*
X612Y462D01*
X613Y462D01*
X613Y460D01*
X614Y460D01*
X614Y459D01*
X614Y459D01*
X614Y459D01*
X615Y459D01*
X615Y458D01*
X616Y458D01*
X616Y457D01*
X617Y457D01*
X617Y456D01*
X620Y456D01*
X620Y456D01*
X455Y456D01*
X455Y456D01*
X458Y456D01*
X458Y457D01*
X460Y457D01*
X460Y458D01*
X462Y458D01*
X462Y459D01*
X463Y459D01*
X463Y459D01*
X466Y459D01*
X466Y460D01*
X467Y460D01*
X467Y461D01*
X469Y461D01*
X469Y462D01*
X472Y462D01*
X472Y462D01*
X475Y462D01*
X475Y463D01*
X476Y463D01*
X476Y464D01*
X479Y464D01*
X479Y464D01*
X480Y464D01*
X480Y465D01*
X482Y465D01*
X482Y466D01*
X484Y466D01*
X484Y467D01*
X486Y467D01*
X486Y467D01*
X489Y467D01*
X489Y468D01*
X492Y468D01*
X492Y469D01*
X493Y469D01*
X493Y469D01*
X495Y469D01*
X495Y470D01*
X497Y470D01*
X497Y471D01*
X499Y471D01*
X499Y472D01*
X501Y472D01*
X501Y472D01*
X504Y472D01*
X504Y473D01*
X506Y473D01*
X506Y474D01*
X508Y474D01*
X508Y475D01*
X510Y475D01*
X510Y475D01*
X512Y475D01*
X512Y476D01*
X514Y476D01*
X514Y477D01*
X515Y477D01*
X515Y477D01*
X519Y477D01*
X519Y478D01*
X521Y478D01*
X521Y479D01*
X523Y479D01*
X523Y480D01*
X525Y480D01*
X525Y480D01*
X526Y480D01*
X526Y481D01*
X528Y481D01*
X528Y482D01*
X530Y482D01*
X530Y483D01*
X534Y483D01*
X534Y483D01*
X536Y483D01*
X536Y484D01*
X538Y484D01*
X538Y485D01*
X539Y485D01*
X539Y485D01*
X541Y485D01*
X541Y486D01*
X543Y486D01*
X543Y487D01*
X545Y487D01*
X545Y488D01*
X547Y488D01*
X547Y488D01*
X550Y488D01*
X550Y489D01*
X552Y489D01*
X552Y490D01*
X554Y490D01*
X554Y490D01*
X556Y490D01*
X556Y491D01*
X558Y491D01*
X558Y492D01*
X560Y492D01*
X560Y493D01*
X561Y493D01*
X561Y493D01*
X565Y493D01*
X565Y494D01*
X567Y494D01*
X567Y495D01*
X569Y495D01*
X569Y496D01*
X571Y496D01*
X571Y496D01*
X573Y496D01*
X573Y497D01*
X575Y497D01*
X575Y498D01*
X576Y498D01*
X576Y498D01*
X580Y498D01*
X580Y499D01*
X582Y499D01*
X582Y500D01*
X584Y500D01*
X584Y501D01*
X586Y501D01*
X586Y501D01*
X587Y501D01*
X587Y502D01*
X589Y502D01*
X589Y503D01*
X591Y503D01*
X591Y503D01*
X594Y503D01*
X594Y504D01*
X596Y504D01*
X596Y505D01*
X598Y505D01*
X598Y506D01*
X601Y506D01*
X601Y506D01*
X602Y506D01*
X602Y507D01*
X604Y507D01*
X604Y508D01*
X606Y508D01*
X606Y509D01*
X609Y509D01*
X609Y509D01*
X612Y509D01*
X612Y510D01*
X613Y510D01*
X613Y511D01*
X615Y511D01*
X615Y511D01*
X617Y511D01*
X617Y512D01*
X619Y512D01*
X619Y513D01*
X620Y513D01*
X620Y514D01*
X622Y514D01*
X622Y514D01*
X626Y514D01*
X626Y515D01*
X628Y515D01*
X628Y516D01*
X630Y516D01*
X630Y516D01*
X632Y516D01*
X632Y517D01*
X633Y517D01*
G37*
D02*
G36*
X802Y516D02*
X802Y516D01*
X793Y516D01*
X793Y516D01*
X802Y516D01*
G37*
D02*
G36*
X802Y516D02*
X802Y516D01*
X793Y516D01*
X793Y516D01*
X802Y516D01*
G37*
D02*
G36*
X802Y516D02*
X802Y514D01*
X801Y514D01*
X801Y512D01*
X797Y512D01*
X797Y514D01*
X796Y514D01*
X796Y514D01*
X794Y514D01*
X794Y515D01*
X794Y515D01*
X794Y516D01*
X802Y516D01*
G37*
D02*
G36*
X791Y513D02*
X791Y512D01*
X789Y512D01*
X789Y513D01*
X791Y513D01*
G37*
D02*
G36*
X801Y512D02*
X801Y511D01*
X788Y511D01*
X788Y512D01*
X801Y512D01*
G37*
D02*
G36*
X801Y512D02*
X801Y511D01*
X788Y511D01*
X788Y512D01*
X801Y512D01*
G37*
D02*
G36*
X801Y511D02*
X801Y511D01*
X787Y511D01*
X787Y511D01*
X801Y511D01*
G37*
D02*
G36*
X801Y511D02*
X801Y510D01*
X781Y510D01*
X781Y511D01*
X801Y511D01*
G37*
D02*
G36*
X801Y511D02*
X801Y510D01*
X781Y510D01*
X781Y511D01*
X801Y511D01*
G37*
D02*
G36*
X801Y510D02*
X801Y506D01*
X800Y506D01*
X800Y506D01*
X792Y506D01*
X792Y505D01*
X790Y505D01*
X790Y504D01*
X789Y504D01*
X789Y503D01*
X788Y503D01*
X788Y503D01*
X787Y503D01*
X787Y502D01*
X787Y502D01*
X787Y498D01*
X784Y498D01*
X784Y499D01*
X783Y499D01*
X783Y502D01*
X782Y502D01*
X782Y503D01*
X781Y503D01*
X781Y507D01*
X781Y507D01*
X781Y510D01*
X801Y510D01*
G37*
D02*
G36*
X800Y506D02*
X800Y501D01*
X800Y501D01*
X800Y496D01*
X799Y496D01*
X799Y495D01*
X798Y495D01*
X798Y494D01*
X797Y494D01*
X797Y493D01*
X797Y493D01*
X797Y493D01*
X796Y493D01*
X796Y494D01*
X797Y494D01*
X797Y496D01*
X797Y496D01*
X797Y503D01*
X797Y503D01*
X797Y503D01*
X796Y503D01*
X796Y504D01*
X795Y504D01*
X795Y505D01*
X794Y505D01*
X794Y506D01*
X800Y506D01*
G37*
D02*
G36*
X857Y503D02*
X857Y501D01*
X857Y501D01*
X857Y498D01*
X855Y498D01*
X855Y501D01*
X856Y501D01*
X856Y502D01*
X857Y502D01*
X857Y503D01*
X857Y503D01*
G37*
D02*
G36*
X781Y501D02*
X781Y499D01*
X781Y499D01*
X781Y498D01*
X780Y498D01*
X780Y501D01*
X781Y501D01*
G37*
D02*
G36*
X921Y498D02*
X921Y498D01*
X854Y498D01*
X854Y498D01*
X921Y498D01*
G37*
D02*
G36*
X921Y498D02*
X921Y498D01*
X854Y498D01*
X854Y498D01*
X921Y498D01*
G37*
D02*
G36*
X787Y498D02*
X787Y498D01*
X780Y498D01*
X780Y498D01*
X787Y498D01*
G37*
D02*
G36*
X787Y498D02*
X787Y498D01*
X780Y498D01*
X780Y498D01*
X787Y498D01*
G37*
D02*
G36*
X921Y498D02*
X921Y438D01*
X850Y438D01*
X850Y440D01*
X849Y440D01*
X849Y441D01*
X849Y441D01*
X849Y444D01*
X848Y444D01*
X848Y462D01*
X849Y462D01*
X849Y468D01*
X849Y468D01*
X849Y475D01*
X850Y475D01*
X850Y479D01*
X851Y479D01*
X851Y483D01*
X852Y483D01*
X852Y486D01*
X852Y486D01*
X852Y489D01*
X853Y489D01*
X853Y493D01*
X854Y493D01*
X854Y497D01*
X854Y497D01*
X854Y498D01*
X921Y498D01*
G37*
D02*
G36*
X821Y498D02*
X821Y496D01*
X822Y496D01*
X822Y492D01*
X820Y492D01*
X820Y493D01*
X820Y493D01*
X820Y498D01*
X821Y498D01*
G37*
D02*
G36*
X787Y498D02*
X787Y495D01*
X787Y495D01*
X787Y493D01*
X787Y493D01*
X787Y494D01*
X786Y494D01*
X786Y496D01*
X785Y496D01*
X785Y496D01*
X784Y496D01*
X784Y498D01*
X787Y498D01*
G37*
D02*
G36*
X781Y498D02*
X781Y496D01*
X782Y496D01*
X782Y495D01*
X783Y495D01*
X783Y493D01*
X784Y493D01*
X784Y493D01*
X784Y493D01*
X784Y492D01*
X785Y492D01*
X785Y491D01*
X786Y491D01*
X786Y490D01*
X787Y490D01*
X787Y489D01*
X787Y489D01*
X787Y488D01*
X789Y488D01*
X789Y488D01*
X780Y488D01*
X780Y498D01*
X781Y498D01*
G37*
D02*
G36*
X818Y493D02*
X818Y492D01*
X813Y492D01*
X813Y493D01*
X818Y493D01*
G37*
D02*
G36*
X823Y492D02*
X823Y491D01*
X814Y491D01*
X814Y492D01*
X823Y492D01*
G37*
D02*
G36*
X823Y492D02*
X823Y491D01*
X814Y491D01*
X814Y492D01*
X823Y492D01*
G37*
D02*
G36*
X823Y491D02*
X823Y490D01*
X823Y490D01*
X823Y488D01*
X824Y488D01*
X824Y487D01*
X825Y487D01*
X825Y485D01*
X826Y485D01*
X826Y484D01*
X826Y484D01*
X826Y483D01*
X827Y483D01*
X827Y482D01*
X828Y482D01*
X828Y479D01*
X828Y479D01*
X828Y478D01*
X829Y478D01*
X829Y477D01*
X830Y477D01*
X830Y476D01*
X831Y476D01*
X831Y475D01*
X831Y475D01*
X831Y473D01*
X832Y473D01*
X832Y472D01*
X833Y472D01*
X833Y470D01*
X820Y470D01*
X820Y469D01*
X817Y469D01*
X817Y471D01*
X816Y471D01*
X816Y472D01*
X815Y472D01*
X815Y472D01*
X815Y472D01*
X815Y474D01*
X814Y474D01*
X814Y475D01*
X813Y475D01*
X813Y477D01*
X813Y477D01*
X813Y480D01*
X812Y480D01*
X812Y487D01*
X814Y487D01*
X814Y488D01*
X815Y488D01*
X815Y491D01*
X823Y491D01*
G37*
D02*
G36*
X806Y488D02*
X806Y487D01*
X780Y487D01*
X780Y488D01*
X806Y488D01*
G37*
D02*
G36*
X806Y488D02*
X806Y487D01*
X780Y487D01*
X780Y488D01*
X806Y488D01*
G37*
D02*
G36*
X805Y487D02*
X805Y481D01*
X806Y481D01*
X806Y477D01*
X807Y477D01*
X807Y474D01*
X807Y474D01*
X807Y472D01*
X808Y472D01*
X808Y471D01*
X809Y471D01*
X809Y469D01*
X810Y469D01*
X810Y468D01*
X810Y468D01*
X810Y467D01*
X810Y467D01*
X810Y467D01*
X808Y467D01*
X808Y466D01*
X807Y466D01*
X807Y465D01*
X807Y465D01*
X807Y464D01*
X806Y464D01*
X806Y464D01*
X805Y464D01*
X805Y463D01*
X781Y463D01*
X781Y473D01*
X780Y473D01*
X780Y474D01*
X781Y474D01*
X781Y476D01*
X780Y476D01*
X780Y487D01*
X805Y487D01*
G37*
D02*
G36*
X481Y480D02*
X481Y479D01*
X367Y479D01*
X367Y480D01*
X481Y480D01*
G37*
D02*
G36*
X481Y480D02*
X481Y479D01*
X367Y479D01*
X367Y480D01*
X481Y480D01*
G37*
D02*
G36*
X478Y479D02*
X478Y478D01*
X476Y478D01*
X476Y477D01*
X471Y477D01*
X471Y477D01*
X468Y477D01*
X468Y476D01*
X467Y476D01*
X467Y475D01*
X464Y475D01*
X464Y475D01*
X462Y475D01*
X462Y474D01*
X459Y474D01*
X459Y473D01*
X457Y473D01*
X457Y472D01*
X453Y472D01*
X453Y472D01*
X450Y472D01*
X450Y471D01*
X447Y471D01*
X447Y470D01*
X446Y470D01*
X446Y469D01*
X443Y469D01*
X443Y469D01*
X441Y469D01*
X441Y468D01*
X438Y468D01*
X438Y467D01*
X434Y467D01*
X434Y467D01*
X432Y467D01*
X432Y466D01*
X429Y466D01*
X429Y465D01*
X427Y465D01*
X427Y464D01*
X424Y464D01*
X424Y464D01*
X421Y464D01*
X421Y463D01*
X420Y463D01*
X420Y462D01*
X417Y462D01*
X417Y462D01*
X413Y462D01*
X413Y461D01*
X411Y461D01*
X411Y460D01*
X408Y460D01*
X408Y459D01*
X406Y459D01*
X406Y459D01*
X403Y459D01*
X403Y458D01*
X402Y458D01*
X402Y456D01*
X405Y456D01*
X405Y456D01*
X407Y456D01*
X407Y455D01*
X408Y455D01*
X408Y454D01*
X411Y454D01*
X411Y454D01*
X413Y454D01*
X413Y453D01*
X415Y453D01*
X415Y452D01*
X418Y452D01*
X418Y451D01*
X421Y451D01*
X421Y451D01*
X424Y451D01*
X424Y450D01*
X426Y450D01*
X426Y449D01*
X427Y449D01*
X427Y449D01*
X430Y449D01*
X430Y448D01*
X367Y448D01*
X367Y479D01*
X478Y479D01*
G37*
D02*
G36*
X833Y470D02*
X833Y469D01*
X834Y469D01*
X834Y468D01*
X835Y468D01*
X835Y467D01*
X833Y467D01*
X833Y468D01*
X833Y468D01*
X833Y469D01*
X831Y469D01*
X831Y469D01*
X827Y469D01*
X827Y470D01*
X833Y470D01*
G37*
D02*
G36*
X779Y464D02*
X779Y463D01*
X779Y463D01*
X779Y464D01*
X779Y464D01*
G37*
D02*
G36*
X804Y463D02*
X804Y462D01*
X779Y462D01*
X779Y463D01*
X804Y463D01*
G37*
D02*
G36*
X804Y463D02*
X804Y462D01*
X779Y462D01*
X779Y463D01*
X804Y463D01*
G37*
D02*
G36*
X803Y462D02*
X803Y462D01*
X802Y462D01*
X802Y461D01*
X802Y461D01*
X802Y460D01*
X801Y460D01*
X801Y459D01*
X800Y459D01*
X800Y457D01*
X800Y457D01*
X800Y456D01*
X799Y456D01*
X799Y454D01*
X798Y454D01*
X798Y444D01*
X799Y444D01*
X799Y441D01*
X800Y441D01*
X800Y440D01*
X800Y440D01*
X800Y438D01*
X801Y438D01*
X801Y437D01*
X802Y437D01*
X802Y436D01*
X802Y436D01*
X802Y435D01*
X803Y435D01*
X803Y434D01*
X804Y434D01*
X804Y433D01*
X805Y433D01*
X805Y432D01*
X794Y432D01*
X794Y431D01*
X792Y431D01*
X792Y430D01*
X790Y430D01*
X790Y430D01*
X789Y430D01*
X789Y429D01*
X788Y429D01*
X788Y428D01*
X787Y428D01*
X787Y428D01*
X787Y428D01*
X787Y426D01*
X786Y426D01*
X786Y425D01*
X785Y425D01*
X785Y424D01*
X784Y424D01*
X784Y423D01*
X784Y423D01*
X784Y423D01*
X783Y423D01*
X783Y422D01*
X782Y422D01*
X782Y420D01*
X781Y420D01*
X781Y420D01*
X780Y420D01*
X780Y421D01*
X781Y421D01*
X781Y436D01*
X780Y436D01*
X780Y455D01*
X779Y455D01*
X779Y461D01*
X779Y461D01*
X779Y462D01*
X803Y462D01*
G37*
D02*
G36*
X629Y456D02*
X629Y456D01*
X625Y456D01*
X625Y456D01*
X629Y456D01*
G37*
D02*
G36*
X628Y456D02*
X628Y455D01*
X453Y455D01*
X453Y456D01*
X628Y456D01*
G37*
D02*
G36*
X628Y456D02*
X628Y455D01*
X453Y455D01*
X453Y456D01*
X628Y456D01*
G37*
D02*
G36*
X627Y455D02*
X627Y454D01*
X627Y454D01*
X627Y453D01*
X626Y453D01*
X626Y451D01*
X625Y451D01*
X625Y450D01*
X625Y450D01*
X625Y448D01*
X432Y448D01*
X432Y449D01*
X434Y449D01*
X434Y449D01*
X436Y449D01*
X436Y450D01*
X438Y450D01*
X438Y451D01*
X440Y451D01*
X440Y451D01*
X443Y451D01*
X443Y452D01*
X445Y452D01*
X445Y453D01*
X447Y453D01*
X447Y454D01*
X449Y454D01*
X449Y454D01*
X451Y454D01*
X451Y455D01*
X627Y455D01*
G37*
D02*
G36*
X843Y454D02*
X843Y451D01*
X844Y451D01*
X844Y450D01*
X844Y450D01*
X844Y448D01*
X845Y448D01*
X845Y446D01*
X846Y446D01*
X846Y445D01*
X847Y445D01*
X847Y443D01*
X847Y443D01*
X847Y441D01*
X848Y441D01*
X848Y438D01*
X849Y438D01*
X849Y438D01*
X842Y438D01*
X842Y447D01*
X843Y447D01*
X843Y448D01*
X842Y448D01*
X842Y454D01*
X843Y454D01*
G37*
D02*
G36*
X625Y448D02*
X625Y447D01*
X367Y447D01*
X367Y448D01*
X625Y448D01*
G37*
D02*
G36*
X625Y448D02*
X625Y447D01*
X367Y447D01*
X367Y448D01*
X625Y448D01*
G37*
D02*
G36*
X625Y447D02*
X625Y446D01*
X624Y446D01*
X624Y443D01*
X625Y443D01*
X625Y441D01*
X367Y441D01*
X367Y447D01*
X625Y447D01*
G37*
D02*
G36*
X629Y444D02*
X629Y441D01*
X626Y441D01*
X626Y442D01*
X627Y442D01*
X627Y443D01*
X627Y443D01*
X627Y443D01*
X628Y443D01*
X628Y444D01*
X629Y444D01*
G37*
D02*
G36*
X629Y441D02*
X629Y441D01*
X367Y441D01*
X367Y441D01*
X629Y441D01*
G37*
D02*
G36*
X629Y441D02*
X629Y441D01*
X367Y441D01*
X367Y441D01*
X629Y441D01*
G37*
D02*
G36*
X629Y441D02*
X629Y431D01*
X630Y431D01*
X630Y428D01*
X630Y428D01*
X630Y426D01*
X631Y426D01*
X631Y425D01*
X632Y425D01*
X632Y424D01*
X633Y424D01*
X633Y423D01*
X633Y423D01*
X633Y423D01*
X634Y423D01*
X634Y421D01*
X635Y421D01*
X635Y420D01*
X636Y420D01*
X636Y420D01*
X637Y420D01*
X637Y419D01*
X638Y419D01*
X638Y418D01*
X639Y418D01*
X639Y417D01*
X640Y417D01*
X640Y417D01*
X641Y417D01*
X641Y416D01*
X643Y416D01*
X643Y415D01*
X648Y415D01*
X648Y415D01*
X640Y415D01*
X640Y411D01*
X640Y411D01*
X640Y406D01*
X639Y406D01*
X639Y403D01*
X638Y403D01*
X638Y400D01*
X638Y400D01*
X638Y398D01*
X637Y398D01*
X637Y394D01*
X636Y394D01*
X636Y392D01*
X635Y392D01*
X635Y389D01*
X635Y389D01*
X635Y386D01*
X634Y386D01*
X634Y384D01*
X635Y384D01*
X635Y383D01*
X367Y383D01*
X367Y441D01*
X629Y441D01*
G37*
D02*
G36*
X921Y438D02*
X921Y437D01*
X842Y437D01*
X842Y438D01*
X921Y438D01*
G37*
D02*
G36*
X921Y438D02*
X921Y437D01*
X842Y437D01*
X842Y438D01*
X921Y438D01*
G37*
D02*
G36*
X921Y437D02*
X921Y360D01*
X850Y360D01*
X850Y362D01*
X849Y362D01*
X849Y363D01*
X848Y363D01*
X848Y365D01*
X847Y365D01*
X847Y365D01*
X847Y365D01*
X847Y367D01*
X846Y367D01*
X846Y368D01*
X845Y368D01*
X845Y368D01*
X844Y368D01*
X844Y370D01*
X844Y370D01*
X844Y372D01*
X843Y372D01*
X843Y375D01*
X842Y375D01*
X842Y378D01*
X841Y378D01*
X841Y381D01*
X841Y381D01*
X841Y389D01*
X840Y389D01*
X840Y399D01*
X841Y399D01*
X841Y412D01*
X841Y412D01*
X841Y420D01*
X842Y420D01*
X842Y430D01*
X843Y430D01*
X843Y431D01*
X842Y431D01*
X842Y437D01*
X921Y437D01*
G37*
D02*
G36*
X831Y435D02*
X831Y432D01*
X832Y432D01*
X832Y430D01*
X833Y430D01*
X833Y426D01*
X822Y426D01*
X822Y427D01*
X823Y427D01*
X823Y428D01*
X825Y428D01*
X825Y428D01*
X826Y428D01*
X826Y429D01*
X827Y429D01*
X827Y430D01*
X828Y430D01*
X828Y431D01*
X828Y431D01*
X828Y432D01*
X829Y432D01*
X829Y433D01*
X830Y433D01*
X830Y434D01*
X831Y434D01*
X831Y435D01*
X831Y435D01*
G37*
D02*
G36*
X806Y432D02*
X806Y431D01*
X807Y431D01*
X807Y430D01*
X807Y430D01*
X807Y430D01*
X809Y430D01*
X809Y429D01*
X810Y429D01*
X810Y428D01*
X812Y428D01*
X812Y428D01*
X813Y428D01*
X813Y427D01*
X815Y427D01*
X815Y426D01*
X799Y426D01*
X799Y427D01*
X800Y427D01*
X800Y428D01*
X800Y428D01*
X800Y428D01*
X801Y428D01*
X801Y430D01*
X800Y430D01*
X800Y431D01*
X800Y431D01*
X800Y432D01*
X806Y432D01*
G37*
D02*
G36*
X832Y426D02*
X832Y425D01*
X797Y425D01*
X797Y426D01*
X832Y426D01*
G37*
D02*
G36*
X832Y426D02*
X832Y425D01*
X797Y425D01*
X797Y426D01*
X832Y426D01*
G37*
D02*
G36*
X831Y425D02*
X831Y420D01*
X831Y420D01*
X831Y420D01*
X832Y420D01*
X832Y419D01*
X831Y419D01*
X831Y417D01*
X813Y417D01*
X813Y417D01*
X812Y417D01*
X812Y416D01*
X811Y416D01*
X811Y415D01*
X810Y415D01*
X810Y415D01*
X808Y415D01*
X808Y414D01*
X807Y414D01*
X807Y412D01*
X806Y412D01*
X806Y412D01*
X805Y412D01*
X805Y411D01*
X805Y411D01*
X805Y409D01*
X804Y409D01*
X804Y408D01*
X803Y408D01*
X803Y402D01*
X804Y402D01*
X804Y400D01*
X805Y400D01*
X805Y399D01*
X805Y399D01*
X805Y396D01*
X806Y396D01*
X806Y396D01*
X807Y396D01*
X807Y394D01*
X807Y394D01*
X807Y393D01*
X805Y393D01*
X805Y394D01*
X802Y394D01*
X802Y394D01*
X801Y394D01*
X801Y395D01*
X800Y395D01*
X800Y396D01*
X798Y396D01*
X798Y396D01*
X797Y396D01*
X797Y397D01*
X797Y397D01*
X797Y398D01*
X796Y398D01*
X796Y399D01*
X795Y399D01*
X795Y399D01*
X794Y399D01*
X794Y400D01*
X794Y400D01*
X794Y401D01*
X793Y401D01*
X793Y402D01*
X792Y402D01*
X792Y403D01*
X792Y403D01*
X792Y404D01*
X791Y404D01*
X791Y405D01*
X790Y405D01*
X790Y407D01*
X789Y407D01*
X789Y409D01*
X789Y409D01*
X789Y417D01*
X789Y417D01*
X789Y419D01*
X790Y419D01*
X790Y420D01*
X791Y420D01*
X791Y422D01*
X792Y422D01*
X792Y423D01*
X792Y423D01*
X792Y423D01*
X793Y423D01*
X793Y424D01*
X794Y424D01*
X794Y425D01*
X795Y425D01*
X795Y425D01*
X831Y425D01*
G37*
D02*
G36*
X779Y425D02*
X779Y421D01*
X779Y421D01*
X779Y420D01*
X778Y420D01*
X778Y425D01*
X779Y425D01*
G37*
D02*
G36*
X781Y420D02*
X781Y419D01*
X777Y419D01*
X777Y420D01*
X781Y420D01*
G37*
D02*
G36*
X781Y420D02*
X781Y419D01*
X777Y419D01*
X777Y420D01*
X781Y420D01*
G37*
D02*
G36*
X781Y419D02*
X781Y418D01*
X781Y418D01*
X781Y405D01*
X781Y405D01*
X781Y403D01*
X782Y403D01*
X782Y402D01*
X783Y402D01*
X783Y399D01*
X784Y399D01*
X784Y399D01*
X784Y399D01*
X784Y397D01*
X785Y397D01*
X785Y396D01*
X786Y396D01*
X786Y394D01*
X787Y394D01*
X787Y394D01*
X787Y394D01*
X787Y393D01*
X788Y393D01*
X788Y392D01*
X789Y392D01*
X789Y391D01*
X789Y391D01*
X789Y391D01*
X790Y391D01*
X790Y390D01*
X791Y390D01*
X791Y389D01*
X792Y389D01*
X792Y389D01*
X792Y389D01*
X792Y388D01*
X793Y388D01*
X793Y387D01*
X794Y387D01*
X794Y386D01*
X794Y386D01*
X794Y386D01*
X795Y386D01*
X795Y385D01*
X796Y385D01*
X796Y384D01*
X797Y384D01*
X797Y383D01*
X800Y383D01*
X800Y383D01*
X800Y383D01*
X800Y382D01*
X802Y382D01*
X802Y381D01*
X764Y381D01*
X764Y382D01*
X765Y382D01*
X765Y383D01*
X766Y383D01*
X766Y385D01*
X766Y385D01*
X766Y386D01*
X767Y386D01*
X767Y388D01*
X768Y388D01*
X768Y389D01*
X768Y389D01*
X768Y390D01*
X769Y390D01*
X769Y391D01*
X770Y391D01*
X770Y394D01*
X771Y394D01*
X771Y396D01*
X771Y396D01*
X771Y397D01*
X772Y397D01*
X772Y399D01*
X773Y399D01*
X773Y401D01*
X773Y401D01*
X773Y403D01*
X774Y403D01*
X774Y405D01*
X775Y405D01*
X775Y409D01*
X776Y409D01*
X776Y413D01*
X776Y413D01*
X776Y415D01*
X777Y415D01*
X777Y419D01*
X781Y419D01*
G37*
D02*
G36*
X831Y417D02*
X831Y413D01*
X830Y413D01*
X830Y414D01*
X828Y414D01*
X828Y415D01*
X826Y415D01*
X826Y415D01*
X823Y415D01*
X823Y416D01*
X819Y416D01*
X819Y417D01*
X817Y417D01*
X817Y417D01*
X831Y417D01*
G37*
D02*
G36*
X763Y385D02*
X763Y381D01*
X760Y381D01*
X760Y382D01*
X760Y382D01*
X760Y383D01*
X762Y383D01*
X762Y385D01*
X763Y385D01*
G37*
D02*
G36*
X637Y384D02*
X637Y383D01*
X636Y383D01*
X636Y384D01*
X637Y384D01*
G37*
D02*
G36*
X637Y383D02*
X637Y383D01*
X367Y383D01*
X367Y383D01*
X637Y383D01*
G37*
D02*
G36*
X637Y383D02*
X637Y383D01*
X367Y383D01*
X367Y383D01*
X637Y383D01*
G37*
D02*
G36*
X637Y383D02*
X637Y382D01*
X636Y382D01*
X636Y379D01*
X635Y379D01*
X635Y376D01*
X635Y376D01*
X635Y373D01*
X634Y373D01*
X634Y368D01*
X633Y368D01*
X633Y364D01*
X633Y364D01*
X633Y362D01*
X632Y362D01*
X632Y358D01*
X631Y358D01*
X631Y355D01*
X367Y355D01*
X367Y383D01*
X637Y383D01*
G37*
D02*
G36*
X803Y381D02*
X803Y381D01*
X760Y381D01*
X760Y381D01*
X803Y381D01*
G37*
D02*
G36*
X803Y381D02*
X803Y381D01*
X760Y381D01*
X760Y381D01*
X803Y381D01*
G37*
D02*
G36*
X805Y381D02*
X805Y380D01*
X805Y380D01*
X805Y379D01*
X806Y379D01*
X806Y378D01*
X802Y378D01*
X802Y378D01*
X801Y378D01*
X801Y377D01*
X800Y377D01*
X800Y376D01*
X799Y376D01*
X799Y376D01*
X798Y376D01*
X798Y375D01*
X797Y375D01*
X797Y373D01*
X797Y373D01*
X797Y372D01*
X796Y372D01*
X796Y370D01*
X795Y370D01*
X795Y368D01*
X749Y368D01*
X749Y369D01*
X750Y369D01*
X750Y370D01*
X750Y370D01*
X750Y370D01*
X751Y370D01*
X751Y371D01*
X752Y371D01*
X752Y372D01*
X753Y372D01*
X753Y373D01*
X753Y373D01*
X753Y373D01*
X754Y373D01*
X754Y375D01*
X755Y375D01*
X755Y376D01*
X755Y376D01*
X755Y376D01*
X756Y376D01*
X756Y377D01*
X757Y377D01*
X757Y378D01*
X758Y378D01*
X758Y379D01*
X759Y379D01*
X759Y381D01*
X805Y381D01*
G37*
D02*
G36*
X748Y371D02*
X748Y370D01*
X747Y370D01*
X747Y369D01*
X748Y369D01*
X748Y368D01*
X746Y368D01*
X746Y369D01*
X747Y369D01*
X747Y370D01*
X747Y370D01*
X747Y371D01*
X748Y371D01*
G37*
D02*
G36*
X794Y368D02*
X794Y368D01*
X745Y368D01*
X745Y368D01*
X794Y368D01*
G37*
D02*
G36*
X794Y368D02*
X794Y368D01*
X745Y368D01*
X745Y368D01*
X794Y368D01*
G37*
D02*
G36*
X794Y368D02*
X794Y367D01*
X794Y367D01*
X794Y363D01*
X794Y363D01*
X794Y362D01*
X795Y362D01*
X795Y360D01*
X796Y360D01*
X796Y359D01*
X797Y359D01*
X797Y358D01*
X797Y358D01*
X797Y357D01*
X798Y357D01*
X798Y357D01*
X799Y357D01*
X799Y356D01*
X800Y356D01*
X800Y355D01*
X800Y355D01*
X800Y355D01*
X802Y355D01*
X802Y354D01*
X802Y354D01*
X802Y353D01*
X803Y353D01*
X803Y352D01*
X806Y352D01*
X806Y352D01*
X807Y352D01*
X807Y351D01*
X729Y351D01*
X729Y352D01*
X732Y352D01*
X732Y352D01*
X731Y352D01*
X731Y353D01*
X729Y353D01*
X729Y354D01*
X728Y354D01*
X728Y355D01*
X727Y355D01*
X727Y355D01*
X728Y355D01*
X728Y356D01*
X730Y356D01*
X730Y357D01*
X732Y357D01*
X732Y357D01*
X733Y357D01*
X733Y358D01*
X734Y358D01*
X734Y359D01*
X735Y359D01*
X735Y360D01*
X737Y360D01*
X737Y360D01*
X737Y360D01*
X737Y361D01*
X738Y361D01*
X738Y362D01*
X739Y362D01*
X739Y363D01*
X740Y363D01*
X740Y363D01*
X742Y363D01*
X742Y364D01*
X742Y364D01*
X742Y365D01*
X743Y365D01*
X743Y366D01*
X744Y366D01*
X744Y368D01*
X794Y368D01*
G37*
D02*
G36*
X834Y363D02*
X834Y362D01*
X837Y362D01*
X837Y361D01*
X843Y361D01*
X843Y360D01*
X848Y360D01*
X848Y360D01*
X828Y360D01*
X828Y363D01*
X834Y363D01*
G37*
D02*
G36*
X921Y360D02*
X921Y359D01*
X828Y359D01*
X828Y360D01*
X921Y360D01*
G37*
D02*
G36*
X921Y360D02*
X921Y359D01*
X828Y359D01*
X828Y360D01*
X921Y360D01*
G37*
D02*
G36*
X921Y359D02*
X921Y351D01*
X818Y351D01*
X818Y352D01*
X820Y352D01*
X820Y352D01*
X824Y352D01*
X824Y353D01*
X826Y353D01*
X826Y354D01*
X826Y354D01*
X826Y355D01*
X827Y355D01*
X827Y356D01*
X828Y356D01*
X828Y357D01*
X828Y357D01*
X828Y359D01*
X921Y359D01*
G37*
D02*
G36*
X634Y357D02*
X634Y355D01*
X633Y355D01*
X633Y356D01*
X633Y356D01*
X633Y357D01*
X634Y357D01*
G37*
D02*
G36*
X634Y355D02*
X634Y355D01*
X367Y355D01*
X367Y355D01*
X634Y355D01*
G37*
D02*
G36*
X634Y355D02*
X634Y355D01*
X367Y355D01*
X367Y355D01*
X634Y355D01*
G37*
D02*
G36*
X634Y355D02*
X634Y353D01*
X635Y353D01*
X635Y350D01*
X635Y350D01*
X635Y349D01*
X636Y349D01*
X636Y347D01*
X637Y347D01*
X637Y347D01*
X638Y347D01*
X638Y346D01*
X638Y346D01*
X638Y345D01*
X639Y345D01*
X639Y344D01*
X367Y344D01*
X367Y355D01*
X634Y355D01*
G37*
D02*
G36*
X711Y352D02*
X711Y351D01*
X716Y351D01*
X716Y350D01*
X709Y350D01*
X709Y351D01*
X708Y351D01*
X708Y352D01*
X711Y352D01*
G37*
D02*
G36*
X921Y351D02*
X921Y350D01*
X721Y350D01*
X721Y351D01*
X921Y351D01*
G37*
D02*
G36*
X921Y351D02*
X921Y350D01*
X721Y350D01*
X721Y351D01*
X921Y351D01*
G37*
D02*
G36*
X921Y350D02*
X921Y349D01*
X710Y349D01*
X710Y350D01*
X921Y350D01*
G37*
D02*
G36*
X921Y350D02*
X921Y349D01*
X710Y349D01*
X710Y350D01*
X921Y350D01*
G37*
D02*
G36*
X921Y349D02*
X921Y347D01*
X707Y347D01*
X707Y348D01*
X709Y348D01*
X709Y349D01*
X710Y349D01*
X710Y349D01*
X921Y349D01*
G37*
D02*
G36*
X687Y349D02*
X687Y349D01*
X691Y349D01*
X691Y348D01*
X694Y348D01*
X694Y347D01*
X685Y347D01*
X685Y348D01*
X687Y348D01*
X687Y349D01*
X687Y349D01*
G37*
D02*
G36*
X921Y347D02*
X921Y347D01*
X681Y347D01*
X681Y347D01*
X921Y347D01*
G37*
D02*
G36*
X921Y347D02*
X921Y347D01*
X681Y347D01*
X681Y347D01*
X921Y347D01*
G37*
D02*
G36*
X641Y347D02*
X641Y347D01*
X642Y347D01*
X642Y346D01*
X643Y346D01*
X643Y345D01*
X644Y345D01*
X644Y344D01*
X640Y344D01*
X640Y347D01*
X641Y347D01*
G37*
D02*
G36*
X921Y347D02*
X921Y344D01*
X669Y344D01*
X669Y345D01*
X675Y345D01*
X675Y346D01*
X678Y346D01*
X678Y347D01*
X921Y347D01*
G37*
D02*
G36*
X658Y345D02*
X658Y344D01*
X655Y344D01*
X655Y345D01*
X658Y345D01*
G37*
D02*
G36*
X921Y344D02*
X921Y344D01*
X655Y344D01*
X655Y344D01*
X921Y344D01*
G37*
D02*
G36*
X921Y344D02*
X921Y344D01*
X655Y344D01*
X655Y344D01*
X921Y344D01*
G37*
D02*
G36*
X645Y344D02*
X645Y344D01*
X367Y344D01*
X367Y344D01*
X645Y344D01*
G37*
D02*
G36*
X645Y344D02*
X645Y344D01*
X367Y344D01*
X367Y344D01*
X645Y344D01*
G37*
D02*
G36*
X921Y344D02*
X921Y342D01*
X655Y342D01*
X655Y344D01*
X921Y344D01*
G37*
D02*
G36*
X646Y344D02*
X646Y343D01*
X649Y343D01*
X649Y342D01*
X367Y342D01*
X367Y344D01*
X646Y344D01*
G37*
D02*
G36*
X921Y342D02*
X921Y342D01*
X367Y342D01*
X367Y342D01*
X921Y342D01*
G37*
D02*
G36*
X921Y342D02*
X921Y342D01*
X367Y342D01*
X367Y342D01*
X921Y342D01*
G37*
D02*
G36*
X921Y342D02*
X921Y307D01*
X367Y307D01*
X367Y342D01*
X921Y342D01*
G37*
D02*
G54D10*
X0Y1339D02*
X1219Y1339D01*
X0Y1338D02*
X1219Y1338D01*
X0Y1337D02*
X1219Y1337D01*
X0Y1336D02*
X1219Y1336D01*
X0Y1335D02*
X1219Y1335D01*
X0Y1334D02*
X1219Y1334D01*
X0Y1333D02*
X1219Y1333D01*
X0Y1332D02*
X1219Y1332D01*
X0Y1331D02*
X7Y1331D01*
X1212Y1331D02*
X1219Y1331D01*
X0Y1330D02*
X7Y1330D01*
X1212Y1330D02*
X1219Y1330D01*
X0Y1329D02*
X7Y1329D01*
X1212Y1329D02*
X1219Y1329D01*
X0Y1328D02*
X7Y1328D01*
X1212Y1328D02*
X1219Y1328D01*
X0Y1327D02*
X7Y1327D01*
X1212Y1327D02*
X1219Y1327D01*
X0Y1326D02*
X7Y1326D01*
X1212Y1326D02*
X1219Y1326D01*
X0Y1325D02*
X7Y1325D01*
X1212Y1325D02*
X1219Y1325D01*
X0Y1324D02*
X7Y1324D01*
X1212Y1324D02*
X1219Y1324D01*
X0Y1323D02*
X7Y1323D01*
X1212Y1323D02*
X1219Y1323D01*
X0Y1322D02*
X7Y1322D01*
X1212Y1322D02*
X1219Y1322D01*
X0Y1321D02*
X7Y1321D01*
X1212Y1321D02*
X1219Y1321D01*
X0Y1320D02*
X7Y1320D01*
X1212Y1320D02*
X1219Y1320D01*
X0Y1319D02*
X7Y1319D01*
X1212Y1319D02*
X1219Y1319D01*
X0Y1318D02*
X7Y1318D01*
X1212Y1318D02*
X1219Y1318D01*
X0Y1317D02*
X7Y1317D01*
X1212Y1317D02*
X1219Y1317D01*
X0Y1316D02*
X7Y1316D01*
X1212Y1316D02*
X1219Y1316D01*
X0Y1315D02*
X7Y1315D01*
X1212Y1315D02*
X1219Y1315D01*
X0Y1314D02*
X7Y1314D01*
X1212Y1314D02*
X1219Y1314D01*
X0Y1313D02*
X7Y1313D01*
X1212Y1313D02*
X1219Y1313D01*
X0Y1312D02*
X7Y1312D01*
X1212Y1312D02*
X1219Y1312D01*
X0Y1311D02*
X7Y1311D01*
X1212Y1311D02*
X1219Y1311D01*
X0Y1310D02*
X7Y1310D01*
X1212Y1310D02*
X1219Y1310D01*
X0Y1309D02*
X7Y1309D01*
X1212Y1309D02*
X1219Y1309D01*
X0Y1308D02*
X7Y1308D01*
X1212Y1308D02*
X1219Y1308D01*
X0Y1307D02*
X7Y1307D01*
X1212Y1307D02*
X1219Y1307D01*
X0Y1306D02*
X7Y1306D01*
X1212Y1306D02*
X1219Y1306D01*
X0Y1305D02*
X7Y1305D01*
X1212Y1305D02*
X1219Y1305D01*
X0Y1304D02*
X7Y1304D01*
X1212Y1304D02*
X1219Y1304D01*
X0Y1303D02*
X7Y1303D01*
X1212Y1303D02*
X1219Y1303D01*
X0Y1302D02*
X7Y1302D01*
X1212Y1302D02*
X1219Y1302D01*
X0Y1301D02*
X7Y1301D01*
X1212Y1301D02*
X1219Y1301D01*
X0Y1300D02*
X7Y1300D01*
X1212Y1300D02*
X1219Y1300D01*
X0Y1299D02*
X7Y1299D01*
X1212Y1299D02*
X1219Y1299D01*
X0Y1298D02*
X7Y1298D01*
X1212Y1298D02*
X1219Y1298D01*
X0Y1297D02*
X7Y1297D01*
X1212Y1297D02*
X1219Y1297D01*
X0Y1296D02*
X7Y1296D01*
X1212Y1296D02*
X1219Y1296D01*
X0Y1295D02*
X7Y1295D01*
X1212Y1295D02*
X1219Y1295D01*
X0Y1294D02*
X7Y1294D01*
X1212Y1294D02*
X1219Y1294D01*
X0Y1293D02*
X7Y1293D01*
X1212Y1293D02*
X1219Y1293D01*
X0Y1292D02*
X7Y1292D01*
X1212Y1292D02*
X1219Y1292D01*
X0Y1291D02*
X7Y1291D01*
X1212Y1291D02*
X1219Y1291D01*
X0Y1290D02*
X7Y1290D01*
X645Y1290D02*
X651Y1290D01*
X1212Y1290D02*
X1219Y1290D01*
X0Y1289D02*
X7Y1289D01*
X645Y1289D02*
X652Y1289D01*
X1212Y1289D02*
X1219Y1289D01*
X0Y1288D02*
X7Y1288D01*
X644Y1288D02*
X653Y1288D01*
X860Y1288D02*
X860Y1288D01*
X950Y1288D02*
X975Y1288D01*
X1181Y1288D02*
X1203Y1288D01*
X1212Y1288D02*
X1219Y1288D01*
X0Y1287D02*
X7Y1287D01*
X644Y1287D02*
X653Y1287D01*
X858Y1287D02*
X862Y1287D01*
X948Y1287D02*
X977Y1287D01*
X1178Y1287D02*
X1203Y1287D01*
X1212Y1287D02*
X1219Y1287D01*
X0Y1286D02*
X7Y1286D01*
X644Y1286D02*
X653Y1286D01*
X857Y1286D02*
X862Y1286D01*
X948Y1286D02*
X977Y1286D01*
X1176Y1286D02*
X1203Y1286D01*
X1212Y1286D02*
X1219Y1286D01*
X0Y1285D02*
X7Y1285D01*
X644Y1285D02*
X653Y1285D01*
X742Y1285D02*
X744Y1285D01*
X857Y1285D02*
X863Y1285D01*
X948Y1285D02*
X977Y1285D01*
X1175Y1285D02*
X1203Y1285D01*
X1212Y1285D02*
X1219Y1285D01*
X0Y1284D02*
X7Y1284D01*
X644Y1284D02*
X652Y1284D01*
X741Y1284D02*
X745Y1284D01*
X857Y1284D02*
X863Y1284D01*
X948Y1284D02*
X977Y1284D01*
X1175Y1284D02*
X1203Y1284D01*
X1212Y1284D02*
X1219Y1284D01*
X0Y1283D02*
X7Y1283D01*
X645Y1283D02*
X652Y1283D01*
X741Y1283D02*
X746Y1283D01*
X857Y1283D02*
X863Y1283D01*
X948Y1283D02*
X977Y1283D01*
X1174Y1283D02*
X1203Y1283D01*
X1212Y1283D02*
X1219Y1283D01*
X0Y1282D02*
X7Y1282D01*
X647Y1282D02*
X650Y1282D01*
X741Y1282D02*
X746Y1282D01*
X857Y1282D02*
X863Y1282D01*
X950Y1282D02*
X975Y1282D01*
X1174Y1282D02*
X1203Y1282D01*
X1212Y1282D02*
X1219Y1282D01*
X0Y1281D02*
X7Y1281D01*
X741Y1281D02*
X746Y1281D01*
X857Y1281D02*
X863Y1281D01*
X960Y1281D02*
X965Y1281D01*
X1173Y1281D02*
X1179Y1281D01*
X1198Y1281D02*
X1203Y1281D01*
X1212Y1281D02*
X1219Y1281D01*
X0Y1280D02*
X7Y1280D01*
X741Y1280D02*
X746Y1280D01*
X857Y1280D02*
X863Y1280D01*
X960Y1280D02*
X965Y1280D01*
X1173Y1280D02*
X1179Y1280D01*
X1198Y1280D02*
X1203Y1280D01*
X1212Y1280D02*
X1219Y1280D01*
X0Y1279D02*
X7Y1279D01*
X741Y1279D02*
X746Y1279D01*
X857Y1279D02*
X863Y1279D01*
X960Y1279D02*
X965Y1279D01*
X1173Y1279D02*
X1178Y1279D01*
X1198Y1279D02*
X1203Y1279D01*
X1212Y1279D02*
X1219Y1279D01*
X0Y1278D02*
X7Y1278D01*
X741Y1278D02*
X746Y1278D01*
X857Y1278D02*
X863Y1278D01*
X960Y1278D02*
X965Y1278D01*
X1173Y1278D02*
X1178Y1278D01*
X1198Y1278D02*
X1203Y1278D01*
X1212Y1278D02*
X1219Y1278D01*
X0Y1277D02*
X7Y1277D01*
X741Y1277D02*
X746Y1277D01*
X857Y1277D02*
X863Y1277D01*
X960Y1277D02*
X965Y1277D01*
X1173Y1277D02*
X1178Y1277D01*
X1198Y1277D02*
X1203Y1277D01*
X1212Y1277D02*
X1219Y1277D01*
X0Y1276D02*
X7Y1276D01*
X741Y1276D02*
X746Y1276D01*
X857Y1276D02*
X863Y1276D01*
X960Y1276D02*
X965Y1276D01*
X1173Y1276D02*
X1178Y1276D01*
X1198Y1276D02*
X1203Y1276D01*
X1212Y1276D02*
X1219Y1276D01*
X0Y1275D02*
X7Y1275D01*
X740Y1275D02*
X746Y1275D01*
X857Y1275D02*
X863Y1275D01*
X960Y1275D02*
X965Y1275D01*
X1173Y1275D02*
X1178Y1275D01*
X1198Y1275D02*
X1203Y1275D01*
X1212Y1275D02*
X1219Y1275D01*
X0Y1274D02*
X7Y1274D01*
X547Y1274D02*
X567Y1274D01*
X594Y1274D02*
X609Y1274D01*
X645Y1274D02*
X658Y1274D01*
X682Y1274D02*
X694Y1274D01*
X703Y1274D02*
X706Y1274D01*
X726Y1274D02*
X751Y1274D01*
X772Y1274D02*
X792Y1274D01*
X813Y1274D02*
X816Y1274D01*
X838Y1274D02*
X841Y1274D01*
X857Y1274D02*
X863Y1274D01*
X868Y1274D02*
X880Y1274D01*
X908Y1274D02*
X919Y1274D01*
X928Y1274D02*
X931Y1274D01*
X960Y1274D02*
X965Y1274D01*
X1045Y1274D02*
X1060Y1274D01*
X1084Y1274D02*
X1087Y1274D01*
X1094Y1274D02*
X1105Y1274D01*
X1134Y1274D02*
X1151Y1274D01*
X1173Y1274D02*
X1179Y1274D01*
X1198Y1274D02*
X1203Y1274D01*
X1212Y1274D02*
X1219Y1274D01*
X0Y1273D02*
X7Y1273D01*
X545Y1273D02*
X568Y1273D01*
X593Y1273D02*
X611Y1273D01*
X645Y1273D02*
X658Y1273D01*
X681Y1273D02*
X695Y1273D01*
X702Y1273D02*
X707Y1273D01*
X725Y1273D02*
X752Y1273D01*
X770Y1273D02*
X794Y1273D01*
X812Y1273D02*
X817Y1273D01*
X837Y1273D02*
X842Y1273D01*
X857Y1273D02*
X863Y1273D01*
X866Y1273D02*
X881Y1273D01*
X907Y1273D02*
X921Y1273D01*
X927Y1273D02*
X932Y1273D01*
X960Y1273D02*
X965Y1273D01*
X1044Y1273D02*
X1062Y1273D01*
X1083Y1273D02*
X1088Y1273D01*
X1092Y1273D02*
X1107Y1273D01*
X1132Y1273D02*
X1151Y1273D01*
X1173Y1273D02*
X1179Y1273D01*
X1198Y1273D02*
X1203Y1273D01*
X1212Y1273D02*
X1219Y1273D01*
X0Y1272D02*
X7Y1272D01*
X544Y1272D02*
X569Y1272D01*
X591Y1272D02*
X612Y1272D01*
X644Y1272D02*
X659Y1272D01*
X680Y1272D02*
X696Y1272D01*
X702Y1272D02*
X707Y1272D01*
X725Y1272D02*
X752Y1272D01*
X769Y1272D02*
X795Y1272D01*
X812Y1272D02*
X817Y1272D01*
X837Y1272D02*
X842Y1272D01*
X857Y1272D02*
X863Y1272D01*
X865Y1272D02*
X883Y1272D01*
X906Y1272D02*
X922Y1272D01*
X927Y1272D02*
X932Y1272D01*
X960Y1272D02*
X965Y1272D01*
X1042Y1272D02*
X1063Y1272D01*
X1083Y1272D02*
X1088Y1272D01*
X1091Y1272D02*
X1108Y1272D01*
X1131Y1272D02*
X1152Y1272D01*
X1174Y1272D02*
X1203Y1272D01*
X1212Y1272D02*
X1219Y1272D01*
X0Y1271D02*
X7Y1271D01*
X543Y1271D02*
X570Y1271D01*
X590Y1271D02*
X613Y1271D01*
X644Y1271D02*
X659Y1271D01*
X679Y1271D02*
X697Y1271D01*
X702Y1271D02*
X707Y1271D01*
X725Y1271D02*
X752Y1271D01*
X768Y1271D02*
X795Y1271D01*
X812Y1271D02*
X817Y1271D01*
X837Y1271D02*
X842Y1271D01*
X857Y1271D02*
X884Y1271D01*
X905Y1271D02*
X924Y1271D01*
X927Y1271D02*
X932Y1271D01*
X960Y1271D02*
X965Y1271D01*
X1041Y1271D02*
X1064Y1271D01*
X1083Y1271D02*
X1109Y1271D01*
X1130Y1271D02*
X1152Y1271D01*
X1174Y1271D02*
X1203Y1271D01*
X1212Y1271D02*
X1219Y1271D01*
X0Y1270D02*
X7Y1270D01*
X542Y1270D02*
X570Y1270D01*
X589Y1270D02*
X614Y1270D01*
X644Y1270D02*
X658Y1270D01*
X678Y1270D02*
X698Y1270D01*
X702Y1270D02*
X707Y1270D01*
X726Y1270D02*
X751Y1270D01*
X768Y1270D02*
X796Y1270D01*
X812Y1270D02*
X817Y1270D01*
X837Y1270D02*
X842Y1270D01*
X857Y1270D02*
X885Y1270D01*
X904Y1270D02*
X932Y1270D01*
X960Y1270D02*
X965Y1270D01*
X1040Y1270D02*
X1065Y1270D01*
X1083Y1270D02*
X1110Y1270D01*
X1130Y1270D02*
X1151Y1270D01*
X1175Y1270D02*
X1203Y1270D01*
X1212Y1270D02*
X1219Y1270D01*
X0Y1269D02*
X7Y1269D01*
X542Y1269D02*
X571Y1269D01*
X588Y1269D02*
X615Y1269D01*
X644Y1269D02*
X657Y1269D01*
X678Y1269D02*
X700Y1269D01*
X702Y1269D02*
X707Y1269D01*
X727Y1269D02*
X750Y1269D01*
X768Y1269D02*
X796Y1269D01*
X812Y1269D02*
X817Y1269D01*
X837Y1269D02*
X842Y1269D01*
X857Y1269D02*
X886Y1269D01*
X904Y1269D02*
X932Y1269D01*
X960Y1269D02*
X965Y1269D01*
X1039Y1269D02*
X1066Y1269D01*
X1083Y1269D02*
X1111Y1269D01*
X1129Y1269D02*
X1150Y1269D01*
X1176Y1269D02*
X1203Y1269D01*
X1212Y1269D02*
X1219Y1269D01*
X0Y1268D02*
X7Y1268D01*
X543Y1268D02*
X548Y1268D01*
X565Y1268D02*
X571Y1268D01*
X588Y1268D02*
X595Y1268D01*
X608Y1268D02*
X616Y1268D01*
X644Y1268D02*
X649Y1268D01*
X677Y1268D02*
X684Y1268D01*
X692Y1268D02*
X707Y1268D01*
X741Y1268D02*
X746Y1268D01*
X768Y1268D02*
X773Y1268D01*
X791Y1268D02*
X796Y1268D01*
X812Y1268D02*
X817Y1268D01*
X837Y1268D02*
X842Y1268D01*
X857Y1268D02*
X869Y1268D01*
X879Y1268D02*
X886Y1268D01*
X903Y1268D02*
X910Y1268D01*
X918Y1268D02*
X932Y1268D01*
X960Y1268D02*
X965Y1268D01*
X1039Y1268D02*
X1046Y1268D01*
X1059Y1268D02*
X1066Y1268D01*
X1083Y1268D02*
X1095Y1268D01*
X1104Y1268D02*
X1112Y1268D01*
X1129Y1268D02*
X1135Y1268D01*
X1177Y1268D02*
X1203Y1268D01*
X1212Y1268D02*
X1219Y1268D01*
X0Y1267D02*
X7Y1267D01*
X543Y1267D02*
X547Y1267D01*
X566Y1267D02*
X571Y1267D01*
X587Y1267D02*
X594Y1267D01*
X609Y1267D02*
X616Y1267D01*
X644Y1267D02*
X649Y1267D01*
X677Y1267D02*
X683Y1267D01*
X693Y1267D02*
X707Y1267D01*
X741Y1267D02*
X746Y1267D01*
X769Y1267D02*
X772Y1267D01*
X791Y1267D02*
X796Y1267D01*
X812Y1267D02*
X817Y1267D01*
X837Y1267D02*
X842Y1267D01*
X857Y1267D02*
X868Y1267D01*
X880Y1267D02*
X887Y1267D01*
X903Y1267D02*
X909Y1267D01*
X919Y1267D02*
X932Y1267D01*
X960Y1267D02*
X965Y1267D01*
X1038Y1267D02*
X1045Y1267D01*
X1060Y1267D02*
X1067Y1267D01*
X1083Y1267D02*
X1093Y1267D01*
X1105Y1267D02*
X1112Y1267D01*
X1129Y1267D02*
X1134Y1267D01*
X1178Y1267D02*
X1203Y1267D01*
X1212Y1267D02*
X1219Y1267D01*
X0Y1266D02*
X7Y1266D01*
X545Y1266D02*
X545Y1266D01*
X565Y1266D02*
X571Y1266D01*
X587Y1266D02*
X593Y1266D01*
X610Y1266D02*
X616Y1266D01*
X644Y1266D02*
X649Y1266D01*
X677Y1266D02*
X682Y1266D01*
X694Y1266D02*
X707Y1266D01*
X741Y1266D02*
X746Y1266D01*
X791Y1266D02*
X796Y1266D01*
X812Y1266D02*
X817Y1266D01*
X837Y1266D02*
X842Y1266D01*
X857Y1266D02*
X867Y1266D01*
X881Y1266D02*
X887Y1266D01*
X903Y1266D02*
X909Y1266D01*
X921Y1266D02*
X932Y1266D01*
X960Y1266D02*
X965Y1266D01*
X1038Y1266D02*
X1044Y1266D01*
X1061Y1266D02*
X1067Y1266D01*
X1083Y1266D02*
X1092Y1266D01*
X1106Y1266D02*
X1113Y1266D01*
X1129Y1266D02*
X1134Y1266D01*
X1182Y1266D02*
X1203Y1266D01*
X1212Y1266D02*
X1219Y1266D01*
X0Y1265D02*
X7Y1265D01*
X564Y1265D02*
X571Y1265D01*
X587Y1265D02*
X592Y1265D01*
X611Y1265D02*
X617Y1265D01*
X644Y1265D02*
X649Y1265D01*
X677Y1265D02*
X682Y1265D01*
X696Y1265D02*
X707Y1265D01*
X741Y1265D02*
X746Y1265D01*
X789Y1265D02*
X796Y1265D01*
X812Y1265D02*
X817Y1265D01*
X837Y1265D02*
X842Y1265D01*
X857Y1265D02*
X866Y1265D01*
X882Y1265D02*
X887Y1265D01*
X903Y1265D02*
X908Y1265D01*
X923Y1265D02*
X932Y1265D01*
X960Y1265D02*
X965Y1265D01*
X1038Y1265D02*
X1043Y1265D01*
X1062Y1265D02*
X1068Y1265D01*
X1083Y1265D02*
X1091Y1265D01*
X1107Y1265D02*
X1113Y1265D01*
X1129Y1265D02*
X1134Y1265D01*
X1185Y1265D02*
X1192Y1265D01*
X1198Y1265D02*
X1203Y1265D01*
X1212Y1265D02*
X1219Y1265D01*
X0Y1264D02*
X7Y1264D01*
X562Y1264D02*
X570Y1264D01*
X587Y1264D02*
X592Y1264D01*
X611Y1264D02*
X617Y1264D01*
X644Y1264D02*
X649Y1264D01*
X677Y1264D02*
X682Y1264D01*
X697Y1264D02*
X707Y1264D01*
X741Y1264D02*
X746Y1264D01*
X787Y1264D02*
X796Y1264D01*
X812Y1264D02*
X817Y1264D01*
X837Y1264D02*
X842Y1264D01*
X857Y1264D02*
X865Y1264D01*
X882Y1264D02*
X887Y1264D01*
X903Y1264D02*
X908Y1264D01*
X924Y1264D02*
X932Y1264D01*
X960Y1264D02*
X965Y1264D01*
X1038Y1264D02*
X1043Y1264D01*
X1062Y1264D02*
X1068Y1264D01*
X1083Y1264D02*
X1090Y1264D01*
X1107Y1264D02*
X1113Y1264D01*
X1129Y1264D02*
X1134Y1264D01*
X1185Y1264D02*
X1191Y1264D01*
X1198Y1264D02*
X1203Y1264D01*
X1212Y1264D02*
X1219Y1264D01*
X0Y1263D02*
X7Y1263D01*
X559Y1263D02*
X570Y1263D01*
X587Y1263D02*
X592Y1263D01*
X611Y1263D02*
X617Y1263D01*
X644Y1263D02*
X649Y1263D01*
X677Y1263D02*
X682Y1263D01*
X698Y1263D02*
X707Y1263D01*
X741Y1263D02*
X746Y1263D01*
X785Y1263D02*
X795Y1263D01*
X812Y1263D02*
X817Y1263D01*
X837Y1263D02*
X842Y1263D01*
X857Y1263D02*
X863Y1263D01*
X882Y1263D02*
X887Y1263D01*
X903Y1263D02*
X908Y1263D01*
X926Y1263D02*
X932Y1263D01*
X960Y1263D02*
X965Y1263D01*
X1038Y1263D02*
X1043Y1263D01*
X1062Y1263D02*
X1068Y1263D01*
X1083Y1263D02*
X1089Y1263D01*
X1108Y1263D02*
X1113Y1263D01*
X1129Y1263D02*
X1134Y1263D01*
X1184Y1263D02*
X1191Y1263D01*
X1198Y1263D02*
X1203Y1263D01*
X1212Y1263D02*
X1219Y1263D01*
X0Y1262D02*
X7Y1262D01*
X557Y1262D02*
X569Y1262D01*
X587Y1262D02*
X592Y1262D01*
X611Y1262D02*
X617Y1262D01*
X644Y1262D02*
X649Y1262D01*
X678Y1262D02*
X682Y1262D01*
X699Y1262D02*
X707Y1262D01*
X741Y1262D02*
X746Y1262D01*
X782Y1262D02*
X795Y1262D01*
X812Y1262D02*
X817Y1262D01*
X837Y1262D02*
X842Y1262D01*
X857Y1262D02*
X863Y1262D01*
X882Y1262D02*
X887Y1262D01*
X903Y1262D02*
X908Y1262D01*
X927Y1262D02*
X932Y1262D01*
X960Y1262D02*
X965Y1262D01*
X1038Y1262D02*
X1043Y1262D01*
X1062Y1262D02*
X1068Y1262D01*
X1083Y1262D02*
X1088Y1262D01*
X1108Y1262D02*
X1113Y1262D01*
X1128Y1262D02*
X1134Y1262D01*
X1184Y1262D02*
X1190Y1262D01*
X1198Y1262D02*
X1203Y1262D01*
X1212Y1262D02*
X1219Y1262D01*
X0Y1261D02*
X7Y1261D01*
X555Y1261D02*
X568Y1261D01*
X587Y1261D02*
X592Y1261D01*
X611Y1261D02*
X617Y1261D01*
X644Y1261D02*
X649Y1261D01*
X679Y1261D02*
X680Y1261D01*
X700Y1261D02*
X707Y1261D01*
X741Y1261D02*
X746Y1261D01*
X780Y1261D02*
X794Y1261D01*
X812Y1261D02*
X817Y1261D01*
X837Y1261D02*
X842Y1261D01*
X857Y1261D02*
X863Y1261D01*
X882Y1261D02*
X887Y1261D01*
X903Y1261D02*
X908Y1261D01*
X927Y1261D02*
X932Y1261D01*
X960Y1261D02*
X965Y1261D01*
X1038Y1261D02*
X1043Y1261D01*
X1062Y1261D02*
X1068Y1261D01*
X1083Y1261D02*
X1088Y1261D01*
X1108Y1261D02*
X1113Y1261D01*
X1128Y1261D02*
X1152Y1261D01*
X1183Y1261D02*
X1189Y1261D01*
X1198Y1261D02*
X1203Y1261D01*
X1212Y1261D02*
X1219Y1261D01*
X0Y1260D02*
X7Y1260D01*
X552Y1260D02*
X567Y1260D01*
X587Y1260D02*
X592Y1260D01*
X611Y1260D02*
X617Y1260D01*
X644Y1260D02*
X649Y1260D01*
X701Y1260D02*
X707Y1260D01*
X741Y1260D02*
X746Y1260D01*
X778Y1260D02*
X792Y1260D01*
X812Y1260D02*
X817Y1260D01*
X837Y1260D02*
X842Y1260D01*
X857Y1260D02*
X863Y1260D01*
X882Y1260D02*
X887Y1260D01*
X903Y1260D02*
X908Y1260D01*
X927Y1260D02*
X932Y1260D01*
X960Y1260D02*
X965Y1260D01*
X1038Y1260D02*
X1043Y1260D01*
X1062Y1260D02*
X1068Y1260D01*
X1083Y1260D02*
X1088Y1260D01*
X1108Y1260D02*
X1113Y1260D01*
X1128Y1260D02*
X1154Y1260D01*
X1183Y1260D02*
X1189Y1260D01*
X1198Y1260D02*
X1203Y1260D01*
X1212Y1260D02*
X1219Y1260D01*
X0Y1259D02*
X7Y1259D01*
X550Y1259D02*
X565Y1259D01*
X587Y1259D02*
X617Y1259D01*
X644Y1259D02*
X649Y1259D01*
X702Y1259D02*
X707Y1259D01*
X741Y1259D02*
X746Y1259D01*
X776Y1259D02*
X790Y1259D01*
X812Y1259D02*
X817Y1259D01*
X837Y1259D02*
X842Y1259D01*
X857Y1259D02*
X863Y1259D01*
X882Y1259D02*
X887Y1259D01*
X903Y1259D02*
X908Y1259D01*
X927Y1259D02*
X932Y1259D01*
X960Y1259D02*
X965Y1259D01*
X1038Y1259D02*
X1068Y1259D01*
X1083Y1259D02*
X1088Y1259D01*
X1108Y1259D02*
X1113Y1259D01*
X1128Y1259D02*
X1155Y1259D01*
X1182Y1259D02*
X1188Y1259D01*
X1198Y1259D02*
X1203Y1259D01*
X1212Y1259D02*
X1219Y1259D01*
X0Y1258D02*
X7Y1258D01*
X548Y1258D02*
X563Y1258D01*
X587Y1258D02*
X617Y1258D01*
X644Y1258D02*
X649Y1258D01*
X702Y1258D02*
X707Y1258D01*
X741Y1258D02*
X746Y1258D01*
X773Y1258D02*
X788Y1258D01*
X812Y1258D02*
X817Y1258D01*
X837Y1258D02*
X842Y1258D01*
X857Y1258D02*
X863Y1258D01*
X882Y1258D02*
X887Y1258D01*
X903Y1258D02*
X908Y1258D01*
X927Y1258D02*
X932Y1258D01*
X960Y1258D02*
X965Y1258D01*
X1038Y1258D02*
X1068Y1258D01*
X1083Y1258D02*
X1088Y1258D01*
X1108Y1258D02*
X1113Y1258D01*
X1128Y1258D02*
X1156Y1258D01*
X1181Y1258D02*
X1188Y1258D01*
X1198Y1258D02*
X1203Y1258D01*
X1212Y1258D02*
X1219Y1258D01*
X0Y1257D02*
X7Y1257D01*
X546Y1257D02*
X560Y1257D01*
X587Y1257D02*
X617Y1257D01*
X644Y1257D02*
X649Y1257D01*
X702Y1257D02*
X707Y1257D01*
X741Y1257D02*
X746Y1257D01*
X772Y1257D02*
X786Y1257D01*
X812Y1257D02*
X817Y1257D01*
X836Y1257D02*
X842Y1257D01*
X857Y1257D02*
X863Y1257D01*
X882Y1257D02*
X887Y1257D01*
X903Y1257D02*
X908Y1257D01*
X927Y1257D02*
X932Y1257D01*
X960Y1257D02*
X965Y1257D01*
X1038Y1257D02*
X1068Y1257D01*
X1083Y1257D02*
X1088Y1257D01*
X1108Y1257D02*
X1113Y1257D01*
X1128Y1257D02*
X1157Y1257D01*
X1181Y1257D02*
X1187Y1257D01*
X1198Y1257D02*
X1203Y1257D01*
X1212Y1257D02*
X1219Y1257D01*
X0Y1256D02*
X7Y1256D01*
X545Y1256D02*
X558Y1256D01*
X587Y1256D02*
X617Y1256D01*
X644Y1256D02*
X649Y1256D01*
X702Y1256D02*
X707Y1256D01*
X741Y1256D02*
X746Y1256D01*
X770Y1256D02*
X783Y1256D01*
X812Y1256D02*
X817Y1256D01*
X836Y1256D02*
X842Y1256D01*
X857Y1256D02*
X863Y1256D01*
X882Y1256D02*
X887Y1256D01*
X903Y1256D02*
X908Y1256D01*
X927Y1256D02*
X932Y1256D01*
X960Y1256D02*
X965Y1256D01*
X1038Y1256D02*
X1068Y1256D01*
X1083Y1256D02*
X1088Y1256D01*
X1108Y1256D02*
X1113Y1256D01*
X1128Y1256D02*
X1157Y1256D01*
X1180Y1256D02*
X1187Y1256D01*
X1198Y1256D02*
X1203Y1256D01*
X1212Y1256D02*
X1219Y1256D01*
X0Y1255D02*
X7Y1255D01*
X544Y1255D02*
X556Y1255D01*
X587Y1255D02*
X617Y1255D01*
X644Y1255D02*
X649Y1255D01*
X702Y1255D02*
X707Y1255D01*
X741Y1255D02*
X746Y1255D01*
X769Y1255D02*
X781Y1255D01*
X812Y1255D02*
X817Y1255D01*
X836Y1255D02*
X842Y1255D01*
X857Y1255D02*
X863Y1255D01*
X882Y1255D02*
X887Y1255D01*
X903Y1255D02*
X908Y1255D01*
X927Y1255D02*
X932Y1255D01*
X960Y1255D02*
X965Y1255D01*
X1038Y1255D02*
X1068Y1255D01*
X1083Y1255D02*
X1088Y1255D01*
X1108Y1255D02*
X1113Y1255D01*
X1128Y1255D02*
X1135Y1255D01*
X1151Y1255D02*
X1157Y1255D01*
X1180Y1255D02*
X1186Y1255D01*
X1198Y1255D02*
X1203Y1255D01*
X1212Y1255D02*
X1219Y1255D01*
X0Y1254D02*
X7Y1254D01*
X543Y1254D02*
X553Y1254D01*
X587Y1254D02*
X617Y1254D01*
X644Y1254D02*
X649Y1254D01*
X702Y1254D02*
X707Y1254D01*
X741Y1254D02*
X746Y1254D01*
X769Y1254D02*
X779Y1254D01*
X812Y1254D02*
X817Y1254D01*
X836Y1254D02*
X842Y1254D01*
X857Y1254D02*
X863Y1254D01*
X882Y1254D02*
X887Y1254D01*
X903Y1254D02*
X908Y1254D01*
X927Y1254D02*
X932Y1254D01*
X960Y1254D02*
X965Y1254D01*
X1038Y1254D02*
X1068Y1254D01*
X1083Y1254D02*
X1089Y1254D01*
X1108Y1254D02*
X1113Y1254D01*
X1128Y1254D02*
X1134Y1254D01*
X1152Y1254D02*
X1158Y1254D01*
X1179Y1254D02*
X1185Y1254D01*
X1198Y1254D02*
X1203Y1254D01*
X1212Y1254D02*
X1219Y1254D01*
X0Y1253D02*
X7Y1253D01*
X543Y1253D02*
X551Y1253D01*
X589Y1253D02*
X617Y1253D01*
X644Y1253D02*
X649Y1253D01*
X702Y1253D02*
X707Y1253D01*
X741Y1253D02*
X746Y1253D01*
X768Y1253D02*
X776Y1253D01*
X812Y1253D02*
X817Y1253D01*
X836Y1253D02*
X842Y1253D01*
X857Y1253D02*
X863Y1253D01*
X882Y1253D02*
X887Y1253D01*
X903Y1253D02*
X908Y1253D01*
X927Y1253D02*
X932Y1253D01*
X960Y1253D02*
X965Y1253D01*
X1040Y1253D02*
X1068Y1253D01*
X1083Y1253D02*
X1090Y1253D01*
X1107Y1253D02*
X1113Y1253D01*
X1128Y1253D02*
X1134Y1253D01*
X1152Y1253D02*
X1158Y1253D01*
X1178Y1253D02*
X1185Y1253D01*
X1198Y1253D02*
X1203Y1253D01*
X1212Y1253D02*
X1219Y1253D01*
X0Y1252D02*
X7Y1252D01*
X542Y1252D02*
X549Y1252D01*
X611Y1252D02*
X617Y1252D01*
X644Y1252D02*
X649Y1252D01*
X702Y1252D02*
X707Y1252D01*
X741Y1252D02*
X746Y1252D01*
X768Y1252D02*
X774Y1252D01*
X812Y1252D02*
X818Y1252D01*
X836Y1252D02*
X842Y1252D01*
X857Y1252D02*
X863Y1252D01*
X882Y1252D02*
X887Y1252D01*
X903Y1252D02*
X908Y1252D01*
X927Y1252D02*
X932Y1252D01*
X960Y1252D02*
X965Y1252D01*
X1062Y1252D02*
X1068Y1252D01*
X1083Y1252D02*
X1091Y1252D01*
X1107Y1252D02*
X1113Y1252D01*
X1128Y1252D02*
X1133Y1252D01*
X1153Y1252D02*
X1158Y1252D01*
X1178Y1252D02*
X1184Y1252D01*
X1198Y1252D02*
X1203Y1252D01*
X1212Y1252D02*
X1219Y1252D01*
X0Y1251D02*
X7Y1251D01*
X542Y1251D02*
X548Y1251D01*
X611Y1251D02*
X617Y1251D01*
X644Y1251D02*
X649Y1251D01*
X702Y1251D02*
X707Y1251D01*
X725Y1251D02*
X725Y1251D01*
X741Y1251D02*
X746Y1251D01*
X767Y1251D02*
X773Y1251D01*
X812Y1251D02*
X819Y1251D01*
X836Y1251D02*
X842Y1251D01*
X857Y1251D02*
X864Y1251D01*
X882Y1251D02*
X887Y1251D01*
X903Y1251D02*
X908Y1251D01*
X927Y1251D02*
X932Y1251D01*
X960Y1251D02*
X965Y1251D01*
X1062Y1251D02*
X1068Y1251D01*
X1083Y1251D02*
X1092Y1251D01*
X1106Y1251D02*
X1112Y1251D01*
X1128Y1251D02*
X1133Y1251D01*
X1153Y1251D02*
X1158Y1251D01*
X1177Y1251D02*
X1184Y1251D01*
X1198Y1251D02*
X1203Y1251D01*
X1212Y1251D02*
X1219Y1251D01*
X0Y1250D02*
X7Y1250D01*
X542Y1250D02*
X547Y1250D01*
X611Y1250D02*
X617Y1250D01*
X644Y1250D02*
X649Y1250D01*
X702Y1250D02*
X707Y1250D01*
X723Y1250D02*
X726Y1250D01*
X741Y1250D02*
X746Y1250D01*
X767Y1250D02*
X773Y1250D01*
X812Y1250D02*
X821Y1250D01*
X836Y1250D02*
X842Y1250D01*
X857Y1250D02*
X865Y1250D01*
X882Y1250D02*
X887Y1250D01*
X903Y1250D02*
X908Y1250D01*
X927Y1250D02*
X932Y1250D01*
X960Y1250D02*
X965Y1250D01*
X1062Y1250D02*
X1068Y1250D01*
X1083Y1250D02*
X1094Y1250D01*
X1106Y1250D02*
X1112Y1250D01*
X1128Y1250D02*
X1134Y1250D01*
X1153Y1250D02*
X1158Y1250D01*
X1177Y1250D02*
X1183Y1250D01*
X1198Y1250D02*
X1203Y1250D01*
X1212Y1250D02*
X1219Y1250D01*
X0Y1249D02*
X7Y1249D01*
X542Y1249D02*
X547Y1249D01*
X611Y1249D02*
X617Y1249D01*
X644Y1249D02*
X649Y1249D01*
X702Y1249D02*
X707Y1249D01*
X722Y1249D02*
X727Y1249D01*
X741Y1249D02*
X746Y1249D01*
X767Y1249D02*
X773Y1249D01*
X812Y1249D02*
X823Y1249D01*
X836Y1249D02*
X842Y1249D01*
X857Y1249D02*
X866Y1249D01*
X881Y1249D02*
X887Y1249D01*
X903Y1249D02*
X908Y1249D01*
X927Y1249D02*
X932Y1249D01*
X960Y1249D02*
X965Y1249D01*
X1062Y1249D02*
X1068Y1249D01*
X1083Y1249D02*
X1095Y1249D01*
X1104Y1249D02*
X1112Y1249D01*
X1128Y1249D02*
X1135Y1249D01*
X1153Y1249D02*
X1158Y1249D01*
X1176Y1249D02*
X1182Y1249D01*
X1198Y1249D02*
X1203Y1249D01*
X1212Y1249D02*
X1219Y1249D01*
X0Y1248D02*
X7Y1248D01*
X542Y1248D02*
X547Y1248D01*
X568Y1248D02*
X570Y1248D01*
X610Y1248D02*
X616Y1248D01*
X644Y1248D02*
X649Y1248D01*
X702Y1248D02*
X707Y1248D01*
X722Y1248D02*
X728Y1248D01*
X740Y1248D02*
X746Y1248D01*
X767Y1248D02*
X773Y1248D01*
X794Y1248D02*
X796Y1248D01*
X812Y1248D02*
X824Y1248D01*
X836Y1248D02*
X841Y1248D01*
X857Y1248D02*
X867Y1248D01*
X881Y1248D02*
X887Y1248D01*
X903Y1248D02*
X908Y1248D01*
X927Y1248D02*
X932Y1248D01*
X960Y1248D02*
X965Y1248D01*
X1061Y1248D02*
X1067Y1248D01*
X1083Y1248D02*
X1111Y1248D01*
X1128Y1248D02*
X1136Y1248D01*
X1152Y1248D02*
X1158Y1248D01*
X1176Y1248D02*
X1182Y1248D01*
X1198Y1248D02*
X1203Y1248D01*
X1212Y1248D02*
X1219Y1248D01*
X0Y1247D02*
X7Y1247D01*
X542Y1247D02*
X548Y1247D01*
X566Y1247D02*
X571Y1247D01*
X609Y1247D02*
X616Y1247D01*
X644Y1247D02*
X649Y1247D01*
X702Y1247D02*
X707Y1247D01*
X722Y1247D02*
X728Y1247D01*
X740Y1247D02*
X746Y1247D01*
X767Y1247D02*
X773Y1247D01*
X792Y1247D02*
X797Y1247D01*
X812Y1247D02*
X826Y1247D01*
X835Y1247D02*
X841Y1247D01*
X857Y1247D02*
X869Y1247D01*
X879Y1247D02*
X887Y1247D01*
X903Y1247D02*
X908Y1247D01*
X927Y1247D02*
X932Y1247D01*
X960Y1247D02*
X965Y1247D01*
X1060Y1247D02*
X1067Y1247D01*
X1083Y1247D02*
X1110Y1247D01*
X1128Y1247D02*
X1138Y1247D01*
X1152Y1247D02*
X1158Y1247D01*
X1175Y1247D02*
X1181Y1247D01*
X1198Y1247D02*
X1203Y1247D01*
X1212Y1247D02*
X1219Y1247D01*
X0Y1246D02*
X7Y1246D01*
X542Y1246D02*
X549Y1246D01*
X565Y1246D02*
X572Y1246D01*
X607Y1246D02*
X615Y1246D01*
X644Y1246D02*
X650Y1246D01*
X702Y1246D02*
X707Y1246D01*
X722Y1246D02*
X729Y1246D01*
X738Y1246D02*
X745Y1246D01*
X768Y1246D02*
X775Y1246D01*
X790Y1246D02*
X797Y1246D01*
X812Y1246D02*
X827Y1246D01*
X834Y1246D02*
X841Y1246D01*
X857Y1246D02*
X870Y1246D01*
X878Y1246D02*
X886Y1246D01*
X903Y1246D02*
X908Y1246D01*
X927Y1246D02*
X932Y1246D01*
X960Y1246D02*
X965Y1246D01*
X1058Y1246D02*
X1066Y1246D01*
X1083Y1246D02*
X1109Y1246D01*
X1128Y1246D02*
X1140Y1246D01*
X1150Y1246D02*
X1157Y1246D01*
X1174Y1246D02*
X1181Y1246D01*
X1198Y1246D02*
X1203Y1246D01*
X1212Y1246D02*
X1219Y1246D01*
X0Y1245D02*
X7Y1245D01*
X543Y1245D02*
X572Y1245D01*
X588Y1245D02*
X615Y1245D01*
X636Y1245D02*
X658Y1245D01*
X702Y1245D02*
X707Y1245D01*
X723Y1245D02*
X745Y1245D01*
X768Y1245D02*
X797Y1245D01*
X812Y1245D02*
X841Y1245D01*
X857Y1245D02*
X885Y1245D01*
X902Y1245D02*
X908Y1245D01*
X927Y1245D02*
X932Y1245D01*
X949Y1245D02*
X976Y1245D01*
X1039Y1245D02*
X1066Y1245D01*
X1083Y1245D02*
X1088Y1245D01*
X1091Y1245D02*
X1108Y1245D01*
X1128Y1245D02*
X1157Y1245D01*
X1174Y1245D02*
X1180Y1245D01*
X1198Y1245D02*
X1203Y1245D01*
X1212Y1245D02*
X1219Y1245D01*
X0Y1244D02*
X7Y1244D01*
X543Y1244D02*
X571Y1244D01*
X587Y1244D02*
X614Y1244D01*
X635Y1244D02*
X658Y1244D01*
X702Y1244D02*
X707Y1244D01*
X723Y1244D02*
X744Y1244D01*
X769Y1244D02*
X797Y1244D01*
X812Y1244D02*
X817Y1244D01*
X820Y1244D02*
X840Y1244D01*
X857Y1244D02*
X884Y1244D01*
X902Y1244D02*
X908Y1244D01*
X927Y1244D02*
X932Y1244D01*
X948Y1244D02*
X977Y1244D01*
X1038Y1244D02*
X1065Y1244D01*
X1083Y1244D02*
X1088Y1244D01*
X1092Y1244D02*
X1107Y1244D01*
X1128Y1244D02*
X1156Y1244D01*
X1173Y1244D02*
X1180Y1244D01*
X1198Y1244D02*
X1203Y1244D01*
X1212Y1244D02*
X1219Y1244D01*
X0Y1243D02*
X7Y1243D01*
X544Y1243D02*
X571Y1243D01*
X587Y1243D02*
X613Y1243D01*
X635Y1243D02*
X659Y1243D01*
X702Y1243D02*
X707Y1243D01*
X724Y1243D02*
X744Y1243D01*
X769Y1243D02*
X796Y1243D01*
X812Y1243D02*
X817Y1243D01*
X821Y1243D02*
X839Y1243D01*
X857Y1243D02*
X883Y1243D01*
X902Y1243D02*
X908Y1243D01*
X927Y1243D02*
X932Y1243D01*
X948Y1243D02*
X977Y1243D01*
X1038Y1243D02*
X1064Y1243D01*
X1083Y1243D02*
X1088Y1243D01*
X1094Y1243D02*
X1105Y1243D01*
X1128Y1243D02*
X1156Y1243D01*
X1173Y1243D02*
X1179Y1243D01*
X1198Y1243D02*
X1203Y1243D01*
X1212Y1243D02*
X1219Y1243D01*
X0Y1242D02*
X7Y1242D01*
X545Y1242D02*
X569Y1242D01*
X587Y1242D02*
X612Y1242D01*
X635Y1242D02*
X659Y1242D01*
X702Y1242D02*
X707Y1242D01*
X725Y1242D02*
X743Y1242D01*
X770Y1242D02*
X795Y1242D01*
X812Y1242D02*
X817Y1242D01*
X823Y1242D02*
X838Y1242D01*
X857Y1242D02*
X862Y1242D01*
X865Y1242D02*
X882Y1242D01*
X903Y1242D02*
X908Y1242D01*
X927Y1242D02*
X932Y1242D01*
X948Y1242D02*
X977Y1242D01*
X1038Y1242D02*
X1063Y1242D01*
X1083Y1242D02*
X1088Y1242D01*
X1128Y1242D02*
X1133Y1242D01*
X1135Y1242D02*
X1155Y1242D01*
X1173Y1242D02*
X1178Y1242D01*
X1198Y1242D02*
X1203Y1242D01*
X1212Y1242D02*
X1219Y1242D01*
X0Y1241D02*
X7Y1241D01*
X546Y1241D02*
X568Y1241D01*
X587Y1241D02*
X610Y1241D01*
X635Y1241D02*
X658Y1241D01*
X702Y1241D02*
X706Y1241D01*
X726Y1241D02*
X742Y1241D01*
X772Y1241D02*
X793Y1241D01*
X813Y1241D02*
X817Y1241D01*
X825Y1241D02*
X837Y1241D01*
X858Y1241D02*
X862Y1241D01*
X867Y1241D02*
X881Y1241D01*
X903Y1241D02*
X907Y1241D01*
X928Y1241D02*
X932Y1241D01*
X948Y1241D02*
X977Y1241D01*
X1038Y1241D02*
X1061Y1241D01*
X1083Y1241D02*
X1088Y1241D01*
X1128Y1241D02*
X1133Y1241D01*
X1137Y1241D02*
X1154Y1241D01*
X1173Y1241D02*
X1178Y1241D01*
X1198Y1241D02*
X1202Y1241D01*
X1212Y1241D02*
X1219Y1241D01*
X0Y1240D02*
X7Y1240D01*
X548Y1240D02*
X565Y1240D01*
X588Y1240D02*
X608Y1240D01*
X637Y1240D02*
X657Y1240D01*
X703Y1240D02*
X705Y1240D01*
X728Y1240D02*
X740Y1240D01*
X774Y1240D02*
X791Y1240D01*
X814Y1240D02*
X816Y1240D01*
X827Y1240D02*
X835Y1240D01*
X859Y1240D02*
X861Y1240D01*
X869Y1240D02*
X879Y1240D01*
X904Y1240D02*
X906Y1240D01*
X929Y1240D02*
X931Y1240D01*
X949Y1240D02*
X976Y1240D01*
X1039Y1240D02*
X1059Y1240D01*
X1083Y1240D02*
X1088Y1240D01*
X1129Y1240D02*
X1132Y1240D01*
X1139Y1240D02*
X1152Y1240D01*
X1174Y1240D02*
X1177Y1240D01*
X1199Y1240D02*
X1201Y1240D01*
X1212Y1240D02*
X1219Y1240D01*
X0Y1239D02*
X7Y1239D01*
X1083Y1239D02*
X1088Y1239D01*
X1212Y1239D02*
X1219Y1239D01*
X0Y1238D02*
X7Y1238D01*
X1083Y1238D02*
X1088Y1238D01*
X1212Y1238D02*
X1219Y1238D01*
X0Y1237D02*
X7Y1237D01*
X1083Y1237D02*
X1088Y1237D01*
X1212Y1237D02*
X1219Y1237D01*
X0Y1236D02*
X7Y1236D01*
X1083Y1236D02*
X1089Y1236D01*
X1212Y1236D02*
X1219Y1236D01*
X0Y1235D02*
X7Y1235D01*
X1083Y1235D02*
X1089Y1235D01*
X1212Y1235D02*
X1219Y1235D01*
X0Y1234D02*
X7Y1234D01*
X1083Y1234D02*
X1091Y1234D01*
X1212Y1234D02*
X1219Y1234D01*
X0Y1233D02*
X7Y1233D01*
X1084Y1233D02*
X1092Y1233D01*
X1212Y1233D02*
X1219Y1233D01*
X0Y1232D02*
X7Y1232D01*
X1085Y1232D02*
X1108Y1232D01*
X1212Y1232D02*
X1219Y1232D01*
X0Y1231D02*
X7Y1231D01*
X1086Y1231D02*
X1109Y1231D01*
X1212Y1231D02*
X1219Y1231D01*
X0Y1230D02*
X7Y1230D01*
X1087Y1230D02*
X1110Y1230D01*
X1212Y1230D02*
X1219Y1230D01*
X0Y1229D02*
X7Y1229D01*
X1088Y1229D02*
X1110Y1229D01*
X1212Y1229D02*
X1219Y1229D01*
X0Y1228D02*
X7Y1228D01*
X1089Y1228D02*
X1109Y1228D01*
X1212Y1228D02*
X1219Y1228D01*
X0Y1227D02*
X7Y1227D01*
X1091Y1227D02*
X1108Y1227D01*
X1212Y1227D02*
X1219Y1227D01*
X0Y1226D02*
X7Y1226D01*
X1212Y1226D02*
X1219Y1226D01*
X0Y1225D02*
X7Y1225D01*
X1212Y1225D02*
X1219Y1225D01*
X0Y1224D02*
X7Y1224D01*
X1212Y1224D02*
X1219Y1224D01*
X0Y1223D02*
X7Y1223D01*
X1212Y1223D02*
X1219Y1223D01*
X0Y1222D02*
X7Y1222D01*
X1212Y1222D02*
X1219Y1222D01*
X0Y1221D02*
X7Y1221D01*
X1212Y1221D02*
X1219Y1221D01*
X0Y1220D02*
X7Y1220D01*
X1212Y1220D02*
X1219Y1220D01*
X0Y1219D02*
X7Y1219D01*
X1212Y1219D02*
X1219Y1219D01*
X0Y1218D02*
X7Y1218D01*
X1212Y1218D02*
X1219Y1218D01*
X0Y1217D02*
X7Y1217D01*
X1212Y1217D02*
X1219Y1217D01*
X0Y1216D02*
X7Y1216D01*
X1212Y1216D02*
X1219Y1216D01*
X0Y1215D02*
X7Y1215D01*
X1212Y1215D02*
X1219Y1215D01*
X0Y1214D02*
X7Y1214D01*
X1212Y1214D02*
X1219Y1214D01*
X0Y1213D02*
X7Y1213D01*
X1212Y1213D02*
X1219Y1213D01*
X0Y1212D02*
X7Y1212D01*
X1212Y1212D02*
X1219Y1212D01*
X0Y1211D02*
X7Y1211D01*
X1212Y1211D02*
X1219Y1211D01*
X0Y1210D02*
X7Y1210D01*
X1212Y1210D02*
X1219Y1210D01*
X0Y1209D02*
X7Y1209D01*
X1212Y1209D02*
X1219Y1209D01*
X0Y1208D02*
X7Y1208D01*
X1212Y1208D02*
X1219Y1208D01*
X0Y1207D02*
X7Y1207D01*
X1212Y1207D02*
X1219Y1207D01*
X0Y1206D02*
X7Y1206D01*
X1212Y1206D02*
X1219Y1206D01*
X0Y1205D02*
X7Y1205D01*
X1212Y1205D02*
X1219Y1205D01*
X0Y1204D02*
X7Y1204D01*
X1212Y1204D02*
X1219Y1204D01*
X0Y1203D02*
X7Y1203D01*
X1212Y1203D02*
X1219Y1203D01*
X0Y1202D02*
X7Y1202D01*
X1212Y1202D02*
X1219Y1202D01*
X0Y1201D02*
X7Y1201D01*
X1212Y1201D02*
X1219Y1201D01*
X0Y1200D02*
X7Y1200D01*
X1212Y1200D02*
X1219Y1200D01*
X0Y1199D02*
X7Y1199D01*
X1212Y1199D02*
X1219Y1199D01*
X0Y1198D02*
X7Y1198D01*
X1212Y1198D02*
X1219Y1198D01*
X0Y1197D02*
X7Y1197D01*
X1212Y1197D02*
X1219Y1197D01*
X0Y1196D02*
X7Y1196D01*
X1212Y1196D02*
X1219Y1196D01*
X0Y1195D02*
X7Y1195D01*
X1212Y1195D02*
X1219Y1195D01*
X0Y1194D02*
X7Y1194D01*
X1212Y1194D02*
X1219Y1194D01*
X0Y1193D02*
X7Y1193D01*
X1212Y1193D02*
X1219Y1193D01*
X0Y1192D02*
X7Y1192D01*
X1212Y1192D02*
X1219Y1192D01*
X0Y1191D02*
X7Y1191D01*
X1212Y1191D02*
X1219Y1191D01*
X0Y1190D02*
X7Y1190D01*
X1212Y1190D02*
X1219Y1190D01*
X0Y1189D02*
X7Y1189D01*
X1212Y1189D02*
X1219Y1189D01*
X0Y1188D02*
X7Y1188D01*
X1212Y1188D02*
X1219Y1188D01*
X0Y1187D02*
X7Y1187D01*
X1212Y1187D02*
X1219Y1187D01*
X0Y1186D02*
X7Y1186D01*
X1212Y1186D02*
X1219Y1186D01*
X0Y1185D02*
X7Y1185D01*
X1212Y1185D02*
X1219Y1185D01*
X0Y1184D02*
X7Y1184D01*
X1212Y1184D02*
X1219Y1184D01*
X0Y1183D02*
X7Y1183D01*
X1212Y1183D02*
X1219Y1183D01*
X0Y1182D02*
X7Y1182D01*
X1212Y1182D02*
X1219Y1182D01*
X0Y1181D02*
X7Y1181D01*
X1212Y1181D02*
X1219Y1181D01*
X0Y1180D02*
X7Y1180D01*
X1212Y1180D02*
X1219Y1180D01*
X0Y1179D02*
X7Y1179D01*
X1212Y1179D02*
X1219Y1179D01*
X0Y1178D02*
X7Y1178D01*
X1212Y1178D02*
X1219Y1178D01*
X0Y1177D02*
X7Y1177D01*
X1212Y1177D02*
X1219Y1177D01*
X0Y1176D02*
X7Y1176D01*
X1212Y1176D02*
X1219Y1176D01*
X0Y1175D02*
X7Y1175D01*
X1212Y1175D02*
X1219Y1175D01*
X0Y1174D02*
X7Y1174D01*
X1212Y1174D02*
X1219Y1174D01*
X0Y1173D02*
X7Y1173D01*
X1212Y1173D02*
X1219Y1173D01*
X0Y1172D02*
X7Y1172D01*
X1212Y1172D02*
X1219Y1172D01*
X0Y1171D02*
X7Y1171D01*
X1212Y1171D02*
X1219Y1171D01*
X0Y1170D02*
X7Y1170D01*
X1212Y1170D02*
X1219Y1170D01*
X0Y1169D02*
X7Y1169D01*
X1212Y1169D02*
X1219Y1169D01*
X0Y1168D02*
X7Y1168D01*
X1212Y1168D02*
X1219Y1168D01*
X0Y1167D02*
X7Y1167D01*
X1212Y1167D02*
X1219Y1167D01*
X0Y1166D02*
X7Y1166D01*
X1212Y1166D02*
X1219Y1166D01*
X0Y1165D02*
X7Y1165D01*
X1212Y1165D02*
X1219Y1165D01*
X0Y1164D02*
X7Y1164D01*
X1212Y1164D02*
X1219Y1164D01*
X0Y1163D02*
X7Y1163D01*
X1212Y1163D02*
X1219Y1163D01*
X0Y1162D02*
X7Y1162D01*
X1212Y1162D02*
X1219Y1162D01*
X0Y1161D02*
X7Y1161D01*
X1212Y1161D02*
X1219Y1161D01*
X0Y1160D02*
X7Y1160D01*
X1212Y1160D02*
X1219Y1160D01*
X0Y1159D02*
X7Y1159D01*
X1212Y1159D02*
X1219Y1159D01*
X0Y1158D02*
X7Y1158D01*
X1212Y1158D02*
X1219Y1158D01*
X0Y1157D02*
X7Y1157D01*
X1212Y1157D02*
X1219Y1157D01*
X0Y1156D02*
X7Y1156D01*
X1212Y1156D02*
X1219Y1156D01*
X0Y1155D02*
X7Y1155D01*
X1212Y1155D02*
X1219Y1155D01*
X0Y1154D02*
X7Y1154D01*
X1212Y1154D02*
X1219Y1154D01*
X0Y1153D02*
X7Y1153D01*
X1212Y1153D02*
X1219Y1153D01*
X0Y1152D02*
X7Y1152D01*
X1212Y1152D02*
X1219Y1152D01*
X0Y1151D02*
X7Y1151D01*
X1212Y1151D02*
X1219Y1151D01*
X0Y1150D02*
X7Y1150D01*
X1212Y1150D02*
X1219Y1150D01*
X0Y1149D02*
X7Y1149D01*
X1212Y1149D02*
X1219Y1149D01*
X0Y1148D02*
X7Y1148D01*
X1212Y1148D02*
X1219Y1148D01*
X0Y1147D02*
X7Y1147D01*
X1212Y1147D02*
X1219Y1147D01*
X0Y1146D02*
X7Y1146D01*
X1212Y1146D02*
X1219Y1146D01*
X0Y1145D02*
X7Y1145D01*
X1212Y1145D02*
X1219Y1145D01*
X0Y1144D02*
X7Y1144D01*
X1212Y1144D02*
X1219Y1144D01*
X0Y1143D02*
X7Y1143D01*
X1212Y1143D02*
X1219Y1143D01*
X0Y1142D02*
X7Y1142D01*
X1212Y1142D02*
X1219Y1142D01*
X0Y1141D02*
X7Y1141D01*
X1212Y1141D02*
X1219Y1141D01*
X0Y1140D02*
X7Y1140D01*
X1212Y1140D02*
X1219Y1140D01*
X0Y1139D02*
X7Y1139D01*
X1212Y1139D02*
X1219Y1139D01*
X0Y1138D02*
X7Y1138D01*
X1212Y1138D02*
X1219Y1138D01*
X0Y1137D02*
X7Y1137D01*
X1212Y1137D02*
X1219Y1137D01*
X0Y1136D02*
X7Y1136D01*
X1212Y1136D02*
X1219Y1136D01*
X0Y1135D02*
X7Y1135D01*
X1212Y1135D02*
X1219Y1135D01*
X0Y1134D02*
X7Y1134D01*
X1212Y1134D02*
X1219Y1134D01*
X0Y1133D02*
X7Y1133D01*
X1212Y1133D02*
X1219Y1133D01*
X0Y1132D02*
X7Y1132D01*
X1212Y1132D02*
X1219Y1132D01*
X0Y1131D02*
X7Y1131D01*
X1212Y1131D02*
X1219Y1131D01*
X0Y1130D02*
X7Y1130D01*
X1212Y1130D02*
X1219Y1130D01*
X0Y1129D02*
X7Y1129D01*
X1212Y1129D02*
X1219Y1129D01*
X0Y1128D02*
X7Y1128D01*
X1212Y1128D02*
X1219Y1128D01*
X0Y1127D02*
X7Y1127D01*
X1212Y1127D02*
X1219Y1127D01*
X0Y1126D02*
X7Y1126D01*
X1212Y1126D02*
X1219Y1126D01*
X0Y1125D02*
X7Y1125D01*
X1212Y1125D02*
X1219Y1125D01*
X0Y1124D02*
X7Y1124D01*
X1212Y1124D02*
X1219Y1124D01*
X0Y1123D02*
X7Y1123D01*
X1212Y1123D02*
X1219Y1123D01*
X0Y1122D02*
X7Y1122D01*
X1212Y1122D02*
X1219Y1122D01*
X0Y1121D02*
X7Y1121D01*
X1212Y1121D02*
X1219Y1121D01*
X0Y1120D02*
X7Y1120D01*
X1212Y1120D02*
X1219Y1120D01*
X0Y1119D02*
X7Y1119D01*
X1212Y1119D02*
X1219Y1119D01*
X0Y1118D02*
X7Y1118D01*
X1212Y1118D02*
X1219Y1118D01*
X0Y1117D02*
X7Y1117D01*
X1212Y1117D02*
X1219Y1117D01*
X0Y1116D02*
X7Y1116D01*
X1212Y1116D02*
X1219Y1116D01*
X0Y1115D02*
X7Y1115D01*
X1212Y1115D02*
X1219Y1115D01*
X0Y1114D02*
X7Y1114D01*
X1212Y1114D02*
X1219Y1114D01*
X0Y1113D02*
X7Y1113D01*
X1212Y1113D02*
X1219Y1113D01*
X0Y1112D02*
X7Y1112D01*
X1212Y1112D02*
X1219Y1112D01*
X0Y1111D02*
X7Y1111D01*
X1212Y1111D02*
X1219Y1111D01*
X0Y1110D02*
X7Y1110D01*
X1212Y1110D02*
X1219Y1110D01*
X0Y1109D02*
X7Y1109D01*
X1212Y1109D02*
X1219Y1109D01*
X0Y1108D02*
X7Y1108D01*
X1212Y1108D02*
X1219Y1108D01*
X0Y1107D02*
X7Y1107D01*
X1212Y1107D02*
X1219Y1107D01*
X0Y1106D02*
X7Y1106D01*
X1212Y1106D02*
X1219Y1106D01*
X0Y1105D02*
X7Y1105D01*
X1212Y1105D02*
X1219Y1105D01*
X0Y1104D02*
X7Y1104D01*
X1212Y1104D02*
X1219Y1104D01*
X0Y1103D02*
X7Y1103D01*
X1212Y1103D02*
X1219Y1103D01*
X0Y1102D02*
X7Y1102D01*
X1212Y1102D02*
X1219Y1102D01*
X0Y1101D02*
X7Y1101D01*
X1212Y1101D02*
X1219Y1101D01*
X0Y1100D02*
X7Y1100D01*
X1212Y1100D02*
X1219Y1100D01*
X0Y1099D02*
X7Y1099D01*
X1212Y1099D02*
X1219Y1099D01*
X0Y1098D02*
X7Y1098D01*
X1212Y1098D02*
X1219Y1098D01*
X0Y1097D02*
X7Y1097D01*
X1212Y1097D02*
X1219Y1097D01*
X0Y1096D02*
X7Y1096D01*
X1212Y1096D02*
X1219Y1096D01*
X0Y1095D02*
X7Y1095D01*
X1212Y1095D02*
X1219Y1095D01*
X0Y1094D02*
X7Y1094D01*
X1212Y1094D02*
X1219Y1094D01*
X0Y1093D02*
X7Y1093D01*
X1212Y1093D02*
X1219Y1093D01*
X0Y1092D02*
X7Y1092D01*
X1212Y1092D02*
X1219Y1092D01*
X0Y1091D02*
X7Y1091D01*
X1212Y1091D02*
X1219Y1091D01*
X0Y1090D02*
X7Y1090D01*
X1212Y1090D02*
X1219Y1090D01*
X0Y1089D02*
X7Y1089D01*
X1212Y1089D02*
X1219Y1089D01*
X0Y1088D02*
X7Y1088D01*
X1212Y1088D02*
X1219Y1088D01*
X0Y1087D02*
X7Y1087D01*
X1212Y1087D02*
X1219Y1087D01*
X0Y1086D02*
X7Y1086D01*
X1212Y1086D02*
X1219Y1086D01*
X0Y1085D02*
X7Y1085D01*
X1212Y1085D02*
X1219Y1085D01*
X0Y1084D02*
X7Y1084D01*
X1212Y1084D02*
X1219Y1084D01*
X0Y1083D02*
X7Y1083D01*
X1212Y1083D02*
X1219Y1083D01*
X0Y1082D02*
X7Y1082D01*
X1212Y1082D02*
X1219Y1082D01*
X0Y1081D02*
X7Y1081D01*
X1212Y1081D02*
X1219Y1081D01*
X0Y1080D02*
X7Y1080D01*
X1212Y1080D02*
X1219Y1080D01*
X0Y1079D02*
X7Y1079D01*
X1212Y1079D02*
X1219Y1079D01*
X0Y1078D02*
X7Y1078D01*
X1212Y1078D02*
X1219Y1078D01*
X0Y1077D02*
X7Y1077D01*
X1212Y1077D02*
X1219Y1077D01*
X0Y1076D02*
X7Y1076D01*
X1212Y1076D02*
X1219Y1076D01*
X0Y1075D02*
X7Y1075D01*
X1212Y1075D02*
X1219Y1075D01*
X0Y1074D02*
X7Y1074D01*
X1212Y1074D02*
X1219Y1074D01*
X0Y1073D02*
X7Y1073D01*
X1212Y1073D02*
X1219Y1073D01*
X0Y1072D02*
X7Y1072D01*
X1212Y1072D02*
X1219Y1072D01*
X0Y1071D02*
X7Y1071D01*
X1212Y1071D02*
X1219Y1071D01*
X0Y1070D02*
X7Y1070D01*
X1212Y1070D02*
X1219Y1070D01*
X0Y1069D02*
X7Y1069D01*
X1212Y1069D02*
X1219Y1069D01*
X0Y1068D02*
X7Y1068D01*
X1212Y1068D02*
X1219Y1068D01*
X0Y1067D02*
X7Y1067D01*
X1212Y1067D02*
X1219Y1067D01*
X0Y1066D02*
X7Y1066D01*
X1212Y1066D02*
X1219Y1066D01*
X0Y1065D02*
X7Y1065D01*
X1212Y1065D02*
X1219Y1065D01*
X0Y1064D02*
X7Y1064D01*
X1212Y1064D02*
X1219Y1064D01*
X0Y1063D02*
X7Y1063D01*
X1212Y1063D02*
X1219Y1063D01*
X0Y1062D02*
X7Y1062D01*
X1212Y1062D02*
X1219Y1062D01*
X0Y1061D02*
X7Y1061D01*
X1212Y1061D02*
X1219Y1061D01*
X0Y1060D02*
X7Y1060D01*
X1212Y1060D02*
X1219Y1060D01*
X0Y1059D02*
X7Y1059D01*
X1212Y1059D02*
X1219Y1059D01*
X0Y1058D02*
X7Y1058D01*
X1212Y1058D02*
X1219Y1058D01*
X0Y1057D02*
X7Y1057D01*
X1212Y1057D02*
X1219Y1057D01*
X0Y1056D02*
X7Y1056D01*
X1212Y1056D02*
X1219Y1056D01*
X0Y1055D02*
X7Y1055D01*
X1212Y1055D02*
X1219Y1055D01*
X0Y1054D02*
X7Y1054D01*
X1212Y1054D02*
X1219Y1054D01*
X0Y1053D02*
X7Y1053D01*
X1212Y1053D02*
X1219Y1053D01*
X0Y1052D02*
X7Y1052D01*
X1212Y1052D02*
X1219Y1052D01*
X0Y1051D02*
X7Y1051D01*
X1212Y1051D02*
X1219Y1051D01*
X0Y1050D02*
X7Y1050D01*
X1212Y1050D02*
X1219Y1050D01*
X0Y1049D02*
X7Y1049D01*
X1212Y1049D02*
X1219Y1049D01*
X0Y1048D02*
X7Y1048D01*
X1212Y1048D02*
X1219Y1048D01*
X0Y1047D02*
X7Y1047D01*
X1212Y1047D02*
X1219Y1047D01*
X0Y1046D02*
X7Y1046D01*
X1212Y1046D02*
X1219Y1046D01*
X0Y1045D02*
X7Y1045D01*
X1212Y1045D02*
X1219Y1045D01*
X0Y1044D02*
X7Y1044D01*
X1212Y1044D02*
X1219Y1044D01*
X0Y1043D02*
X7Y1043D01*
X1212Y1043D02*
X1219Y1043D01*
X0Y1042D02*
X7Y1042D01*
X1212Y1042D02*
X1219Y1042D01*
X0Y1041D02*
X7Y1041D01*
X1212Y1041D02*
X1219Y1041D01*
X0Y1040D02*
X7Y1040D01*
X1212Y1040D02*
X1219Y1040D01*
X0Y1039D02*
X7Y1039D01*
X1212Y1039D02*
X1219Y1039D01*
X0Y1038D02*
X7Y1038D01*
X1212Y1038D02*
X1219Y1038D01*
X0Y1037D02*
X7Y1037D01*
X1212Y1037D02*
X1219Y1037D01*
X0Y1036D02*
X7Y1036D01*
X1212Y1036D02*
X1219Y1036D01*
X0Y1035D02*
X7Y1035D01*
X1212Y1035D02*
X1219Y1035D01*
X0Y1034D02*
X7Y1034D01*
X1212Y1034D02*
X1219Y1034D01*
X0Y1033D02*
X7Y1033D01*
X1212Y1033D02*
X1219Y1033D01*
X0Y1032D02*
X7Y1032D01*
X1212Y1032D02*
X1219Y1032D01*
X0Y1031D02*
X7Y1031D01*
X1212Y1031D02*
X1219Y1031D01*
X0Y1030D02*
X7Y1030D01*
X1212Y1030D02*
X1219Y1030D01*
X0Y1029D02*
X7Y1029D01*
X1212Y1029D02*
X1219Y1029D01*
X0Y1028D02*
X7Y1028D01*
X1212Y1028D02*
X1219Y1028D01*
X0Y1027D02*
X7Y1027D01*
X1212Y1027D02*
X1219Y1027D01*
X0Y1026D02*
X7Y1026D01*
X1212Y1026D02*
X1219Y1026D01*
X0Y1025D02*
X7Y1025D01*
X1212Y1025D02*
X1219Y1025D01*
X0Y1024D02*
X7Y1024D01*
X1212Y1024D02*
X1219Y1024D01*
X0Y1023D02*
X7Y1023D01*
X1212Y1023D02*
X1219Y1023D01*
X0Y1022D02*
X7Y1022D01*
X1212Y1022D02*
X1219Y1022D01*
X0Y1021D02*
X7Y1021D01*
X1212Y1021D02*
X1219Y1021D01*
X0Y1020D02*
X7Y1020D01*
X1212Y1020D02*
X1219Y1020D01*
X0Y1019D02*
X7Y1019D01*
X1212Y1019D02*
X1219Y1019D01*
X0Y1018D02*
X7Y1018D01*
X1212Y1018D02*
X1219Y1018D01*
X0Y1017D02*
X7Y1017D01*
X1212Y1017D02*
X1219Y1017D01*
X0Y1016D02*
X7Y1016D01*
X1212Y1016D02*
X1219Y1016D01*
X0Y1015D02*
X7Y1015D01*
X1212Y1015D02*
X1219Y1015D01*
X0Y1014D02*
X7Y1014D01*
X1212Y1014D02*
X1219Y1014D01*
X0Y1013D02*
X7Y1013D01*
X1212Y1013D02*
X1219Y1013D01*
X0Y1012D02*
X7Y1012D01*
X1212Y1012D02*
X1219Y1012D01*
X0Y1011D02*
X7Y1011D01*
X1212Y1011D02*
X1219Y1011D01*
X0Y1010D02*
X7Y1010D01*
X1212Y1010D02*
X1219Y1010D01*
X0Y1009D02*
X7Y1009D01*
X1212Y1009D02*
X1219Y1009D01*
X0Y1008D02*
X7Y1008D01*
X1212Y1008D02*
X1219Y1008D01*
X0Y1007D02*
X7Y1007D01*
X1212Y1007D02*
X1219Y1007D01*
X0Y1006D02*
X7Y1006D01*
X1212Y1006D02*
X1219Y1006D01*
X0Y1005D02*
X7Y1005D01*
X1212Y1005D02*
X1219Y1005D01*
X0Y1004D02*
X7Y1004D01*
X1212Y1004D02*
X1219Y1004D01*
X0Y1003D02*
X7Y1003D01*
X1212Y1003D02*
X1219Y1003D01*
X0Y1002D02*
X7Y1002D01*
X1212Y1002D02*
X1219Y1002D01*
X0Y1001D02*
X7Y1001D01*
X1212Y1001D02*
X1219Y1001D01*
X0Y1000D02*
X7Y1000D01*
X1212Y1000D02*
X1219Y1000D01*
X0Y999D02*
X7Y999D01*
X1212Y999D02*
X1219Y999D01*
X0Y998D02*
X7Y998D01*
X1212Y998D02*
X1219Y998D01*
X0Y997D02*
X7Y997D01*
X1212Y997D02*
X1219Y997D01*
X0Y996D02*
X7Y996D01*
X1212Y996D02*
X1219Y996D01*
X0Y995D02*
X7Y995D01*
X1212Y995D02*
X1219Y995D01*
X0Y994D02*
X7Y994D01*
X1212Y994D02*
X1219Y994D01*
X0Y993D02*
X7Y993D01*
X1212Y993D02*
X1219Y993D01*
X0Y992D02*
X7Y992D01*
X1212Y992D02*
X1219Y992D01*
X0Y991D02*
X7Y991D01*
X1212Y991D02*
X1219Y991D01*
X0Y990D02*
X7Y990D01*
X1212Y990D02*
X1219Y990D01*
X0Y989D02*
X7Y989D01*
X1212Y989D02*
X1219Y989D01*
X0Y988D02*
X7Y988D01*
X1212Y988D02*
X1219Y988D01*
X0Y987D02*
X7Y987D01*
X1212Y987D02*
X1219Y987D01*
X0Y986D02*
X7Y986D01*
X1212Y986D02*
X1219Y986D01*
X0Y985D02*
X7Y985D01*
X1212Y985D02*
X1219Y985D01*
X0Y984D02*
X7Y984D01*
X1212Y984D02*
X1219Y984D01*
X0Y983D02*
X7Y983D01*
X1212Y983D02*
X1219Y983D01*
X0Y982D02*
X7Y982D01*
X1212Y982D02*
X1219Y982D01*
X0Y981D02*
X7Y981D01*
X1212Y981D02*
X1219Y981D01*
X0Y980D02*
X7Y980D01*
X1212Y980D02*
X1219Y980D01*
X0Y979D02*
X7Y979D01*
X1212Y979D02*
X1219Y979D01*
X0Y978D02*
X7Y978D01*
X1212Y978D02*
X1219Y978D01*
X0Y977D02*
X7Y977D01*
X1212Y977D02*
X1219Y977D01*
X0Y976D02*
X7Y976D01*
X1212Y976D02*
X1219Y976D01*
X0Y975D02*
X7Y975D01*
X1212Y975D02*
X1219Y975D01*
X0Y974D02*
X7Y974D01*
X1212Y974D02*
X1219Y974D01*
X0Y973D02*
X7Y973D01*
X1212Y973D02*
X1219Y973D01*
X0Y972D02*
X7Y972D01*
X1212Y972D02*
X1219Y972D01*
X0Y971D02*
X7Y971D01*
X1212Y971D02*
X1219Y971D01*
X0Y970D02*
X7Y970D01*
X1212Y970D02*
X1219Y970D01*
X0Y969D02*
X7Y969D01*
X1212Y969D02*
X1219Y969D01*
X0Y968D02*
X7Y968D01*
X1212Y968D02*
X1219Y968D01*
X0Y967D02*
X7Y967D01*
X1212Y967D02*
X1219Y967D01*
X0Y966D02*
X7Y966D01*
X1212Y966D02*
X1219Y966D01*
X0Y965D02*
X7Y965D01*
X1212Y965D02*
X1219Y965D01*
X0Y964D02*
X7Y964D01*
X1212Y964D02*
X1219Y964D01*
X0Y963D02*
X7Y963D01*
X1212Y963D02*
X1219Y963D01*
X0Y962D02*
X7Y962D01*
X1212Y962D02*
X1219Y962D01*
X0Y961D02*
X7Y961D01*
X1212Y961D02*
X1219Y961D01*
X0Y960D02*
X7Y960D01*
X1212Y960D02*
X1219Y960D01*
X0Y959D02*
X7Y959D01*
X1212Y959D02*
X1219Y959D01*
X0Y958D02*
X7Y958D01*
X1212Y958D02*
X1219Y958D01*
X0Y957D02*
X7Y957D01*
X1212Y957D02*
X1219Y957D01*
X0Y956D02*
X7Y956D01*
X1212Y956D02*
X1219Y956D01*
X0Y955D02*
X7Y955D01*
X1212Y955D02*
X1219Y955D01*
X0Y954D02*
X7Y954D01*
X1212Y954D02*
X1219Y954D01*
X0Y953D02*
X7Y953D01*
X1212Y953D02*
X1219Y953D01*
X0Y952D02*
X7Y952D01*
X1212Y952D02*
X1219Y952D01*
X0Y951D02*
X7Y951D01*
X1212Y951D02*
X1219Y951D01*
X0Y950D02*
X7Y950D01*
X1212Y950D02*
X1219Y950D01*
X0Y949D02*
X7Y949D01*
X1212Y949D02*
X1219Y949D01*
X0Y948D02*
X7Y948D01*
X1212Y948D02*
X1219Y948D01*
X0Y947D02*
X7Y947D01*
X1212Y947D02*
X1219Y947D01*
X0Y946D02*
X7Y946D01*
X1212Y946D02*
X1219Y946D01*
X0Y945D02*
X7Y945D01*
X1212Y945D02*
X1219Y945D01*
X0Y944D02*
X7Y944D01*
X1212Y944D02*
X1219Y944D01*
X0Y943D02*
X7Y943D01*
X1212Y943D02*
X1219Y943D01*
X0Y942D02*
X7Y942D01*
X1212Y942D02*
X1219Y942D01*
X0Y941D02*
X7Y941D01*
X1212Y941D02*
X1219Y941D01*
X0Y940D02*
X7Y940D01*
X1212Y940D02*
X1219Y940D01*
X0Y939D02*
X7Y939D01*
X1212Y939D02*
X1219Y939D01*
X0Y938D02*
X7Y938D01*
X1212Y938D02*
X1219Y938D01*
X0Y937D02*
X7Y937D01*
X1212Y937D02*
X1219Y937D01*
X0Y936D02*
X7Y936D01*
X1212Y936D02*
X1219Y936D01*
X0Y935D02*
X7Y935D01*
X1212Y935D02*
X1219Y935D01*
X0Y934D02*
X7Y934D01*
X1212Y934D02*
X1219Y934D01*
X0Y933D02*
X7Y933D01*
X1212Y933D02*
X1219Y933D01*
X0Y932D02*
X7Y932D01*
X1212Y932D02*
X1219Y932D01*
X0Y931D02*
X7Y931D01*
X1212Y931D02*
X1219Y931D01*
X0Y930D02*
X7Y930D01*
X1212Y930D02*
X1219Y930D01*
X0Y929D02*
X7Y929D01*
X1212Y929D02*
X1219Y929D01*
X0Y928D02*
X7Y928D01*
X1212Y928D02*
X1219Y928D01*
X0Y927D02*
X7Y927D01*
X1212Y927D02*
X1219Y927D01*
X0Y926D02*
X7Y926D01*
X1212Y926D02*
X1219Y926D01*
X0Y925D02*
X7Y925D01*
X1212Y925D02*
X1219Y925D01*
X0Y924D02*
X7Y924D01*
X1212Y924D02*
X1219Y924D01*
X0Y923D02*
X7Y923D01*
X1212Y923D02*
X1219Y923D01*
X0Y922D02*
X7Y922D01*
X1212Y922D02*
X1219Y922D01*
X0Y921D02*
X7Y921D01*
X1212Y921D02*
X1219Y921D01*
X0Y920D02*
X7Y920D01*
X1212Y920D02*
X1219Y920D01*
X0Y919D02*
X7Y919D01*
X1212Y919D02*
X1219Y919D01*
X0Y918D02*
X7Y918D01*
X1212Y918D02*
X1219Y918D01*
X0Y917D02*
X7Y917D01*
X1212Y917D02*
X1219Y917D01*
X0Y916D02*
X7Y916D01*
X1212Y916D02*
X1219Y916D01*
X0Y915D02*
X7Y915D01*
X1212Y915D02*
X1219Y915D01*
X0Y914D02*
X7Y914D01*
X1212Y914D02*
X1219Y914D01*
X0Y913D02*
X7Y913D01*
X1212Y913D02*
X1219Y913D01*
X0Y912D02*
X7Y912D01*
X1212Y912D02*
X1219Y912D01*
X0Y911D02*
X7Y911D01*
X1212Y911D02*
X1219Y911D01*
X0Y910D02*
X7Y910D01*
X1212Y910D02*
X1219Y910D01*
X0Y909D02*
X7Y909D01*
X1212Y909D02*
X1219Y909D01*
X0Y908D02*
X7Y908D01*
X1212Y908D02*
X1219Y908D01*
X0Y907D02*
X7Y907D01*
X1212Y907D02*
X1219Y907D01*
X0Y906D02*
X7Y906D01*
X1212Y906D02*
X1219Y906D01*
X0Y905D02*
X7Y905D01*
X1212Y905D02*
X1219Y905D01*
X0Y904D02*
X7Y904D01*
X1212Y904D02*
X1219Y904D01*
X0Y903D02*
X7Y903D01*
X1212Y903D02*
X1219Y903D01*
X0Y902D02*
X7Y902D01*
X1212Y902D02*
X1219Y902D01*
X0Y901D02*
X7Y901D01*
X1212Y901D02*
X1219Y901D01*
X0Y900D02*
X7Y900D01*
X1212Y900D02*
X1219Y900D01*
X0Y899D02*
X7Y899D01*
X1212Y899D02*
X1219Y899D01*
X0Y898D02*
X7Y898D01*
X1212Y898D02*
X1219Y898D01*
X0Y897D02*
X7Y897D01*
X1212Y897D02*
X1219Y897D01*
X0Y896D02*
X7Y896D01*
X1212Y896D02*
X1219Y896D01*
X0Y895D02*
X7Y895D01*
X1212Y895D02*
X1219Y895D01*
X0Y894D02*
X7Y894D01*
X1212Y894D02*
X1219Y894D01*
X0Y893D02*
X7Y893D01*
X1212Y893D02*
X1219Y893D01*
X0Y892D02*
X7Y892D01*
X1212Y892D02*
X1219Y892D01*
X0Y891D02*
X7Y891D01*
X1212Y891D02*
X1219Y891D01*
X0Y890D02*
X7Y890D01*
X1212Y890D02*
X1219Y890D01*
X0Y889D02*
X7Y889D01*
X1212Y889D02*
X1219Y889D01*
X0Y888D02*
X7Y888D01*
X1212Y888D02*
X1219Y888D01*
X0Y887D02*
X7Y887D01*
X1212Y887D02*
X1219Y887D01*
X0Y886D02*
X7Y886D01*
X1212Y886D02*
X1219Y886D01*
X0Y885D02*
X7Y885D01*
X1212Y885D02*
X1219Y885D01*
X0Y884D02*
X7Y884D01*
X1212Y884D02*
X1219Y884D01*
X0Y883D02*
X7Y883D01*
X1212Y883D02*
X1219Y883D01*
X0Y882D02*
X7Y882D01*
X1212Y882D02*
X1219Y882D01*
X0Y881D02*
X7Y881D01*
X1212Y881D02*
X1219Y881D01*
X0Y880D02*
X7Y880D01*
X1212Y880D02*
X1219Y880D01*
X0Y879D02*
X7Y879D01*
X1212Y879D02*
X1219Y879D01*
X0Y878D02*
X7Y878D01*
X1212Y878D02*
X1219Y878D01*
X0Y877D02*
X7Y877D01*
X1212Y877D02*
X1219Y877D01*
X0Y876D02*
X7Y876D01*
X1212Y876D02*
X1219Y876D01*
X0Y875D02*
X7Y875D01*
X1212Y875D02*
X1219Y875D01*
X0Y874D02*
X7Y874D01*
X1212Y874D02*
X1219Y874D01*
X0Y873D02*
X7Y873D01*
X1212Y873D02*
X1219Y873D01*
X0Y872D02*
X7Y872D01*
X1212Y872D02*
X1219Y872D01*
X0Y871D02*
X7Y871D01*
X1212Y871D02*
X1219Y871D01*
X0Y870D02*
X7Y870D01*
X1212Y870D02*
X1219Y870D01*
X0Y869D02*
X7Y869D01*
X1212Y869D02*
X1219Y869D01*
X0Y868D02*
X7Y868D01*
X1212Y868D02*
X1219Y868D01*
X0Y867D02*
X7Y867D01*
X1212Y867D02*
X1219Y867D01*
X0Y866D02*
X7Y866D01*
X1212Y866D02*
X1219Y866D01*
X0Y865D02*
X7Y865D01*
X1212Y865D02*
X1219Y865D01*
X0Y864D02*
X7Y864D01*
X1212Y864D02*
X1219Y864D01*
X0Y863D02*
X7Y863D01*
X1212Y863D02*
X1219Y863D01*
X0Y862D02*
X7Y862D01*
X1212Y862D02*
X1219Y862D01*
X0Y861D02*
X7Y861D01*
X1212Y861D02*
X1219Y861D01*
X0Y860D02*
X7Y860D01*
X1212Y860D02*
X1219Y860D01*
X0Y859D02*
X7Y859D01*
X1212Y859D02*
X1219Y859D01*
X0Y858D02*
X7Y858D01*
X1212Y858D02*
X1219Y858D01*
X0Y857D02*
X7Y857D01*
X1212Y857D02*
X1219Y857D01*
X0Y856D02*
X7Y856D01*
X1212Y856D02*
X1219Y856D01*
X0Y855D02*
X7Y855D01*
X1212Y855D02*
X1219Y855D01*
X0Y854D02*
X7Y854D01*
X1212Y854D02*
X1219Y854D01*
X0Y853D02*
X7Y853D01*
X1212Y853D02*
X1219Y853D01*
X0Y852D02*
X7Y852D01*
X1212Y852D02*
X1219Y852D01*
X0Y851D02*
X7Y851D01*
X1212Y851D02*
X1219Y851D01*
X0Y850D02*
X7Y850D01*
X1212Y850D02*
X1219Y850D01*
X0Y849D02*
X7Y849D01*
X1212Y849D02*
X1219Y849D01*
X0Y848D02*
X7Y848D01*
X1212Y848D02*
X1219Y848D01*
X0Y847D02*
X7Y847D01*
X1212Y847D02*
X1219Y847D01*
X0Y846D02*
X7Y846D01*
X1212Y846D02*
X1219Y846D01*
X0Y845D02*
X7Y845D01*
X1212Y845D02*
X1219Y845D01*
X0Y844D02*
X7Y844D01*
X1212Y844D02*
X1219Y844D01*
X0Y843D02*
X7Y843D01*
X1212Y843D02*
X1219Y843D01*
X0Y842D02*
X7Y842D01*
X1212Y842D02*
X1219Y842D01*
X0Y841D02*
X7Y841D01*
X1212Y841D02*
X1219Y841D01*
X0Y840D02*
X7Y840D01*
X1212Y840D02*
X1219Y840D01*
X0Y839D02*
X7Y839D01*
X1212Y839D02*
X1219Y839D01*
X0Y838D02*
X7Y838D01*
X1212Y838D02*
X1219Y838D01*
X0Y837D02*
X7Y837D01*
X1212Y837D02*
X1219Y837D01*
X0Y836D02*
X7Y836D01*
X1212Y836D02*
X1219Y836D01*
X0Y835D02*
X7Y835D01*
X1212Y835D02*
X1219Y835D01*
X0Y834D02*
X7Y834D01*
X1212Y834D02*
X1219Y834D01*
X0Y833D02*
X7Y833D01*
X1212Y833D02*
X1219Y833D01*
X0Y832D02*
X7Y832D01*
X1212Y832D02*
X1219Y832D01*
X0Y831D02*
X7Y831D01*
X1212Y831D02*
X1219Y831D01*
X0Y830D02*
X7Y830D01*
X1212Y830D02*
X1219Y830D01*
X0Y829D02*
X7Y829D01*
X1212Y829D02*
X1219Y829D01*
X0Y828D02*
X7Y828D01*
X1212Y828D02*
X1219Y828D01*
X0Y827D02*
X7Y827D01*
X1212Y827D02*
X1219Y827D01*
X0Y826D02*
X7Y826D01*
X1212Y826D02*
X1219Y826D01*
X0Y825D02*
X7Y825D01*
X1212Y825D02*
X1219Y825D01*
X0Y824D02*
X7Y824D01*
X1212Y824D02*
X1219Y824D01*
X0Y823D02*
X7Y823D01*
X1212Y823D02*
X1219Y823D01*
X0Y822D02*
X7Y822D01*
X1212Y822D02*
X1219Y822D01*
X0Y821D02*
X7Y821D01*
X1212Y821D02*
X1219Y821D01*
X0Y820D02*
X7Y820D01*
X1212Y820D02*
X1219Y820D01*
X0Y819D02*
X7Y819D01*
X1212Y819D02*
X1219Y819D01*
X0Y818D02*
X7Y818D01*
X1212Y818D02*
X1219Y818D01*
X0Y817D02*
X7Y817D01*
X1212Y817D02*
X1219Y817D01*
X0Y816D02*
X7Y816D01*
X1212Y816D02*
X1219Y816D01*
X0Y815D02*
X7Y815D01*
X1212Y815D02*
X1219Y815D01*
X0Y814D02*
X7Y814D01*
X1212Y814D02*
X1219Y814D01*
X0Y813D02*
X7Y813D01*
X1212Y813D02*
X1219Y813D01*
X0Y812D02*
X7Y812D01*
X1212Y812D02*
X1219Y812D01*
X0Y811D02*
X7Y811D01*
X1212Y811D02*
X1219Y811D01*
X0Y810D02*
X7Y810D01*
X1212Y810D02*
X1219Y810D01*
X0Y809D02*
X7Y809D01*
X1212Y809D02*
X1219Y809D01*
X0Y808D02*
X7Y808D01*
X1212Y808D02*
X1219Y808D01*
X0Y807D02*
X7Y807D01*
X1212Y807D02*
X1219Y807D01*
X0Y806D02*
X7Y806D01*
X1212Y806D02*
X1219Y806D01*
X0Y805D02*
X7Y805D01*
X1212Y805D02*
X1219Y805D01*
X0Y804D02*
X7Y804D01*
X1212Y804D02*
X1219Y804D01*
X0Y803D02*
X7Y803D01*
X1212Y803D02*
X1219Y803D01*
X0Y802D02*
X7Y802D01*
X1212Y802D02*
X1219Y802D01*
X0Y801D02*
X7Y801D01*
X1212Y801D02*
X1219Y801D01*
X0Y800D02*
X7Y800D01*
X1212Y800D02*
X1219Y800D01*
X0Y799D02*
X7Y799D01*
X1212Y799D02*
X1219Y799D01*
X0Y798D02*
X7Y798D01*
X1212Y798D02*
X1219Y798D01*
X0Y797D02*
X7Y797D01*
X1212Y797D02*
X1219Y797D01*
X0Y796D02*
X7Y796D01*
X1212Y796D02*
X1219Y796D01*
X0Y795D02*
X7Y795D01*
X1212Y795D02*
X1219Y795D01*
X0Y794D02*
X7Y794D01*
X1212Y794D02*
X1219Y794D01*
X0Y793D02*
X7Y793D01*
X1212Y793D02*
X1219Y793D01*
X0Y792D02*
X7Y792D01*
X1212Y792D02*
X1219Y792D01*
X0Y791D02*
X7Y791D01*
X1212Y791D02*
X1219Y791D01*
X0Y790D02*
X7Y790D01*
X1212Y790D02*
X1219Y790D01*
X0Y789D02*
X7Y789D01*
X1212Y789D02*
X1219Y789D01*
X0Y788D02*
X7Y788D01*
X1212Y788D02*
X1219Y788D01*
X0Y787D02*
X7Y787D01*
X1212Y787D02*
X1219Y787D01*
X0Y786D02*
X7Y786D01*
X1212Y786D02*
X1219Y786D01*
X0Y785D02*
X7Y785D01*
X1212Y785D02*
X1219Y785D01*
X0Y784D02*
X7Y784D01*
X1212Y784D02*
X1219Y784D01*
X0Y783D02*
X7Y783D01*
X1212Y783D02*
X1219Y783D01*
X0Y782D02*
X7Y782D01*
X1212Y782D02*
X1219Y782D01*
X0Y781D02*
X7Y781D01*
X1212Y781D02*
X1219Y781D01*
X0Y780D02*
X7Y780D01*
X1212Y780D02*
X1219Y780D01*
X0Y779D02*
X7Y779D01*
X1212Y779D02*
X1219Y779D01*
X0Y778D02*
X7Y778D01*
X1212Y778D02*
X1219Y778D01*
X0Y777D02*
X7Y777D01*
X1212Y777D02*
X1219Y777D01*
X0Y776D02*
X7Y776D01*
X1212Y776D02*
X1219Y776D01*
X0Y775D02*
X7Y775D01*
X1212Y775D02*
X1219Y775D01*
X0Y774D02*
X7Y774D01*
X1212Y774D02*
X1219Y774D01*
X0Y773D02*
X7Y773D01*
X1212Y773D02*
X1219Y773D01*
X0Y772D02*
X7Y772D01*
X1212Y772D02*
X1219Y772D01*
X0Y771D02*
X7Y771D01*
X1212Y771D02*
X1219Y771D01*
X0Y770D02*
X7Y770D01*
X1212Y770D02*
X1219Y770D01*
X0Y769D02*
X7Y769D01*
X1212Y769D02*
X1219Y769D01*
X0Y768D02*
X7Y768D01*
X1212Y768D02*
X1219Y768D01*
X0Y767D02*
X7Y767D01*
X1212Y767D02*
X1219Y767D01*
X0Y766D02*
X7Y766D01*
X1212Y766D02*
X1219Y766D01*
X0Y765D02*
X7Y765D01*
X1212Y765D02*
X1219Y765D01*
X0Y764D02*
X7Y764D01*
X1212Y764D02*
X1219Y764D01*
X0Y763D02*
X7Y763D01*
X1212Y763D02*
X1219Y763D01*
X0Y762D02*
X7Y762D01*
X1212Y762D02*
X1219Y762D01*
X0Y761D02*
X7Y761D01*
X367Y761D02*
X920Y761D01*
X1212Y761D02*
X1219Y761D01*
X0Y760D02*
X7Y760D01*
X367Y760D02*
X920Y760D01*
X1212Y760D02*
X1219Y760D01*
X0Y759D02*
X7Y759D01*
X367Y759D02*
X920Y759D01*
X1212Y759D02*
X1219Y759D01*
X0Y758D02*
X7Y758D01*
X367Y758D02*
X920Y758D01*
X1212Y758D02*
X1219Y758D01*
X0Y757D02*
X7Y757D01*
X367Y757D02*
X920Y757D01*
X1212Y757D02*
X1219Y757D01*
X0Y756D02*
X7Y756D01*
X367Y756D02*
X920Y756D01*
X1212Y756D02*
X1219Y756D01*
X0Y755D02*
X7Y755D01*
X367Y755D02*
X920Y755D01*
X1212Y755D02*
X1219Y755D01*
X0Y754D02*
X7Y754D01*
X367Y754D02*
X920Y754D01*
X1212Y754D02*
X1219Y754D01*
X0Y753D02*
X7Y753D01*
X367Y753D02*
X920Y753D01*
X1212Y753D02*
X1219Y753D01*
X0Y752D02*
X7Y752D01*
X367Y752D02*
X920Y752D01*
X1212Y752D02*
X1219Y752D01*
X0Y751D02*
X7Y751D01*
X367Y751D02*
X920Y751D01*
X1212Y751D02*
X1219Y751D01*
X0Y750D02*
X7Y750D01*
X367Y750D02*
X920Y750D01*
X1212Y750D02*
X1219Y750D01*
X0Y749D02*
X7Y749D01*
X367Y749D02*
X920Y749D01*
X1212Y749D02*
X1219Y749D01*
X0Y748D02*
X7Y748D01*
X367Y748D02*
X713Y748D01*
X725Y748D02*
X920Y748D01*
X1212Y748D02*
X1219Y748D01*
X0Y747D02*
X7Y747D01*
X367Y747D02*
X710Y747D01*
X728Y747D02*
X920Y747D01*
X1212Y747D02*
X1219Y747D01*
X0Y746D02*
X7Y746D01*
X367Y746D02*
X708Y746D01*
X731Y746D02*
X920Y746D01*
X1212Y746D02*
X1219Y746D01*
X0Y745D02*
X7Y745D01*
X367Y745D02*
X706Y745D01*
X733Y745D02*
X920Y745D01*
X1212Y745D02*
X1219Y745D01*
X0Y744D02*
X7Y744D01*
X367Y744D02*
X704Y744D01*
X734Y744D02*
X920Y744D01*
X1212Y744D02*
X1219Y744D01*
X0Y743D02*
X7Y743D01*
X367Y743D02*
X703Y743D01*
X735Y743D02*
X920Y743D01*
X1212Y743D02*
X1219Y743D01*
X0Y742D02*
X7Y742D01*
X367Y742D02*
X702Y742D01*
X737Y742D02*
X920Y742D01*
X1212Y742D02*
X1219Y742D01*
X0Y741D02*
X7Y741D01*
X367Y741D02*
X701Y741D01*
X738Y741D02*
X920Y741D01*
X1212Y741D02*
X1219Y741D01*
X0Y740D02*
X7Y740D01*
X367Y740D02*
X700Y740D01*
X738Y740D02*
X920Y740D01*
X1212Y740D02*
X1219Y740D01*
X0Y739D02*
X7Y739D01*
X367Y739D02*
X699Y739D01*
X739Y739D02*
X920Y739D01*
X1212Y739D02*
X1219Y739D01*
X0Y738D02*
X7Y738D01*
X367Y738D02*
X698Y738D01*
X740Y738D02*
X920Y738D01*
X1212Y738D02*
X1219Y738D01*
X0Y737D02*
X7Y737D01*
X367Y737D02*
X698Y737D01*
X741Y737D02*
X920Y737D01*
X1212Y737D02*
X1219Y737D01*
X0Y736D02*
X7Y736D01*
X367Y736D02*
X697Y736D01*
X741Y736D02*
X920Y736D01*
X1212Y736D02*
X1219Y736D01*
X0Y735D02*
X7Y735D01*
X367Y735D02*
X697Y735D01*
X742Y735D02*
X920Y735D01*
X1212Y735D02*
X1219Y735D01*
X0Y734D02*
X7Y734D01*
X367Y734D02*
X696Y734D01*
X742Y734D02*
X920Y734D01*
X1212Y734D02*
X1219Y734D01*
X0Y733D02*
X7Y733D01*
X367Y733D02*
X696Y733D01*
X743Y733D02*
X920Y733D01*
X1212Y733D02*
X1219Y733D01*
X0Y732D02*
X7Y732D01*
X367Y732D02*
X696Y732D01*
X743Y732D02*
X920Y732D01*
X1212Y732D02*
X1219Y732D01*
X0Y731D02*
X7Y731D01*
X367Y731D02*
X695Y731D01*
X743Y731D02*
X920Y731D01*
X1212Y731D02*
X1219Y731D01*
X0Y730D02*
X7Y730D01*
X367Y730D02*
X695Y730D01*
X743Y730D02*
X920Y730D01*
X1212Y730D02*
X1219Y730D01*
X0Y729D02*
X7Y729D01*
X367Y729D02*
X695Y729D01*
X744Y729D02*
X920Y729D01*
X1212Y729D02*
X1219Y729D01*
X0Y728D02*
X7Y728D01*
X367Y728D02*
X694Y728D01*
X744Y728D02*
X920Y728D01*
X1212Y728D02*
X1219Y728D01*
X0Y727D02*
X7Y727D01*
X367Y727D02*
X694Y727D01*
X744Y727D02*
X920Y727D01*
X1212Y727D02*
X1219Y727D01*
X0Y726D02*
X7Y726D01*
X367Y726D02*
X694Y726D01*
X744Y726D02*
X920Y726D01*
X1212Y726D02*
X1219Y726D01*
X0Y725D02*
X7Y725D01*
X367Y725D02*
X694Y725D01*
X744Y725D02*
X920Y725D01*
X1212Y725D02*
X1219Y725D01*
X0Y724D02*
X7Y724D01*
X367Y724D02*
X694Y724D01*
X744Y724D02*
X920Y724D01*
X1212Y724D02*
X1219Y724D01*
X0Y723D02*
X7Y723D01*
X367Y723D02*
X694Y723D01*
X744Y723D02*
X920Y723D01*
X1212Y723D02*
X1219Y723D01*
X0Y722D02*
X7Y722D01*
X367Y722D02*
X694Y722D01*
X744Y722D02*
X920Y722D01*
X1212Y722D02*
X1219Y722D01*
X0Y721D02*
X7Y721D01*
X367Y721D02*
X694Y721D01*
X744Y721D02*
X920Y721D01*
X1212Y721D02*
X1219Y721D01*
X0Y720D02*
X7Y720D01*
X367Y720D02*
X695Y720D01*
X744Y720D02*
X920Y720D01*
X1212Y720D02*
X1219Y720D01*
X0Y719D02*
X7Y719D01*
X367Y719D02*
X695Y719D01*
X744Y719D02*
X920Y719D01*
X1212Y719D02*
X1219Y719D01*
X0Y718D02*
X7Y718D01*
X367Y718D02*
X695Y718D01*
X743Y718D02*
X920Y718D01*
X1212Y718D02*
X1219Y718D01*
X0Y717D02*
X7Y717D01*
X367Y717D02*
X695Y717D01*
X743Y717D02*
X920Y717D01*
X1212Y717D02*
X1219Y717D01*
X0Y716D02*
X7Y716D01*
X367Y716D02*
X696Y716D01*
X743Y716D02*
X920Y716D01*
X1212Y716D02*
X1219Y716D01*
X0Y715D02*
X7Y715D01*
X367Y715D02*
X696Y715D01*
X742Y715D02*
X920Y715D01*
X1212Y715D02*
X1219Y715D01*
X0Y714D02*
X7Y714D01*
X367Y714D02*
X697Y714D01*
X742Y714D02*
X920Y714D01*
X1212Y714D02*
X1219Y714D01*
X0Y713D02*
X7Y713D01*
X367Y713D02*
X697Y713D01*
X741Y713D02*
X920Y713D01*
X1212Y713D02*
X1219Y713D01*
X0Y712D02*
X7Y712D01*
X367Y712D02*
X698Y712D01*
X741Y712D02*
X920Y712D01*
X1212Y712D02*
X1219Y712D01*
X0Y711D02*
X7Y711D01*
X367Y711D02*
X698Y711D01*
X740Y711D02*
X920Y711D01*
X1212Y711D02*
X1219Y711D01*
X0Y710D02*
X7Y710D01*
X367Y710D02*
X699Y710D01*
X740Y710D02*
X920Y710D01*
X1212Y710D02*
X1219Y710D01*
X0Y709D02*
X7Y709D01*
X367Y709D02*
X700Y709D01*
X739Y709D02*
X920Y709D01*
X1212Y709D02*
X1219Y709D01*
X0Y708D02*
X7Y708D01*
X367Y708D02*
X700Y708D01*
X738Y708D02*
X920Y708D01*
X1212Y708D02*
X1219Y708D01*
X0Y707D02*
X7Y707D01*
X367Y707D02*
X701Y707D01*
X737Y707D02*
X920Y707D01*
X1212Y707D02*
X1219Y707D01*
X0Y706D02*
X7Y706D01*
X367Y706D02*
X702Y706D01*
X736Y706D02*
X920Y706D01*
X1212Y706D02*
X1219Y706D01*
X0Y705D02*
X7Y705D01*
X367Y705D02*
X704Y705D01*
X735Y705D02*
X920Y705D01*
X1212Y705D02*
X1219Y705D01*
X0Y704D02*
X7Y704D01*
X367Y704D02*
X705Y704D01*
X734Y704D02*
X920Y704D01*
X1212Y704D02*
X1219Y704D01*
X0Y703D02*
X7Y703D01*
X367Y703D02*
X707Y703D01*
X732Y703D02*
X785Y703D01*
X1212Y703D02*
X1219Y703D01*
X0Y702D02*
X7Y702D01*
X367Y702D02*
X709Y702D01*
X730Y702D02*
X784Y702D01*
X1212Y702D02*
X1219Y702D01*
X0Y701D02*
X7Y701D01*
X367Y701D02*
X711Y701D01*
X727Y701D02*
X748Y701D01*
X1212Y701D02*
X1219Y701D01*
X0Y700D02*
X7Y700D01*
X367Y700D02*
X715Y700D01*
X724Y700D02*
X740Y700D01*
X1212Y700D02*
X1219Y700D01*
X0Y699D02*
X7Y699D01*
X367Y699D02*
X730Y699D01*
X1212Y699D02*
X1219Y699D01*
X0Y698D02*
X7Y698D01*
X367Y698D02*
X726Y698D01*
X1212Y698D02*
X1219Y698D01*
X0Y697D02*
X7Y697D01*
X367Y697D02*
X718Y697D01*
X1212Y697D02*
X1219Y697D01*
X0Y696D02*
X7Y696D01*
X367Y696D02*
X712Y696D01*
X1212Y696D02*
X1219Y696D01*
X0Y695D02*
X7Y695D01*
X367Y695D02*
X708Y695D01*
X1212Y695D02*
X1219Y695D01*
X0Y694D02*
X7Y694D01*
X367Y694D02*
X702Y694D01*
X1212Y694D02*
X1219Y694D01*
X0Y693D02*
X7Y693D01*
X367Y693D02*
X701Y693D01*
X1212Y693D02*
X1219Y693D01*
X0Y692D02*
X7Y692D01*
X367Y692D02*
X712Y692D01*
X1212Y692D02*
X1219Y692D01*
X0Y691D02*
X7Y691D01*
X367Y691D02*
X708Y691D01*
X1212Y691D02*
X1219Y691D01*
X0Y690D02*
X7Y690D01*
X367Y690D02*
X706Y690D01*
X1212Y690D02*
X1219Y690D01*
X0Y689D02*
X7Y689D01*
X367Y689D02*
X703Y689D01*
X1212Y689D02*
X1219Y689D01*
X0Y688D02*
X7Y688D01*
X367Y688D02*
X700Y688D01*
X1212Y688D02*
X1219Y688D01*
X0Y687D02*
X7Y687D01*
X367Y687D02*
X696Y687D01*
X1212Y687D02*
X1219Y687D01*
X0Y686D02*
X7Y686D01*
X367Y686D02*
X692Y686D01*
X1212Y686D02*
X1219Y686D01*
X0Y685D02*
X7Y685D01*
X367Y685D02*
X691Y685D01*
X1212Y685D02*
X1219Y685D01*
X0Y684D02*
X7Y684D01*
X367Y684D02*
X689Y684D01*
X1212Y684D02*
X1219Y684D01*
X0Y683D02*
X7Y683D01*
X367Y683D02*
X686Y683D01*
X1212Y683D02*
X1219Y683D01*
X0Y682D02*
X7Y682D01*
X367Y682D02*
X683Y682D01*
X1212Y682D02*
X1219Y682D01*
X0Y681D02*
X7Y681D01*
X367Y681D02*
X681Y681D01*
X1212Y681D02*
X1219Y681D01*
X0Y680D02*
X7Y680D01*
X367Y680D02*
X680Y680D01*
X1212Y680D02*
X1219Y680D01*
X0Y679D02*
X7Y679D01*
X367Y679D02*
X678Y679D01*
X1212Y679D02*
X1219Y679D01*
X0Y678D02*
X7Y678D01*
X367Y678D02*
X676Y678D01*
X1212Y678D02*
X1219Y678D01*
X0Y677D02*
X7Y677D01*
X367Y677D02*
X675Y677D01*
X1212Y677D02*
X1219Y677D01*
X0Y676D02*
X7Y676D01*
X367Y676D02*
X672Y676D01*
X1212Y676D02*
X1219Y676D01*
X0Y675D02*
X7Y675D01*
X367Y675D02*
X670Y675D01*
X1212Y675D02*
X1219Y675D01*
X0Y674D02*
X7Y674D01*
X367Y674D02*
X669Y674D01*
X1212Y674D02*
X1219Y674D01*
X0Y673D02*
X7Y673D01*
X367Y673D02*
X668Y673D01*
X1212Y673D02*
X1219Y673D01*
X0Y672D02*
X7Y672D01*
X367Y672D02*
X667Y672D01*
X1212Y672D02*
X1219Y672D01*
X0Y671D02*
X7Y671D01*
X367Y671D02*
X665Y671D01*
X1212Y671D02*
X1219Y671D01*
X0Y670D02*
X7Y670D01*
X367Y670D02*
X664Y670D01*
X1212Y670D02*
X1219Y670D01*
X0Y669D02*
X7Y669D01*
X367Y669D02*
X663Y669D01*
X1212Y669D02*
X1219Y669D01*
X0Y668D02*
X7Y668D01*
X367Y668D02*
X662Y668D01*
X1212Y668D02*
X1219Y668D01*
X0Y667D02*
X7Y667D01*
X367Y667D02*
X661Y667D01*
X1212Y667D02*
X1219Y667D01*
X0Y666D02*
X7Y666D01*
X367Y666D02*
X659Y666D01*
X1212Y666D02*
X1219Y666D01*
X0Y665D02*
X7Y665D01*
X367Y665D02*
X659Y665D01*
X1212Y665D02*
X1219Y665D01*
X0Y664D02*
X7Y664D01*
X367Y664D02*
X658Y664D01*
X1212Y664D02*
X1219Y664D01*
X0Y663D02*
X7Y663D01*
X367Y663D02*
X657Y663D01*
X1212Y663D02*
X1219Y663D01*
X0Y662D02*
X7Y662D01*
X367Y662D02*
X657Y662D01*
X1212Y662D02*
X1219Y662D01*
X0Y661D02*
X7Y661D01*
X367Y661D02*
X655Y661D01*
X1212Y661D02*
X1219Y661D01*
X0Y660D02*
X7Y660D01*
X367Y660D02*
X654Y660D01*
X1212Y660D02*
X1219Y660D01*
X0Y659D02*
X7Y659D01*
X367Y659D02*
X654Y659D01*
X1212Y659D02*
X1219Y659D01*
X0Y658D02*
X7Y658D01*
X367Y658D02*
X654Y658D01*
X1212Y658D02*
X1219Y658D01*
X0Y657D02*
X7Y657D01*
X367Y657D02*
X653Y657D01*
X1212Y657D02*
X1219Y657D01*
X0Y656D02*
X7Y656D01*
X1212Y656D02*
X1219Y656D01*
X0Y655D02*
X7Y655D01*
X1212Y655D02*
X1219Y655D01*
X0Y654D02*
X7Y654D01*
X1212Y654D02*
X1219Y654D01*
X0Y653D02*
X7Y653D01*
X1212Y653D02*
X1219Y653D01*
X0Y652D02*
X7Y652D01*
X1212Y652D02*
X1219Y652D01*
X0Y651D02*
X7Y651D01*
X1212Y651D02*
X1219Y651D01*
X0Y650D02*
X7Y650D01*
X1212Y650D02*
X1219Y650D01*
X0Y649D02*
X7Y649D01*
X1212Y649D02*
X1219Y649D01*
X0Y648D02*
X7Y648D01*
X1212Y648D02*
X1219Y648D01*
X0Y647D02*
X7Y647D01*
X1212Y647D02*
X1219Y647D01*
X0Y646D02*
X7Y646D01*
X1212Y646D02*
X1219Y646D01*
X0Y645D02*
X7Y645D01*
X1212Y645D02*
X1219Y645D01*
X0Y644D02*
X7Y644D01*
X1212Y644D02*
X1219Y644D01*
X0Y643D02*
X7Y643D01*
X1212Y643D02*
X1219Y643D01*
X0Y642D02*
X7Y642D01*
X1212Y642D02*
X1219Y642D01*
X0Y641D02*
X7Y641D01*
X1212Y641D02*
X1219Y641D01*
X0Y640D02*
X7Y640D01*
X1212Y640D02*
X1219Y640D01*
X0Y639D02*
X7Y639D01*
X1212Y639D02*
X1219Y639D01*
X0Y638D02*
X7Y638D01*
X1212Y638D02*
X1219Y638D01*
X0Y637D02*
X7Y637D01*
X1212Y637D02*
X1219Y637D01*
X0Y636D02*
X7Y636D01*
X1212Y636D02*
X1219Y636D01*
X0Y635D02*
X7Y635D01*
X1212Y635D02*
X1219Y635D01*
X0Y634D02*
X7Y634D01*
X1212Y634D02*
X1219Y634D01*
X0Y633D02*
X7Y633D01*
X1212Y633D02*
X1219Y633D01*
X0Y632D02*
X7Y632D01*
X1212Y632D02*
X1219Y632D01*
X0Y631D02*
X7Y631D01*
X1212Y631D02*
X1219Y631D01*
X0Y630D02*
X7Y630D01*
X1212Y630D02*
X1219Y630D01*
X0Y629D02*
X7Y629D01*
X1212Y629D02*
X1219Y629D01*
X0Y628D02*
X7Y628D01*
X1212Y628D02*
X1219Y628D01*
X0Y627D02*
X7Y627D01*
X1212Y627D02*
X1219Y627D01*
X0Y626D02*
X7Y626D01*
X1212Y626D02*
X1219Y626D01*
X0Y625D02*
X7Y625D01*
X1212Y625D02*
X1219Y625D01*
X0Y624D02*
X7Y624D01*
X1212Y624D02*
X1219Y624D01*
X0Y623D02*
X7Y623D01*
X1212Y623D02*
X1219Y623D01*
X0Y622D02*
X7Y622D01*
X1212Y622D02*
X1219Y622D01*
X0Y621D02*
X7Y621D01*
X1212Y621D02*
X1219Y621D01*
X0Y620D02*
X7Y620D01*
X1212Y620D02*
X1219Y620D01*
X0Y619D02*
X7Y619D01*
X1212Y619D02*
X1219Y619D01*
X0Y618D02*
X7Y618D01*
X1212Y618D02*
X1219Y618D01*
X0Y617D02*
X7Y617D01*
X1212Y617D02*
X1219Y617D01*
X0Y616D02*
X7Y616D01*
X1212Y616D02*
X1219Y616D01*
X0Y615D02*
X7Y615D01*
X1212Y615D02*
X1219Y615D01*
X0Y614D02*
X7Y614D01*
X1212Y614D02*
X1219Y614D01*
X0Y613D02*
X7Y613D01*
X1212Y613D02*
X1219Y613D01*
X0Y612D02*
X7Y612D01*
X1212Y612D02*
X1219Y612D01*
X0Y611D02*
X7Y611D01*
X1212Y611D02*
X1219Y611D01*
X0Y610D02*
X7Y610D01*
X1212Y610D02*
X1219Y610D01*
X0Y609D02*
X7Y609D01*
X1212Y609D02*
X1219Y609D01*
X0Y608D02*
X7Y608D01*
X1212Y608D02*
X1219Y608D01*
X0Y607D02*
X7Y607D01*
X1212Y607D02*
X1219Y607D01*
X0Y606D02*
X7Y606D01*
X1212Y606D02*
X1219Y606D01*
X0Y605D02*
X7Y605D01*
X1212Y605D02*
X1219Y605D01*
X0Y604D02*
X7Y604D01*
X1212Y604D02*
X1219Y604D01*
X0Y603D02*
X7Y603D01*
X1212Y603D02*
X1219Y603D01*
X0Y602D02*
X7Y602D01*
X1212Y602D02*
X1219Y602D01*
X0Y601D02*
X7Y601D01*
X1212Y601D02*
X1219Y601D01*
X0Y600D02*
X7Y600D01*
X1212Y600D02*
X1219Y600D01*
X0Y599D02*
X7Y599D01*
X1212Y599D02*
X1219Y599D01*
X0Y598D02*
X7Y598D01*
X1212Y598D02*
X1219Y598D01*
X0Y597D02*
X7Y597D01*
X1212Y597D02*
X1219Y597D01*
X0Y596D02*
X7Y596D01*
X1212Y596D02*
X1219Y596D01*
X0Y595D02*
X7Y595D01*
X1212Y595D02*
X1219Y595D01*
X0Y594D02*
X7Y594D01*
X1212Y594D02*
X1219Y594D01*
X0Y593D02*
X7Y593D01*
X1212Y593D02*
X1219Y593D01*
X0Y592D02*
X7Y592D01*
X1212Y592D02*
X1219Y592D01*
X0Y591D02*
X7Y591D01*
X1212Y591D02*
X1219Y591D01*
X0Y590D02*
X7Y590D01*
X1212Y590D02*
X1219Y590D01*
X0Y589D02*
X7Y589D01*
X1212Y589D02*
X1219Y589D01*
X0Y588D02*
X7Y588D01*
X1212Y588D02*
X1219Y588D01*
X0Y587D02*
X7Y587D01*
X1212Y587D02*
X1219Y587D01*
X0Y586D02*
X7Y586D01*
X1212Y586D02*
X1219Y586D01*
X0Y585D02*
X7Y585D01*
X1212Y585D02*
X1219Y585D01*
X0Y584D02*
X7Y584D01*
X1212Y584D02*
X1219Y584D01*
X0Y583D02*
X7Y583D01*
X1212Y583D02*
X1219Y583D01*
X0Y582D02*
X7Y582D01*
X1212Y582D02*
X1219Y582D01*
X0Y581D02*
X7Y581D01*
X1212Y581D02*
X1219Y581D01*
X0Y580D02*
X7Y580D01*
X1212Y580D02*
X1219Y580D01*
X0Y579D02*
X7Y579D01*
X1212Y579D02*
X1219Y579D01*
X0Y578D02*
X7Y578D01*
X1212Y578D02*
X1219Y578D01*
X0Y577D02*
X7Y577D01*
X1212Y577D02*
X1219Y577D01*
X0Y576D02*
X7Y576D01*
X1212Y576D02*
X1219Y576D01*
X0Y575D02*
X7Y575D01*
X1212Y575D02*
X1219Y575D01*
X0Y574D02*
X7Y574D01*
X1212Y574D02*
X1219Y574D01*
X0Y573D02*
X7Y573D01*
X1212Y573D02*
X1219Y573D01*
X0Y572D02*
X7Y572D01*
X1212Y572D02*
X1219Y572D01*
X0Y571D02*
X7Y571D01*
X1212Y571D02*
X1219Y571D01*
X0Y570D02*
X7Y570D01*
X1212Y570D02*
X1219Y570D01*
X0Y569D02*
X7Y569D01*
X1212Y569D02*
X1219Y569D01*
X0Y568D02*
X7Y568D01*
X1212Y568D02*
X1219Y568D01*
X0Y567D02*
X7Y567D01*
X1212Y567D02*
X1219Y567D01*
X0Y566D02*
X7Y566D01*
X1212Y566D02*
X1219Y566D01*
X0Y565D02*
X7Y565D01*
X1212Y565D02*
X1219Y565D01*
X0Y564D02*
X7Y564D01*
X1212Y564D02*
X1219Y564D01*
X0Y563D02*
X7Y563D01*
X1212Y563D02*
X1219Y563D01*
X0Y562D02*
X7Y562D01*
X1212Y562D02*
X1219Y562D01*
X0Y561D02*
X7Y561D01*
X1212Y561D02*
X1219Y561D01*
X0Y560D02*
X7Y560D01*
X1212Y560D02*
X1219Y560D01*
X0Y559D02*
X7Y559D01*
X1212Y559D02*
X1219Y559D01*
X0Y558D02*
X7Y558D01*
X1212Y558D02*
X1219Y558D01*
X0Y557D02*
X7Y557D01*
X1212Y557D02*
X1219Y557D01*
X0Y556D02*
X7Y556D01*
X1212Y556D02*
X1219Y556D01*
X0Y555D02*
X7Y555D01*
X1212Y555D02*
X1219Y555D01*
X0Y554D02*
X7Y554D01*
X1212Y554D02*
X1219Y554D01*
X0Y553D02*
X7Y553D01*
X1212Y553D02*
X1219Y553D01*
X0Y552D02*
X7Y552D01*
X1212Y552D02*
X1219Y552D01*
X0Y551D02*
X7Y551D01*
X1212Y551D02*
X1219Y551D01*
X0Y550D02*
X7Y550D01*
X1212Y550D02*
X1219Y550D01*
X0Y549D02*
X7Y549D01*
X1212Y549D02*
X1219Y549D01*
X0Y548D02*
X7Y548D01*
X1212Y548D02*
X1219Y548D01*
X0Y547D02*
X7Y547D01*
X1212Y547D02*
X1219Y547D01*
X0Y546D02*
X7Y546D01*
X1212Y546D02*
X1219Y546D01*
X0Y545D02*
X7Y545D01*
X1212Y545D02*
X1219Y545D01*
X0Y544D02*
X7Y544D01*
X1212Y544D02*
X1219Y544D01*
X0Y543D02*
X7Y543D01*
X1212Y543D02*
X1219Y543D01*
X0Y542D02*
X7Y542D01*
X1212Y542D02*
X1219Y542D01*
X0Y541D02*
X7Y541D01*
X1212Y541D02*
X1219Y541D01*
X0Y540D02*
X7Y540D01*
X1212Y540D02*
X1219Y540D01*
X0Y539D02*
X7Y539D01*
X1212Y539D02*
X1219Y539D01*
X0Y538D02*
X7Y538D01*
X1212Y538D02*
X1219Y538D01*
X0Y537D02*
X7Y537D01*
X1212Y537D02*
X1219Y537D01*
X0Y536D02*
X7Y536D01*
X1212Y536D02*
X1219Y536D01*
X0Y535D02*
X7Y535D01*
X1212Y535D02*
X1219Y535D01*
X0Y534D02*
X7Y534D01*
X1212Y534D02*
X1219Y534D01*
X0Y533D02*
X7Y533D01*
X1212Y533D02*
X1219Y533D01*
X0Y532D02*
X7Y532D01*
X1212Y532D02*
X1219Y532D01*
X0Y531D02*
X7Y531D01*
X1212Y531D02*
X1219Y531D01*
X0Y530D02*
X7Y530D01*
X1212Y530D02*
X1219Y530D01*
X0Y529D02*
X7Y529D01*
X1212Y529D02*
X1219Y529D01*
X0Y528D02*
X7Y528D01*
X1212Y528D02*
X1219Y528D01*
X0Y527D02*
X7Y527D01*
X1212Y527D02*
X1219Y527D01*
X0Y526D02*
X7Y526D01*
X1212Y526D02*
X1219Y526D01*
X0Y525D02*
X7Y525D01*
X1212Y525D02*
X1219Y525D01*
X0Y524D02*
X7Y524D01*
X1212Y524D02*
X1219Y524D01*
X0Y523D02*
X7Y523D01*
X1212Y523D02*
X1219Y523D01*
X0Y522D02*
X7Y522D01*
X1212Y522D02*
X1219Y522D01*
X0Y521D02*
X7Y521D01*
X1212Y521D02*
X1219Y521D01*
X0Y520D02*
X7Y520D01*
X1212Y520D02*
X1219Y520D01*
X0Y519D02*
X7Y519D01*
X1212Y519D02*
X1219Y519D01*
X0Y518D02*
X7Y518D01*
X1212Y518D02*
X1219Y518D01*
X0Y517D02*
X7Y517D01*
X1212Y517D02*
X1219Y517D01*
X0Y516D02*
X7Y516D01*
X1212Y516D02*
X1219Y516D01*
X0Y515D02*
X7Y515D01*
X1212Y515D02*
X1219Y515D01*
X0Y514D02*
X7Y514D01*
X1212Y514D02*
X1219Y514D01*
X0Y513D02*
X7Y513D01*
X1212Y513D02*
X1219Y513D01*
X0Y512D02*
X7Y512D01*
X1212Y512D02*
X1219Y512D01*
X0Y511D02*
X7Y511D01*
X1212Y511D02*
X1219Y511D01*
X0Y510D02*
X7Y510D01*
X1212Y510D02*
X1219Y510D01*
X0Y509D02*
X7Y509D01*
X1212Y509D02*
X1219Y509D01*
X0Y508D02*
X7Y508D01*
X1212Y508D02*
X1219Y508D01*
X0Y507D02*
X7Y507D01*
X1212Y507D02*
X1219Y507D01*
X0Y506D02*
X7Y506D01*
X1212Y506D02*
X1219Y506D01*
X0Y505D02*
X7Y505D01*
X1212Y505D02*
X1219Y505D01*
X0Y504D02*
X7Y504D01*
X1212Y504D02*
X1219Y504D01*
X0Y503D02*
X7Y503D01*
X1212Y503D02*
X1219Y503D01*
X0Y502D02*
X7Y502D01*
X1212Y502D02*
X1219Y502D01*
X0Y501D02*
X7Y501D01*
X1212Y501D02*
X1219Y501D01*
X0Y500D02*
X7Y500D01*
X1212Y500D02*
X1219Y500D01*
X0Y499D02*
X7Y499D01*
X1212Y499D02*
X1219Y499D01*
X0Y498D02*
X7Y498D01*
X1212Y498D02*
X1219Y498D01*
X0Y497D02*
X7Y497D01*
X1212Y497D02*
X1219Y497D01*
X0Y496D02*
X7Y496D01*
X1212Y496D02*
X1219Y496D01*
X0Y495D02*
X7Y495D01*
X1212Y495D02*
X1219Y495D01*
X0Y494D02*
X7Y494D01*
X1212Y494D02*
X1219Y494D01*
X0Y493D02*
X7Y493D01*
X1212Y493D02*
X1219Y493D01*
X0Y492D02*
X7Y492D01*
X1212Y492D02*
X1219Y492D01*
X0Y491D02*
X7Y491D01*
X1212Y491D02*
X1219Y491D01*
X0Y490D02*
X7Y490D01*
X1212Y490D02*
X1219Y490D01*
X0Y489D02*
X7Y489D01*
X1212Y489D02*
X1219Y489D01*
X0Y488D02*
X7Y488D01*
X1212Y488D02*
X1219Y488D01*
X0Y487D02*
X7Y487D01*
X1212Y487D02*
X1219Y487D01*
X0Y486D02*
X7Y486D01*
X1212Y486D02*
X1219Y486D01*
X0Y485D02*
X7Y485D01*
X1212Y485D02*
X1219Y485D01*
X0Y484D02*
X7Y484D01*
X1212Y484D02*
X1219Y484D01*
X0Y483D02*
X7Y483D01*
X1212Y483D02*
X1219Y483D01*
X0Y482D02*
X7Y482D01*
X1212Y482D02*
X1219Y482D01*
X0Y481D02*
X7Y481D01*
X1212Y481D02*
X1219Y481D01*
X0Y480D02*
X7Y480D01*
X1212Y480D02*
X1219Y480D01*
X0Y479D02*
X7Y479D01*
X1212Y479D02*
X1219Y479D01*
X0Y478D02*
X7Y478D01*
X1212Y478D02*
X1219Y478D01*
X0Y477D02*
X7Y477D01*
X1212Y477D02*
X1219Y477D01*
X0Y476D02*
X7Y476D01*
X1212Y476D02*
X1219Y476D01*
X0Y475D02*
X7Y475D01*
X1212Y475D02*
X1219Y475D01*
X0Y474D02*
X7Y474D01*
X1212Y474D02*
X1219Y474D01*
X0Y473D02*
X7Y473D01*
X1212Y473D02*
X1219Y473D01*
X0Y472D02*
X7Y472D01*
X1212Y472D02*
X1219Y472D01*
X0Y471D02*
X7Y471D01*
X1212Y471D02*
X1219Y471D01*
X0Y470D02*
X7Y470D01*
X1212Y470D02*
X1219Y470D01*
X0Y469D02*
X7Y469D01*
X1212Y469D02*
X1219Y469D01*
X0Y468D02*
X7Y468D01*
X1212Y468D02*
X1219Y468D01*
X0Y467D02*
X7Y467D01*
X1212Y467D02*
X1219Y467D01*
X0Y466D02*
X7Y466D01*
X1212Y466D02*
X1219Y466D01*
X0Y465D02*
X7Y465D01*
X1212Y465D02*
X1219Y465D01*
X0Y464D02*
X7Y464D01*
X1212Y464D02*
X1219Y464D01*
X0Y463D02*
X7Y463D01*
X1212Y463D02*
X1219Y463D01*
X0Y462D02*
X7Y462D01*
X1212Y462D02*
X1219Y462D01*
X0Y461D02*
X7Y461D01*
X1212Y461D02*
X1219Y461D01*
X0Y460D02*
X7Y460D01*
X1212Y460D02*
X1219Y460D01*
X0Y459D02*
X7Y459D01*
X1212Y459D02*
X1219Y459D01*
X0Y458D02*
X7Y458D01*
X1212Y458D02*
X1219Y458D01*
X0Y457D02*
X7Y457D01*
X1212Y457D02*
X1219Y457D01*
X0Y456D02*
X7Y456D01*
X1212Y456D02*
X1219Y456D01*
X0Y455D02*
X7Y455D01*
X1212Y455D02*
X1219Y455D01*
X0Y454D02*
X7Y454D01*
X1212Y454D02*
X1219Y454D01*
X0Y453D02*
X7Y453D01*
X1212Y453D02*
X1219Y453D01*
X0Y452D02*
X7Y452D01*
X1212Y452D02*
X1219Y452D01*
X0Y451D02*
X7Y451D01*
X1212Y451D02*
X1219Y451D01*
X0Y450D02*
X7Y450D01*
X1212Y450D02*
X1219Y450D01*
X0Y449D02*
X7Y449D01*
X1212Y449D02*
X1219Y449D01*
X0Y448D02*
X7Y448D01*
X1212Y448D02*
X1219Y448D01*
X0Y447D02*
X7Y447D01*
X1212Y447D02*
X1219Y447D01*
X0Y446D02*
X7Y446D01*
X1212Y446D02*
X1219Y446D01*
X0Y445D02*
X7Y445D01*
X1212Y445D02*
X1219Y445D01*
X0Y444D02*
X7Y444D01*
X1212Y444D02*
X1219Y444D01*
X0Y443D02*
X7Y443D01*
X1212Y443D02*
X1219Y443D01*
X0Y442D02*
X7Y442D01*
X1212Y442D02*
X1219Y442D01*
X0Y441D02*
X7Y441D01*
X1212Y441D02*
X1219Y441D01*
X0Y440D02*
X7Y440D01*
X1212Y440D02*
X1219Y440D01*
X0Y439D02*
X7Y439D01*
X1212Y439D02*
X1219Y439D01*
X0Y438D02*
X7Y438D01*
X1212Y438D02*
X1219Y438D01*
X0Y437D02*
X7Y437D01*
X1212Y437D02*
X1219Y437D01*
X0Y436D02*
X7Y436D01*
X1212Y436D02*
X1219Y436D01*
X0Y435D02*
X7Y435D01*
X1212Y435D02*
X1219Y435D01*
X0Y434D02*
X7Y434D01*
X1212Y434D02*
X1219Y434D01*
X0Y433D02*
X7Y433D01*
X1212Y433D02*
X1219Y433D01*
X0Y432D02*
X7Y432D01*
X1212Y432D02*
X1219Y432D01*
X0Y431D02*
X7Y431D01*
X1212Y431D02*
X1219Y431D01*
X0Y430D02*
X7Y430D01*
X1212Y430D02*
X1219Y430D01*
X0Y429D02*
X7Y429D01*
X1212Y429D02*
X1219Y429D01*
X0Y428D02*
X7Y428D01*
X1212Y428D02*
X1219Y428D01*
X0Y427D02*
X7Y427D01*
X1212Y427D02*
X1219Y427D01*
X0Y426D02*
X7Y426D01*
X1212Y426D02*
X1219Y426D01*
X0Y425D02*
X7Y425D01*
X1212Y425D02*
X1219Y425D01*
X0Y424D02*
X7Y424D01*
X1212Y424D02*
X1219Y424D01*
X0Y423D02*
X7Y423D01*
X1212Y423D02*
X1219Y423D01*
X0Y422D02*
X7Y422D01*
X1212Y422D02*
X1219Y422D01*
X0Y421D02*
X7Y421D01*
X1212Y421D02*
X1219Y421D01*
X0Y420D02*
X7Y420D01*
X1212Y420D02*
X1219Y420D01*
X0Y419D02*
X7Y419D01*
X1212Y419D02*
X1219Y419D01*
X0Y418D02*
X7Y418D01*
X1212Y418D02*
X1219Y418D01*
X0Y417D02*
X7Y417D01*
X1212Y417D02*
X1219Y417D01*
X0Y416D02*
X7Y416D01*
X1212Y416D02*
X1219Y416D01*
X0Y415D02*
X7Y415D01*
X1212Y415D02*
X1219Y415D01*
X0Y414D02*
X7Y414D01*
X1212Y414D02*
X1219Y414D01*
X0Y413D02*
X7Y413D01*
X1212Y413D02*
X1219Y413D01*
X0Y412D02*
X7Y412D01*
X1212Y412D02*
X1219Y412D01*
X0Y411D02*
X7Y411D01*
X1212Y411D02*
X1219Y411D01*
X0Y410D02*
X7Y410D01*
X1212Y410D02*
X1219Y410D01*
X0Y409D02*
X7Y409D01*
X1212Y409D02*
X1219Y409D01*
X0Y408D02*
X7Y408D01*
X1212Y408D02*
X1219Y408D01*
X0Y407D02*
X7Y407D01*
X1212Y407D02*
X1219Y407D01*
X0Y406D02*
X7Y406D01*
X1212Y406D02*
X1219Y406D01*
X0Y405D02*
X7Y405D01*
X1212Y405D02*
X1219Y405D01*
X0Y404D02*
X7Y404D01*
X1212Y404D02*
X1219Y404D01*
X0Y403D02*
X7Y403D01*
X1212Y403D02*
X1219Y403D01*
X0Y402D02*
X7Y402D01*
X1212Y402D02*
X1219Y402D01*
X0Y401D02*
X7Y401D01*
X1212Y401D02*
X1219Y401D01*
X0Y400D02*
X7Y400D01*
X1212Y400D02*
X1219Y400D01*
X0Y399D02*
X7Y399D01*
X1212Y399D02*
X1219Y399D01*
X0Y398D02*
X7Y398D01*
X1212Y398D02*
X1219Y398D01*
X0Y397D02*
X7Y397D01*
X1212Y397D02*
X1219Y397D01*
X0Y396D02*
X7Y396D01*
X1212Y396D02*
X1219Y396D01*
X0Y395D02*
X7Y395D01*
X1212Y395D02*
X1219Y395D01*
X0Y394D02*
X7Y394D01*
X1212Y394D02*
X1219Y394D01*
X0Y393D02*
X7Y393D01*
X1212Y393D02*
X1219Y393D01*
X0Y392D02*
X7Y392D01*
X1212Y392D02*
X1219Y392D01*
X0Y391D02*
X7Y391D01*
X1212Y391D02*
X1219Y391D01*
X0Y390D02*
X7Y390D01*
X1212Y390D02*
X1219Y390D01*
X0Y389D02*
X7Y389D01*
X1212Y389D02*
X1219Y389D01*
X0Y388D02*
X7Y388D01*
X1212Y388D02*
X1219Y388D01*
X0Y387D02*
X7Y387D01*
X1212Y387D02*
X1219Y387D01*
X0Y386D02*
X7Y386D01*
X1212Y386D02*
X1219Y386D01*
X0Y385D02*
X7Y385D01*
X1212Y385D02*
X1219Y385D01*
X0Y384D02*
X7Y384D01*
X1212Y384D02*
X1219Y384D01*
X0Y383D02*
X7Y383D01*
X1212Y383D02*
X1219Y383D01*
X0Y382D02*
X7Y382D01*
X1212Y382D02*
X1219Y382D01*
X0Y381D02*
X7Y381D01*
X1212Y381D02*
X1219Y381D01*
X0Y380D02*
X7Y380D01*
X1212Y380D02*
X1219Y380D01*
X0Y379D02*
X7Y379D01*
X1212Y379D02*
X1219Y379D01*
X0Y378D02*
X7Y378D01*
X1212Y378D02*
X1219Y378D01*
X0Y377D02*
X7Y377D01*
X1212Y377D02*
X1219Y377D01*
X0Y376D02*
X7Y376D01*
X1212Y376D02*
X1219Y376D01*
X0Y375D02*
X7Y375D01*
X1212Y375D02*
X1219Y375D01*
X0Y374D02*
X7Y374D01*
X1212Y374D02*
X1219Y374D01*
X0Y373D02*
X7Y373D01*
X1212Y373D02*
X1219Y373D01*
X0Y372D02*
X7Y372D01*
X1212Y372D02*
X1219Y372D01*
X0Y371D02*
X7Y371D01*
X1212Y371D02*
X1219Y371D01*
X0Y370D02*
X7Y370D01*
X1212Y370D02*
X1219Y370D01*
X0Y369D02*
X7Y369D01*
X1212Y369D02*
X1219Y369D01*
X0Y368D02*
X7Y368D01*
X1212Y368D02*
X1219Y368D01*
X0Y367D02*
X7Y367D01*
X1212Y367D02*
X1219Y367D01*
X0Y366D02*
X7Y366D01*
X1212Y366D02*
X1219Y366D01*
X0Y365D02*
X7Y365D01*
X1212Y365D02*
X1219Y365D01*
X0Y364D02*
X7Y364D01*
X1212Y364D02*
X1219Y364D01*
X0Y363D02*
X7Y363D01*
X1212Y363D02*
X1219Y363D01*
X0Y362D02*
X7Y362D01*
X1212Y362D02*
X1219Y362D01*
X0Y361D02*
X7Y361D01*
X1212Y361D02*
X1219Y361D01*
X0Y360D02*
X7Y360D01*
X1212Y360D02*
X1219Y360D01*
X0Y359D02*
X7Y359D01*
X1212Y359D02*
X1219Y359D01*
X0Y358D02*
X7Y358D01*
X1212Y358D02*
X1219Y358D01*
X0Y357D02*
X7Y357D01*
X1212Y357D02*
X1219Y357D01*
X0Y356D02*
X7Y356D01*
X1212Y356D02*
X1219Y356D01*
X0Y355D02*
X7Y355D01*
X1212Y355D02*
X1219Y355D01*
X0Y354D02*
X7Y354D01*
X1212Y354D02*
X1219Y354D01*
X0Y353D02*
X7Y353D01*
X1212Y353D02*
X1219Y353D01*
X0Y352D02*
X7Y352D01*
X1212Y352D02*
X1219Y352D01*
X0Y351D02*
X7Y351D01*
X1212Y351D02*
X1219Y351D01*
X0Y350D02*
X7Y350D01*
X1212Y350D02*
X1219Y350D01*
X0Y349D02*
X7Y349D01*
X1212Y349D02*
X1219Y349D01*
X0Y348D02*
X7Y348D01*
X1212Y348D02*
X1219Y348D01*
X0Y347D02*
X7Y347D01*
X1212Y347D02*
X1219Y347D01*
X0Y346D02*
X7Y346D01*
X1212Y346D02*
X1219Y346D01*
X0Y345D02*
X7Y345D01*
X1212Y345D02*
X1219Y345D01*
X0Y344D02*
X7Y344D01*
X1212Y344D02*
X1219Y344D01*
X0Y343D02*
X7Y343D01*
X1212Y343D02*
X1219Y343D01*
X0Y342D02*
X7Y342D01*
X1212Y342D02*
X1219Y342D01*
X0Y341D02*
X7Y341D01*
X1212Y341D02*
X1219Y341D01*
X0Y340D02*
X7Y340D01*
X1212Y340D02*
X1219Y340D01*
X0Y339D02*
X7Y339D01*
X1212Y339D02*
X1219Y339D01*
X0Y338D02*
X7Y338D01*
X1212Y338D02*
X1219Y338D01*
X0Y337D02*
X7Y337D01*
X1212Y337D02*
X1219Y337D01*
X0Y336D02*
X7Y336D01*
X1212Y336D02*
X1219Y336D01*
X0Y335D02*
X7Y335D01*
X1212Y335D02*
X1219Y335D01*
X0Y334D02*
X7Y334D01*
X1212Y334D02*
X1219Y334D01*
X0Y333D02*
X7Y333D01*
X1212Y333D02*
X1219Y333D01*
X0Y332D02*
X7Y332D01*
X1212Y332D02*
X1219Y332D01*
X0Y331D02*
X7Y331D01*
X1212Y331D02*
X1219Y331D01*
X0Y330D02*
X7Y330D01*
X1212Y330D02*
X1219Y330D01*
X0Y329D02*
X7Y329D01*
X1212Y329D02*
X1219Y329D01*
X0Y328D02*
X7Y328D01*
X1212Y328D02*
X1219Y328D01*
X0Y327D02*
X7Y327D01*
X1212Y327D02*
X1219Y327D01*
X0Y326D02*
X7Y326D01*
X1212Y326D02*
X1219Y326D01*
X0Y325D02*
X7Y325D01*
X1212Y325D02*
X1219Y325D01*
X0Y324D02*
X7Y324D01*
X1212Y324D02*
X1219Y324D01*
X0Y323D02*
X7Y323D01*
X1212Y323D02*
X1219Y323D01*
X0Y322D02*
X7Y322D01*
X1212Y322D02*
X1219Y322D01*
X0Y321D02*
X7Y321D01*
X1212Y321D02*
X1219Y321D01*
X0Y320D02*
X7Y320D01*
X1212Y320D02*
X1219Y320D01*
X0Y319D02*
X7Y319D01*
X1212Y319D02*
X1219Y319D01*
X0Y318D02*
X7Y318D01*
X1212Y318D02*
X1219Y318D01*
X0Y317D02*
X7Y317D01*
X1212Y317D02*
X1219Y317D01*
X0Y316D02*
X7Y316D01*
X1212Y316D02*
X1219Y316D01*
X0Y315D02*
X7Y315D01*
X1212Y315D02*
X1219Y315D01*
X0Y314D02*
X7Y314D01*
X1212Y314D02*
X1219Y314D01*
X0Y313D02*
X7Y313D01*
X1212Y313D02*
X1219Y313D01*
X0Y312D02*
X7Y312D01*
X1212Y312D02*
X1219Y312D01*
X0Y311D02*
X7Y311D01*
X1212Y311D02*
X1219Y311D01*
X0Y310D02*
X7Y310D01*
X1212Y310D02*
X1219Y310D01*
X0Y309D02*
X7Y309D01*
X1212Y309D02*
X1219Y309D01*
X0Y308D02*
X7Y308D01*
X1212Y308D02*
X1219Y308D01*
X0Y307D02*
X7Y307D01*
X1212Y307D02*
X1219Y307D01*
X0Y306D02*
X7Y306D01*
X1212Y306D02*
X1219Y306D01*
X0Y305D02*
X7Y305D01*
X1212Y305D02*
X1219Y305D01*
X0Y304D02*
X7Y304D01*
X1212Y304D02*
X1219Y304D01*
X0Y303D02*
X7Y303D01*
X1212Y303D02*
X1219Y303D01*
X0Y302D02*
X7Y302D01*
X1212Y302D02*
X1219Y302D01*
X0Y301D02*
X7Y301D01*
X1212Y301D02*
X1219Y301D01*
X0Y300D02*
X7Y300D01*
X1212Y300D02*
X1219Y300D01*
X0Y299D02*
X7Y299D01*
X1212Y299D02*
X1219Y299D01*
X0Y298D02*
X7Y298D01*
X1212Y298D02*
X1219Y298D01*
X0Y297D02*
X7Y297D01*
X1212Y297D02*
X1219Y297D01*
X0Y296D02*
X7Y296D01*
X1212Y296D02*
X1219Y296D01*
X0Y295D02*
X7Y295D01*
X1212Y295D02*
X1219Y295D01*
X0Y294D02*
X7Y294D01*
X1212Y294D02*
X1219Y294D01*
X0Y293D02*
X7Y293D01*
X1212Y293D02*
X1219Y293D01*
X0Y292D02*
X7Y292D01*
X1212Y292D02*
X1219Y292D01*
X0Y291D02*
X7Y291D01*
X1212Y291D02*
X1219Y291D01*
X0Y290D02*
X7Y290D01*
X1212Y290D02*
X1219Y290D01*
X0Y289D02*
X7Y289D01*
X1212Y289D02*
X1219Y289D01*
X0Y288D02*
X7Y288D01*
X1212Y288D02*
X1219Y288D01*
X0Y287D02*
X7Y287D01*
X1212Y287D02*
X1219Y287D01*
X0Y286D02*
X7Y286D01*
X1212Y286D02*
X1219Y286D01*
X0Y285D02*
X7Y285D01*
X1212Y285D02*
X1219Y285D01*
X0Y284D02*
X7Y284D01*
X1212Y284D02*
X1219Y284D01*
X0Y283D02*
X7Y283D01*
X1212Y283D02*
X1219Y283D01*
X0Y282D02*
X7Y282D01*
X1212Y282D02*
X1219Y282D01*
X0Y281D02*
X7Y281D01*
X1212Y281D02*
X1219Y281D01*
X0Y280D02*
X7Y280D01*
X1212Y280D02*
X1219Y280D01*
X0Y279D02*
X7Y279D01*
X1212Y279D02*
X1219Y279D01*
X0Y278D02*
X7Y278D01*
X1212Y278D02*
X1219Y278D01*
X0Y277D02*
X7Y277D01*
X1212Y277D02*
X1219Y277D01*
X0Y276D02*
X7Y276D01*
X1212Y276D02*
X1219Y276D01*
X0Y275D02*
X7Y275D01*
X1212Y275D02*
X1219Y275D01*
X0Y274D02*
X7Y274D01*
X1212Y274D02*
X1219Y274D01*
X0Y273D02*
X7Y273D01*
X1212Y273D02*
X1219Y273D01*
X0Y272D02*
X7Y272D01*
X1212Y272D02*
X1219Y272D01*
X0Y271D02*
X7Y271D01*
X1212Y271D02*
X1219Y271D01*
X0Y270D02*
X7Y270D01*
X1212Y270D02*
X1219Y270D01*
X0Y269D02*
X7Y269D01*
X1212Y269D02*
X1219Y269D01*
X0Y268D02*
X7Y268D01*
X1212Y268D02*
X1219Y268D01*
X0Y267D02*
X7Y267D01*
X1212Y267D02*
X1219Y267D01*
X0Y266D02*
X7Y266D01*
X1212Y266D02*
X1219Y266D01*
X0Y265D02*
X7Y265D01*
X1212Y265D02*
X1219Y265D01*
X0Y264D02*
X7Y264D01*
X1212Y264D02*
X1219Y264D01*
X0Y263D02*
X7Y263D01*
X1212Y263D02*
X1219Y263D01*
X0Y262D02*
X7Y262D01*
X1212Y262D02*
X1219Y262D01*
X0Y261D02*
X7Y261D01*
X1212Y261D02*
X1219Y261D01*
X0Y260D02*
X7Y260D01*
X1212Y260D02*
X1219Y260D01*
X0Y259D02*
X7Y259D01*
X1212Y259D02*
X1219Y259D01*
X0Y258D02*
X7Y258D01*
X1212Y258D02*
X1219Y258D01*
X0Y257D02*
X7Y257D01*
X1212Y257D02*
X1219Y257D01*
X0Y256D02*
X7Y256D01*
X1212Y256D02*
X1219Y256D01*
X0Y255D02*
X7Y255D01*
X1212Y255D02*
X1219Y255D01*
X0Y254D02*
X7Y254D01*
X1212Y254D02*
X1219Y254D01*
X0Y253D02*
X7Y253D01*
X1212Y253D02*
X1219Y253D01*
X0Y252D02*
X7Y252D01*
X1212Y252D02*
X1219Y252D01*
X0Y251D02*
X7Y251D01*
X1212Y251D02*
X1219Y251D01*
X0Y250D02*
X7Y250D01*
X1212Y250D02*
X1219Y250D01*
X0Y249D02*
X7Y249D01*
X1212Y249D02*
X1219Y249D01*
X0Y248D02*
X7Y248D01*
X1212Y248D02*
X1219Y248D01*
X0Y247D02*
X7Y247D01*
X1212Y247D02*
X1219Y247D01*
X0Y246D02*
X7Y246D01*
X1212Y246D02*
X1219Y246D01*
X0Y245D02*
X7Y245D01*
X1212Y245D02*
X1219Y245D01*
X0Y244D02*
X7Y244D01*
X1212Y244D02*
X1219Y244D01*
X0Y243D02*
X7Y243D01*
X1212Y243D02*
X1219Y243D01*
X0Y242D02*
X7Y242D01*
X1212Y242D02*
X1219Y242D01*
X0Y241D02*
X7Y241D01*
X1212Y241D02*
X1219Y241D01*
X0Y240D02*
X7Y240D01*
X1212Y240D02*
X1219Y240D01*
X0Y239D02*
X7Y239D01*
X1212Y239D02*
X1219Y239D01*
X0Y238D02*
X7Y238D01*
X1212Y238D02*
X1219Y238D01*
X0Y237D02*
X7Y237D01*
X1212Y237D02*
X1219Y237D01*
X0Y236D02*
X7Y236D01*
X1212Y236D02*
X1219Y236D01*
X0Y235D02*
X7Y235D01*
X1212Y235D02*
X1219Y235D01*
X0Y234D02*
X7Y234D01*
X1212Y234D02*
X1219Y234D01*
X0Y233D02*
X7Y233D01*
X1212Y233D02*
X1219Y233D01*
X0Y232D02*
X7Y232D01*
X1212Y232D02*
X1219Y232D01*
X0Y231D02*
X7Y231D01*
X1212Y231D02*
X1219Y231D01*
X0Y230D02*
X7Y230D01*
X1212Y230D02*
X1219Y230D01*
X0Y229D02*
X7Y229D01*
X1212Y229D02*
X1219Y229D01*
X0Y228D02*
X7Y228D01*
X1212Y228D02*
X1219Y228D01*
X0Y227D02*
X7Y227D01*
X1212Y227D02*
X1219Y227D01*
X0Y226D02*
X7Y226D01*
X1212Y226D02*
X1219Y226D01*
X0Y225D02*
X7Y225D01*
X1212Y225D02*
X1219Y225D01*
X0Y224D02*
X7Y224D01*
X1212Y224D02*
X1219Y224D01*
X0Y223D02*
X7Y223D01*
X1212Y223D02*
X1219Y223D01*
X0Y222D02*
X7Y222D01*
X1212Y222D02*
X1219Y222D01*
X0Y221D02*
X7Y221D01*
X1212Y221D02*
X1219Y221D01*
X0Y220D02*
X7Y220D01*
X1212Y220D02*
X1219Y220D01*
X0Y219D02*
X7Y219D01*
X1212Y219D02*
X1219Y219D01*
X0Y218D02*
X7Y218D01*
X1212Y218D02*
X1219Y218D01*
X0Y217D02*
X7Y217D01*
X1212Y217D02*
X1219Y217D01*
X0Y216D02*
X7Y216D01*
X1212Y216D02*
X1219Y216D01*
X0Y215D02*
X7Y215D01*
X1212Y215D02*
X1219Y215D01*
X0Y214D02*
X7Y214D01*
X1212Y214D02*
X1219Y214D01*
X0Y213D02*
X7Y213D01*
X1212Y213D02*
X1219Y213D01*
X0Y212D02*
X7Y212D01*
X1212Y212D02*
X1219Y212D01*
X0Y211D02*
X7Y211D01*
X1212Y211D02*
X1219Y211D01*
X0Y210D02*
X7Y210D01*
X1212Y210D02*
X1219Y210D01*
X0Y209D02*
X7Y209D01*
X1212Y209D02*
X1219Y209D01*
X0Y208D02*
X7Y208D01*
X1212Y208D02*
X1219Y208D01*
X0Y207D02*
X7Y207D01*
X1212Y207D02*
X1219Y207D01*
X0Y206D02*
X7Y206D01*
X1212Y206D02*
X1219Y206D01*
X0Y205D02*
X7Y205D01*
X1212Y205D02*
X1219Y205D01*
X0Y204D02*
X7Y204D01*
X1212Y204D02*
X1219Y204D01*
X0Y203D02*
X7Y203D01*
X1212Y203D02*
X1219Y203D01*
X0Y202D02*
X7Y202D01*
X1212Y202D02*
X1219Y202D01*
X0Y201D02*
X7Y201D01*
X1212Y201D02*
X1219Y201D01*
X0Y200D02*
X7Y200D01*
X1212Y200D02*
X1219Y200D01*
X0Y199D02*
X7Y199D01*
X1212Y199D02*
X1219Y199D01*
X0Y198D02*
X7Y198D01*
X1212Y198D02*
X1219Y198D01*
X0Y197D02*
X7Y197D01*
X1212Y197D02*
X1219Y197D01*
X0Y196D02*
X7Y196D01*
X1212Y196D02*
X1219Y196D01*
X0Y195D02*
X7Y195D01*
X1212Y195D02*
X1219Y195D01*
X0Y194D02*
X7Y194D01*
X1212Y194D02*
X1219Y194D01*
X0Y193D02*
X7Y193D01*
X1212Y193D02*
X1219Y193D01*
X0Y192D02*
X7Y192D01*
X1212Y192D02*
X1219Y192D01*
X0Y191D02*
X7Y191D01*
X1212Y191D02*
X1219Y191D01*
X0Y190D02*
X7Y190D01*
X1212Y190D02*
X1219Y190D01*
X0Y189D02*
X7Y189D01*
X1212Y189D02*
X1219Y189D01*
X0Y188D02*
X7Y188D01*
X1212Y188D02*
X1219Y188D01*
X0Y187D02*
X7Y187D01*
X1212Y187D02*
X1219Y187D01*
X0Y186D02*
X7Y186D01*
X1212Y186D02*
X1219Y186D01*
X0Y185D02*
X7Y185D01*
X1212Y185D02*
X1219Y185D01*
X0Y184D02*
X7Y184D01*
X1212Y184D02*
X1219Y184D01*
X0Y183D02*
X7Y183D01*
X1212Y183D02*
X1219Y183D01*
X0Y182D02*
X7Y182D01*
X1212Y182D02*
X1219Y182D01*
X0Y181D02*
X7Y181D01*
X1212Y181D02*
X1219Y181D01*
X0Y180D02*
X7Y180D01*
X1212Y180D02*
X1219Y180D01*
X0Y179D02*
X7Y179D01*
X1212Y179D02*
X1219Y179D01*
X0Y178D02*
X7Y178D01*
X1212Y178D02*
X1219Y178D01*
X0Y177D02*
X7Y177D01*
X1212Y177D02*
X1219Y177D01*
X0Y176D02*
X7Y176D01*
X1212Y176D02*
X1219Y176D01*
X0Y175D02*
X7Y175D01*
X1212Y175D02*
X1219Y175D01*
X0Y174D02*
X7Y174D01*
X1212Y174D02*
X1219Y174D01*
X0Y173D02*
X7Y173D01*
X1212Y173D02*
X1219Y173D01*
X0Y172D02*
X7Y172D01*
X1212Y172D02*
X1219Y172D01*
X0Y171D02*
X7Y171D01*
X1212Y171D02*
X1219Y171D01*
X0Y170D02*
X7Y170D01*
X1212Y170D02*
X1219Y170D01*
X0Y169D02*
X7Y169D01*
X1212Y169D02*
X1219Y169D01*
X0Y168D02*
X7Y168D01*
X1212Y168D02*
X1219Y168D01*
X0Y167D02*
X7Y167D01*
X1212Y167D02*
X1219Y167D01*
X0Y166D02*
X7Y166D01*
X1212Y166D02*
X1219Y166D01*
X0Y165D02*
X7Y165D01*
X1212Y165D02*
X1219Y165D01*
X0Y164D02*
X7Y164D01*
X1212Y164D02*
X1219Y164D01*
X0Y163D02*
X7Y163D01*
X1212Y163D02*
X1219Y163D01*
X0Y162D02*
X7Y162D01*
X1212Y162D02*
X1219Y162D01*
X0Y161D02*
X7Y161D01*
X1212Y161D02*
X1219Y161D01*
X0Y160D02*
X7Y160D01*
X1212Y160D02*
X1219Y160D01*
X0Y159D02*
X7Y159D01*
X1212Y159D02*
X1219Y159D01*
X0Y158D02*
X7Y158D01*
X1212Y158D02*
X1219Y158D01*
X0Y157D02*
X7Y157D01*
X1212Y157D02*
X1219Y157D01*
X0Y156D02*
X7Y156D01*
X1212Y156D02*
X1219Y156D01*
X0Y155D02*
X7Y155D01*
X1212Y155D02*
X1219Y155D01*
X0Y154D02*
X7Y154D01*
X1212Y154D02*
X1219Y154D01*
X0Y153D02*
X7Y153D01*
X1212Y153D02*
X1219Y153D01*
X0Y152D02*
X7Y152D01*
X1212Y152D02*
X1219Y152D01*
X0Y151D02*
X7Y151D01*
X1212Y151D02*
X1219Y151D01*
X0Y150D02*
X7Y150D01*
X1212Y150D02*
X1219Y150D01*
X0Y149D02*
X7Y149D01*
X1212Y149D02*
X1219Y149D01*
X0Y148D02*
X7Y148D01*
X1212Y148D02*
X1219Y148D01*
X0Y147D02*
X7Y147D01*
X1212Y147D02*
X1219Y147D01*
X0Y146D02*
X7Y146D01*
X1212Y146D02*
X1219Y146D01*
X0Y145D02*
X7Y145D01*
X1212Y145D02*
X1219Y145D01*
X0Y144D02*
X7Y144D01*
X1212Y144D02*
X1219Y144D01*
X0Y143D02*
X7Y143D01*
X1212Y143D02*
X1219Y143D01*
X0Y142D02*
X7Y142D01*
X1212Y142D02*
X1219Y142D01*
X0Y141D02*
X7Y141D01*
X1212Y141D02*
X1219Y141D01*
X0Y140D02*
X7Y140D01*
X1212Y140D02*
X1219Y140D01*
X0Y139D02*
X7Y139D01*
X1212Y139D02*
X1219Y139D01*
X0Y138D02*
X7Y138D01*
X1212Y138D02*
X1219Y138D01*
X0Y137D02*
X7Y137D01*
X1212Y137D02*
X1219Y137D01*
X0Y136D02*
X7Y136D01*
X1212Y136D02*
X1219Y136D01*
X0Y135D02*
X7Y135D01*
X1212Y135D02*
X1219Y135D01*
X0Y134D02*
X7Y134D01*
X1212Y134D02*
X1219Y134D01*
X0Y133D02*
X7Y133D01*
X1212Y133D02*
X1219Y133D01*
X0Y132D02*
X7Y132D01*
X1212Y132D02*
X1219Y132D01*
X0Y131D02*
X7Y131D01*
X1212Y131D02*
X1219Y131D01*
X0Y130D02*
X7Y130D01*
X1212Y130D02*
X1219Y130D01*
X0Y129D02*
X7Y129D01*
X1212Y129D02*
X1219Y129D01*
X0Y128D02*
X7Y128D01*
X1212Y128D02*
X1219Y128D01*
X0Y127D02*
X7Y127D01*
X1212Y127D02*
X1219Y127D01*
X0Y126D02*
X7Y126D01*
X1212Y126D02*
X1219Y126D01*
X0Y125D02*
X7Y125D01*
X1212Y125D02*
X1219Y125D01*
X0Y124D02*
X7Y124D01*
X1212Y124D02*
X1219Y124D01*
X0Y123D02*
X7Y123D01*
X1212Y123D02*
X1219Y123D01*
X0Y122D02*
X7Y122D01*
X1212Y122D02*
X1219Y122D01*
X0Y121D02*
X7Y121D01*
X1212Y121D02*
X1219Y121D01*
X0Y120D02*
X7Y120D01*
X1212Y120D02*
X1219Y120D01*
X0Y119D02*
X7Y119D01*
X1212Y119D02*
X1219Y119D01*
X0Y118D02*
X7Y118D01*
X1212Y118D02*
X1219Y118D01*
X0Y117D02*
X7Y117D01*
X1212Y117D02*
X1219Y117D01*
X0Y116D02*
X7Y116D01*
X1212Y116D02*
X1219Y116D01*
X0Y115D02*
X7Y115D01*
X1212Y115D02*
X1219Y115D01*
X0Y114D02*
X7Y114D01*
X1212Y114D02*
X1219Y114D01*
X0Y113D02*
X7Y113D01*
X1212Y113D02*
X1219Y113D01*
X0Y112D02*
X7Y112D01*
X1212Y112D02*
X1219Y112D01*
X0Y111D02*
X7Y111D01*
X1212Y111D02*
X1219Y111D01*
X0Y110D02*
X7Y110D01*
X1212Y110D02*
X1219Y110D01*
X0Y109D02*
X7Y109D01*
X1212Y109D02*
X1219Y109D01*
X0Y108D02*
X7Y108D01*
X1212Y108D02*
X1219Y108D01*
X0Y107D02*
X7Y107D01*
X1212Y107D02*
X1219Y107D01*
X0Y106D02*
X7Y106D01*
X1212Y106D02*
X1219Y106D01*
X0Y105D02*
X7Y105D01*
X1212Y105D02*
X1219Y105D01*
X0Y104D02*
X7Y104D01*
X1212Y104D02*
X1219Y104D01*
X0Y103D02*
X7Y103D01*
X1212Y103D02*
X1219Y103D01*
X0Y102D02*
X7Y102D01*
X1212Y102D02*
X1219Y102D01*
X0Y101D02*
X7Y101D01*
X1212Y101D02*
X1219Y101D01*
X0Y100D02*
X7Y100D01*
X1212Y100D02*
X1219Y100D01*
X0Y99D02*
X7Y99D01*
X1212Y99D02*
X1219Y99D01*
X0Y98D02*
X7Y98D01*
X1212Y98D02*
X1219Y98D01*
X0Y97D02*
X7Y97D01*
X1212Y97D02*
X1219Y97D01*
X0Y96D02*
X7Y96D01*
X1212Y96D02*
X1219Y96D01*
X0Y95D02*
X7Y95D01*
X1212Y95D02*
X1219Y95D01*
X0Y94D02*
X7Y94D01*
X1212Y94D02*
X1219Y94D01*
X0Y93D02*
X7Y93D01*
X1212Y93D02*
X1219Y93D01*
X0Y92D02*
X7Y92D01*
X1212Y92D02*
X1219Y92D01*
X0Y91D02*
X7Y91D01*
X1212Y91D02*
X1219Y91D01*
X0Y90D02*
X7Y90D01*
X1212Y90D02*
X1219Y90D01*
X0Y89D02*
X7Y89D01*
X1212Y89D02*
X1219Y89D01*
X0Y88D02*
X7Y88D01*
X1212Y88D02*
X1219Y88D01*
X0Y87D02*
X7Y87D01*
X1212Y87D02*
X1219Y87D01*
X0Y86D02*
X7Y86D01*
X1212Y86D02*
X1219Y86D01*
X0Y85D02*
X7Y85D01*
X1212Y85D02*
X1219Y85D01*
X0Y84D02*
X7Y84D01*
X1212Y84D02*
X1219Y84D01*
X0Y83D02*
X7Y83D01*
X1212Y83D02*
X1219Y83D01*
X0Y82D02*
X7Y82D01*
X1212Y82D02*
X1219Y82D01*
X0Y81D02*
X7Y81D01*
X1212Y81D02*
X1219Y81D01*
X0Y80D02*
X7Y80D01*
X1212Y80D02*
X1219Y80D01*
X0Y79D02*
X7Y79D01*
X1212Y79D02*
X1219Y79D01*
X0Y78D02*
X7Y78D01*
X1212Y78D02*
X1219Y78D01*
X0Y77D02*
X7Y77D01*
X1212Y77D02*
X1219Y77D01*
X0Y76D02*
X7Y76D01*
X1212Y76D02*
X1219Y76D01*
X0Y75D02*
X7Y75D01*
X1212Y75D02*
X1219Y75D01*
X0Y74D02*
X7Y74D01*
X1212Y74D02*
X1219Y74D01*
X0Y73D02*
X7Y73D01*
X1212Y73D02*
X1219Y73D01*
X0Y72D02*
X7Y72D01*
X1212Y72D02*
X1219Y72D01*
X0Y71D02*
X7Y71D01*
X1212Y71D02*
X1219Y71D01*
X0Y70D02*
X7Y70D01*
X1212Y70D02*
X1219Y70D01*
X0Y69D02*
X7Y69D01*
X1212Y69D02*
X1219Y69D01*
X0Y68D02*
X7Y68D01*
X1212Y68D02*
X1219Y68D01*
X0Y67D02*
X7Y67D01*
X1212Y67D02*
X1219Y67D01*
X0Y66D02*
X7Y66D01*
X1212Y66D02*
X1219Y66D01*
X0Y65D02*
X7Y65D01*
X1212Y65D02*
X1219Y65D01*
X0Y64D02*
X7Y64D01*
X1212Y64D02*
X1219Y64D01*
X0Y63D02*
X7Y63D01*
X1212Y63D02*
X1219Y63D01*
X0Y62D02*
X7Y62D01*
X1212Y62D02*
X1219Y62D01*
X0Y61D02*
X7Y61D01*
X1212Y61D02*
X1219Y61D01*
X0Y60D02*
X7Y60D01*
X1212Y60D02*
X1219Y60D01*
X0Y59D02*
X7Y59D01*
X1212Y59D02*
X1219Y59D01*
X0Y58D02*
X7Y58D01*
X1212Y58D02*
X1219Y58D01*
X0Y57D02*
X7Y57D01*
X1212Y57D02*
X1219Y57D01*
X0Y56D02*
X7Y56D01*
X1212Y56D02*
X1219Y56D01*
X0Y55D02*
X7Y55D01*
X1212Y55D02*
X1219Y55D01*
X0Y54D02*
X7Y54D01*
X1212Y54D02*
X1219Y54D01*
X0Y53D02*
X7Y53D01*
X1212Y53D02*
X1219Y53D01*
X0Y52D02*
X7Y52D01*
X1212Y52D02*
X1219Y52D01*
X0Y51D02*
X7Y51D01*
X1212Y51D02*
X1219Y51D01*
X0Y50D02*
X7Y50D01*
X1212Y50D02*
X1219Y50D01*
X0Y49D02*
X7Y49D01*
X1212Y49D02*
X1219Y49D01*
X0Y48D02*
X7Y48D01*
X1212Y48D02*
X1219Y48D01*
X0Y47D02*
X7Y47D01*
X1212Y47D02*
X1219Y47D01*
X0Y46D02*
X7Y46D01*
X1212Y46D02*
X1219Y46D01*
X0Y45D02*
X7Y45D01*
X1212Y45D02*
X1219Y45D01*
X0Y44D02*
X7Y44D01*
X1212Y44D02*
X1219Y44D01*
X0Y43D02*
X7Y43D01*
X1212Y43D02*
X1219Y43D01*
X0Y42D02*
X7Y42D01*
X1212Y42D02*
X1219Y42D01*
X0Y41D02*
X7Y41D01*
X1212Y41D02*
X1219Y41D01*
X0Y40D02*
X7Y40D01*
X1212Y40D02*
X1219Y40D01*
X0Y39D02*
X7Y39D01*
X1212Y39D02*
X1219Y39D01*
X0Y38D02*
X7Y38D01*
X1212Y38D02*
X1219Y38D01*
X0Y37D02*
X7Y37D01*
X1212Y37D02*
X1219Y37D01*
X0Y36D02*
X7Y36D01*
X1212Y36D02*
X1219Y36D01*
X0Y35D02*
X7Y35D01*
X1212Y35D02*
X1219Y35D01*
X0Y34D02*
X7Y34D01*
X1212Y34D02*
X1219Y34D01*
X0Y33D02*
X7Y33D01*
X1212Y33D02*
X1219Y33D01*
X0Y32D02*
X7Y32D01*
X1212Y32D02*
X1219Y32D01*
X0Y31D02*
X7Y31D01*
X1212Y31D02*
X1219Y31D01*
X0Y30D02*
X7Y30D01*
X1212Y30D02*
X1219Y30D01*
X0Y29D02*
X7Y29D01*
X1212Y29D02*
X1219Y29D01*
X0Y28D02*
X7Y28D01*
X1212Y28D02*
X1219Y28D01*
X0Y27D02*
X7Y27D01*
X1212Y27D02*
X1219Y27D01*
X0Y26D02*
X7Y26D01*
X1212Y26D02*
X1219Y26D01*
X0Y25D02*
X7Y25D01*
X1212Y25D02*
X1219Y25D01*
X0Y24D02*
X7Y24D01*
X1212Y24D02*
X1219Y24D01*
X0Y23D02*
X7Y23D01*
X1212Y23D02*
X1219Y23D01*
X0Y22D02*
X7Y22D01*
X1212Y22D02*
X1219Y22D01*
X0Y21D02*
X7Y21D01*
X1212Y21D02*
X1219Y21D01*
X0Y20D02*
X7Y20D01*
X1212Y20D02*
X1219Y20D01*
X0Y19D02*
X7Y19D01*
X1212Y19D02*
X1219Y19D01*
X0Y18D02*
X7Y18D01*
X1212Y18D02*
X1219Y18D01*
X0Y17D02*
X7Y17D01*
X1212Y17D02*
X1219Y17D01*
X0Y16D02*
X7Y16D01*
X1212Y16D02*
X1219Y16D01*
X0Y15D02*
X7Y15D01*
X1212Y15D02*
X1219Y15D01*
X0Y14D02*
X7Y14D01*
X1212Y14D02*
X1219Y14D01*
X0Y13D02*
X7Y13D01*
X1212Y13D02*
X1219Y13D01*
X0Y12D02*
X7Y12D01*
X1212Y12D02*
X1219Y12D01*
X0Y11D02*
X7Y11D01*
X1212Y11D02*
X1219Y11D01*
X0Y10D02*
X7Y10D01*
X1212Y10D02*
X1219Y10D01*
X0Y9D02*
X1219Y9D01*
X0Y8D02*
X1219Y8D01*
X0Y7D02*
X1219Y7D01*
X0Y6D02*
X1219Y6D01*
X0Y5D02*
X1219Y5D01*
X0Y4D02*
X1219Y4D01*
X0Y3D02*
X1219Y3D01*
X0Y2D02*
X1219Y2D01*
D02*
G04 End of Silk0*
M02*